<?xml version="1.0" encoding="utf-8"?>
<!-- Generator: Adobe Illustrator 27.0.0, SVG Export Plug-In . SVG Version: 6.00 Build 0)  -->
<svg version="1.1" id="Layer_1" xmlns="http://www.w3.org/2000/svg" xmlns:xlink="http://www.w3.org/1999/xlink" x="0px" y="0px"
	 viewBox="0 0 145 35" style="enable-background:new 0 0 145 35;" xml:space="preserve">
<style type="text/css">
	.st0{fill:#FFFFFF;}
</style>
<g>
	<path class="st0" d="M12.2,0.1c3.2,0,6.2,1.3,8.3,3.4c2.1,2.1,3.4,5,3.4,8.2v11.5c0,3.2-1.3,6.1-3.4,8.2c-2.1,2.1-5.1,3.4-8.3,3.4
		c-3.2,0-6.2-1.3-8.3-3.4c-2.1-2.1-3.4-5-3.4-8.2V11.7c0-3.2,1.3-6.1,3.4-8.2C6.1,1.4,9,0.1,12.2,0.1z M10.5,25.5
		c-2.8-0.2-3.7,0.4-4.6,1c-0.9,0.6-1.7,1.1-3.6,1.1c0.2,0.5,0.5,1,0.8,1.4c0.7-0.5,2-1.3,3.6-1.1C8.5,28,10.2,25.9,10.5,25.5z
		 M2,26.6c1.9,0.1,2.7-0.4,3.4-0.9c1-0.7,2.1-1.4,5.2-1.2l0-3.8c-0.9-1.6-2.4-2.6-4-3.2c-1.7-0.7-3.6-1-5.2-1.2v7
		C1.4,24.4,1.6,25.5,2,26.6z M13.8,24.5c3.1-0.2,4.2,0.5,5.2,1.2c0.8,0.5,1.5,1,3.4,0.9c0.3-1,0.5-2.2,0.5-3.3v-7
		c-1.7,0.2-3.5,0.5-5.2,1.2c-1.6,0.6-3.1,1.6-4,3.2L13.8,24.5z M22.1,27.5c-1.9,0-2.7-0.5-3.6-1.1c-0.9-0.6-1.8-1.2-4.6-1
		c0.3,0.5,2.1,2.6,3.8,2.4c1.6-0.2,2.9,0.6,3.6,1.1C21.6,28.5,21.9,28,22.1,27.5z M16.8,30.2c-0.8,0.4-1,1.6-1.1,2.6
		c0,0.2-0.1,0.5-0.1,0.7c0.7-0.2,1.4-0.6,2.1-0.9C17.4,31.8,17.1,31,16.8,30.2z M14.5,33.8c0.1-0.2,0.2-0.7,0.3-1.1
		c0.2-1.2,0.5-2.7,1.7-3.3c-0.2-0.4-0.3-0.7-0.4-0.9c-0.9-0.4-1.6-1.1-2.2-1.6l0.1,7C14.1,33.8,14.3,33.8,14.5,33.8z M8,29.3
		c1.2,0.6,1.5,2.1,1.7,3.3c0.1,0.5,0.2,0.9,0.3,1.1c0.2,0,0.3,0.1,0.5,0.1l0.1-7c-0.5,0.5-1.3,1.2-2.2,1.6C8.3,28.7,8.2,29,8,29.3z
		 M8.9,33.5c0-0.2-0.1-0.5-0.1-0.7c-0.2-1-0.4-2.1-1.1-2.6C7.3,31,7,31.8,6.8,32.5C7.5,32.9,8.2,33.2,8.9,33.5z M14,3.5
		c0,0-0.1-0.8-1.4-0.7C13.3,4,14,3.5,14,3.5z M10.4,3.5c0,0,0.1-0.8,1.4-0.7C11.1,4,10.4,3.5,10.4,3.5z M12.2,9.1c0,0,1.1-0.7,0-2.5
		C11.1,8.4,12.2,9.1,12.2,9.1z M8.8,19.1c0,0-0.1,1.5-2.4,1.4C7.5,18.4,8.8,19.1,8.8,19.1z M15.6,19.1c0,0,0.1,1.5,2.4,1.4
		C16.9,18.4,15.6,19.1,15.6,19.1z M18.8,5.4c0,0,1.1-0.7,2.3,1C19,6.8,18.8,5.4,18.8,5.4z M15.8,3.6c0,0,0.1-1.1,1.8-0.9
		C16.7,4.1,15.8,3.6,15.8,3.6z M8.7,3.6c0,0-0.1-1.1-1.8-0.9C7.8,4.1,8.7,3.6,8.7,3.6z M5.8,5.4c0,0-1.1-0.7-2.3,1
		C5.6,6.8,5.8,5.4,5.8,5.4z M5,13.2c0,0,0.6,1-1,1.9C3.9,13.3,5,13.2,5,13.2z M3.6,12.1c0,0-1.1,0-1.2-1.8C4,11,3.6,12.1,3.6,12.1z
		 M19.4,13.2c0,0-0.6,1,1,1.9C20.6,13.3,19.4,13.2,19.4,13.2z M20.9,12.1c0,0,1.1,0,1.2-1.8C20.4,11,20.9,12.1,20.9,12.1z
		 M16.4,11.3c0,0,0.6-1-1-1.9C15.2,11.2,16.4,11.3,16.4,11.3z M8.3,11.3c0,0-0.6-1,1-1.9C9.4,11.2,8.3,11.3,8.3,11.3z M14.2,7
		c0,0-1.3,0.1-1.5-2C14.7,5.7,14.2,7,14.2,7z M10,7c0,0,1.3,0.1,1.5-2C9.5,5.7,10,7,10,7z M16.8,16.4c0,0,1.7-0.6,0.9-3.3
		C15.6,15.1,16.8,16.4,16.8,16.4z M19.2,17.7c0,0,0.1,1.8,3,1.7C20.8,16.9,19.2,17.7,19.2,17.7z M7.2,16.4c0,0-1.7-0.6-0.9-3.3
		C8.5,15.1,7.2,16.4,7.2,16.4z M4.8,17.7c0,0-0.1,1.8-3,1.7C3.2,16.9,4.8,17.7,4.8,17.7z M13.8,19.1c1-1.2,2.3-1.9,3.7-2.5
		c1.8-0.7,3.8-1,5.6-1.3v-0.8c-0.6-0.8-1.5-1.1-2.5-1.3c-1.2-0.3-2.4-0.6-2.9-1.9c-1.6,1.5-3,3.8-3.9,7.5L13.8,19.1z M1.4,15.4
		c1.7,0.2,3.7,0.6,5.6,1.3c1.4,0.5,2.7,1.3,3.7,2.5l0-0.3c-0.9-3.7-2.3-6-3.9-7.5c-0.5,1.3-1.6,1.6-2.9,1.9C3,13.5,2,13.8,1.4,14.6
		L1.4,15.4z M17.2,28.8c0.4,0.9,0.9,2.1,1.2,3.2c0.5-0.4,1-0.7,1.4-1.2c0.3-0.3,0.7-0.7,1-1.1c-0.6-0.4-1.6-1.1-3-1
		C17.6,28.8,17.4,28.8,17.2,28.8z M6,32c0.3-1.1,0.9-2.4,1.2-3.2c-0.2,0-0.4,0-0.6,0c-1.4-0.1-2.4,0.5-3,1c0.3,0.4,0.6,0.8,1,1.1
		C5,31.3,5.5,31.7,6,32z M18.5,10.7c0.2,1.1,1.2,1.4,2.3,1.7c0.8,0.2,1.6,0.4,2.2,0.9v-1.6c0-1.1-0.2-2.1-0.4-3
		C21.2,9.1,19.8,9.7,18.5,10.7z M1.4,13.3c0.7-0.5,1.5-0.7,2.2-0.9c1.1-0.3,2.1-0.5,2.3-1.7c-1.3-1-2.8-1.6-4.1-2
		c-0.3,1-0.4,2-0.4,3V13.3z M13.7,15.8c1-2.5,2.2-4.1,3.6-5.3c0.8-0.7,1.7-1.3,2.6-1.7c-0.1,0-0.3,0-0.4-0.1c-1.5-0.2-3.3-0.5-5,0.9
		l0,0c-0.5,1.2-0.8,2.6-0.8,4.3L13.7,15.8z M4.6,8.8c0.9,0.4,1.7,1,2.6,1.7c1.4,1.2,2.6,2.9,3.6,5.3l0-2c0-1.8-0.3-3.2-0.8-4.4
		C8.3,8.2,6.5,8.5,5.1,8.7C4.9,8.7,4.7,8.7,4.6,8.8z M14.4,1.2c-0.2,0.8,0.4,1.4,1,2.1c0.5,0.6,1.1,1.2,1.3,2
		c0.8-0.6,1.7-1.1,2.6-1.6C18,2.5,16.3,1.6,14.4,1.2z M15.9,6c-0.1-0.8-0.6-1.5-1.2-2.1c-0.8-0.9-1.5-1.7-1.2-2.9
		C13.1,1,12.7,1,12.2,1c-0.4,0-0.9,0-1.3,0.1c0.3,1.2-0.4,2-1.2,2.9C9.2,4.6,8.6,5.2,8.5,6c0.4,0.3,0.7,0.7,1,1.1
		c0.4,0.5,0.8,1.1,1.1,1.7c0,0,0,0,0,0l0,0c0.6,1.3,1,3,1,5L11.4,34c0.3,0,0.5,0,0.8,0c0.3,0,0.5,0,0.8,0l-0.2-20.1
		c0-3,0.8-5.1,2.1-6.7C15.2,6.7,15.5,6.4,15.9,6z M7.7,5.3c0.2-0.8,0.8-1.4,1.3-2c0.6-0.7,1.2-1.3,1-2.1C8.1,1.6,6.4,2.5,5.1,3.7
		C6,4.2,6.9,4.7,7.7,5.3z M15.4,8c1.5-0.6,3-0.4,4.2-0.2c1.1,0.2,2,0.3,2.5-0.4c-0.5-1.1-1.2-2.1-2-3c-1.8,0.9-3.3,1.9-4.5,3.3
		C15.5,7.8,15.4,7.9,15.4,8z M2.4,7.3C2.8,8.1,3.8,7.9,5,7.8c1.2-0.2,2.6-0.4,4,0.1C9,7.8,8.9,7.8,8.8,7.7C7.7,6.3,6.2,5.3,4.4,4.4
		C3.6,5.2,2.9,6.2,2.4,7.3z"/>
	<g>
		<path class="st0" d="M35.9,30.2l3.9-25.7h3.6l4.3,25.7h-2.9l-0.7-4.9h-4.7l-0.7,4.9H35.9z M39.8,22.9h4l-2-13.6h0L39.8,22.9z"/>
		<path class="st0" d="M55.2,30.2V4.6h5.4c1.4,0,2.4,0.2,3,0.7c0.7,0.5,1.1,1.2,1.3,2.2c0.2,1,0.3,2.2,0.3,3.6
			c0,1.6-0.2,2.8-0.5,3.8c-0.3,0.9-0.9,1.5-1.9,1.8c0.5,0.1,0.9,0.3,1.2,0.6c0.3,0.3,0.6,0.8,0.7,1.5c0.2,0.7,0.3,1.6,0.4,2.7
			c0.1,1.1,0.1,2.6,0.1,4.3v0.7c0,0.3,0,0.7,0,1c0,0.4,0,0.7,0,1.1c0,0.4,0,0.7,0.1,1c0,0.3,0.1,0.5,0.1,0.6h-3
			c0-0.1-0.1-0.3-0.1-0.6c0-0.3-0.1-0.7-0.1-1.2c0-0.5,0-1.1,0-1.8c0-0.7,0-1.5,0-2.3c0-0.9,0-1.8,0-2.8c0-1,0-1.7-0.1-2.2
			c-0.1-0.5-0.3-0.9-0.6-1.1C61.2,18.1,60.7,18,60,18l-1.8-0.1v12.4H55.2z M58.2,15.6h1.9c0.6,0,1-0.1,1.3-0.3
			c0.3-0.2,0.5-0.7,0.6-1.3c0.1-0.7,0.2-1.6,0.2-3v-0.2c0-1.1-0.1-1.9-0.2-2.5c-0.1-0.6-0.3-0.9-0.6-1.1C61.1,7.1,60.7,7,60.1,7
			h-1.9L58.2,15.6z"/>
		<path class="st0" d="M74.6,30.2V7.1h-2.8V4.6h8.5v2.5h-2.7v23.1H74.6z"/>
		<path class="st0" d="M87.4,30.2V4.6h3v25.7H87.4z"/>
		<path class="st0" d="M103.4,30.5c-1,0-1.9-0.2-2.5-0.6c-0.7-0.4-1.2-0.9-1.5-1.6c-0.4-0.7-0.6-1.5-0.7-2.4c-0.1-0.9-0.2-2-0.2-3.1
			v-2.5h2.9v2.6c0,1.8,0.1,3.1,0.4,3.9c0.3,0.8,0.8,1.2,1.7,1.2c0.6,0,1-0.1,1.3-0.4c0.3-0.3,0.5-0.7,0.5-1.3
			c0.1-0.6,0.1-1.4,0.1-2.4c0-1.1-0.2-2.1-0.6-3c-0.4-0.8-1-1.6-1.7-2.4l-1.7-1.7c-0.5-0.5-1-1-1.4-1.6c-0.5-0.6-0.9-1.3-1.2-2
			c-0.3-0.7-0.5-1.6-0.5-2.6c0-1.3,0.1-2.4,0.4-3.4c0.3-0.9,0.8-1.7,1.5-2.2s1.7-0.8,3.1-0.8c1,0,1.9,0.2,2.5,0.5
			c0.6,0.4,1.1,0.9,1.4,1.5c0.3,0.7,0.5,1.4,0.6,2.4c0.1,0.9,0.2,1.9,0.2,3v1.5h-2.9v-1.7c0-1,0-1.9-0.1-2.6
			c-0.1-0.7-0.2-1.2-0.5-1.6c-0.3-0.3-0.6-0.5-1.2-0.5c-0.5,0-0.9,0.1-1.2,0.4c-0.3,0.2-0.5,0.6-0.7,1.1c-0.1,0.5-0.2,1.1-0.2,1.9
			c0,0.7,0.1,1.2,0.2,1.7c0.2,0.4,0.4,0.8,0.7,1.2c0.3,0.4,0.8,0.8,1.2,1.3l1.8,1.9c0.9,1,1.7,2,2.3,3.2c0.6,1.2,0.9,2.6,0.9,4.1
			c0,1.4-0.1,2.6-0.4,3.7c-0.3,1-0.8,1.8-1.5,2.4C105.7,30.3,104.7,30.5,103.4,30.5L103.4,30.5z"/>
		<path class="st0" d="M114.6,30.2l3.9-25.7h3.6l4.3,25.7h-2.9l-0.7-4.9h-4.7l-0.7,4.9H114.6z M118.5,22.9h4l-2-13.6h0L118.5,22.9z"
			/>
		<path class="st0" d="M133.9,30.2V4.6h2.3l6,17.5l-0.3-7.4v-10h2.7v25.7h-2.2l-5.8-17.6l0.2,6.5v11.1H133.9z"/>
	</g>
</g>
</svg>
