<?xml version="1.0" encoding="utf-8"?>
<!-- Generator: Adobe Illustrator 24.1.1, SVG Export Plug-In . SVG Version: 6.00 Build 0)  -->
<svg version="1.1" id="Layer_1" xmlns="http://www.w3.org/2000/svg" xmlns:xlink="http://www.w3.org/1999/xlink" x="0px" y="0px"
	 viewBox="0 0 157 35" style="enable-background:new 0 0 157 35;" xml:space="preserve">
<style type="text/css">
	.st0{fill:#FFFFFF;}
</style>
<g>
	<path class="st0" d="M0.9,0.6h12.2v0.8H10l6.9,22.8c1.1-3.1,1.9-5.8,2.7-8c0.7-2.2,1.3-4.1,1.8-5.6c0.5-1.5,0.9-2.7,1.2-3.6
		c0.3-0.9,0.5-1.6,0.6-2.2c0.1-0.5,0.2-0.9,0.2-1.2c0-0.2,0-0.5,0-0.6c0-0.4-0.1-0.8-0.4-1c-0.2-0.2-0.6-0.4-0.9-0.5
		c-0.4-0.1-0.8-0.1-1.2-0.1c-0.4,0-0.8,0-1.1,0h-0.1V0.6h9.1v0.8h-0.4c-0.8,0-1.4,0-1.8,0.1c-0.4,0-0.8,0.2-1,0.4
		c-0.3,0.2-0.5,0.6-0.7,1.2c-0.2,0.5-0.4,1.3-0.7,2.2L14.4,35L3.6,1.5H0.9V0.6z"/>
	<path class="st0" d="M32,0.6h12.3v0.8h-3.6v31.4h3.6v0.8H32v-0.8h3.1V1.5H32V0.6z"/>
	<path class="st0" d="M51.2,21.9H52c0.1,1.7,0.4,3.2,0.8,4.6c0.4,1.4,1,2.6,1.7,3.5c0.7,1,1.7,1.8,2.8,2.3c1.1,0.5,2.5,0.8,4,0.8
		c1,0,1.8-0.1,2.6-0.4c0.8-0.3,1.4-0.7,1.9-1.3c0.5-0.5,0.9-1.2,1-2c0.2-0.8,0.2-1.6-0.1-2.5c-0.3-1-0.9-1.7-1.9-2.3
		c-1-0.6-2.2-1.2-3.5-1.8c-1.2-0.5-2.3-1.1-3.5-1.7c-1.2-0.6-2.3-1.4-3.3-2.4c-1-0.9-1.9-2.1-2.5-3.4c-0.6-1.3-1-2.9-1-4.9
		c0-0.3,0-0.6,0-1c0-0.4,0.1-0.7,0.1-1.1c0.4-2.7,1.3-4.7,2.7-6c1.5-1.3,3.4-2,5.9-2.2c1.4,0,2.5,0.2,3.5,0.6
		c0.9,0.5,1.7,0.9,2.3,1.3C66,2.7,66.5,3,66.9,3c0.5,0,0.7-0.2,0.8-0.7c0.1-0.4,0.1-0.9,0.1-1.3h0.8v10h-0.8c-0.2-1.5-0.5-2.8-0.9-4
		c-0.4-1.2-0.9-2.2-1.6-3.1c-0.6-0.8-1.4-1.5-2.4-2c-0.9-0.5-2-0.7-3.3-0.7c-0.9,0-1.7,0.1-2.5,0.3c-0.8,0.2-1.5,0.6-2.1,1.1
		c-0.6,0.5-1,1.1-1.3,1.9c-0.3,0.8-0.4,1.7-0.4,2.7c0.1,0.9,0.3,1.7,0.7,2.3c0.4,0.6,0.9,1.2,1.5,1.7c0.6,0.5,1.3,0.9,2.1,1.3
		c0.8,0.4,1.6,0.7,2.5,1c1.1,0.4,2.2,0.9,3.3,1.5c1.1,0.5,2.1,1.2,3.1,2c0.9,0.8,1.7,1.8,2.4,2.9c0.6,1.2,1,2.6,1.2,4.2
		c0.1,1.5-0.1,2.9-0.6,4.1c-0.4,1.2-1.1,2.3-1.9,3.2c-0.8,0.9-1.8,1.6-2.9,2.1c-1.1,0.5-2.4,0.7-3.7,0.7c-1.3,0-2.4-0.2-3.4-0.6
		c-1-0.4-1.9-0.8-2.6-1.1c-0.4-0.2-0.8-0.4-1.1-0.6c-0.3-0.1-0.7-0.2-1-0.2c-0.4,0-0.6,0.3-0.8,0.8c-0.1,0.5-0.2,1-0.3,1.4h-0.7
		V21.9z"/>
	<path class="st0" d="M76.5,0.6h12.3v0.8h-3.6v31.4h3.6v0.8H76.5v-0.8h3.1V1.5h-3.1V0.6z"/>
	<path class="st0" d="M108.1,0c1.9,0,3.6,0.5,5.2,1.5c1.6,1,2.9,2.3,4.1,4s2,3.5,2.7,5.6c0.6,2.1,0.9,4.1,0.9,6.2
		c0,2.1-0.3,4.2-0.9,6.2c-0.6,2-1.5,3.9-2.7,5.5c-1.1,1.6-2.5,2.9-4.1,3.9c-1.6,1-3.3,1.5-5.2,1.5c-1.9,0-3.7-0.5-5.3-1.5
		c-1.6-1-2.9-2.3-4.1-4c-1.1-1.7-2-3.5-2.6-5.6c-0.6-2.1-0.9-4.2-0.9-6.3c0-2,0.3-4.1,1-6.1c0.7-2,1.6-3.8,2.8-5.4
		c1.2-1.6,2.5-2.9,4.1-3.9C104.7,0.5,106.3,0,108.1,0z M108.2,0.8c-1.1,0-2,0.3-2.7,0.8c-0.8,0.5-1.4,1.3-1.9,2.2
		c-0.5,0.9-1,1.9-1.3,3.1c-0.3,1.1-0.6,2.3-0.7,3.5c-0.2,1.2-0.3,2.4-0.4,3.6c-0.1,1.2-0.1,2.2-0.1,3.1c0,1,0,2,0.1,3.2
		c0,1.2,0.2,2.4,0.3,3.6c0.2,1.2,0.4,2.4,0.7,3.5c0.3,1.2,0.7,2.2,1.2,3.1c0.5,0.9,1.1,1.6,1.9,2.2c0.8,0.5,1.7,0.8,2.8,0.8
		c1.1,0,2-0.3,2.8-0.8c0.8-0.6,1.4-1.3,1.9-2.2c0.5-0.9,0.9-1.9,1.1-3.1c0.3-1.2,0.5-2.4,0.6-3.6c0.1-1.2,0.2-2.4,0.2-3.6
		c0-1.2,0-2.2,0-3.1c0-0.8,0-1.8-0.1-2.9c0-1.1-0.2-2.3-0.3-3.5c-0.2-1.2-0.4-2.4-0.7-3.6c-0.3-1.2-0.7-2.2-1.2-3.2
		c-0.5-0.9-1.1-1.7-1.8-2.3C110.1,1.1,109.2,0.8,108.2,0.8z"/>
	<path class="st0" d="M126.7,32.9c1,0,1.8,0,2.3-0.1c0.6,0,1-0.2,1.2-0.5c0.2-0.3,0.4-0.7,0.4-1.3c0-0.6,0.1-1.4,0.1-2.5V2.1
		l-0.6-0.6h-3.4V0.6h10l14.4,23.6V5.6c0-1.1,0-1.9-0.1-2.4c0-0.6-0.2-1-0.4-1.2c-0.2-0.2-0.5-0.4-0.9-0.4c-0.4,0-0.9,0-1.6,0h-1.1
		V0.6h9v0.8h-1.1c-0.7,0-1.2,0-1.6,0c-0.4,0-0.7,0.2-0.9,0.4c-0.2,0.2-0.3,0.7-0.4,1.2c0,0.6-0.1,1.4-0.1,2.4V34h-2.5L131.7,4.5
		v23.2c0,1.3,0,2.3,0,3c0,0.7,0.2,1.2,0.4,1.5c0.2,0.3,0.7,0.5,1.2,0.5c0.6,0,1.4,0.1,2.4,0.1v0.8h-9.1V32.9z"/>
</g>
</svg>
