<?xml version="1.0" encoding="utf-8"?>
<!-- Generator: Adobe Illustrator 24.1.1, SVG Export Plug-In . SVG Version: 6.00 Build 0)  -->
<svg version="1.1" id="Layer_1" xmlns="http://www.w3.org/2000/svg" xmlns:xlink="http://www.w3.org/1999/xlink" x="0px" y="0px"
	 viewBox="0 0 58 35" style="enable-background:new 0 0 58 35;" xml:space="preserve">
<style type="text/css">
	.st0{fill:#FFFFFF;}
</style>
<g>
	<g>
		<path class="st0" d="M30.1,24.3c0-0.4-0.1-0.8-0.1-1.2c-0.1-0.4-0.1-0.8-0.2-1.3c-0.1-0.4-0.2-0.8-0.4-1.1
			c-0.2-0.3-0.4-0.6-0.6-0.8c-0.2-0.2-0.5-0.3-0.9-0.3c-0.4,0-0.7,0.1-1,0.3c-0.3,0.2-0.5,0.5-0.7,0.8c-0.2,0.3-0.3,0.7-0.5,1.1
			c-0.1,0.4-0.2,0.8-0.3,1.3c-0.1,0.4-0.1,0.9-0.1,1.3c0,0.4,0,0.8,0,1.1c0,0.3,0,0.7,0,1.1c0,0.4,0.1,0.8,0.1,1.3
			c0.1,0.4,0.1,0.8,0.3,1.3c0.1,0.4,0.2,0.8,0.4,1.1c0.2,0.3,0.4,0.6,0.7,0.8c0.3,0.2,0.6,0.3,1,0.3c0.4,0,0.7-0.1,1-0.3
			c0.3-0.2,0.5-0.5,0.7-0.8c0.2-0.3,0.3-0.7,0.4-1.1c0.1-0.4,0.2-0.8,0.2-1.3c0-0.4,0.1-0.9,0.1-1.3c0-0.4,0-0.8,0-1.1
			C30.1,25.1,30.1,24.7,30.1,24.3z M30.1,24.3c0-0.4-0.1-0.8-0.1-1.2c-0.1-0.4-0.1-0.8-0.2-1.3c-0.1-0.4-0.2-0.8-0.4-1.1
			c-0.2-0.3-0.4-0.6-0.6-0.8c-0.2-0.2-0.5-0.3-0.9-0.3c-0.4,0-0.7,0.1-1,0.3c-0.3,0.2-0.5,0.5-0.7,0.8c-0.2,0.3-0.3,0.7-0.5,1.1
			c-0.1,0.4-0.2,0.8-0.3,1.3c-0.1,0.4-0.1,0.9-0.1,1.3c0,0.4,0,0.8,0,1.1c0,0.3,0,0.7,0,1.1c0,0.4,0.1,0.8,0.1,1.3
			c0.1,0.4,0.1,0.8,0.3,1.3c0.1,0.4,0.2,0.8,0.4,1.1c0.2,0.3,0.4,0.6,0.7,0.8c0.3,0.2,0.6,0.3,1,0.3c0.4,0,0.7-0.1,1-0.3
			c0.3-0.2,0.5-0.5,0.7-0.8c0.2-0.3,0.3-0.7,0.4-1.1c0.1-0.4,0.2-0.8,0.2-1.3c0-0.4,0.1-0.9,0.1-1.3c0-0.4,0-0.8,0-1.1
			C30.1,25.1,30.1,24.7,30.1,24.3z M30.1,24.3c0-0.4-0.1-0.8-0.1-1.2c-0.1-0.4-0.1-0.8-0.2-1.3c-0.1-0.4-0.2-0.8-0.4-1.1
			c-0.2-0.3-0.4-0.6-0.6-0.8c-0.2-0.2-0.5-0.3-0.9-0.3c-0.4,0-0.7,0.1-1,0.3c-0.3,0.2-0.5,0.5-0.7,0.8c-0.2,0.3-0.3,0.7-0.5,1.1
			c-0.1,0.4-0.2,0.8-0.3,1.3c-0.1,0.4-0.1,0.9-0.1,1.3c0,0.4,0,0.8,0,1.1c0,0.3,0,0.7,0,1.1c0,0.4,0.1,0.8,0.1,1.3
			c0.1,0.4,0.1,0.8,0.3,1.3c0.1,0.4,0.2,0.8,0.4,1.1c0.2,0.3,0.4,0.6,0.7,0.8c0.3,0.2,0.6,0.3,1,0.3c0.4,0,0.7-0.1,1-0.3
			c0.3-0.2,0.5-0.5,0.7-0.8c0.2-0.3,0.3-0.7,0.4-1.1c0.1-0.4,0.2-0.8,0.2-1.3c0-0.4,0.1-0.9,0.1-1.3c0-0.4,0-0.8,0-1.1
			C30.1,25.1,30.1,24.7,30.1,24.3z M39.3,21.1c-0.1-0.3-0.3-0.6-0.6-0.8c-0.2-0.2-0.5-0.3-0.9-0.4c-0.3-0.1-0.7-0.1-1.1-0.1h-0.5V25
			h0.6c0.3,0,0.7-0.1,1-0.1c0.3-0.1,0.6-0.2,0.9-0.5c0.2-0.2,0.4-0.5,0.6-0.8c0.2-0.3,0.2-0.7,0.2-1.2
			C39.5,21.9,39.5,21.5,39.3,21.1z M39.3,21.1c-0.1-0.3-0.3-0.6-0.6-0.8c-0.2-0.2-0.5-0.3-0.9-0.4c-0.3-0.1-0.7-0.1-1.1-0.1h-0.5V25
			h0.6c0.3,0,0.7-0.1,1-0.1c0.3-0.1,0.6-0.2,0.9-0.5c0.2-0.2,0.4-0.5,0.6-0.8c0.2-0.3,0.2-0.7,0.2-1.2
			C39.5,21.9,39.5,21.5,39.3,21.1z M30.1,24.3c0-0.4-0.1-0.8-0.1-1.2c-0.1-0.4-0.1-0.8-0.2-1.3c-0.1-0.4-0.2-0.8-0.4-1.1
			c-0.2-0.3-0.4-0.6-0.6-0.8c-0.2-0.2-0.5-0.3-0.9-0.3c-0.4,0-0.7,0.1-1,0.3c-0.3,0.2-0.5,0.5-0.7,0.8c-0.2,0.3-0.3,0.7-0.5,1.1
			c-0.1,0.4-0.2,0.8-0.3,1.3c-0.1,0.4-0.1,0.9-0.1,1.3c0,0.4,0,0.8,0,1.1c0,0.3,0,0.7,0,1.1c0,0.4,0.1,0.8,0.1,1.3
			c0.1,0.4,0.1,0.8,0.3,1.3c0.1,0.4,0.2,0.8,0.4,1.1c0.2,0.3,0.4,0.6,0.7,0.8c0.3,0.2,0.6,0.3,1,0.3c0.4,0,0.7-0.1,1-0.3
			c0.3-0.2,0.5-0.5,0.7-0.8c0.2-0.3,0.3-0.7,0.4-1.1c0.1-0.4,0.2-0.8,0.2-1.3c0-0.4,0.1-0.9,0.1-1.3c0-0.4,0-0.8,0-1.1
			C30.1,25.1,30.1,24.7,30.1,24.3z M0.3,17.5v16.9h57.4V17.5H0.3z M57.6,34.3H0.4V17.6h57.1V34.3z M37.8,24.9
			c0.3-0.1,0.6-0.2,0.9-0.5c0.2-0.2,0.4-0.5,0.6-0.8c0.2-0.3,0.2-0.7,0.2-1.2c0-0.5-0.1-1-0.2-1.3c-0.1-0.3-0.3-0.6-0.6-0.8
			c-0.2-0.2-0.5-0.3-0.9-0.4c-0.3-0.1-0.7-0.1-1.1-0.1h-0.5V25h0.6C37.2,25,37.5,25,37.8,24.9z M25.4,27.8c0.1,0.4,0.1,0.8,0.3,1.3
			c0.1,0.4,0.2,0.8,0.4,1.1c0.2,0.3,0.4,0.6,0.7,0.8c0.3,0.2,0.6,0.3,1,0.3c0.4,0,0.7-0.1,1-0.3c0.3-0.2,0.5-0.5,0.7-0.8
			c0.2-0.3,0.3-0.7,0.4-1.1c0.1-0.4,0.2-0.8,0.2-1.3c0-0.4,0.1-0.9,0.1-1.3c0-0.4,0-0.8,0-1.1c0-0.3,0-0.6,0-1
			c0-0.4-0.1-0.8-0.1-1.2c-0.1-0.4-0.1-0.8-0.2-1.3c-0.1-0.4-0.2-0.8-0.4-1.1c-0.2-0.3-0.4-0.6-0.6-0.8c-0.2-0.2-0.5-0.3-0.9-0.3
			c-0.4,0-0.7,0.1-1,0.3c-0.3,0.2-0.5,0.5-0.7,0.8c-0.2,0.3-0.3,0.7-0.5,1.1c-0.1,0.4-0.2,0.8-0.3,1.3c-0.1,0.4-0.1,0.9-0.1,1.3
			c0,0.4,0,0.8,0,1.1c0,0.3,0,0.7,0,1.1C25.3,26.9,25.3,27.4,25.4,27.8z M30.1,24.3c0-0.4-0.1-0.8-0.1-1.2c-0.1-0.4-0.1-0.8-0.2-1.3
			c-0.1-0.4-0.2-0.8-0.4-1.1c-0.2-0.3-0.4-0.6-0.6-0.8c-0.2-0.2-0.5-0.3-0.9-0.3c-0.4,0-0.7,0.1-1,0.3c-0.3,0.2-0.5,0.5-0.7,0.8
			c-0.2,0.3-0.3,0.7-0.5,1.1c-0.1,0.4-0.2,0.8-0.3,1.3c-0.1,0.4-0.1,0.9-0.1,1.3c0,0.4,0,0.8,0,1.1c0,0.3,0,0.7,0,1.1
			c0,0.4,0.1,0.8,0.1,1.3c0.1,0.4,0.1,0.8,0.3,1.3c0.1,0.4,0.2,0.8,0.4,1.1c0.2,0.3,0.4,0.6,0.7,0.8c0.3,0.2,0.6,0.3,1,0.3
			c0.4,0,0.7-0.1,1-0.3c0.3-0.2,0.5-0.5,0.7-0.8c0.2-0.3,0.3-0.7,0.4-1.1c0.1-0.4,0.2-0.8,0.2-1.3c0-0.4,0.1-0.9,0.1-1.3
			c0-0.4,0-0.8,0-1.1C30.1,25.1,30.1,24.7,30.1,24.3z M39.3,21.1c-0.1-0.3-0.3-0.6-0.6-0.8c-0.2-0.2-0.5-0.3-0.9-0.4
			c-0.3-0.1-0.7-0.1-1.1-0.1h-0.5V25h0.6c0.3,0,0.7-0.1,1-0.1c0.3-0.1,0.6-0.2,0.9-0.5c0.2-0.2,0.4-0.5,0.6-0.8
			c0.2-0.3,0.2-0.7,0.2-1.2C39.5,21.9,39.5,21.5,39.3,21.1z M39.3,21.1c-0.1-0.3-0.3-0.6-0.6-0.8c-0.2-0.2-0.5-0.3-0.9-0.4
			c-0.3-0.1-0.7-0.1-1.1-0.1h-0.5V25h0.6c0.3,0,0.7-0.1,1-0.1c0.3-0.1,0.6-0.2,0.9-0.5c0.2-0.2,0.4-0.5,0.6-0.8
			c0.2-0.3,0.2-0.7,0.2-1.2C39.5,21.9,39.5,21.5,39.3,21.1z M30.1,24.3c0-0.4-0.1-0.8-0.1-1.2c-0.1-0.4-0.1-0.8-0.2-1.3
			c-0.1-0.4-0.2-0.8-0.4-1.1c-0.2-0.3-0.4-0.6-0.6-0.8c-0.2-0.2-0.5-0.3-0.9-0.3c-0.4,0-0.7,0.1-1,0.3c-0.3,0.2-0.5,0.5-0.7,0.8
			c-0.2,0.3-0.3,0.7-0.5,1.1c-0.1,0.4-0.2,0.8-0.3,1.3c-0.1,0.4-0.1,0.9-0.1,1.3c0,0.4,0,0.8,0,1.1c0,0.3,0,0.7,0,1.1
			c0,0.4,0.1,0.8,0.1,1.3c0.1,0.4,0.1,0.8,0.3,1.3c0.1,0.4,0.2,0.8,0.4,1.1c0.2,0.3,0.4,0.6,0.7,0.8c0.3,0.2,0.6,0.3,1,0.3
			c0.4,0,0.7-0.1,1-0.3c0.3-0.2,0.5-0.5,0.7-0.8c0.2-0.3,0.3-0.7,0.4-1.1c0.1-0.4,0.2-0.8,0.2-1.3c0-0.4,0.1-0.9,0.1-1.3
			c0-0.4,0-0.8,0-1.1C30.1,25.1,30.1,24.7,30.1,24.3z"/>
	</g>
	<g>
		<path class="st0" d="M0.2,17.3v17.2h57.6V17.3H0.2z M57.6,34.3H0.4V17.6h57.1V34.3z"/>
	</g>
	<g>
		<path class="st0" d="M0.4,17.6v16.7h57.1V17.6H0.4z M12.3,29.4c-0.2,0.4-0.4,0.8-0.7,1.1c-0.3,0.3-0.6,0.6-1,0.7
			c-0.4,0.2-0.8,0.3-1.3,0.3c-0.5,0-0.9-0.1-1.2-0.2c-0.4-0.1-0.7-0.3-0.9-0.4c-0.1-0.1-0.3-0.1-0.4-0.2c-0.1-0.1-0.2-0.1-0.4-0.1
			c-0.1,0-0.2,0.1-0.3,0.3C6.1,31.1,6,31.3,6,31.4H5.7v-4.3H6c0,0.6,0.1,1.1,0.3,1.6c0.1,0.5,0.3,0.9,0.6,1.3c0.3,0.4,0.6,0.6,1,0.8
			c0.4,0.2,0.9,0.3,1.4,0.3c0.3,0,0.6-0.1,0.9-0.2c0.3-0.1,0.5-0.3,0.7-0.5c0.2-0.2,0.3-0.4,0.4-0.7c0.1-0.3,0.1-0.6,0-0.9
			c-0.1-0.3-0.3-0.6-0.7-0.8c-0.4-0.2-0.8-0.4-1.3-0.7c-0.4-0.2-0.8-0.4-1.3-0.6c-0.4-0.2-0.8-0.5-1.2-0.8c-0.4-0.3-0.7-0.7-0.9-1.2
			c-0.2-0.5-0.3-1-0.3-1.7c0-0.1,0-0.2,0-0.4s0-0.3,0-0.4c0.1-1,0.5-1.7,1-2.1s1.2-0.7,2.1-0.8c0.5,0,0.9,0.1,1.2,0.2
			c0.3,0.2,0.6,0.3,0.8,0.5c0.2,0.2,0.4,0.3,0.5,0.3c0.2,0,0.3-0.1,0.3-0.2c0-0.2,0.1-0.3,0.1-0.5H12v3.5h-0.3
			c-0.1-0.5-0.2-1-0.3-1.4c-0.1-0.4-0.3-0.8-0.6-1.1c-0.2-0.3-0.5-0.5-0.8-0.7c-0.3-0.2-0.7-0.2-1.2-0.2c-0.3,0-0.6,0-0.9,0.1
			c-0.3,0.1-0.5,0.2-0.7,0.4c-0.2,0.2-0.4,0.4-0.5,0.7c-0.1,0.3-0.2,0.6-0.1,1c0,0.3,0.1,0.6,0.3,0.8c0.1,0.2,0.3,0.4,0.5,0.6
			c0.2,0.2,0.5,0.3,0.8,0.5C8.4,23.9,8.6,24,9,24.1c0.4,0.2,0.8,0.3,1.2,0.5c0.4,0.2,0.8,0.4,1.1,0.7c0.3,0.3,0.6,0.6,0.8,1
			c0.2,0.4,0.4,0.9,0.4,1.5C12.5,28.5,12.5,29,12.3,29.4z M22,23.1c0-0.7,0-1.3-0.1-1.7c-0.1-0.4-0.3-0.8-0.5-1
			c-0.2-0.2-0.5-0.4-0.9-0.4c-0.4-0.1-0.9-0.1-1.5-0.1V31h1.2v0.3h-4.5V31h1.3V19.8h-0.3c-0.6,0-1,0-1.4,0.1
			c-0.4,0.1-0.7,0.3-0.9,0.5c-0.2,0.2-0.4,0.6-0.5,1c-0.1,0.4-0.1,1-0.1,1.6h-0.3c0-0.6,0-1.2,0-1.8c0-0.6,0-1.2,0-1.8h8.7
			c0,0.6,0,1.2,0,1.8c0,0.6,0,1.2,0,1.8H22z M32,27.6c-0.2,0.7-0.5,1.4-0.9,1.9c-0.4,0.6-0.9,1-1.4,1.4c-0.6,0.4-1.2,0.5-1.8,0.5
			c-0.7,0-1.3-0.2-1.9-0.5c-0.6-0.4-1-0.8-1.4-1.4c-0.4-0.6-0.7-1.3-0.9-2c-0.2-0.7-0.3-1.5-0.3-2.3c0-0.7,0.1-1.4,0.4-2.2
			c0.2-0.7,0.6-1.4,1-1.9c0.4-0.6,0.9-1,1.4-1.4c0.6-0.4,1.2-0.5,1.8-0.5c0.7,0,1.3,0.2,1.8,0.5c0.6,0.4,1,0.8,1.4,1.4
			c0.4,0.6,0.7,1.2,0.9,2c0.2,0.7,0.3,1.5,0.3,2.2C32.3,26.2,32.2,26.9,32,27.6z M42.3,31.4c-0.2,0-0.4,0.1-0.6,0.1
			c-0.5,0-0.9-0.1-1.2-0.2c-0.3-0.2-0.5-0.4-0.7-0.6c-0.2-0.3-0.3-0.6-0.3-1c-0.1-0.4-0.1-0.8-0.1-1.3c0-0.1,0-0.3,0-0.4
			c0-0.2,0-0.3-0.1-0.5c-0.1-0.5-0.2-0.9-0.4-1.2c-0.2-0.3-0.4-0.5-0.7-0.6c-0.3-0.1-0.6-0.2-0.9-0.3c-0.3,0-0.7,0-1,0V31h1.1v0.3
			h-4V31h1V19.8h-1v-0.3h5.1c0.4,0,0.8,0,1.1,0.1c0.4,0.1,0.7,0.3,1,0.5c0.3,0.2,0.5,0.5,0.7,0.9c0.2,0.4,0.3,0.8,0.3,1.4
			c0,0.4-0.1,0.8-0.2,1.1c-0.1,0.3-0.3,0.6-0.5,0.8c-0.2,0.2-0.5,0.4-0.7,0.5c-0.3,0.1-0.6,0.2-0.9,0.3v0.2c0.5,0.1,0.9,0.3,1.2,0.6
			c0.3,0.3,0.5,0.6,0.6,1c0.1,0.4,0.2,0.7,0.3,1.2c0,0.4,0.1,0.8,0.1,1.2c0,0.3,0,0.5,0,0.7c0,0.2,0.1,0.4,0.1,0.6
			c0,0.2,0.1,0.3,0.2,0.4c0.1,0.1,0.2,0.2,0.4,0.2c0.1,0,0.2,0,0.3,0c0.1,0,0.2-0.1,0.3-0.1c0,0,0,0,0,0l0.1,0.3
			C42.7,31.3,42.5,31.3,42.3,31.4z M52.2,19.8h-0.4c-0.2,0-0.3,0-0.4,0c-0.1,0-0.2,0.1-0.3,0.2c-0.1,0.1-0.2,0.2-0.2,0.4
			c-0.1,0.2-0.2,0.4-0.3,0.6l-2.2,5.6V31h1.1v0.3h-4.1V31h1.1v-4l-2.8-7.2h-0.9v-0.3H47v0.3h-1.1l2.3,6.1l1.7-4.2
			c0-0.1,0.1-0.2,0.1-0.3c0-0.1,0.1-0.3,0.1-0.4c0-0.1,0.1-0.3,0.1-0.4c0-0.1,0.1-0.2,0.1-0.3c0-0.2-0.1-0.3-0.3-0.4
			c-0.2-0.1-0.4-0.1-0.6-0.1c-0.1,0-0.2,0-0.2,0c-0.1,0-0.1,0-0.2,0h0v-0.3h3.1V19.8z"/>
	</g>
	<g>
		<g>
			<path class="st0" d="M57.7,17.4H0.3V0.6h57.4V17.4z M0.4,17.3h57.2V0.7H0.4V17.3z"/>
			<path class="st0" d="M57.8,17.5H0.2v-17h57.6V17.5z M0.5,17.2h57V0.8h-57V17.2z"/>
		</g>
	</g>
	<g id="Decor__1_">
		<g>
			<g>
				<path class="st0" d="M3.8,3.6h3.7c0.8,0,1.6,0.1,2.3,0.3c0.7,0.2,1.4,0.5,1.9,1c0.6,0.5,1,1.1,1.3,1.8c0.3,0.8,0.5,1.7,0.5,2.9
					c0,1.1-0.2,2.1-0.5,2.8c-0.3,0.7-0.7,1.3-1.3,1.8c-0.5,0.4-1.2,0.8-1.9,1c-0.7,0.2-1.5,0.3-2.3,0.3H3.8V15h1V3.9h-1V3.6z
					 M6.9,3.9V15c0.8,0,1.6-0.1,2.1-0.3c0.6-0.2,1-0.6,1.4-1.1c0.4-0.5,0.6-1.1,0.8-1.8c0.2-0.7,0.2-1.6,0.2-2.5
					c0-0.8-0.1-1.5-0.2-2.2c-0.2-0.7-0.4-1.3-0.7-1.7c-0.3-0.5-0.8-0.9-1.3-1.1C8.6,4,8,3.9,7.3,3.9L6.9,3.9z"/>
			</g>
		</g>
		<g>
			<g>
				<path class="st0" d="M17.7,15h1.7c0.5,0,1,0,1.5,0c0.5,0,0.9-0.1,1.2-0.3c0.3-0.2,0.6-0.5,0.8-0.9c0.2-0.4,0.3-1,0.3-1.8h0.3
					v3.5h-8.9V15h0.9V3.9h-0.9V3.6h8.8l0,2.9h-0.3C23.1,5.8,23,5.3,22.7,5c-0.2-0.3-0.5-0.6-0.9-0.8c-0.3-0.2-0.7-0.2-1.2-0.3
					c-0.4,0-0.9,0-1.4,0h-1.6v5.2h0.5c0.4,0,0.7,0,1,0c0.3,0,0.5-0.1,0.7-0.2c0.2-0.1,0.3-0.3,0.4-0.6c0.1-0.3,0.1-0.7,0.2-1.2h0.3
					v4.4h-0.3c0-0.4-0.1-0.8-0.1-1.1c-0.1-0.3-0.2-0.5-0.3-0.6c-0.1-0.1-0.3-0.2-0.5-0.3c-0.2,0-0.4-0.1-0.7-0.1h-1V15z"/>
			</g>
		</g>
		<g>
			<g>
				<path class="st0" d="M32.6,15.3c0-0.1,0-0.2,0-0.3c0-0.1,0-0.2-0.1-0.3c0-0.1-0.1-0.2-0.1-0.3c-0.1-0.1-0.1-0.1-0.3-0.1
					c-0.1,0-0.1,0-0.2,0.1c-0.1,0.1-0.2,0.1-0.3,0.2c-0.2,0.2-0.5,0.4-0.9,0.6c-0.4,0.2-0.8,0.3-1.3,0.3c-0.7,0-1.3-0.2-1.9-0.5
					c-0.6-0.3-1-0.7-1.4-1.3c-0.4-0.5-0.7-1.2-0.9-1.9c-0.2-0.7-0.3-1.5-0.3-2.3c0-0.8,0.1-1.6,0.3-2.3c0.2-0.8,0.5-1.4,0.9-2
					c0.4-0.6,0.9-1.1,1.4-1.4s1.2-0.5,1.9-0.5c0.3,0,0.6,0.1,0.8,0.2c0.2,0.1,0.5,0.2,0.7,0.3c0.2,0.1,0.4,0.2,0.6,0.3
					c0.2,0.1,0.4,0.2,0.6,0.2c0.1,0,0.2,0,0.3-0.1c0.1-0.1,0.1-0.2,0.1-0.4h0.3v3.6h-0.4c0-0.4-0.1-0.9-0.3-1.3
					c-0.2-0.4-0.4-0.8-0.6-1.2c-0.2-0.3-0.5-0.6-0.9-0.8c-0.3-0.2-0.7-0.3-1.1-0.3c-0.4,0-0.7,0.1-1,0.3c-0.3,0.2-0.5,0.5-0.7,0.8
					c-0.2,0.3-0.3,0.7-0.4,1.1c-0.1,0.4-0.2,0.8-0.3,1.3c-0.1,0.4-0.1,0.9-0.1,1.3c0,0.4,0,0.8,0,1.1c0,0.6,0,1.2,0.1,1.8
					c0.1,0.6,0.2,1.2,0.4,1.7c0.2,0.5,0.5,0.9,0.9,1.3c0.4,0.3,0.9,0.5,1.5,0.5c0.3,0,0.7-0.1,0.9-0.4c0.3-0.3,0.5-0.6,0.7-1
					c0.2-0.4,0.4-0.8,0.5-1.2c0.1-0.4,0.2-0.9,0.3-1.2h0.3v4.2H32.6z"/>
			</g>
		</g>
		<g>
			<g>
				<path class="st0" d="M39.1,3.3c0.7,0,1.3,0.2,1.8,0.5c0.6,0.4,1,0.8,1.4,1.4c0.4,0.6,0.7,1.2,0.9,2c0.2,0.7,0.3,1.5,0.3,2.2
					c0,0.8-0.1,1.5-0.3,2.2c-0.2,0.7-0.5,1.4-0.9,1.9c-0.4,0.6-0.9,1-1.4,1.4c-0.6,0.4-1.2,0.5-1.8,0.5c-0.7,0-1.3-0.2-1.9-0.5
					c-0.6-0.4-1-0.8-1.4-1.4c-0.4-0.6-0.7-1.3-0.9-2c-0.2-0.7-0.3-1.5-0.3-2.3c0-0.7,0.1-1.5,0.4-2.2c0.2-0.7,0.6-1.4,1-1.9
					c0.4-0.6,0.9-1,1.5-1.4C37.8,3.5,38.4,3.3,39.1,3.3z M39.1,3.6c-0.4,0-0.7,0.1-1,0.3c-0.3,0.2-0.5,0.5-0.7,0.8
					C37.3,5,37.1,5.4,37,5.8c-0.1,0.4-0.2,0.8-0.3,1.3c-0.1,0.4-0.1,0.9-0.1,1.3c0,0.4,0,0.8,0,1.1c0,0.3,0,0.7,0,1.1
					c0,0.4,0.1,0.8,0.1,1.3c0.1,0.4,0.1,0.9,0.2,1.3c0.1,0.4,0.2,0.8,0.4,1.1c0.2,0.3,0.4,0.6,0.7,0.8c0.3,0.2,0.6,0.3,1,0.3
					c0.4,0,0.7-0.1,1-0.3c0.3-0.2,0.5-0.5,0.7-0.8c0.2-0.3,0.3-0.7,0.4-1.1c0.1-0.4,0.2-0.8,0.2-1.3c0-0.4,0.1-0.9,0.1-1.3
					c0-0.4,0-0.8,0-1.1c0-0.3,0-0.6,0-1c0-0.4-0.1-0.8-0.1-1.2c-0.1-0.4-0.1-0.8-0.2-1.3c-0.1-0.4-0.2-0.8-0.4-1.1
					c-0.2-0.3-0.4-0.6-0.6-0.8C39.8,3.7,39.5,3.6,39.1,3.6z"/>
			</g>
		</g>
		<g>
			<g>
				<path class="st0" d="M47.6,15h1.1v0.3h-4V15h1V3.9h-1V3.6h5.1c0.4,0,0.8,0,1.1,0.1c0.4,0.1,0.7,0.3,1,0.5
					c0.3,0.2,0.5,0.5,0.7,0.9c0.2,0.4,0.3,0.8,0.3,1.4c0,0.4-0.1,0.8-0.2,1.1c-0.1,0.3-0.3,0.6-0.5,0.8c-0.2,0.2-0.5,0.4-0.7,0.5
					c-0.3,0.1-0.6,0.2-0.9,0.3v0.2c0.5,0.1,0.9,0.3,1.2,0.6c0.3,0.3,0.5,0.6,0.6,1c0.1,0.4,0.2,0.8,0.3,1.2c0,0.4,0.1,0.8,0.1,1.2
					c0,0.3,0,0.5,0,0.7s0,0.4,0.1,0.6c0,0.2,0.1,0.3,0.2,0.4c0.1,0.1,0.2,0.2,0.4,0.2c0.1,0,0.2,0,0.3,0c0.1,0,0.2-0.1,0.3-0.1
					c0,0,0,0,0,0l0.1,0.3c-0.2,0.1-0.4,0.2-0.6,0.2c-0.2,0-0.4,0.1-0.6,0.1c-0.5,0-0.9-0.1-1.2-0.2c-0.3-0.2-0.5-0.4-0.7-0.6
					c-0.2-0.3-0.3-0.6-0.3-1c-0.1-0.4-0.1-0.8-0.1-1.3c0-0.1,0-0.3,0-0.4c0-0.2,0-0.3-0.1-0.5c-0.1-0.5-0.2-0.9-0.4-1.2
					C50,10,49.8,9.8,49.6,9.6c-0.3-0.1-0.6-0.2-0.9-0.2c-0.3,0-0.7,0-1,0V15z M47.6,3.9v5.2h0.6c0.3,0,0.7,0,1-0.1
					c0.3-0.1,0.6-0.2,0.9-0.5c0.2-0.2,0.4-0.5,0.6-0.8c0.2-0.3,0.2-0.7,0.2-1.2c0-0.5-0.1-1-0.2-1.3c-0.1-0.3-0.3-0.6-0.6-0.8
					c-0.2-0.2-0.5-0.3-0.9-0.4c-0.3-0.1-0.7-0.1-1.1-0.1H47.6z"/>
			</g>
		</g>
	</g>
	<g>
		<g>
			<g>
				<path class="st0" d="M53.9,4.2V2.7h-0.6V2.5h1.3v0.2h-0.6v1.5H53.9z"/>
			</g>
		</g>
		<g>
			<g>
				<path class="st0" d="M54.9,4.2V2.5h0.3l0.4,1.2c0,0.1,0.1,0.2,0.1,0.2c0-0.1,0-0.2,0.1-0.3l0.4-1.2h0.3v1.7h-0.2V2.8l-0.5,1.4
					h-0.2l-0.5-1.4v1.4H54.9z"/>
			</g>
		</g>
	</g>
</g>
</svg>
