<?xml version="1.0" encoding="utf-8"?>
<!-- Generator: Adobe Illustrator 27.0.0, SVG Export Plug-In . SVG Version: 6.00 Build 0)  -->
<svg version="1.1" id="Layer_1" xmlns="http://www.w3.org/2000/svg" xmlns:xlink="http://www.w3.org/1999/xlink" x="0px" y="0px"
	 viewBox="0 0 155 35" style="enable-background:new 0 0 155 35;" xml:space="preserve">
<style type="text/css">
	.st0{fill:#FFFFFF;}
</style>
<g>
	<path class="st0" d="M20.7,11c0.1,0,0.1,0,0.2,0.1c0,0,0.1,0,0.2,0H21c1.6,0.2,3.2,0.3,4.9,0.3h0.4c2.1,0,4.2-0.3,6.2-0.9
		c1.2-0.3,2.2-0.9,3.1-1.7c0.4-0.3,0.6-0.7,0.9-1.1c0.2-0.3,0.2-0.7,0.2-1c0-0.4-0.1-0.9-0.4-1.3c-0.3-0.5-0.6-0.8-1.1-1.2
		c-1.1-0.9-2.3-1.5-3.6-1.9c-1.5-0.5-3-0.9-4.5-1.1C26.1,1,25,0.9,23.9,0.9c-0.3,0-0.5,0-0.8,0c-1.9,0.1-3.7,0.4-5.4,1
		c-2.9,0.9-5.4,2.4-7.5,4.4C9.3,7,8.7,7.9,8.3,8.9v0C8.3,9.2,8.2,9.4,8.2,9.6v0.1c0,0.2,0.1,0.3,0.2,0.5c0.1,0.1,0.1,0.2,0.1,0.2
		c0,0.1,0,0.2-0.1,0.2c-0.1,0.1-0.2,0.1-0.4,0.1c-0.2,0-0.3-0.1-0.4-0.2c-0.2-0.2-0.3-0.4-0.4-0.7c0-0.3,0.1-0.6,0.2-0.9
		C7.8,8,8.3,7.2,8.9,6.5c1.1-1.3,2.4-2.3,3.8-3.2c2.7-1.7,5.7-2.7,9-3.1c1-0.1,2-0.2,3-0.2c0.9,0,1.9,0,2.8,0.1
		c2.2,0.2,4.3,0.7,6.4,1.6c0.9,0.4,1.7,0.9,2.5,1.5c0.4,0.3,0.8,0.7,1.1,1.1c0.7,0.8,1,1.7,1,2.6c0,0.4-0.1,0.8-0.2,1.2
		c-0.2,0.7-0.6,1.4-1.1,1.9c-0.7,0.8-1.6,1.4-2.6,1.8c-1.6,0.7-3.2,1.1-4.9,1.3c-1.2,0.2-2.4,0.2-3.6,0.2H26c-0.1,0-0.2,0-0.2,0
		c0,0,0.1,0.1,0.1,0.1s0.1,0,0.1,0.1c0,0,0.1,0,0.1,0c0.6,0.3,1.2,0.6,1.8,1c1,0.7,1.8,1.6,2.2,2.8c0,0.1,0.1,0.2,0.1,0.2
		c0,0,0.1,0,0.1,0c0.1,0,0.1,0,0.2,0c0.4-0.1,0.8-0.1,1.2-0.2c0.9-0.2,1.8-0.3,2.7-0.5c1.1-0.2,2.2-0.3,3.3-0.3c0.2,0,0.4,0,0.6,0
		c0.1,0,0.2,0,0.3,0.1c0.1,0,0.1,0.1,0.1,0.2c0,0.1,0,0.2-0.1,0.2c-0.1,0-0.1,0.1-0.2,0.1c-0.8,0.1-1.5,0.2-2.3,0.4
		c-0.5,0.1-0.9,0.2-1.4,0.3c-0.6,0.1-1.1,0.2-1.7,0.3c-0.8,0.2-1.6,0.3-2.4,0.4c-0.1,0-0.2,0-0.2,0.1c0,0-0.1,0.1-0.1,0.2v0.4
		c0,1.3-0.2,2.4-0.7,3.5C29,23.9,28.4,25,27.5,26c-2.3,2.7-5,4.8-8.2,6.3c-2.5,1.3-5.2,2.1-8.1,2.5C10.6,34.9,9.9,35,9.2,35
		c-1.2,0-2.5-0.1-3.8-0.4c-0.7-0.2-1.4-0.5-2.1-0.8c-0.4-0.2-0.8-0.5-1.1-0.9c-0.6-0.6-0.9-1.3-0.9-2.1c0-0.3,0-0.6,0.1-0.9
		c0.2-0.5,0.4-1,0.7-1.4c0.7-0.9,1.6-1.7,2.5-2.4c2.1-1.5,4.4-2.7,6.8-3.6c2.7-1,5.5-1.8,8.3-2.5c2.6-0.7,5.3-1.3,8-1.8
		c0.3,0,0.4-0.1,0.4-0.1c0,0,0-0.1,0-0.1c0-0.1,0-0.2-0.1-0.4c-0.2-0.4-0.4-0.8-0.7-1.1c-0.4-0.5-0.9-0.9-1.5-1.2
		c-1.1-0.7-2.2-1.2-3.4-1.7c-0.1,0-0.1-0.1-0.2-0.1c-0.4,0-0.8-0.1-1.2-0.2c-0.2-0.1-0.5-0.1-0.7-0.1c-0.2,0-0.4,0-0.5,0h-0.2
		c-0.2,0-0.3,0-0.4,0c-0.1,0-0.1,0-0.2,0.1s-0.1,0.1-0.1,0.1l0,0c-0.1,0.2-0.3,0.4-0.4,0.6c-0.4,0.5-0.8,1.1-1.1,1.6
		c-0.8,1.2-1.5,2.4-2.2,3.7c-0.2,0.5-0.4,1-0.6,1.6c0,0.2-0.1,0.3-0.3,0.3c-0.1,0-0.1,0-0.2,0c-0.2-0.1-0.4-0.3-0.5-0.5
		c-0.1-0.3-0.2-0.6-0.2-0.9c0-0.2,0-0.3,0-0.5c0.1-0.5,0.2-0.9,0.4-1.4c0.8-1.9,1.9-3.7,3.1-5.3c0.6-0.8,1.2-1.7,1.9-2.5
		c0.1-0.2,0.2-0.4,0.4-0.5c0.9-1.2,1.8-2.4,2.8-3.5c0.4-0.4,0.8-0.7,1.2-1c0.2-0.2,0.5-0.3,0.8-0.4c0.1-0.1,0.3-0.1,0.4-0.1
		c0.1,0,0.1,0,0.2,0c0.4,0.1,0.7,0.2,0.8,0.4c0.1,0.2,0.2,0.5,0.2,0.6c0,0.2,0,0.3-0.1,0.5c-0.1,0.1-0.2,0.3-0.3,0.4
		C25,6.7,24.6,7,24.2,7.2c-0.1,0-0.1,0-0.1,0.1c0,0-0.1,0-0.1,0s-0.1,0-0.1,0c-0.1,0-0.1-0.1-0.1-0.1c0,0,0,0-0.1,0
		c-0.1,0-0.1,0-0.2,0.1c-1,1.1-2,2.3-2.8,3.5C20.7,10.9,20.7,10.9,20.7,11C20.7,10.9,20.7,11,20.7,11z M6.9,33c0.3,0,0.6,0,0.9,0
		c2.2,0,4.4-0.3,6.5-0.9c3.5-1.1,6.5-2.8,9.3-5.1c1-0.8,1.9-1.7,2.7-2.7c0.8-1,1.4-2.1,1.8-3.3c0.2-0.6,0.3-1.2,0.3-1.8v-0.1
		c0-0.1,0-0.2-0.1-0.2l-0.1,0c-0.3,0.1-0.7,0.1-1,0.2c-0.1,0-0.2,0-0.4,0.1c-4.5,0.8-8.8,1.9-13.1,3.4c-1.3,0.4-2.6,0.9-3.8,1.5
		c-1.7,0.8-3.3,1.8-4.8,2.9c-0.7,0.6-1.4,1.3-2,2c-0.2,0.3-0.4,0.6-0.6,1c-0.1,0.2-0.1,0.4-0.1,0.6c0,0.5,0.2,0.9,0.7,1.3
		c0.4,0.3,0.7,0.5,1.2,0.6C5.3,32.9,6.1,33,6.9,33z"/>
	<path class="st0" d="M40.8,19.7c-0.1,0.1-0.2,0.1-0.3,0.2l0,0.1c-0.3,0.3-0.6,0.6-0.8,1c-0.4,0.4-0.7,0.9-1.1,1.3
		c-0.3,0.4-0.7,0.8-1.1,1.1c-0.2,0.2-0.4,0.3-0.6,0.4c-0.2,0.1-0.3,0.1-0.5,0.1s-0.3,0-0.5-0.1c-0.3-0.2-0.5-0.4-0.6-0.8
		c0-0.2-0.1-0.4-0.1-0.5c0-0.2,0-0.3,0.1-0.5c0.5-2.3,1.6-4.2,3.2-5.8c0.3-0.3,0.7-0.6,1.1-0.7c0.1,0,0.1-0.1,0.2-0.1
		c0.3-0.1,0.5-0.1,0.7-0.1c0.4,0,0.7,0.2,1,0.5c0.2,0.2,0.3,0.4,0.3,0.6c0,0.2,0,0.3,0,0.3c0,0.3-0.1,0.6-0.2,0.9c0,0,0,0,0,0
		c0,0,0,0,0,0.1c0,0.1-0.1,0.1-0.1,0.1c0,0-0.1,0.1-0.1,0.1c0,0-0.1,0-0.1,0c-0.1,0-0.1,0-0.1-0.1c0,0,0-0.1-0.1-0.2
		c0,0,0-0.1,0-0.1c0-0.1,0-0.3-0.1-0.4c0-0.1-0.1-0.2-0.1-0.2c0,0,0,0-0.1,0c0,0-0.1,0-0.2,0.1c-0.4,0.3-0.8,0.6-1.1,1
		c-1,1.2-1.7,2.5-2.2,3.9v0c0,0,0,0.1,0,0.1v0c0,0,0,0.1,0,0.1c0.2-0.1,0.3-0.1,0.4-0.2c0,0,0.1,0,0.1-0.1c1.2-0.9,2.3-2,3.3-3.1
		c0.3-0.4,0.6-0.8,0.8-1.2c0.1-0.2,0.2-0.4,0.4-0.7l0.1-0.2c0.1-0.2,0.2-0.3,0.4-0.5c0.2-0.2,0.4-0.2,0.6-0.2c0.1,0,0.2,0,0.2,0
		c0.3,0.1,0.5,0.4,0.5,0.7l0,0.2c0,0.2,0,0.4-0.1,0.5c-0.1,0.3-0.3,0.6-0.4,0.9c-0.2,0.3-0.3,0.6-0.4,0.8c-0.1,0.2-0.2,0.5-0.3,0.7
		c-0.1,0.2-0.2,0.5-0.3,1c-0.1,0.4-0.2,0.7-0.2,1.1l0,0.3v0c0,0.2,0,0.2,0.1,0.2c0.1,0,0.1,0,0.2-0.1c0.3-0.2,0.6-0.5,0.8-0.7
		c0.2-0.2,0.4-0.4,0.6-0.6c1.4-1.3,2.5-2.6,3.4-3.8c0.1-0.1,0.2-0.3,0.4-0.4c0,0,0.1-0.1,0.1-0.1c0.1,0,0.1,0,0.1,0.1
		c0.1,0,0.1,0.1,0.1,0.2c0,0,0,0.1,0,0.1c-0.1,0.2-0.2,0.3-0.3,0.5c-0.2,0.3-0.4,0.6-0.7,0.9c-0.7,1-1.4,1.9-2.2,3
		c-0.8,1-1.5,1.8-2.1,2.4C42.3,23.9,42,24,41.7,24h-0.1c-0.4,0-0.7-0.2-0.9-0.6c-0.3-0.4-0.4-0.8-0.4-1.3v-0.1
		c0-0.7,0.1-1.3,0.4-1.9c0-0.1,0.1-0.2,0.1-0.3c0,0,0-0.1,0-0.1C40.7,19.8,40.7,19.7,40.8,19.7z"/>
	<path class="st0" d="M53.2,16.4c0.1-0.1,0.2-0.1,0.3-0.1c0.1,0,0.1,0,0.2,0.1c0.1,0.1,0.1,0.1,0.1,0.2l0,0.1c0,0.1,0,0.2-0.1,0.2
		c-0.3,0.5-0.9,1.2-1.6,2.1c-0.8,1-1.6,1.9-2.4,2.8c-0.8,0.9-1.4,1.5-1.8,1.9c-0.3,0.2-0.6,0.4-1,0.4h-0.2c-0.7,0-1.2-0.4-1.4-1.1
		c0-0.2-0.1-0.4-0.1-0.5c0-0.2,0-0.5,0.1-0.7c0.2-0.6,0.4-1.2,0.6-1.8c0.4-1,0.8-1.9,1.3-2.8c0.1-0.1,0.1-0.2,0.2-0.4
		c0.2-0.4,0.4-0.9,0.7-1.3c0.1-0.1,0.2-0.3,0.3-0.4c0.2-0.1,0.4-0.2,0.6-0.2c0.2,0,0.3,0,0.4,0.1c0.3,0.2,0.5,0.4,0.5,0.8
		c0,0.1,0,0.1,0,0.2c-0.1,0.2-0.1,0.4-0.2,0.6c-0.7,1.3-1.3,2.7-1.9,4.1l-0.3,0.7c-0.1,0.3-0.2,0.5-0.2,0.6c0,0.1,0,0.2,0.1,0.2
		c0,0,0.1,0,0.1,0c0.2-0.1,0.6-0.3,1.2-0.8s1.1-1.1,1.7-1.7c0.6-0.7,1.2-1.3,1.7-1.8c0.5-0.6,0.9-1,1.1-1.2L53.2,16.4z M49.4,12.4
		c0-0.6,0.2-1.1,0.6-1.5c0.3-0.3,0.6-0.4,1-0.4c0.1,0,0.2,0,0.3,0c0.3,0.1,0.5,0.2,0.5,0.5c0,0.1,0,0.2-0.1,0.3
		c-0.1,0.3-0.3,0.6-0.5,0.8c-0.2,0.2-0.3,0.5-0.5,0.8c-0.1,0.1-0.1,0.2-0.2,0.3c0,0,0,0,0,0.1c0,0,0,0.1-0.1,0.1
		c-0.1,0.2-0.2,0.2-0.3,0.2c-0.1,0-0.2-0.1-0.3-0.2C49.5,13.2,49.4,12.8,49.4,12.4z"/>
	<path class="st0" d="M51.4,20.9c0.1-1.4,0.5-2.7,1.3-3.9c0.6-0.9,1.4-1.6,2.3-2.2c0.6-0.4,1.2-0.6,1.8-0.8c0.2,0,0.3,0,0.5,0
		c0.3,0,0.5,0,0.8,0.1c0.3,0.2,0.6,0.3,0.7,0.6c0.1,0.2,0.1,0.4,0.1,0.6c0,0.2,0,0.4-0.1,0.6c-0.2,0.3-0.4,0.6-0.6,0.8
		c-1.1,1.1-2.4,1.7-3.9,1.9c-0.2,0-0.3,0.1-0.4,0.3c-0.3,0.6-0.5,1.2-0.5,1.9v0.1c0,0.1,0,0.3,0.1,0.4c0.1,0.3,0.3,0.5,0.7,0.6
		c0.1,0,0.2,0,0.4,0c0.5,0,1.1-0.1,1.6-0.3c1.3-0.6,2.5-1.3,3.3-2.1c0.9-0.8,1.6-1.6,2-2.2c0.3-0.4,0.5-0.6,0.7-0.7
		c0.1,0,0.1-0.1,0.2-0.1c0,0,0,0,0.1,0c0.1,0,0.1,0.1,0.1,0.1c0,0,0,0.1,0,0.1c0,0,0,0.1,0,0.1c-0.8,1.2-1.7,2.3-2.8,3.5
		c-1.1,1.2-2.3,2.1-3.5,2.9c-0.5,0.3-1.1,0.4-1.6,0.5c-0.1,0-0.2,0-0.4,0c-0.6,0-1.2-0.2-1.7-0.6c-0.6-0.5-0.9-1.1-1-1.9V20.9z
		 M54.3,9c0,0,0.1,0,0.1,0c0.2,0,0.3,0.1,0.4,0.3c0.7,1,1.6,1.8,2.5,2.4l0.5,0.4l0.5,0.3l0.5,0.4c0,0,0.1,0,0.1,0.1c0,0,0,0.1,0,0.1
		c0,0,0,0.1-0.1,0.1c0,0.1,0,0.1-0.1,0.1c0,0-0.1,0-0.1,0h-0.1c-0.2-0.1-0.4-0.1-0.5-0.2l-2.9-1.5c-0.1,0-0.1-0.1-0.2-0.1
		c-0.4-0.2-0.8-0.4-1.2-0.5c-0.3-0.1-0.4-0.3-0.4-0.7c0-0.1,0-0.2,0-0.4c0.1-0.2,0.2-0.4,0.3-0.6C54,9.2,54.2,9.1,54.3,9z
		 M54.6,17.7L54.6,17.7C54.7,17.7,54.7,17.8,54.6,17.7c0.1,0.1,0.2,0,0.2,0l0.4-0.2c0.7-0.3,1.4-0.7,1.9-1.2
		c0.2-0.2,0.4-0.4,0.5-0.7C56.5,16,55.4,16.7,54.6,17.7z"/>
	<path class="st0" d="M98.6,18c-0.2-0.1-0.3-0.2-0.5-0.2h0c-1-0.4-2.1-0.8-3.2-1c-2.2-0.4-4.4-0.7-6.7-0.8c-1.2-0.1-2.4-0.1-3.6-0.1
		l-1.9,0c-0.7,0-1.4-0.1-2.1-0.2c-0.4-0.1-0.7-0.2-1.1-0.4c-0.7-0.4-1-0.9-1-1.6c0-0.2,0-0.4,0.1-0.7c0.2-0.5,0.4-1,0.8-1.4
		c0.5-0.6,1.1-1.2,1.7-1.7c1.5-1.2,3-2.3,4.6-3.3c3.7-2.3,7.7-4.1,12-5.2c2-0.6,4.1-0.9,6.2-1h0.1c0.9,0,1.8,0.1,2.6,0.4
		c0.8,0.2,1.5,0.6,2.1,1.1c0.8,0.7,1.2,1.5,1.2,2.5c0,0.4-0.1,0.8-0.2,1.3c-0.2,0.7-0.6,1.3-1,1.8c-1.5,2-3.3,3.6-5.3,4.9l0,0
		c-0.1,0.1-0.2,0.1-0.3,0.1h0c-0.1,0-0.1,0-0.2-0.1c0,0,0-0.1,0-0.1c0,0,0-0.1,0-0.1c0.1-0.1,0.2-0.2,0.2-0.3
		c0.2-0.2,0.5-0.4,0.8-0.6c0.2-0.1,0.3-0.3,0.5-0.4c1.2-1,2.3-2.2,3.3-3.5c0.4-0.5,0.7-1.1,1-1.7c0.1-0.3,0.2-0.6,0.3-0.9
		c0-0.1,0-0.2,0-0.2c0-0.5-0.2-0.9-0.5-1.2c-0.3-0.3-0.7-0.5-1.1-0.7c-0.8-0.3-1.6-0.4-2.3-0.4h-0.3c-1.2,0-2.4,0.2-3.5,0.4
		c-6.4,1.3-12.3,4-17.6,8c-0.7,0.5-1.3,1-1.9,1.6c-0.3,0.3-0.6,0.6-0.8,1c0,0.1-0.1,0.1-0.1,0.2v0c0,0,0.1,0.1,0.2,0.1
		c0.4,0.1,0.8,0.1,1.2,0.1c0.9,0,1.7,0.1,2.6,0.1c0.6,0,1.2,0,1.8,0c3.4,0.1,6.7,0.6,10.1,1.5c0.8,0.2,1.6,0.5,2.4,0.9
		c0.7,0.3,1.2,0.8,1.7,1.4c0.1,0.1,0.1,0.1,0.2,0.1c0,0,0.1,0,0.1,0c0.1,0,0.1,0,0.1,0h0c0.3-0.1,0.6-0.1,1-0.2
		c0.5-0.1,0.9-0.2,1.4-0.2c0.2,0,0.4-0.1,0.6-0.1c2.6-0.5,5.3-0.9,8-1.2h0c0.1,0,0.2,0,0.3,0h0.1c0.1,0,0.1,0,0.2,0
		c0.1,0,0.1,0.1,0.1,0.2c0,0,0,0.1,0,0.1s0,0.1,0,0.1c0,0.1-0.1,0.1-0.1,0.1h0c-0.2,0.2-0.4,0.2-0.7,0.3c-1.5,0.1-2.9,0.3-4.4,0.6
		l-2.9,0.5c-1.1,0.2-2.1,0.4-3.1,0.7c-0.2,0.1-0.4,0.2-0.4,0.5c-0.1,0.8-0.4,1.6-0.8,2.3c-0.8,1.2-1.8,2.2-2.9,3.1
		c-1.4,1.2-2.9,2.2-4.5,3.2c-3,2-6.1,3.6-9.4,5c-2.1,0.9-4.3,1.5-6.6,1.9c-0.6,0.1-1.1,0.1-1.7,0.1c-0.6,0-1.2-0.1-1.8-0.2
		c-0.4-0.1-0.8-0.3-1.2-0.5c-0.7-0.5-1-1.1-1-1.8c0-0.2,0-0.4,0.1-0.6c0.1-0.6,0.4-1.1,0.7-1.5c0.4-0.6,0.9-1.1,1.4-1.6
		c0.9-0.9,1.9-1.6,3-2.3c2.8-1.8,5.8-3.3,8.9-4.4c4.2-1.6,8.5-2.8,12.9-3.8c0.1,0,0.2,0,0.4-0.1c0.1,0,0.1-0.1,0.1-0.1
		C98.7,18.1,98.7,18.1,98.6,18z M74.3,33.3h0.2c0.9-0.1,1.7-0.2,2.4-0.3c2-0.5,4-1.2,5.9-2c3.8-1.7,7.4-3.7,10.9-6.1
		c0.7-0.5,1.5-1,2.2-1.6c0.8-0.6,1.5-1.3,2.2-2.1c0.3-0.3,0.6-0.7,0.9-1.1c0.1-0.1,0.1-0.2,0.2-0.4c0-0.1,0-0.1,0-0.1
		c0-0.1,0-0.1,0-0.1c0-0.1-0.1-0.1-0.2-0.1h-0.1c-0.1,0-0.2,0-0.2,0c-0.1,0-0.2,0-0.3,0.1c-0.2,0-0.3,0.1-0.4,0.1
		c-1.4,0.2-2.8,0.5-4.2,0.9c-2.9,0.8-5.8,1.8-8.6,3c-2.3,1-4.6,2.1-6.9,3.4c-0.8,0.5-1.6,1-2.3,1.5c-0.9,0.6-1.8,1.4-2.5,2.3
		c-0.3,0.3-0.5,0.7-0.7,1.1c-0.1,0.2-0.2,0.5-0.2,0.6c0,0.4,0.3,0.7,0.8,0.8c0.2,0,0.4,0.1,0.6,0.1C74.1,33.3,74.2,33.3,74.3,33.3z"
		/>
	<path class="st0" d="M113.6,21.5c0,0.1-0.1,0.1-0.1,0.2l-0.4,0.6c-0.3,0.4-0.6,0.8-1.1,1.1c-0.3,0.2-0.6,0.3-0.9,0.3H111
		c-0.6-0.1-1-0.5-1.1-1.1c0-0.1,0-0.2,0-0.3c0-0.3,0-0.6,0.1-1c0.5-2.1,1.3-4.1,2.3-6v0c0.1-0.2,0.2-0.4,0.4-0.5
		c0.2-0.2,0.5-0.4,0.8-0.4c0.2,0,0.3,0.1,0.5,0.2c0.2,0.2,0.3,0.3,0.4,0.5c0,0.2,0,0.3,0,0.3c0,0.2-0.1,0.4-0.2,0.6
		c-0.9,1.5-1.6,3.1-2,4.8l-0.2,0.8v0.1c0,0,0.1,0,0.1,0c0,0,0.1,0,0.1-0.1h0c0.4-0.3,0.7-0.6,1.1-0.9c0.3-0.3,0.6-0.7,0.8-1
		c0.1-0.1,0.2-0.2,0.3-0.3c0.1-0.2,0.2-0.3,0.3-0.5c0.4-0.8,0.8-1.6,1.3-2.4l0.4-0.7c0.1-0.2,0.2-0.3,0.3-0.4
		c0.2-0.2,0.5-0.4,0.7-0.4c0.1,0,0.3,0,0.4,0.1c0.3,0.2,0.5,0.4,0.5,0.8c0,0.1,0,0.2,0,0.3c0,0.2-0.1,0.3-0.2,0.4l-0.7,1.3
		c-0.2,0.3-0.4,0.7-0.6,1.1c-0.3,0.6-0.6,1.2-0.9,1.9c-0.1,0.2-0.2,0.5-0.2,0.8v0.1c0,0.1,0,0.1,0.1,0.1h0c0.1,0,0.2-0.1,0.4-0.2
		c0.2-0.1,0.3-0.2,0.4-0.3c0.1-0.1,0.2-0.2,0.3-0.2c0.9-0.9,1.7-1.7,2.3-2.5c0.5-0.6,1-1.2,1.5-1.8c0.1-0.1,0.2-0.2,0.2-0.2
		c0.1-0.1,0.1-0.1,0.2-0.1c0.1,0,0.1,0,0.2,0.1c0.1,0.1,0.1,0.1,0.1,0.2c0,0.1,0,0.2-0.1,0.2c-0.1,0.1-0.1,0.2-0.2,0.3
		c-0.1,0.2-0.4,0.5-0.7,0.9c-0.6,0.8-1.4,1.8-2.3,2.9s-1.7,1.8-2.2,2.1c-0.6,0.3-0.9,0.5-1.2,0.5c-0.4,0-0.8-0.3-1-1
		c-0.1-0.2-0.1-0.5-0.1-0.7L113.6,21.5L113.6,21.5C113.6,21.5,113.6,21.5,113.6,21.5z"/>
	<path class="st0" d="M124.1,16.3L124.1,16.3l-0.2,0l0,0c-0.8,0.6-1.4,1.3-1.9,2.1s-0.9,1.7-1.2,2.7c-0.1,0.3-0.1,0.5-0.1,0.8
		c0,0.1,0,0.2,0,0.3c0,0.2,0,0.2,0.1,0.3c0,0,0.1,0,0.1,0c0.1,0,0.1,0,0.2,0c0.4-0.1,0.8-0.3,1.1-0.5c0.9-0.6,1.8-1.2,2.6-1.9
		c0.8-0.7,1.5-1.4,2.2-2.1c0.4-0.4,0.8-0.8,1.2-1.2c0,0,0,0,0,0c0.1,0,0.1,0,0.1-0.1c0,0,0.1,0,0.1,0.1c0,0.1,0.1,0.1,0.1,0.1v0
		c0,0.1-0.1,0.1-0.1,0.2c-0.1,0.1-0.1,0.1-0.1,0.2c-1.6,2-3.2,3.7-4.9,5.2c-0.6,0.5-1.1,0.9-1.8,1.2c-0.4,0.2-0.8,0.3-1.2,0.3
		c-0.6,0-1.1-0.3-1.4-1c-0.2-0.4-0.3-0.8-0.3-1.3c0-0.2,0-0.4,0.1-0.7c0-0.2,0.1-0.4,0.1-0.6c0.4-1.3,0.9-2.4,1.6-3.5
		c0.5-0.7,1.1-1.4,1.8-1.8c0.4-0.3,0.9-0.5,1.4-0.5h0.1c0.1,0,0.2,0,0.3,0c0.6,0.1,0.9,0.5,0.9,1c0,0.1,0,0.2,0,0.3
		c-0.1,0.3-0.2,0.7-0.4,1c-0.1,0.1-0.2,0.2-0.3,0.3c0,0-0.1,0-0.2,0c0,0-0.1,0-0.1,0c0,0-0.1-0.1-0.1-0.1c0,0,0-0.1,0-0.1v-0.1
		c0-0.1,0-0.1,0-0.2c0-0.1,0-0.1,0-0.2C124.1,16.4,124.1,16.4,124.1,16.3z"/>
	<path class="st0" d="M125.7,27.3c0.1-0.7,0.2-1.4,0.5-2.1c0.8-2.1,1.6-4.2,2.5-6.3c0-0.1,0-0.1,0-0.2v0c0-0.1,0-0.1-0.1-0.2
		c-0.7-0.5-1-1.1-1.1-1.9v-0.1c0-0.4,0.1-0.7,0.2-1.1c0.3-1,0.8-2,1.5-2.8c0.3-0.5,0.7-0.8,1.2-1.1c0.2-0.1,0.5-0.2,0.8-0.2h0.1
		c0.3,0,0.5,0.1,0.7,0.3c0.2,0.2,0.2,0.4,0.2,0.6c0,0.1,0,0.1,0,0.2c-0.1,0.4-0.2,0.7-0.4,1c-0.6,1-1.3,1.9-2,2.8
		c-0.2,0.2-0.2,0.3-0.2,0.5c0,0.1,0.1,0.3,0.2,0.4c0.1,0.1,0.1,0.1,0.1,0.2c0.2,0.2,0.3,0.4,0.5,0.5c0.2,0.2,0.3,0.4,0.4,0.7
		c0,0.3,0,0.6-0.1,0.8c-0.2,0.6-0.4,1.2-0.7,1.8c-0.1,0.2-0.2,0.5-0.3,0.7c-0.1,0.3-0.3,0.7-0.4,1.1c-0.4,1-0.8,2-1.2,3
		c-0.1,0.3-0.2,0.6-0.2,0.9c0,0.2-0.1,0.3-0.1,0.5c0,0,0,0.1,0,0.1c0,0.1,0,0.2,0.1,0.2c0.1,0.2,0.1,0.2,0.2,0.2
		c0.1,0,0.1,0,0.2-0.1c0.3-0.2,0.6-0.4,0.8-0.7c0.8-0.9,1.5-1.8,2.1-2.8c1.5-2.4,3-4.8,4.3-7.3l0,0c0.1-0.2,0.2-0.3,0.3-0.4
		c0.1,0,0.1-0.1,0.2-0.1c0.1,0,0.1,0,0.2,0.1c0.1,0.1,0.1,0.2,0.1,0.3c0,0.1,0,0.1,0,0.1c0,0,0,0.1-0.1,0.1c0,0,0,0,0,0
		c-0.5,0.8-1,1.7-1.5,2.6c-0.9,1.5-1.8,3.1-2.7,4.6c-0.9,1.5-1.9,2.9-2.9,4.2c-0.2,0.3-0.5,0.6-0.9,0.8c-0.2,0.1-0.4,0.1-0.6,0.1
		c-0.2,0-0.5-0.1-0.7-0.2C126,28.8,125.7,28.2,125.7,27.3z M130.1,14.6L130.1,14.6c0.1-0.1,0.3-0.3,0.4-0.5c0.2-0.2,0.3-0.5,0.4-0.7
		s0.2-0.4,0.2-0.5c-0.4,0.5-0.7,1-1,1.5c0,0,0,0,0,0.1C130.1,14.4,130.1,14.4,130.1,14.6C130.1,14.5,130.1,14.5,130.1,14.6z"/>
	<path class="st0" d="M133.8,20.9c0.1-1.4,0.5-2.7,1.3-3.9c0.6-0.9,1.4-1.6,2.3-2.2c0.6-0.4,1.2-0.6,1.8-0.8c0.2,0,0.3,0,0.5,0
		c0.3,0,0.5,0,0.8,0.1c0.3,0.2,0.6,0.3,0.7,0.6c0.1,0.2,0.1,0.4,0.1,0.6c0,0.2,0,0.4-0.1,0.6c-0.2,0.3-0.4,0.6-0.6,0.8
		c-1.1,1.1-2.4,1.7-3.9,1.9c-0.2,0-0.3,0.1-0.4,0.3c-0.3,0.6-0.5,1.2-0.5,1.9v0.1c0,0.1,0,0.3,0.1,0.4c0.1,0.3,0.3,0.5,0.7,0.6
		c0.1,0,0.2,0,0.4,0c0.5,0,1.1-0.1,1.6-0.3c1.3-0.6,2.5-1.3,3.3-2.1c0.9-0.8,1.6-1.6,2-2.2c0.3-0.4,0.5-0.6,0.7-0.7
		c0.1,0,0.1-0.1,0.2-0.1c0,0,0,0,0.1,0c0.1,0,0.1,0.1,0.1,0.1c0,0,0,0.1,0,0.1c0,0,0,0.1,0,0.1c-0.8,1.2-1.7,2.3-2.8,3.5
		c-1.1,1.2-2.3,2.1-3.5,2.9c-0.5,0.3-1.1,0.4-1.6,0.5c-0.1,0-0.2,0-0.4,0c-0.6,0-1.2-0.2-1.7-0.6c-0.6-0.5-0.9-1.1-1-1.9V20.9z
		 M136.7,9c0,0,0.1,0,0.1,0c0.2,0,0.3,0.1,0.4,0.3c0.7,1,1.6,1.8,2.5,2.4l0.5,0.4l0.5,0.3l0.5,0.4c0,0,0.1,0,0.1,0.1
		c0,0,0,0.1,0,0.1c0,0,0,0.1-0.1,0.1c0,0.1,0,0.1-0.1,0.1c0,0-0.1,0-0.1,0h-0.1c-0.2-0.1-0.4-0.1-0.5-0.2l-2.9-1.5
		c-0.1,0-0.1-0.1-0.2-0.1c-0.4-0.2-0.8-0.4-1.2-0.5c-0.3-0.1-0.4-0.3-0.4-0.7c0-0.1,0-0.2,0-0.4c0.1-0.2,0.2-0.4,0.3-0.6
		C136.4,9.2,136.6,9.1,136.7,9z M137,17.7L137,17.7C137.1,17.7,137.1,17.8,137,17.7c0.1,0.1,0.2,0,0.2,0l0.4-0.2
		c0.7-0.3,1.4-0.7,1.9-1.2c0.2-0.2,0.4-0.4,0.5-0.7C138.9,16,137.8,16.7,137,17.7z"/>
	<path class="st0" d="M142.7,20.9c0.1-1.4,0.5-2.7,1.3-3.9c0.6-0.9,1.4-1.6,2.3-2.2c0.6-0.4,1.2-0.6,1.8-0.8c0.2,0,0.3,0,0.5,0
		c0.3,0,0.5,0,0.8,0.1c0.3,0.2,0.6,0.3,0.7,0.6c0.1,0.2,0.1,0.4,0.1,0.6c0,0.2,0,0.4-0.1,0.6c-0.2,0.3-0.4,0.6-0.6,0.8
		c-1.1,1.1-2.4,1.7-3.9,1.9c-0.2,0-0.3,0.1-0.4,0.3c-0.3,0.6-0.5,1.2-0.5,1.9v0.1c0,0.1,0,0.3,0.1,0.4c0.1,0.3,0.3,0.5,0.7,0.6
		c0.1,0,0.2,0,0.4,0c0.5,0,1.1-0.1,1.6-0.3c1.3-0.6,2.5-1.3,3.3-2.1c0.9-0.8,1.6-1.6,2-2.2c0.3-0.4,0.5-0.6,0.7-0.7
		c0.1,0,0.1-0.1,0.2-0.1c0,0,0,0,0.1,0c0.1,0,0.1,0.1,0.1,0.1c0,0,0,0.1,0,0.1c0,0,0,0.1,0,0.1c-0.8,1.2-1.7,2.3-2.8,3.5
		c-1.1,1.2-2.3,2.1-3.5,2.9c-0.5,0.3-1.1,0.4-1.6,0.5c-0.1,0-0.2,0-0.4,0c-0.6,0-1.2-0.2-1.7-0.6c-0.6-0.5-0.9-1.1-1-1.9V20.9z
		 M145.9,17.7L145.9,17.7C145.9,17.7,145.9,17.8,145.9,17.7c0.1,0.1,0.2,0,0.2,0l0.4-0.2c0.7-0.3,1.4-0.7,1.9-1.2
		c0.2-0.2,0.4-0.4,0.5-0.7C147.7,16,146.7,16.7,145.9,17.7z"/>
</g>
</svg>
