<?xml version="1.0" encoding="utf-8"?>
<!-- Generator: Adobe Illustrator 24.1.1, SVG Export Plug-In . SVG Version: 6.00 Build 0)  -->
<svg version="1.1" id="Layer_1" xmlns="http://www.w3.org/2000/svg" xmlns:xlink="http://www.w3.org/1999/xlink" x="0px" y="0px"
	 viewBox="0 0 217 35" style="enable-background:new 0 0 217 35;" xml:space="preserve">
<style type="text/css">
	.st0{fill:#FFFFFF;}
</style>
<g>
	<polygon class="st0" points="8.5,26.7 8.5,28.5 2.6,28.5 2.6,30 8.2,30 8.2,31.8 2.6,31.8 2.6,34.5 0.2,34.5 0.2,26.7 	"/>
	<path class="st0" d="M13,26.7h3l4.3,7.9h-2.7l-0.7-1.4h-4.9l-0.7,1.4H8.7L13,26.7z M13,31.3H16l-1.4-2.7L13,31.3z"/>
	<path class="st0" d="M23.7,31.9c0,0.4,0.1,0.7,0.3,0.8c0.1,0,0.2,0.1,0.3,0.1c0.1,0,0.3,0,0.6,0l0.7,0h1.8h0.6
		c0.5,0,0.7-0.2,0.7-0.6c0-0.3-0.2-0.5-0.5-0.6l-0.5,0l-0.5,0l-1.4-0.1l-0.7,0L24,31.4c-0.2,0-0.4,0-0.5,0c-0.2,0-0.4,0-0.6-0.1
		c-0.7-0.1-1.1-0.4-1.3-1c-0.1-0.3-0.1-0.7-0.1-1c0-0.7,0.1-1.1,0.2-1.4c0.2-0.5,0.5-0.8,1-1c0.5-0.2,1.4-0.2,2.9-0.2
		c0.3,0,0.7,0,1.2,0c0.5,0,0.9,0,1.1,0c0.5,0,0.9,0,1.3,0.1c0.4,0.1,0.7,0.2,0.9,0.3c0.3,0.1,0.5,0.4,0.6,0.6
		c0.2,0.3,0.2,0.6,0.2,1.1v0.5h-2.4l0-0.3c-0.1-0.3-0.2-0.4-0.4-0.5c0,0-0.1,0-0.2,0c-0.2,0-0.4,0-0.5,0l-0.6,0h-1.4l-0.6,0
		c-0.2,0-0.3,0-0.5,0.1c-0.3,0.1-0.4,0.2-0.4,0.6c0,0.3,0.2,0.5,0.5,0.6c0.1,0,0.2,0,0.3,0c0.1,0,0.2,0,0.3,0h0.6l2.2,0.1l1.3,0.1
		c0.2,0,0.3,0,0.5,0c0.2,0,0.3,0.1,0.5,0.1c0.8,0.3,1.2,1,1.2,2.3c0,1.4-0.6,2.1-1.9,2.3c-0.1,0-0.2,0-0.3,0c-0.1,0-0.3,0-0.4,0
		c-0.2,0-0.5,0-0.9,0c-0.4,0-0.6,0-0.7,0c-0.1,0-0.4,0-1.1,0c-0.6,0-1.2,0-1.5,0c-0.1,0-0.3,0-0.4,0c-0.1,0-0.3,0-0.4,0
		c-0.3,0-0.6,0-0.9-0.1c-0.3-0.1-0.5-0.2-0.7-0.4c-0.2-0.1-0.3-0.3-0.4-0.6s-0.2-0.6-0.2-1l0-0.6H23.7z"/>
	<path class="st0" d="M131.1,31.9c0,0.4,0.1,0.7,0.3,0.8c0.1,0,0.2,0.1,0.3,0.1c0.1,0,0.3,0,0.6,0l0.7,0h1.8h0.6
		c0.5,0,0.7-0.2,0.7-0.6c0-0.3-0.2-0.5-0.5-0.6l-0.5,0l-0.5,0l-1.4-0.1l-0.7,0l-1.2-0.1c-0.2,0-0.4,0-0.5,0c-0.2,0-0.4,0-0.6-0.1
		c-0.7-0.1-1.1-0.4-1.3-1c-0.1-0.3-0.1-0.7-0.1-1c0-0.7,0.1-1.1,0.2-1.4c0.2-0.5,0.5-0.8,1-1c0.5-0.2,1.4-0.2,2.9-0.2
		c0.3,0,0.7,0,1.2,0c0.5,0,0.9,0,1.1,0c0.5,0,0.9,0,1.3,0.1c0.4,0.1,0.7,0.2,0.9,0.3c0.3,0.1,0.5,0.4,0.6,0.6
		c0.2,0.3,0.2,0.6,0.2,1.1v0.5h-2.4l0-0.3c-0.1-0.3-0.2-0.4-0.4-0.5c0,0-0.1,0-0.2,0c-0.2,0-0.4,0-0.5,0l-0.6,0h-1.4l-0.6,0
		c-0.2,0-0.3,0-0.5,0.1c-0.3,0.1-0.4,0.2-0.4,0.6c0,0.3,0.2,0.5,0.5,0.6c0.1,0,0.2,0,0.3,0c0.1,0,0.2,0,0.3,0h0.6l2.2,0.1l1.3,0.1
		c0.2,0,0.3,0,0.5,0c0.2,0,0.3,0.1,0.5,0.1c0.8,0.3,1.2,1,1.2,2.3c0,1.4-0.6,2.1-1.9,2.3c-0.1,0-0.2,0-0.3,0c-0.1,0-0.3,0-0.4,0
		c-0.2,0-0.5,0-0.9,0c-0.4,0-0.6,0-0.7,0c-0.1,0-0.4,0-1.1,0c-0.6,0-1.2,0-1.5,0c-0.1,0-0.3,0-0.4,0c-0.1,0-0.3,0-0.4,0
		c-0.3,0-0.6,0-0.9-0.1c-0.3-0.1-0.5-0.2-0.7-0.4c-0.2-0.1-0.3-0.3-0.4-0.6s-0.2-0.6-0.2-1l0-0.6H131.1z"/>
	<polygon class="st0" points="32.6,26.7 35,26.7 35,29.6 40.4,29.6 40.4,26.7 42.8,26.7 42.8,34.5 40.4,34.5 40.4,31.6 35,31.6 
		35,34.5 32.6,34.5 	"/>
	<rect x="44.7" y="26.7" class="st0" width="2.4" height="7.9"/>
	<path class="st0" d="M52.3,34.6c-0.2,0-0.4,0-0.6,0c-0.2,0-0.3,0-0.5,0c-0.4,0-0.7-0.1-1-0.2c-0.3-0.1-0.5-0.3-0.7-0.5
		c-0.2-0.2-0.3-0.4-0.4-0.5c-0.1-0.2-0.2-0.6-0.2-1c-0.1-0.4-0.1-0.9-0.1-1.6v-1c0-0.3,0-0.7,0.1-0.9c0-0.3,0.1-0.5,0.2-0.8
		c0.2-0.6,0.6-1,1.2-1.2c0.2-0.1,0.6-0.1,1.2-0.2c0.6,0,1.3-0.1,2.3-0.1h1.7c1.2,0,2,0.1,2.4,0.2c0.8,0.3,1.3,0.9,1.4,1.8
		c0,0.1,0,0.3,0,0.5c0,0.2,0,0.4,0,0.6l0,1.3c0,0.5,0,1-0.1,1.3c0,0.3-0.1,0.6-0.2,0.9c-0.2,0.4-0.5,0.7-0.8,1
		c-0.4,0.2-0.8,0.3-1.4,0.3l-1.2,0L52.3,34.6z M55.3,32.6c0.4,0,0.7,0,0.9,0c0.3,0,0.5-0.2,0.7-0.5c0.1-0.3,0.2-0.8,0.2-1.7
		c0-0.4,0-0.8-0.1-1c-0.1-0.4-0.3-0.6-0.6-0.7c-0.1,0-0.2-0.1-0.4-0.1c-0.1,0-0.3,0-0.4,0l-1.5,0h-0.9c-0.1,0-0.3,0-0.5,0
		c-0.2,0-0.4,0-0.4,0c-0.2,0-0.4,0-0.5,0.1c-0.1,0.1-0.2,0.2-0.3,0.3c-0.1,0.2-0.2,0.8-0.2,1.9c0,0.7,0.1,1.2,0.4,1.4
		c0.2,0.1,0.7,0.2,1.5,0.2L55.3,32.6z"/>
	<polygon class="st0" points="64.7,26.7 69.3,32.5 69.3,26.7 71.7,26.7 71.7,34.5 67.8,34.5 63.3,28.6 63.3,34.5 60.9,34.5 
		60.9,26.7 	"/>
	<polygon class="st0" points="81,26.7 82.5,32.2 84.6,26.7 87.3,26.7 89.4,32.3 90.8,26.7 93.2,26.7 91,34.5 88,34.5 85.9,29.1 
		83.9,34.5 80.9,34.5 78.7,26.7 	"/>
	<polygon class="st0" points="94.3,26.7 103,26.7 103,28.5 96.7,28.5 96.7,29.6 102.6,29.6 102.6,31.3 96.7,31.3 96.7,32.7 
		103,32.7 103,34.5 94.3,34.5 	"/>
	<path class="st0" d="M108.5,26.7h3l4.3,7.9h-2.7l-0.7-1.4h-4.9l-0.7,1.4h-2.7L108.5,26.7z M108.6,31.3h2.9l-1.4-2.7L108.6,31.3z"/>
	<path class="st0" d="M124.1,26.7c0.3,0,0.4,0,0.5,0s0.2,0,0.4,0c0.7,0.1,1.2,0.3,1.5,0.8c0.1,0.2,0.2,0.4,0.2,0.5
		c0,0.2,0.1,0.4,0.1,0.6c0,0.2,0,0.4,0,0.6c0,0.7-0.1,1.1-0.3,1.5c-0.2,0.3-0.6,0.6-1.2,0.8c0.7,0.2,1.1,0.4,1.2,0.7
		c0.2,0.3,0.2,0.7,0.2,1.4v1h-2.4l0-0.7c0-0.5-0.1-0.8-0.2-1c-0.1-0.2-0.4-0.3-0.9-0.3h-3.8v2h-2.4v-7.9H124.1z M119.6,28.7v1.9h3.4
		h0.4h0.4c0.1,0,0.2,0,0.3,0c0.1,0,0.2,0,0.2-0.1c0.2-0.1,0.4-0.4,0.4-0.9c0-0.3-0.1-0.6-0.2-0.7c-0.1-0.1-0.4-0.2-0.7-0.2l-0.7,0
		H119.6z"/>
	<path class="st0" d="M150.1,26.7h1c0.2,0,0.4,0,0.6,0c0.2,0,0.4,0.1,0.6,0.1c0.7,0.2,1.2,0.6,1.4,1.4c0.1,0.4,0.2,0.9,0.2,1.4
		c0,1.4-0.3,2.3-1,2.7c-0.3,0.2-0.6,0.3-0.9,0.3c-0.1,0-0.3,0-0.4,0c-0.1,0-0.3,0-0.4,0h-4.3v1.9h-2.4v-7.9H150.1z M146.8,28.7v1.9
		h3h0.7c0.3,0,0.6-0.1,0.7-0.3c0.1-0.2,0.2-0.4,0.2-0.7c0-0.3-0.1-0.5-0.2-0.7c-0.1-0.2-0.3-0.2-0.5-0.2l-1,0H146.8z"/>
	<polygon class="st0" points="156.9,26.7 160,32.6 163.2,26.7 165.8,26.7 161.5,34.5 158.5,34.5 154.2,26.7 	"/>
	<polygon class="st0" points="175.5,26.7 175.5,28.7 172,28.7 172,34.5 169.6,34.5 169.6,28.7 166.2,28.7 166.2,26.7 	"/>
	<rect x="175.2" y="32.3" class="st0" width="2.3" height="2.2"/>
	<polygon class="st0" points="187.6,26.7 187.6,32.5 192.9,32.5 192.9,34.5 185.2,34.5 185.2,26.7 	"/>
	<polygon class="st0" points="201.3,26.7 201.3,28.7 197.9,28.7 197.9,34.5 195.5,34.5 195.5,28.7 192,28.7 192,26.7 	"/>
	<path class="st0" d="M209.8,26.7c0.2,0,0.3,0,0.4,0c0.1,0,0.3,0,0.4,0c0.1,0,0.3,0,0.4,0.1c0.1,0,0.3,0.1,0.4,0.1
		c0.3,0.1,0.6,0.3,0.7,0.5c0.4,0.5,0.6,1,0.6,1.7c0,0.3,0,0.6,0.1,0.8c0,0.3,0,0.6,0,1c0,0.7,0,1.2-0.1,1.5c-0.1,0.6-0.3,1-0.6,1.4
		c-0.3,0.3-0.7,0.6-1.3,0.7c-0.3,0.1-0.8,0.1-1.5,0.1h-7.1v-7.9H209.8z M204.9,28.7v3.8h4.3c0.5,0,0.9-0.1,1-0.3
		c0.1-0.1,0.2-0.2,0.2-0.4c0.1-0.2,0.1-0.4,0.1-0.6v-0.6c0-0.2,0-0.4,0-0.6c0-0.2,0-0.3-0.1-0.5c-0.1-0.5-0.5-0.8-1.2-0.8H204.9z"/>
	<rect x="214.5" y="32.3" class="st0" width="2.3" height="2.2"/>
	<path class="st0" d="M19.7,0.4H21c1.3,0,2.5,0.3,3.4,0.9c0.9,0.6,1.6,1.5,2.1,2.6c0.5,1.2,0.8,3.5,0.8,6.8c0,1.7-0.1,2.9-0.2,3.6
		c-0.2,1.4-0.7,2.5-1.4,3.3S24,19,22.6,19.3c-0.7,0.2-1.9,0.2-3.6,0.2H1.9v-7.2H0.2V7.4h1.7v-7H19.7z M7.7,5.3v2.1h3.4v4.9H7.7v2.3
		h10.5c1.2,0,2.1-0.2,2.5-0.7c0.2-0.2,0.4-0.6,0.5-1c0.1-0.4,0.2-1,0.2-1.6V9.7c0-0.5,0-1,0-1.4c0-0.4-0.1-0.8-0.2-1.2
		c-0.2-1.2-1.2-1.8-3-1.8H7.7z"/>
	<polygon class="st0" points="31.1,0.4 52.1,0.4 52.1,4.8 36.9,4.8 36.9,7.5 51.3,7.5 51.3,11.6 36.9,11.6 36.9,15.1 52.3,15.1 
		52.3,19.5 31.1,19.5 	"/>
	<path class="st0" d="M65.6,0.4h7.4l10.6,19.2H77l-1.8-3.3H63.4l-1.7,3.3h-6.6L65.6,0.4z M65.7,11.8h7.1l-3.5-6.5L65.7,11.8z"/>
	<path class="st0" d="M104.4,0.4c0.4,0,0.7,0,1.1,0c0.4,0,0.7,0,1,0.1c0.3,0,0.7,0,1,0.1c0.3,0.1,0.6,0.2,0.9,0.3
		c0.8,0.3,1.4,0.7,1.8,1.3c0.9,1.1,1.4,2.5,1.6,4.1c0.1,0.7,0.1,1.4,0.1,2c0,0.6,0,1.4,0,2.4c0,1.7-0.1,2.9-0.2,3.6
		c-0.2,1.4-0.7,2.5-1.4,3.3c-0.7,0.8-1.7,1.4-3.1,1.7c-0.7,0.2-1.9,0.2-3.6,0.2H86.6V0.4H104.4z M92.4,5.3v9.3h10.5
		c1.2,0,2.1-0.2,2.5-0.7c0.2-0.2,0.4-0.6,0.5-1c0.1-0.4,0.2-1,0.2-1.6V9.7c0-0.5,0-1,0-1.4c0-0.4-0.1-0.8-0.2-1.2
		c-0.2-1.2-1.2-1.8-3-1.8H92.4z"/>
	<path class="st0" d="M130,0.4h2.1c0.9,0,1.9,0.1,2.9,0.2c2.2,0.3,3.5,1.2,3.9,2.9c0.2,0.7,0.3,1.3,0.3,2c0,2.1-0.7,3.5-2.2,4.1
		l-0.7,0.3l0.9,0.2c1.8,0.5,2.7,1.9,2.7,4.3c0,0.4,0,0.8-0.1,1.1c0,0.3-0.1,0.6-0.3,1c-0.6,1.8-1.8,2.8-3.9,3c-0.2,0-0.6,0.1-1,0.1
		c-0.4,0-0.6,0-0.7,0h-18.4V0.4H130z M121.5,4.8v3h9.7c0.4,0,0.7,0,1.1-0.1c0.7-0.2,1.1-0.6,1.1-1.4c0-1-0.9-1.5-2.7-1.5H121.5z
		 M121.5,12v3.1h10.5c1.4,0,2.1-0.5,2.1-1.5c0-0.7-0.3-1.1-0.9-1.4c-0.1,0-0.2-0.1-0.4-0.1c-0.1,0-0.3-0.1-0.5-0.1H121.5z"/>
	<polygon class="st0" points="143.6,0.4 164.7,0.4 164.7,4.8 149.4,4.8 149.4,7.5 163.8,7.5 163.8,11.6 149.4,11.6 149.4,15.1 
		164.8,15.1 164.8,19.5 143.6,19.5 	"/>
	<path class="st0" d="M178.2,0.4h7.4l10.6,19.2h-6.6l-1.8-3.3h-11.8l-1.7,3.3h-6.6L178.2,0.4z M178.3,11.8h7.1l-3.5-6.5L178.3,11.8z
		"/>
	<polygon class="st0" points="216.8,0.4 216.8,5.3 208.5,5.3 208.5,19.5 202.6,19.5 202.6,5.3 194.2,5.3 194.2,0.4 	"/>
</g>
</svg>
