<?xml version="1.0" encoding="utf-8"?>
<!-- Generator: Adobe Illustrator 24.1.1, SVG Export Plug-In . SVG Version: 6.00 Build 0)  -->
<svg version="1.1" id="Layer_1" xmlns="http://www.w3.org/2000/svg" xmlns:xlink="http://www.w3.org/1999/xlink" x="0px" y="0px"
	 viewBox="0 0 200 35" style="enable-background:new 0 0 200 35;" xml:space="preserve">
<style type="text/css">
	.st0{fill:#FFFFFF;}
</style>
<g>
	<g>
		<path class="st0" d="M2.5,9.6H0V8.6C0.8,8.4,1.7,8,2.6,7.5c0.9-0.8,1.7-1.3,2.5-2.1c0.8-0.8,1.5-1.5,2.1-2.3
			c0.6-0.8,0.9-1.5,1.3-2.1h0.9v7.2h4.7l-0.6,1.3H9.5v9.8v1.9c0,0.9,0.2,1.9,0.8,2.3c0.4,0.6,0.9,0.8,1.7,0.8c0.9,0,1.7-0.4,2.1-1.1
			c0.4-0.8,0.6-1.7,0.6-2.6h0.6c0,1.3-0.4,2.5-1.1,3.6c-0.8,0.9-2.5,1.5-5.1,1.5c-1.7,0-3.2-0.4-4.3-1.3c-1.3-0.9-1.9-2.1-1.9-3.6
			V9.6H2.5z"/>
		<path class="st0" d="M29.3,12.8l-0.8-2.1c-0.2-0.6-0.4-0.9-0.6-1.1C27.8,9.2,27.6,9,27.2,9h-0.8V8.4h11v0.4h-0.6
			c-0.2,0-0.4,0-0.8,0.2c-0.4,0-0.6,0.4-0.6,0.9c0,0.2,0,0.4,0,0.6c0,0.2,0.2,0.6,0.4,1.3c0.2,0.8,0.6,1.9,1.1,3.2
			c0.6,1.5,0.9,2.6,1.1,3.4l2.5-6.4C41,11.1,41,10.3,41,9.9c0-0.4,0-0.6-0.2-0.8C40.6,9,40.5,9,40.1,9s-0.6,0-0.8,0s-0.4,0-0.6,0
			V8.4h6.4v0.4L43.9,9c-0.8,0.2-1.3,0.9-2.1,2.5l-5.3,14h-2.6l-4.2-11.9L25,25.4h-2.5c-0.4-0.9-0.8-2.1-1.1-3.2
			c-0.4-1.1-1.1-3-2.1-5.9s-1.7-4.7-1.9-5.5c-0.4-0.8-0.6-1.3-0.8-1.5C16.4,9.2,16.3,9,16.1,9c-0.4-0.2-0.8-0.2-0.9-0.2
			c-0.2,0-0.6,0-0.8,0V8.2h11.3v0.6h-0.2c-0.2,0-0.4,0-0.6,0.2c-0.4,0-0.6,0.4-0.6,0.9c0,0.2,0,0.4,0,0.6c0,0.2,0.2,0.6,0.4,1.1
			c0.2,0.6,0.6,1.5,0.9,2.8c0.4,1.3,0.9,2.6,1.5,4.2L29.3,12.8z"/>
		<path class="st0" d="M62.8,20c-0.8,1.9-1.7,3.2-3.2,4.2c-1.5,0.9-3.2,1.5-5.3,1.5c-2.8,0-5.1-0.8-7-2.3c-1.9-1.5-2.8-3.8-2.8-6.6
			c0-2.6,0.9-4.7,2.8-6.4s4.2-2.5,6.8-2.5c2.8,0,4.9,0.8,6.4,2.3s2.3,3.4,2.3,5.7H51.6c0,0.9,0,1.7,0.2,2.6c0.2,0.9,0.4,1.7,0.8,2.6
			c0.4,0.8,0.9,1.5,1.5,2.1c0.8,0.6,1.5,0.8,2.6,0.8c1.5,0,2.6-0.4,3.6-1.3c0.9-0.8,1.5-1.9,1.9-3L62.8,20z M56.3,15.2
			c0-0.2,0-0.6,0-0.9s0-0.8,0-1.3c0-1.5-0.2-2.6-0.6-3.4c-0.4-0.8-0.9-1.1-1.9-1.1c-0.8,0-1.3,0.4-1.5,1.1c-0.4,0.8-0.6,1.9-0.6,3.4
			v2.3H56.3z"/>
		<path class="st0" d="M77.3,13.3v-1.5c0-1.9-0.6-2.8-1.9-2.8c-0.8,0-1.5,0.2-1.7,0.8c-0.4,0.6-0.6,1.1-0.8,1.7v9.3v1.7
			c0,0.9,0,1.7,0.2,1.9s0.8,0.4,1.5,0.4v0.6H63.5v-0.6h0.9c0.8,0,1.1-0.2,1.3-0.6c0.2-0.2,0.2-0.8,0.2-1.7v-1.7V12v-1.5
			c0-0.6-0.2-0.9-0.2-1.3c0-0.4-0.8-0.2-1.7-0.4h-0.8V8.2h9.3v2.6c0.2-0.8,0.8-1.3,1.5-2.1c0.8-0.8,2.1-0.9,4-0.9
			c1.7,0,3.2,0.6,4.3,1.5c1.3,0.9,1.9,2.1,1.9,3.4v8.1v1.7c0,0.9,0,1.5,0.2,1.7s0.6,0.4,1.3,0.6h0.8v0.6H75.4v-0.6
			c0.9,0,1.3-0.2,1.5-0.4s0.4-0.9,0.4-1.9v-1.7V13.3z"/>
		<path class="st0" d="M89,9.6h-2.5V8.6c0.8-0.2,1.7-0.6,2.6-1.1c0.9-0.6,1.7-1.3,2.6-2.1c0.8-0.8,1.5-1.5,2.1-2.3
			c0.6-0.8,0.9-1.5,1.3-2.1h0.9v7.2h4.7l-0.6,1.3h-4.2v9.8v1.9c0,0.9,0.2,1.9,0.8,2.3c0.4,0.6,0.9,0.8,1.7,0.8
			c0.9,0,1.7-0.4,2.1-1.1c0.4-0.8,0.6-1.7,0.6-2.6h0.6c0,1.3-0.4,2.5-1.1,3.6c-0.8,0.9-2.5,1.5-5.1,1.5c-1.7,0-3.2-0.4-4.3-1.3
			c-1.3-0.9-1.9-2.1-1.9-3.6V9.6H89z"/>
		<path class="st0" d="M103.2,10.7c-0.4-0.6-0.6-0.9-0.8-1.3c-0.2-0.2-0.4-0.4-0.8-0.6h-1.3V8.2h11.7v0.6h-0.6c-0.2,0-0.4,0-0.8,0
			s-0.4,0.4-0.4,0.8c0,0.2,0,0.4,0.2,0.8c0.2,0.4,0.2,0.6,0.4,0.9l2.8,6.6c0.2-0.6,0.6-1.5,1.1-2.8s0.9-2.5,1.3-3.4
			c0.4-0.9,0.4-1.5,0.4-1.9c0-0.4,0-0.6-0.2-0.6c-0.2-0.2-0.4-0.2-0.9-0.4h-1.1V8.2h6v0.6c-0.2,0-0.4,0-0.4,0c-0.2,0-0.4,0-0.9,0.2
			c-0.4,0-0.8,0.4-1.1,0.6c-0.4,0.4-0.8,1.5-1.5,3.6s-1.7,4.2-2.5,6.4c-0.9,2.3-1.9,4.5-3,7c-1.1,2.5-2.1,4.2-3.2,5.5
			c-0.9,1.1-2.3,1.9-4,1.9c-0.9,0-1.9-0.4-2.6-0.9c-0.8-0.6-1.1-1.5-1.1-2.5c0-0.9,0.4-1.7,0.9-2.5c0.6-0.8,1.5-0.9,2.5-0.9
			c0.9,0,1.9,0.4,2.5,0.9s0.9,1.3,0.9,2.1c0,0.8-0.2,1.5-0.8,1.9c-0.4,0.6-0.8,0.8-0.8,0.9c0.2,0,0.4,0,0.8,0
			c0.6-0.2,0.9-0.8,1.5-1.3c0.6-0.8,0.9-1.3,1.3-2.1c0.4-0.8,0.8-1.5,1.1-2.6c-0.6-1.3-1.1-2.8-1.9-4.7c-0.8-1.9-1.7-3.8-2.6-6
			C104.5,13.5,103.8,11.8,103.2,10.7z"/>
		<path class="st0" d="M148.2,16.7c0,2.5-0.9,4.7-2.8,6.4c-1.9,1.7-4.2,2.5-6.8,2.5c-2.8,0-5.1-0.8-7-2.5c-1.9-1.7-2.8-3.8-2.8-6.4
			c0-2.5,0.9-4.7,2.8-6.4c1.9-1.7,4.2-2.5,7-2.5c2.6,0,4.9,0.8,6.8,2.5C147.3,12,148.2,14.1,148.2,16.7z M141,16.7
			c0-0.4,0-0.9,0-2.1s0-1.7,0-1.9c0-1.3-0.2-2.5-0.6-3.2c-0.4-0.8-0.9-1.3-1.9-1.3c-0.8,0-1.3,0.4-1.7,1.3c-0.4,0.9-0.6,1.9-0.6,3.2
			c0,0.4,0,0.9,0,1.7c0,0.6,0,1.3,0,2.1c0,0.4,0,0.9,0,2.1c0,1.1,0,1.7,0,1.9c0,1.3,0.2,2.5,0.6,3.2c0.4,0.8,0.9,1.3,1.9,1.3
			c0.8,0,1.3-0.4,1.9-1.3c0.4-0.9,0.6-1.9,0.6-3.2c0-0.6,0-1.1,0-1.7C141,18.3,141,17.5,141,16.7z"/>
		<path class="st0" d="M171.6,24.7c-0.8,0-1.1-0.2-1.3-0.6c-0.2-0.2-0.2-0.8-0.2-1.7v-1.7v-8.1c0-1.3-0.6-2.5-1.9-3.4
			c-1.3-0.9-2.6-1.5-4.3-1.5c-1.9,0-3.2,0.4-4,0.9c-0.8,0.8-1.1,1.3-1.5,2.1V8h-9.3v0.8h0.8c0.8,0,1.1,0.2,1.3,0.6
			c0.2,0.4,0.2,0.8,0.2,1.3v1.5v2.5h7v-3c0.2-0.6,0.6-1.1,0.8-1.7c0.4-0.6,0.9-0.8,1.7-0.8c1.3,0,1.9,0.9,1.9,2.8v1.5v7.4v1.7
			c0,0.9-0.2,1.5-0.4,1.9c-0.2,0.2-0.8,0.4-1.5,0.4v0.6H172v-0.6L171.6,24.7z M158.8,24.3c-0.2-0.2-0.2-0.9-0.2-1.9v-0.8h-7v0.8
			c0,0.9,0,1.5-0.2,1.7c-0.2,0.2-0.6,0.4-1.3,0.6h-0.9v0.6h11.2v-0.6C159.5,24.7,159,24.5,158.8,24.3z"/>
		<path class="st0" d="M191.1,20c-0.8,1.9-1.7,3.2-3.2,4.2c-1.5,0.9-3.2,1.5-5.3,1.5c-2.8,0-5.1-0.8-7-2.3c-1.9-1.5-2.8-3.8-2.8-6.6
			c0-2.6,0.9-4.7,2.8-6.4s4.2-2.5,6.8-2.5c2.8,0,4.9,0.8,6.4,2.3s2.3,3.4,2.3,5.7H180c0,0.9,0,1.7,0.2,2.6c0.2,0.9,0.4,1.7,0.8,2.6
			c0.4,0.8,0.9,1.5,1.5,2.1c0.8,0.6,1.7,0.8,2.6,0.8c1.5,0,2.6-0.4,3.6-1.3c0.9-0.8,1.5-1.9,1.9-3L191.1,20z M184.9,15.2
			c0-0.2,0-0.6,0-0.9s0-0.8,0-1.3c0-1.5-0.2-2.6-0.6-3.4c-0.4-0.8-0.9-1.1-1.9-1.1c-0.8,0-1.3,0.4-1.5,1.1c-0.4,0.8-0.6,1.9-0.6,3.4
			v2.3H184.9z"/>
		<path class="st0" d="M192.8,22c0-0.9,0.4-1.7,1.1-2.5c0.8-0.8,1.5-0.9,2.5-0.9c0.9,0,1.9,0.4,2.5,0.9c0.8,0.8,1.1,1.5,1.1,2.5
			s-0.4,1.9-1.1,2.5c-0.8,0.8-1.5,0.9-2.6,0.9c-0.9,0-1.9-0.4-2.5-0.9C193.2,23.9,192.8,23,192.8,22z"/>
	</g>
	<g>
		<path class="st0" d="M151.6,19.8c0.2-0.2,0.4-0.4,0.8-0.6c0.2-0.2,0.4-0.4,0.6-0.6c0.4-0.4,0.6-0.6,0.6-0.8
			c0.2-0.2,0.2-0.4,0.2-0.8s0-0.6-0.2-0.8c-0.2-0.2-0.4-0.2-0.6-0.2c-0.2,0-0.4,0-0.4,0.2c-0.2,0-0.2,0.2-0.2,0.2
			c0,0.2,0,0.2,0.2,0.2c0.2,0,0.2,0,0.4,0.2c0,0,0.2,0.2,0.2,0.4c0,0.2,0,0.2-0.2,0.4s-0.2,0.2-0.4,0.2c-0.2,0-0.4,0-0.6-0.2
			c-0.2-0.2-0.2-0.2-0.2-0.4s0-0.4,0.2-0.6c0.2-0.2,0.4-0.4,0.6-0.4s0.4-0.2,0.6-0.2s0.4,0,0.4,0c0.4,0,0.8,0,1.1,0.2
			s0.4,0.4,0.4,0.8c0,0.2,0,0.4-0.2,0.6c-0.2,0.2-0.4,0.4-0.4,0.4c-0.2,0-0.4,0.2-0.8,0.4c-0.4,0.2-0.6,0.2-0.6,0.4l0,0
			c0,0,0.2,0,0.4,0c0.2,0,0.2,0,0.4,0h0.8c0.2,0,0.4,0,0.4,0l0.2-0.2v-0.2v-0.2l0,0l-0.4,1.5H151.6L151.6,19.8z"/>
		<path class="st0" d="M157.3,19.2v0.2c0,0.2,0,0.2,0,0.2s0,0,0.2,0h0.2h0.2l0,0h-2.5l0,0c0,0,0,0,0.2,0h0.2h0.2v-0.2v-0.2v-2.5
			v-0.2c0-0.2,0-0.2,0-0.2h-0.2h-0.2h-0.2l0,0h1.9C157.3,16.4,157.3,19.2,157.3,19.2z"/>
	</g>
</g>
</svg>
