<?xml version="1.0" encoding="utf-8"?>
<!-- Generator: Adobe Illustrator 27.0.0, SVG Export Plug-In . SVG Version: 6.00 Build 0)  -->
<svg version="1.1" id="Layer_1" xmlns="http://www.w3.org/2000/svg" xmlns:xlink="http://www.w3.org/1999/xlink" x="0px" y="0px"
	 viewBox="0 0 100 35" style="enable-background:new 0 0 100 35;" xml:space="preserve">
<style type="text/css">
	.st0{fill:#FFFFFF;}
</style>
<g>
	<path class="st0" d="M16,0.4c1.5,0,2.8,0.3,4.1,0.8c1.3,0.6,2.4,1.3,3.4,2.3s1.7,2.1,2.3,3.4c0.6,1.3,0.8,2.7,0.8,4.1
		c0,1.5-0.3,2.8-0.8,4.1c-0.6,1.3-1.3,2.4-2.3,3.4s-2.1,1.7-3.4,2.3c-1.3,0.6-2.7,0.8-4.1,0.8H9.3c-0.4,0-0.6,0.2-0.6,0.6v11.2
		c0,0.5,0.3,0.8,0.8,0.8h0.3v0.3H0.7v-0.3H1c0.5,0,0.8-0.3,0.8-0.8V1.5C1.8,1,1.5,0.7,1,0.7H0.7V0.4H16z M17.8,19.6
		c0.3-0.5,0.6-1,0.7-1.7c0.2-0.7,0.3-1.4,0.3-2.1c0.1-0.8,0.1-1.6,0.1-2.4c0-0.8,0-1.7,0-2.5s0-1.6,0-2.5c0-0.8-0.1-1.6-0.1-2.4
		c-0.1-0.7-0.2-1.4-0.3-2.1c-0.2-0.7-0.4-1.2-0.7-1.7c-0.2-0.3-0.5-0.6-0.9-0.8S16.2,1,15.8,0.9S15,0.7,14.6,0.7s-0.7,0-1.1,0h-2.7
		h-1H9.5C8.9,0.7,8.7,1,8.7,1.5v19.1c0,0.4,0.2,0.6,0.6,0.6h4.2c0.3,0,0.7,0,1.1,0c0.4,0,0.8-0.1,1.2-0.2c0.4-0.1,0.8-0.3,1.1-0.5
		C17.2,20.3,17.5,20,17.8,19.6z"/>
	<path class="st0" d="M37.7,25.5c0,1.8,0.1,3.5,0.3,4.9c0.2,1.5,0.6,2.5,1.3,3.2c0.5,0.5,1.2,0.7,2,0.7c1.6,0,3.1-0.4,4.6-1.1
		c0.4-0.2,0.6-0.6,0.6-1v-0.1V21.9V19c0-0.4-0.2-0.6-0.7-0.6h-0.3V18c1.5-0.2,2.9-0.6,4.2-1.3c1.3-0.7,2.4-1.7,3.2-2.9h0.3v8v11.8
		c0,0.4,0.2,0.6,0.6,0.6h0.3v0.3h-8.7v-0.3h0.3c0.5,0,0.7-0.2,0.7-0.6v-0.2c0-0.1-0.1-0.2-0.2-0.1c-1.5,0.9-3.2,1.3-5,1.3
		c-2.9,0-5.3-1-7.3-3c-1-1-1.7-2.1-2.3-3.4c-0.5-1.3-0.8-2.6-0.8-4V19c0-0.4-0.2-0.6-0.6-0.6H30V18c1.5-0.2,2.9-0.6,4.2-1.3
		c1.3-0.7,2.4-1.7,3.2-2.9h0.3V25.5z"/>
	<path class="st0" d="M73.8,14.7c0.4,0.3,0.8,0.7,1,1.2s0.4,1,0.4,1.5c0,0.9-0.3,1.8-1,2.4c-0.7,0.7-1.5,1-2.4,1s-1.8-0.3-2.4-1
		c-0.7-0.7-1-1.5-1-2.4c0-0.7,0.2-1.4,0.7-2c0.4-0.6,1-1,1.7-1.3C70.7,14,70.7,14,70.6,14s-0.1,0-0.2,0c-0.5,0-0.9,0.2-1.4,0.4
		s-1,0.5-1.5,0.8s-0.9,0.6-1.3,1c-0.4,0.3-0.7,0.6-1,0.9c-0.1,0.2-0.3,0.4-0.4,0.6c-0.1,0.3-0.2,0.5-0.2,0.8v15
		c0,0.4,0.2,0.6,0.7,0.6h0.3v0.3h-8.7v-0.3H57c0.4,0,0.6-0.2,0.6-0.6V19c0-0.5-0.2-0.7-0.6-0.7h-0.3V18c1.5-0.1,2.9-0.6,4.2-1.3
		c1.3-0.7,2.4-1.7,3.2-2.8h0.3V17c0,0.1,0,0.1,0.1,0.1s0.1,0,0.2-0.1c0.2-0.2,0.5-0.5,0.9-0.8c0.4-0.3,0.8-0.7,1.3-1
		c0.4-0.3,0.9-0.6,1.5-0.9c0.6-0.3,1.2-0.4,1.8-0.5C71.7,13.7,72.9,14,73.8,14.7z"/>
	<path class="st0" d="M86.1,25.2c-0.2,0-0.4,0.1-0.4,0.4v1.5c0,1.5,0.1,2.8,0.3,3.9c0.1,1.1,0.5,1.9,1,2.5c0.2,0.3,0.5,0.4,0.9,0.6
		c0.3,0.1,0.7,0.2,1.1,0.2l0,0c1.3,0,2.5-0.2,3.7-0.7s2.3-1.2,3.3-2.2l0.2,0.2c-1,1-2.1,1.7-3.3,2.2c-1.3,0.5-2.6,0.8-4,0.8
		s-2.7-0.3-4-0.8s-2.4-1.3-3.4-2.2c-1-1-1.7-2.1-2.2-3.4s-0.8-2.6-0.8-4s0.3-2.7,0.8-4s1.3-2.4,2.2-3.4c2-2,4.5-3,7.3-3
		c1.4,0,2.7,0.3,4,0.8s2.4,1.3,3.3,2.2c1,1,1.7,2.1,2.2,3.4s0.8,2.6,0.8,4v1h-5.7h-4.7C88.7,25.2,86.1,25.2,86.1,25.2z M85.7,23.5
		c0,0.2,0,0.3,0,0.5s0,0.3,0,0.5c0,0.3,0.1,0.4,0.4,0.4h2.2h3.4c0.3,0,0.4-0.1,0.4-0.4v-1.3V21c0-1.4-0.1-2.6-0.2-3.7
		s-0.5-1.9-1.1-2.4c-0.3-0.3-0.6-0.4-0.9-0.6c-0.3-0.1-0.7-0.2-1-0.2c-0.4,0-0.7,0.1-1.1,0.2c-0.3,0.1-0.6,0.3-0.9,0.6
		c-0.7,0.7-1,1.7-1.1,3.1s-0.2,3.1-0.1,4.9C85.7,22.9,85.7,23.5,85.7,23.5z"/>
</g>
</svg>
