<?xml version="1.0" encoding="utf-8"?>
<!-- Generator: Adobe Illustrator 27.0.0, SVG Export Plug-In . SVG Version: 6.00 Build 0)  -->
<svg version="1.1" id="Layer_1" xmlns="http://www.w3.org/2000/svg" xmlns:xlink="http://www.w3.org/1999/xlink" x="0px" y="0px"
	 viewBox="0 0 310 35" style="enable-background:new 0 0 310 35;" xml:space="preserve">
<style type="text/css">
	.st0{fill:#FFFFFF;}
</style>
<g>
	<path class="st0" d="M25.7,8.1c-0.9-1.2-2.1-2.2-3.6-2.8c-1.4-0.7-2.9-1-4.5-1c-1.9,0-3.6,0.4-5.1,1.1C11.1,6,9.8,7,8.7,8.2
		c-1.1,1.2-1.9,2.7-2.5,4.3c-0.6,1.6-0.9,3.4-0.9,5.3c0,1.8,0.3,3.4,0.8,5c0.6,1.6,1.4,2.9,2.4,4.1c1.1,1.2,2.4,2.1,3.9,2.8
		c1.5,0.7,3.3,1,5.2,1c1.9,0,3.6-0.4,5-1.2c1.4-0.8,2.7-1.9,3.7-3.3l3.8,2.9c-0.3,0.3-0.7,0.8-1.3,1.5c-0.6,0.6-1.5,1.3-2.5,1.9
		c-1,0.6-2.3,1.2-3.7,1.7c-1.5,0.5-3.1,0.7-5,0.7c-2.6,0-5-0.5-7.1-1.5s-3.9-2.3-5.4-3.9C3.6,27.9,2.5,26,1.7,24
		c-0.8-2-1.2-4.1-1.2-6.2c0-2.6,0.4-4.9,1.3-7.1c0.8-2.2,2-4,3.5-5.6c1.5-1.6,3.3-2.8,5.5-3.7c2.1-0.9,4.5-1.3,7-1.3
		c2.2,0,4.3,0.4,6.4,1.3s3.8,2.1,5.2,3.9L25.7,8.1z"/>
	<path class="st0" d="M35.6,0.9h4.5v29h15.2v4.2H35.6V0.9z"/>
	<path class="st0" d="M59.9,0.9h21.4v4.2H64.4V15h15.8v4.2H64.4v10.7h17.8v4.2H59.9V0.9z"/>
	<path class="st0" d="M99,0.9h4.1l14.2,33.2h-5.3l-3.3-8.2H92.9l-3.3,8.2h-5.3L99,0.9z M107.1,22l-6.2-15.2h-0.1L94.5,22H107.1z"/>
	<path class="st0" d="M121.6,0.9h5.9l18.3,27.3h0.1V0.9h4.5v33.2h-5.7L126.2,6.8h-0.1v27.3h-4.5V0.9z"/>
	<path class="st0" d="M160,27.2c0.8,1.2,1.9,2.1,3.1,2.7c1.3,0.6,2.6,0.9,3.9,0.9c0.8,0,1.5-0.1,2.3-0.4c0.8-0.2,1.5-0.6,2.1-1.1
		c0.6-0.5,1.2-1,1.6-1.7c0.4-0.7,0.6-1.5,0.6-2.4c0-1.3-0.4-2.3-1.2-2.9c-0.8-0.7-1.8-1.2-3-1.7c-1.2-0.5-2.5-0.9-3.9-1.3
		c-1.4-0.4-2.7-1-3.9-1.8c-1.2-0.8-2.2-1.8-3-3c-0.8-1.3-1.2-3-1.2-5.1c0-1,0.2-2,0.6-3.1c0.4-1.1,1.1-2.1,2-3
		c0.9-0.9,2.1-1.7,3.5-2.3c1.4-0.6,3.1-0.9,5.1-0.9c1.8,0,3.6,0.3,5.2,0.8c1.7,0.5,3.1,1.5,4.4,3.1l-3.7,3.3
		c-0.6-0.9-1.4-1.6-2.4-2.1c-1-0.5-2.2-0.8-3.5-0.8c-1.3,0-2.3,0.2-3.1,0.5c-0.8,0.3-1.5,0.8-2,1.3c-0.5,0.5-0.9,1.1-1.1,1.7
		c-0.2,0.6-0.3,1.1-0.3,1.6c0,1.4,0.4,2.5,1.2,3.2c0.8,0.8,1.8,1.4,3,1.8c1.2,0.5,2.5,0.9,3.9,1.3c1.4,0.4,2.7,0.9,3.9,1.6
		c1.2,0.7,2.2,1.6,3,2.7c0.8,1.1,1.2,2.7,1.2,4.7c0,1.6-0.3,3-0.9,4.3c-0.6,1.3-1.4,2.4-2.5,3.2s-2.3,1.5-3.7,2
		c-1.4,0.5-2.9,0.7-4.5,0.7c-2.1,0-4.1-0.4-6.1-1.1c-1.9-0.8-3.4-1.9-4.6-3.5L160,27.2z"/>
	<path class="st0" d="M185.1,0.9h11.7c2.1,0,3.9,0.3,5.3,0.9c1.4,0.6,2.5,1.3,3.3,2.2c0.8,0.9,1.4,1.9,1.7,3
		c0.3,1.1,0.5,2.2,0.5,3.2c0,1-0.2,2.1-0.5,3.2c-0.3,1.1-0.9,2.1-1.7,3c-0.8,0.9-1.9,1.6-3.3,2.2c-1.4,0.6-3.1,0.9-5.3,0.9h-7.2
		v14.6h-4.5V0.9z M189.6,15.5h5.9c0.9,0,1.7-0.1,2.6-0.2c0.9-0.1,1.6-0.4,2.3-0.8c0.7-0.4,1.2-0.9,1.6-1.6c0.4-0.7,0.6-1.6,0.6-2.7
		s-0.2-2-0.6-2.7c-0.4-0.7-0.9-1.2-1.6-1.6c-0.7-0.4-1.4-0.6-2.3-0.8c-0.9-0.1-1.7-0.2-2.6-0.2h-5.9V15.5z"/>
	<path class="st0" d="M219.8,0.9h4.1l14.2,33.2h-5.3l-3.3-8.2h-15.8l-3.3,8.2h-5.3L219.8,0.9z M227.9,22l-6.2-15.2h-0.1L215.3,22
		H227.9z"/>
	<path class="st0" d="M265.6,8.1c-0.9-1.2-2.1-2.2-3.6-2.8c-1.4-0.7-2.9-1-4.5-1c-1.9,0-3.6,0.4-5.1,1.1C251,6,249.7,7,248.6,8.2
		c-1.1,1.2-1.9,2.7-2.5,4.3c-0.6,1.6-0.9,3.4-0.9,5.3c0,1.8,0.3,3.4,0.8,5c0.6,1.6,1.4,2.9,2.4,4.1c1.1,1.2,2.4,2.1,3.9,2.8
		c1.5,0.7,3.3,1,5.2,1c1.9,0,3.6-0.4,5-1.2c1.4-0.8,2.7-1.9,3.7-3.3l3.8,2.9c-0.3,0.3-0.7,0.8-1.3,1.5c-0.6,0.6-1.5,1.3-2.5,1.9
		c-1,0.6-2.3,1.2-3.7,1.7c-1.5,0.5-3.1,0.7-5,0.7c-2.6,0-5-0.5-7.1-1.5c-2.1-1-3.9-2.3-5.4-3.9c-1.5-1.6-2.6-3.5-3.4-5.5
		c-0.8-2-1.2-4.1-1.2-6.2c0-2.6,0.4-4.9,1.3-7.1c0.8-2.2,2-4,3.5-5.6c1.5-1.6,3.3-2.8,5.5-3.7c2.1-0.9,4.5-1.3,7-1.3
		c2.2,0,4.3,0.4,6.4,1.3c2.1,0.8,3.8,2.1,5.2,3.9L265.6,8.1z"/>
	<path class="st0" d="M275.5,0.9h21.4v4.2H280V15h15.8v4.2H280v10.7h17.8v4.2h-22.3V0.9z"/>
	<path class="st0" d="M306.4,34.4c-0.8,0-1.6-0.3-2.2-0.9c-0.6-0.6-0.9-1.3-0.9-2.2c0-0.8,0.3-1.6,0.9-2.2c0.6-0.6,1.3-0.9,2.2-0.9
		c0.8,0,1.6,0.3,2.2,0.9c0.6,0.6,0.9,1.3,0.9,2.2c0,0.8-0.3,1.6-0.9,2.2C308,34.1,307.2,34.4,306.4,34.4z"/>
</g>
</svg>
