<?xml version="1.0" encoding="utf-8"?>
<!-- Generator: Adobe Illustrator 24.1.1, SVG Export Plug-In . SVG Version: 6.00 Build 0)  -->
<svg version="1.1" id="Layer_1" xmlns="http://www.w3.org/2000/svg" xmlns:xlink="http://www.w3.org/1999/xlink" x="0px" y="0px"
	 viewBox="0 0 150 35" style="enable-background:new 0 0 150 35;" xml:space="preserve">
<style type="text/css">
	.st0{fill:#FFFFFF;}
</style>
<g>
	<g id="XMLID_116_">
		<g id="XMLID_117_">
			<path id="XMLID_119_" class="st0" d="M29.4,7.4l-2.3,0c0,0,0.1,0.1,0.1,0.1c2.4,2.2,4,5.2,4.7,8.4c0,0.2,0.1,0.4,0.1,0.6l1.6,0.5
				c-0.1-1-0.2-1.9-0.5-2.9c-0.5-2-1.5-4-2.8-5.6C30.1,8.1,29.8,7.7,29.4,7.4z"/>
			<path id="XMLID_118_" class="st0" d="M6.9,22.2c0-1.5,0-3.4-0.2-5c-0.2-1.5-0.7-2.9-1.3-4.3c-0.1,0.7,0.1,1.4,0.1,2.1
				c0,1,0,2.1,0,3.1c-0.2,1.7-0.5,3.5-0.2,5.2c-1.5-3.3-1.8-7.2-0.6-10.7c0.7-2.4,2.1-4.6,4-6.3c1.4-1.3,3.1-2.3,4.9-2.7
				c0.1,0,0.1,0,0.2,0c1.3-0.3,2.5-0.8,3.6-1.5l0.1-0.1C13.2,2,9.1,3.8,6.1,6.7c-1.4,1.3-2.4,2.9-3.3,4.6c-1,2.2-1.6,4.6-1.5,7
				C1.2,23,3.3,27.6,6.8,30.6c3.3,3,7.9,4.4,12.3,3.9c3.3-0.3,6.4-1.6,8.9-3.7c2.5-2.1,4.3-4.9,5.2-8l-1.4-0.3c0,0.1,0,0.1-0.1,0.2
				c-0.5,2-1.4,3.9-2.7,5.6c-1,1.2-2.4,2-3.7,2.6c-3,1.4-6.4,1.8-9.6,1c-2.3-0.5-4.4-1.6-6.2-3c-0.4-0.3-0.8-0.6-1-1.1
				c1.5,0,3.1-0.2,4.6-0.4c2.8-0.4,5.6-1.1,8.1-2.4c0.8-0.4,1.7-0.9,2.3-1.5c-0.9,0.3-1.8,0.7-2.8,0.7c-0.9,0.1-1.8,0.1-2.7,0.1
				c-3.1,0.1-6.1,0.7-9,1.8c-0.3,0.1-0.7,0.3-1,0.3C8,26.5,6.2,24.8,6.9,22.2z"/>
		</g>
		<path class="st0" d="M33.1,19.8c-0.3-0.2-0.7-0.3-1.1-0.2v0c0,0-0.2-0.1-0.7-0.3c0.9-0.2,1.8-0.2,2.7-0.4
			c-0.7-0.3-1.5-0.6-2.3-0.9c-0.5-0.2-1.1-0.2-1.6-0.1c-0.5,0.1-0.8,0.3-1.2,0.6c-0.4-0.1-0.8-0.2-1.3-0.3c1.1-0.3,2.1-0.7,3.1-1.1
			c-0.9-0.2-1.7-0.1-2.6-0.1c-0.7,0-1.4,0.3-1.9,0.8c-0.1,0.1-0.1,0.1-0.2,0.2c-0.4,0-0.8-0.1-1.3-0.1c0.9-0.6,1.9-1,2.8-1.6
			c-1.2,0.1-2.5,0.1-3.6,0.6c-0.5,0.2-0.9,0.6-1.2,1c0,0-0.1,0.1-0.1,0.1c-0.3,0-0.7,0.1-1,0.1c0,0,0,0,0,0c0.9-0.9,1.8-1.7,2.7-2.5
			c-0.7,0.3-1.4,0.4-2.1,0.7c-0.8,0.4-1.7,0.7-2.2,1.4c-0.2,0.2-0.3,0.6-0.5,0.8c-0.8,0.2-1.6,0.4-2.4,0.7c0,0-0.1,0-0.1,0
			c0.8-0.4,1.5-1,1.9-1.8c0.3-0.5,0.7-0.9,1-1.5c-0.4,0.1-0.7,0.3-1,0.5c-0.7,0.4-1.4,0.8-1.9,1.4c-0.4,0.5-0.7,1-0.8,1.6
			c-0.6,0.2-1.1,0.4-1.7,0.7c0.4-0.5,0.7-1,1-1.6c0.2-0.4,0.6-0.9,0.6-1.4c-0.5,0.2-0.9,0.6-1.3,0.9c-0.6,0.5-1.3,1.2-1.6,2
			c-0.1,0.3-0.1,0.6-0.2,0.8c-0.5,0.3-1,0.5-1.4,0.9c-1.2,0.9-2.4,1.8-3.5,2.8c0-0.5,0.1-1.1,0.2-1.6c0.3-1.6,0.7-3.3,1.5-4.8
			c0.1-0.3,0.4-0.2,0.6-0.2c0.8,0,1.4-0.5,2.1-0.8c0.8-0.5,1.7-0.9,2.4-1.6c-1.3-0.1-2.6,0.2-3.8,0.7c0,0,0,0,0,0
			c0.2-0.3,0.6-0.9,1.1-1.7c0.2,0.1,0.4,0.1,0.6,0.1c1,0.1,1.9-0.1,2.8-0.4c0.8-0.3,1.6-0.7,2.4-1c-0.4,0-0.8-0.1-1.1-0.1
			c-0.9,0-1.9-0.1-2.8,0c-0.3,0-0.6,0.2-1,0.2c0.4-0.5,0.9-1.1,1.4-1.7c0.2,0,0.3,0.1,0.5,0.1c1.3,0.4,2.7,0.4,4.1,0.3
			c0.9-0.1,1.7-0.1,2.6-0.4c-0.5-0.2-1.1-0.2-1.6-0.5c-0.6-0.3-1.3-0.6-2.1-0.7c-0.8-0.1-1.6,0-2.5,0.1c0,0,0,0,0,0
			c0.4-0.4,0.9-0.8,1.4-1.3c0.4,0.2,0.8,0.5,1.3,0.5c1.3,0.2,2.5-0.1,3.8-0.3c0.5-0.1,1-0.2,1.5-0.5c-1.1-0.2-2.2-0.5-3.2-0.7
			c-0.7-0.1-1.3,0-2-0.1c0,0,0,0,0-0.1c0.7-0.6,1.5-1.1,2.3-1.6c0.4,0.6,1,1,1.7,1.2c1.3,0.2,2.6,0,3.9-0.2
			c-0.5-0.2-0.9-0.4-1.4-0.5c-0.6-0.2-1.2-0.6-1.8-0.8c-0.5-0.2-1.1-0.1-1.6-0.2c0.5-0.3,1-0.6,1.5-0.8C23,5,23.1,5,23.2,5
			c0.2-0.1,0.5-0.2,0.7,0c0.5,0.6,1.2,1.1,1.9,1.2c1.2,0.1,2.4,0,3.7-0.1c-0.7-0.4-1.5-0.7-2.3-1c-0.6-0.3-1.3-0.4-1.9-0.7
			C25.9,4,26.4,3.6,27,3.6c0.3,0.2,0.6,0.5,1,0.7c0.4,0.2,0.9,0.1,1.3,0.1c1.3-0.2,2.4-0.7,3.6-1.3c0.3-0.2,0.6-0.3,0.8-0.5
			c-0.6,0-1.3,0-1.9-0.1C30.9,2.2,30,2.2,29,2.3c-0.5,0.1-0.9,0.4-1.3,0.6c0,0-0.4,0.1-1.2,0.3c0.2-0.3,0.5-0.5,0.7-0.7
			c0.4-0.4,0.8-0.8,1.3-1.2c0.3-0.3,0.6-0.6,0.9-0.9c-0.3,0-0.6,0-0.8,0.1c-1,0.3-1.9,0.6-2.8,1c-0.9,0.4-1.6,1.1-1.9,2
			c-0.1,0.1-0.1,0.3-0.2,0.4c-0.6,0.2-1.2,0.4-1.8,0.7c0.8-1.2,1.8-2.2,2.4-3.5c-0.9,0.3-1.7,0.9-2.5,1.4C20.8,3.1,20.2,4,20.2,5
			c0,0.1,0,0.2,0,0.3c-0.6,0.3-1.3,0.6-1.9,0.9c0.1-0.4,0.3-0.7,0.5-1.1c0.2-0.6,0.3-1.2,0.4-1.8c0.1-0.4,0.2-0.8,0.2-1.2
			c-0.7,0.8-1.6,1.4-2.2,2.3c-0.6,0.6-1.1,1.4-1,2.3c0,0.3,0.1,0.6,0.1,0.9c-0.5,0.3-0.9,0.6-1.3,1c0.2-1.1,0.3-2.2,0.6-3.3
			c0.1-0.3,0.1-0.6,0.1-0.9c-0.8,1.2-1.7,2.3-2.2,3.6C13,8.7,13,9.5,13.2,10.2c-0.2,0.3-0.5,0.6-0.7,0.9c0-1.5,0-3,0-4.4
			c-0.6,1.4-1.4,2.8-1.7,4.4c-0.2,0.8,0,1.6,0.3,2.3c-0.5,0.6-1,1.3-1.4,2c0.1-0.9-0.1-1.9-0.2-2.8c-0.1-0.8-0.1-1.5-0.2-2.3
			c-0.2,0.9-0.7,1.8-0.9,2.8c-0.3,0.9-0.4,1.8-0.2,2.7c0.1,0.5,0.3,0.9,0.6,1.3C8,18.4,7.3,20,6.9,21.4c-0.1,0.3-0.7,4.6,1.2,5.2
			c0.3-0.4,0.7-0.9,1.1-1.3c1-1.1,2-2.1,3.3-2.9c0.2-0.1,0.3-0.2,0.5-0.3l0.1,0c0,0,0.1,0,0.2-0.1c0.1,0,0.1,0,0.2-0.1
			c0.3,0.1,0.6,0.3,0.9,0.3c1.1,0.2,2.1,0.2,3.2,0.1c-0.1-0.2-0.3-0.4-0.5-0.5c-0.6-0.3-1.4-0.5-2.1-0.7c0.5-0.2,1-0.4,1.7-0.6
			c0.2,0.3,0.6,0.5,1,0.7c0.8,0.3,1.6,0.6,2.5,0.6c-0.5-0.5-0.9-1-1.5-1.3c-0.3-0.2-0.6-0.3-0.9-0.3c0.5-0.2,1.1-0.3,1.7-0.4
			c0.4,0.5,0.7,1,1.2,1.3c0.9,0.6,1.7,1.2,2.7,1.4c-0.3-0.7-0.6-1.4-1.1-2c-0.4-0.5-0.9-0.7-1.4-1c0.4-0.1,0.9-0.1,1.3-0.2
			c0.2,0.4,0.4,0.8,0.8,1c0.6,0.5,1.4,0.8,2.1,1.1c0.3,0.1,0.5,0.2,0.8,0.2c-0.3-0.6-0.7-1-1.1-1.5c-0.3-0.3-0.7-0.7-1.1-0.9
			c0.7,0,1.3,0,2,0c0.1,0.5,0.3,1,0.6,1.3c0.8,0.8,1.8,1.3,2.8,1.8c-0.3-0.6-0.7-1.1-1.1-1.6c-0.3-0.5-0.6-0.9-1-1.3
			c-0.1-0.1-0.2-0.1-0.2-0.2c0.7,0,1.3,0.1,2,0.2c0,0.7,0.4,1.3,1,1.7c0.4,0.3,0.9,0.6,1.4,0.7c-0.4-0.8-1-1.5-1.4-2.3
			c0.5,0.1,1.1,0.2,1.6,0.3c0,0.4,0.3,0.8,0.7,1c0.9,0.5,1.8,0.7,2.8,0.6C34.5,20.8,33.8,20.2,33.1,19.8z"/>
	</g>
	<g>
		<g>
			<path class="st0" d="M51.5,21.6c-0.2,0-0.4,0-0.7-0.1c-0.9-0.1-1.6-0.5-2.2-1c-0.6-0.5-1.1-1.2-1.3-2c-0.8,0.4-1.8,0.5-2.7,0.5
				c-1.6,0-2.9-0.5-4-1.4c-1-0.9-1.5-2.1-1.5-3.5c0-1,0.2-1.8,0.7-2.6c0.5-0.7,1.1-1.3,2-1.7c0.9-0.4,1.8-0.6,2.9-0.6
				c0.7,0,1.4,0.1,2.1,0.2c0.7,0.1,1.2,0.3,1.6,0.5l0,2.3h-0.1c-0.2-0.8-0.6-1.4-1.2-1.9c-0.6-0.4-1.4-0.6-2.2-0.6
				c-1.1,0-1.9,0.4-2.6,1.2c-0.7,0.8-1,1.9-1,3.1c0,1.3,0.3,2.3,1,3.1c0.7,0.8,1.5,1.2,2.5,1.2c0.6,0,1-0.1,1.4-0.4
				c0.4-0.2,0.7-0.6,0.8-1v-2c0-0.2-0.1-0.4-0.2-0.5c-0.1-0.1-0.3-0.2-0.5-0.2h-0.2v-0.1H50v0.1h-0.2c-0.2,0-0.4,0.1-0.5,0.2
				c-0.1,0.1-0.2,0.3-0.2,0.4v2.1c0,0.6,0.1,1.1,0.3,1.7c0.5,1.1,1.3,1.8,2.4,2c0.3,0.1,0.6,0.1,0.9,0.1c0.3,0,0.6,0,1-0.1l0,0.1
				C53,21.5,52.2,21.6,51.5,21.6z"/>
			<path class="st0" d="M51.7,18.8c0.2,0,0.4-0.1,0.6-0.2c0.2-0.2,0.3-0.4,0.3-0.6v-7.5c0-0.2-0.1-0.4-0.3-0.6
				c-0.2-0.2-0.4-0.2-0.6-0.2h-0.2V9.6h4.1l0,0.1h-0.2c-0.2,0-0.4,0.1-0.6,0.2c-0.2,0.2-0.3,0.4-0.3,0.6V18c0,0.2,0.1,0.4,0.3,0.6
				c0.2,0.2,0.4,0.2,0.6,0.2h0.2l0,0.1h-4.1v-0.1H51.7z"/>
			<path class="st0" d="M61.1,10.2h-0.6c0,0,0,0,0,0V18c0,0.3,0.2,0.6,0.4,0.7c0.1,0.1,0.3,0.1,0.4,0.1h0.2V19h-4.1v-0.1h0.2
				c0.3,0,0.6-0.1,0.7-0.4c0.1-0.1,0.1-0.3,0.1-0.4v-7.5c0-0.2-0.1-0.4-0.3-0.6c-0.2-0.2-0.4-0.2-0.6-0.2h-0.2V9.6H62
				c0.9,0,1.6,0.2,2.2,0.6c0.3,0.2,0.5,0.5,0.7,0.8c0.2,0.3,0.3,0.7,0.3,1.1c0,0.4-0.1,0.8-0.2,1.2c-0.1,0.4-0.4,0.7-0.7,0.9
				c-0.3,0.3-0.8,0.4-1.2,0.5c0.5,0.2,1,0.6,1.4,1.2c1,1.6,1.7,2.5,2.2,2.8c0.2,0.1,0.5,0.2,0.9,0.2V19h-1.3c-0.8,0-1.4-0.1-1.9-0.3
				c-0.5-0.2-0.9-0.6-1.3-1.1c-0.2-0.3-0.4-0.7-0.6-1.2c-0.3-0.5-0.4-0.9-0.5-1.1c-0.2-0.5-0.5-0.8-0.9-0.9v-0.1h0.4
				c0.4,0,0.8-0.1,1.1-0.4c0.3-0.2,0.5-0.6,0.6-1.2c0-0.2,0.1-0.3,0.1-0.4c0-0.7-0.1-1.3-0.4-1.6c-0.3-0.3-0.7-0.5-1.1-0.5
				C61.4,10.2,61.3,10.2,61.1,10.2z"/>
			<path class="st0" d="M77,9.7h-0.1c-0.2,0-0.4,0.1-0.6,0.2c-0.2,0.1-0.4,0.3-0.5,0.6l-3.2,7c-0.4,0.9-0.6,1.5-0.7,1.8h-0.1
				l-4.1-8.8c-0.1-0.3-0.3-0.4-0.5-0.6c-0.2-0.1-0.4-0.2-0.6-0.2h-0.1V9.6h4.3v0.1h-0.1c-0.2,0-0.3,0.1-0.4,0.2
				C70,10,70,10.1,70,10.2c0,0.1,0,0.2,0.1,0.3l2.3,5.6l2.4-5.6c0-0.1,0.1-0.2,0.1-0.3c0-0.1,0-0.2-0.1-0.3
				c-0.1-0.1-0.2-0.2-0.4-0.2h-0.1V9.6H77V9.7z"/>
			<path class="st0" d="M85.6,18.8h0.1V19h-4.3v-0.1h0.1c0.2,0,0.3-0.1,0.4-0.2c0.1-0.1,0.1-0.2,0.1-0.3c0-0.1,0-0.2-0.1-0.3
				l-0.7-1.7h-3.2L77.6,18c0,0.1-0.1,0.2-0.1,0.3c0,0.1,0,0.2,0.1,0.3c0.1,0.1,0.2,0.2,0.5,0.2h0.1V19h-2.9v-0.1h0.1
				c0.2,0,0.4-0.1,0.6-0.2c0.2-0.1,0.4-0.3,0.5-0.6l3.1-7c0.4-0.9,0.6-1.5,0.7-1.8h0.1l4,8.8c0.1,0.3,0.3,0.5,0.5,0.6
				C85.2,18.8,85.4,18.8,85.6,18.8z M78.5,15.8h2.7l-1.3-3.3L78.5,15.8z"/>
			<path class="st0" d="M90.3,10.2h-0.6c0,0,0,0,0,0V18c0,0.3,0.2,0.6,0.4,0.7c0.1,0.1,0.3,0.1,0.4,0.1h0.2V19h-4.1v-0.1h0.2
				c0.3,0,0.6-0.1,0.7-0.4c0.1-0.1,0.1-0.3,0.1-0.4v-7.5c0-0.2-0.1-0.4-0.3-0.6c-0.2-0.2-0.4-0.2-0.6-0.2h-0.2V9.6h4.6
				c0.9,0,1.6,0.2,2.2,0.6c0.3,0.2,0.5,0.5,0.7,0.8c0.2,0.3,0.3,0.7,0.3,1.1c0,0.4-0.1,0.8-0.2,1.2c-0.1,0.4-0.4,0.7-0.7,0.9
				c-0.3,0.3-0.8,0.4-1.2,0.5c0.5,0.2,1,0.6,1.4,1.2c1,1.6,1.7,2.5,2.2,2.8c0.2,0.1,0.5,0.2,0.9,0.2V19h-1.3c-0.8,0-1.4-0.1-1.9-0.3
				c-0.5-0.2-0.9-0.6-1.3-1.1c-0.2-0.3-0.4-0.7-0.6-1.2c-0.3-0.5-0.4-0.9-0.5-1.1c-0.2-0.5-0.5-0.8-0.9-0.9v-0.1h0.4
				c0.4,0,0.8-0.1,1.1-0.4c0.3-0.2,0.5-0.6,0.6-1.2c0-0.2,0.1-0.3,0.1-0.4c0-0.7-0.1-1.3-0.4-1.6c-0.3-0.3-0.7-0.5-1.1-0.5
				C90.6,10.2,90.5,10.2,90.3,10.2z"/>
			<path class="st0" d="M116.2,18.8c0.2,0,0.3-0.1,0.5-0.3c0.1-0.1,0.1-0.2,0.1-0.3c0-0.1,0-0.2-0.1-0.3l-1.9-2.9l-2,2.9
				c-0.2,0.3-0.1,0.5,0.1,0.7c0.1,0.1,0.2,0.1,0.3,0.1h0.2V19h-3.3v-0.1h0.2c0.5,0,0.9-0.3,1.3-0.8l2.7-3.8l-2.5-3.9
				c-0.2-0.2-0.4-0.4-0.6-0.6c-0.2-0.2-0.5-0.2-0.8-0.2h-0.2V9.6h4.6v0.1h-0.2c-0.2,0-0.3,0.1-0.5,0.3c-0.1,0.1-0.1,0.2-0.1,0.3
				c0,0.1,0,0.2,0.1,0.3l1.7,2.6l1.7-2.6c0.1-0.1,0.1-0.2,0.1-0.3c0-0.1,0-0.2-0.1-0.3c-0.1-0.2-0.3-0.3-0.5-0.3h-0.2V9.6h3.3v0.1
				H120c-0.3,0-0.5,0.1-0.8,0.2c-0.2,0.1-0.4,0.3-0.6,0.6l-2.3,3.4l2.7,4.2c0.2,0.2,0.4,0.4,0.6,0.6c0.2,0.1,0.5,0.2,0.8,0.2h0.2V19
				h-4.6v-0.1H116.2z"/>
			<path class="st0" d="M121.7,18.8c0.2,0,0.4-0.1,0.6-0.2c0.2-0.2,0.3-0.4,0.3-0.6v-7.5c0-0.2-0.1-0.4-0.3-0.6
				c-0.2-0.2-0.4-0.2-0.6-0.2h-0.2V9.6h4.1l0,0.1h-0.2c-0.2,0-0.4,0.1-0.6,0.2c-0.2,0.2-0.3,0.4-0.3,0.6V18c0,0.2,0.1,0.4,0.3,0.6
				c0.2,0.2,0.4,0.2,0.6,0.2h0.2l0,0.1h-4.1v-0.1H121.7z"/>
			<path class="st0" d="M139.6,18.8h0.2V19h-4v-0.1h0.2c0.2,0,0.3-0.1,0.4-0.2c0.1-0.1,0.2-0.3,0.1-0.4l-0.5-4.9l-2.5,4.4
				c-0.3,0.6-0.5,1.1-0.5,1.5h-0.1l-3.5-5.8l-0.5,4.8c0,0.1,0,0.3,0.1,0.4c0.1,0.1,0.2,0.2,0.4,0.2h0.2V19h-2.8v-0.1h0.2
				c0.3,0,0.5-0.1,0.7-0.2c0.2-0.2,0.3-0.4,0.3-0.6l1.1-8.6h0.1l4.2,6.9l4-6.9h0.1l1.1,8.6c0,0.3,0.2,0.5,0.3,0.6
				C139.1,18.8,139.3,18.8,139.6,18.8z"/>
			<path class="st0" d="M148.5,13.4c-0.3,0.7-0.9,1.2-1.7,1.5c-0.2,0.1-0.5,0.1-0.7,0.1c-0.6,0-1.2-0.2-1.7-0.5v-0.1
				c0.7,0,1.2-0.2,1.6-0.7c0.4-0.4,0.6-0.9,0.6-1.5c0-1-0.3-1.6-1-1.9c-0.2-0.1-0.5-0.1-0.7-0.1H144V18c0,0.2,0.1,0.4,0.3,0.6
				c0.2,0.2,0.4,0.2,0.6,0.2h0.2V19h-4.1v-0.1h0.2c0.2,0,0.4-0.1,0.6-0.2c0.2-0.2,0.3-0.4,0.3-0.6v-7.5c0-0.3-0.2-0.5-0.5-0.7
				c-0.1-0.1-0.3-0.1-0.4-0.1h-0.2V9.6h4.5c1.6,0,2.7,0.5,3.1,1.5c0.1,0.3,0.2,0.7,0.2,1.1C148.8,12.7,148.7,13.1,148.5,13.4z"/>
			<g>
				<path class="st0" d="M101.5,18.8c0.2,0,0.4-0.1,0.6-0.2c0.2-0.2,0.2-0.4,0.3-0.6v-7.5c0-0.2-0.1-0.4-0.2-0.5
					c-0.2-0.2-0.4-0.3-0.6-0.3h-0.2V9.5h5c0.4,0,0.8,0,1.1-0.1c0.3-0.1,0.5-0.1,0.5-0.1v2.4l-0.1,0v-0.1c0-0.6-0.2-1-0.6-1.2
					c-0.2-0.1-0.4-0.2-0.7-0.2h-2.2V14h2.2c0.3,0,0.6-0.1,0.8-0.3c0.2-0.2,0.3-0.5,0.3-0.8v-0.1h0.1v3.1h-0.1v-0.1
					c0-0.3-0.1-0.6-0.3-0.8c-0.2-0.2-0.5-0.3-0.8-0.3h-2.3v3.8h2.8c0.6,0,1.2-0.2,1.6-0.6c0.4-0.4,0.8-0.9,1-1.6h0.1l-0.6,2.8h-7.9
					v-0.1H101.5z"/>
			</g>
		</g>
		<g>
			<path class="st0" d="M56,23.3v1.5c0,0.1,0,0.2,0,0.3c0,0,0,0,0.1,0.1c0.1,0,0.2,0,0.3,0.1c0.2,0,0.4,0,0.7,0v0.1h-2.9v-0.1
				c0.2,0,0.4,0,0.6,0c0.2,0,0.3,0,0.3-0.1c0.1,0,0.1,0,0.1-0.1c0,0,0-0.1,0-0.3v-3.5c0-0.1,0-0.2,0-0.2c0,0,0,0-0.1-0.1
				c-0.1-0.1-0.4-0.1-0.9-0.1v-0.1h2.6c0.5,0,1,0.1,1.3,0.4c0.3,0.2,0.4,0.5,0.4,0.9c0,0.3-0.1,0.5-0.3,0.7
				c-0.3,0.3-0.7,0.4-1.1,0.4H56z M56,23.2h0.7c0.4,0,0.6-0.1,0.8-0.3c0.1-0.2,0.2-0.4,0.2-0.8c0-0.4-0.1-0.7-0.3-0.9
				c-0.2-0.2-0.4-0.3-0.8-0.3h-0.3c-0.1,0-0.2,0-0.2,0c0,0-0.1,0-0.1,0.1c0,0,0,0.1,0,0.3V23.2z"/>
			<path class="st0" d="M65.5,24.3v0.2c0,0.3,0,0.5-0.1,0.6c-0.1,0.2-0.2,0.3-0.5,0.3c-0.3,0-0.5-0.1-0.6-0.4
				c-0.1-0.2-0.1-0.6-0.1-1.1v-0.1c0,0,0-0.1,0-0.1c0-0.2-0.1-0.4-0.2-0.5C63.9,23,63.7,23,63.5,23h-0.8v1.8c0,0.1,0,0.2,0,0.3
				c0,0,0,0.1,0.1,0.1c0.1,0,0.2,0,0.3,0c0.2,0,0.3,0,0.5,0v0.1h-2.8v-0.1c0.5,0,0.8,0,0.9-0.1c0,0,0.1,0,0.1-0.1c0,0,0-0.1,0-0.2
				v-3.5c0-0.1,0-0.2,0-0.2c0,0,0,0-0.1-0.1c-0.1-0.1-0.4-0.1-0.9-0.1v-0.1h2.8c0.5,0,0.9,0.1,1.2,0.4c0.2,0.2,0.3,0.4,0.3,0.6
				c0,0.3-0.1,0.5-0.3,0.6c-0.2,0.2-0.6,0.3-1,0.4c0.5,0.1,0.8,0.4,1,0.8c0.1,0.2,0.1,0.6,0.1,1c0,0.1,0,0.2,0,0.3
				c0,0.1,0.1,0.1,0.2,0.1c0.1,0,0.2-0.1,0.2-0.2C65.4,24.8,65.4,24.6,65.5,24.3L65.5,24.3z M62.7,22.9h0.6c0.3,0,0.6-0.1,0.7-0.2
				c0.2-0.1,0.3-0.4,0.3-0.7c0-0.4-0.1-0.7-0.2-0.8c-0.2-0.2-0.4-0.2-0.8-0.2H63c-0.1,0-0.2,0-0.2,0c0,0-0.1,0-0.1,0.1
				c0,0,0,0.1,0,0.3V22.9z"/>
			<path class="st0" d="M69.7,21.3v3.5c0,0.1,0,0.2,0,0.3c0,0,0,0,0.1,0.1c0.1,0.1,0.4,0.1,0.8,0.1v0.1H68v-0.1c0.2,0,0.4,0,0.5,0
				c0.1,0,0.2,0,0.3-0.1c0.1,0,0.1,0,0.1-0.1c0,0,0-0.1,0-0.2v-3.5c0-0.1,0-0.2,0-0.2c0,0,0,0-0.1-0.1c-0.1-0.1-0.4-0.1-0.8-0.1
				v-0.1h2.7v0.1c-0.2,0-0.4,0-0.5,0c-0.1,0-0.2,0-0.3,0.1l-0.1,0C69.8,21.1,69.7,21.1,69.7,21.3z"/>
			<path class="st0" d="M75.4,25.3l-1.5-4c-0.1-0.2-0.1-0.3-0.2-0.3c-0.1,0-0.3-0.1-0.6-0.1v-0.1h2.5v0.1c-0.3,0-0.5,0-0.6,0
				c-0.1,0-0.2,0.1-0.2,0.2c0,0,0,0.1,0,0.2l1.1,2.9l0.7-2.2c0.1-0.2,0.1-0.4,0.1-0.6c0-0.4-0.2-0.5-0.7-0.5v-0.1h1.8v0.1
				c-0.4,0-0.7,0.2-0.9,0.5c-0.1,0.1-0.1,0.3-0.2,0.6l-1.1,3.2H75.4z"/>
			<path class="st0" d="M82.7,23.7h-1.3l-0.2,0.6c-0.1,0.2-0.1,0.3-0.1,0.4c0,0.2,0.1,0.3,0.2,0.4c0.1,0.1,0.3,0.1,0.5,0.1v0.1h-1.7
				v-0.1c0.3,0,0.6-0.1,0.7-0.4c0.1-0.1,0.2-0.4,0.4-0.8l1.2-3.2h0.1l1.5,4c0.1,0.2,0.1,0.3,0.2,0.3c0.1,0,0.3,0.1,0.6,0.1v0.1h-2.5
				v-0.1c0.3,0,0.6,0,0.7,0s0.2-0.1,0.2-0.2l0-0.1L82.7,23.7z M82.7,23.7l-0.6-1.7l-0.6,1.7H82.7z"/>
			<path class="st0" d="M91.2,20.9v1.9h-0.1c-0.1-0.7-0.3-1.3-0.5-1.5c-0.2-0.2-0.5-0.3-0.8-0.3c-0.1,0-0.1,0-0.1,0c0,0,0,0.1,0,0.2
				v3.7c0,0.1,0,0.2,0,0.3c0,0,0,0,0.1,0.1c0.1,0,0.2,0,0.3,0.1c0.2,0,0.4,0,0.6,0v0.1h-3v-0.1c0.3,0,0.5,0,0.6,0
				c0.2,0,0.3,0,0.3-0.1c0.1,0,0.1,0,0.1-0.1c0,0,0-0.1,0-0.2v-3.7c0-0.1,0-0.2,0-0.2c0,0-0.1,0-0.1,0c-0.4,0-0.6,0.1-0.8,0.3
				c-0.2,0.3-0.4,0.8-0.5,1.5h-0.1v-1.9H91.2z"/>
			<path class="st0" d="M95.5,23v1.8c0,0.1,0,0.2,0,0.2c0,0,0.1,0.1,0.1,0.1c0.1,0,0.2,0,0.3,0c0.1,0,0.3,0,0.5,0
				c0.5,0,0.9-0.2,1.2-0.5c0.3-0.3,0.4-0.8,0.5-1.5h0.1v2h-4.4v-0.1c0.4,0,0.7,0,0.8-0.1c0,0,0.1,0,0.1-0.1c0,0,0-0.1,0-0.2v-3.5
				c0-0.1,0-0.2,0-0.2c0,0,0,0-0.1-0.1c-0.1,0-0.2,0-0.3-0.1c-0.2,0-0.3,0-0.5,0v-0.1h4.2v1.7h-0.1c0-0.4-0.1-0.7-0.3-1
				c-0.2-0.4-0.6-0.6-1-0.6c-0.2,0-0.3,0-0.5,0c-0.2,0-0.3,0-0.5,0.1c0,0-0.1,0-0.1,0.1c0,0,0,0.1,0,0.2V23c0.5-0.1,0.8-0.1,0.9-0.2
				c0.2-0.1,0.3-0.5,0.4-1.2h0.1v2.7h-0.1c-0.1-0.6-0.2-1-0.4-1.2C96.2,23,95.9,23,95.5,23z"/>
			<path class="st0" d="M107.5,25.2c0.5,0,1-0.2,1.3-0.5c0.3-0.3,0.4-0.8,0.4-1.5h0.1v2.1h-4.5v-0.1c0.2,0,0.4,0,0.5,0
				c0.1,0,0.2,0,0.3-0.1c0.1,0,0.1,0,0.1-0.1c0,0,0-0.1,0-0.2v-3.5c0-0.1,0-0.2,0-0.2c0,0,0,0-0.1-0.1c-0.1,0-0.2,0-0.3-0.1
				c-0.2,0-0.3,0-0.5,0v-0.1h2.8v0.1c-0.3,0-0.5,0-0.6,0c-0.1,0-0.2,0-0.3,0.1c-0.1,0-0.1,0-0.1,0.1c0,0,0,0.1,0,0.2v3.5
				c0,0.1,0,0.2,0,0.3c0,0,0,0,0.1,0.1C106.8,25.2,107.1,25.2,107.5,25.2z"/>
			<path class="st0" d="M113.6,21.3v3.5c0,0.1,0,0.2,0,0.3c0,0,0,0,0.1,0.1c0.1,0.1,0.4,0.1,0.8,0.1v0.1h-2.7v-0.1
				c0.2,0,0.4,0,0.5,0c0.1,0,0.2,0,0.3-0.1c0.1,0,0.1,0,0.1-0.1c0,0,0-0.1,0-0.2v-3.5c0-0.1,0-0.2,0-0.2c0,0,0,0-0.1-0.1
				c-0.1-0.1-0.4-0.1-0.8-0.1v-0.1h2.7v0.1c-0.2,0-0.4,0-0.5,0c-0.1,0-0.2,0-0.3,0.1l-0.1,0C113.6,21.1,113.6,21.1,113.6,21.3z"/>
			<path class="st0" d="M118.8,20.9l1.1,3.2l1-3.2h1.9v0.1c-0.4,0-0.7,0-0.8,0.1c0,0-0.1,0-0.1,0.1c0,0,0,0.1,0,0.2v3.5
				c0,0.1,0,0.2,0,0.3c0,0,0,0,0.1,0.1c0.1,0,0.2,0,0.3,0.1c0.1,0,0.3,0,0.5,0v0.1h-2.6v-0.1c0.2,0,0.3,0,0.5,0c0.1,0,0.2,0,0.3-0.1
				c0.1,0,0.1,0,0.1-0.1c0,0,0-0.1,0-0.3l0-3.7c0-0.1,0-0.1,0-0.1c0,0,0,0-0.1,0.1l-1.2,4.2h-0.1l-1.5-4.2L118,21c0,0,0,0,0,0.1V24
				c0,0.5,0.1,0.8,0.2,1c0.1,0.2,0.4,0.2,0.8,0.2v0.1H117v-0.1c0.3,0,0.5-0.1,0.7-0.2c0.1-0.2,0.2-0.4,0.2-0.8V22
				c0-0.4-0.1-0.7-0.2-0.8c-0.1-0.2-0.4-0.2-0.7-0.2v-0.1L118.8,20.9z"/>
			<path class="st0" d="M126.9,21.3v3.5c0,0.1,0,0.2,0,0.3c0,0,0,0,0.1,0.1c0.1,0.1,0.4,0.1,0.8,0.1v0.1h-2.7v-0.1
				c0.2,0,0.4,0,0.5,0c0.1,0,0.2,0,0.3-0.1c0.1,0,0.1,0,0.1-0.1c0,0,0-0.1,0-0.2v-3.5c0-0.1,0-0.2,0-0.2c0,0,0,0-0.1-0.1
				c-0.1-0.1-0.4-0.1-0.8-0.1v-0.1h2.7v0.1c-0.2,0-0.4,0-0.5,0c-0.1,0-0.2,0-0.3,0.1l-0.1,0C127,21.1,126.9,21.1,126.9,21.3z"/>
			<path class="st0" d="M134.4,20.9v1.9h-0.1c-0.1-0.7-0.3-1.3-0.5-1.5c-0.2-0.2-0.5-0.3-0.8-0.3c-0.1,0-0.1,0-0.1,0
				c0,0,0,0.1,0,0.2v3.7c0,0.1,0,0.2,0,0.3c0,0,0,0,0.1,0.1c0.1,0,0.2,0,0.3,0.1c0.2,0,0.4,0,0.6,0v0.1h-3v-0.1c0.3,0,0.5,0,0.6,0
				c0.2,0,0.3,0,0.3-0.1c0.1,0,0.1,0,0.1-0.1c0,0,0-0.1,0-0.2v-3.7c0-0.1,0-0.2,0-0.2c0,0-0.1,0-0.1,0c-0.4,0-0.6,0.1-0.8,0.3
				c-0.2,0.3-0.4,0.8-0.5,1.5h-0.1v-1.9H134.4z"/>
			<path class="st0" d="M138.6,23v1.8c0,0.1,0,0.2,0,0.2c0,0,0.1,0.1,0.1,0.1c0.1,0,0.2,0,0.3,0c0.1,0,0.3,0,0.5,0
				c0.5,0,0.9-0.2,1.2-0.5c0.3-0.3,0.4-0.8,0.5-1.5h0.1v2h-4.4v-0.1c0.4,0,0.7,0,0.8-0.1c0,0,0.1,0,0.1-0.1c0,0,0-0.1,0-0.2v-3.5
				c0-0.1,0-0.2,0-0.2c0,0,0,0-0.1-0.1c-0.1,0-0.2,0-0.3-0.1c-0.2,0-0.3,0-0.5,0v-0.1h4.2v1.7H141c0-0.4-0.1-0.7-0.3-1
				c-0.2-0.4-0.6-0.6-1-0.6c-0.2,0-0.3,0-0.5,0c-0.2,0-0.3,0-0.5,0.1c0,0-0.1,0-0.1,0.1c0,0,0,0.1,0,0.2V23c0.5-0.1,0.8-0.1,0.9-0.2
				c0.2-0.1,0.3-0.5,0.4-1.2h0.1v2.7h-0.1c-0.1-0.6-0.2-1-0.4-1.2C139.4,23,139.1,23,138.6,23z"/>
			<path class="st0" d="M146.7,25.3H144v-0.1c0.2,0,0.4,0,0.5,0c0.1,0,0.2,0,0.3-0.1c0.1,0,0.1,0,0.1-0.1c0,0,0-0.1,0-0.3v-3.5
				c0-0.1,0-0.2,0-0.2c0,0,0,0-0.1-0.1c-0.1-0.1-0.4-0.1-0.8-0.1v-0.1h2.7c0.5,0,1,0.2,1.4,0.6c0.5,0.4,0.7,1,0.7,1.7
				c0,0.7-0.2,1.2-0.6,1.6C147.7,25.1,147.2,25.3,146.7,25.3z M146.7,25.2c0.4,0,0.7-0.2,0.9-0.5c0.2-0.4,0.3-0.9,0.3-1.6
				c0-0.7-0.1-1.2-0.3-1.6c-0.2-0.4-0.5-0.6-0.9-0.6c-0.2,0-0.4,0-0.5,0c-0.1,0-0.2,0-0.2,0c0,0-0.1,0-0.1,0.1c0,0,0,0.1,0,0.3v3.5
				c0,0.1,0,0.2,0,0.3c0,0,0,0.1,0.1,0.1c0,0,0.1,0,0.3,0C146.3,25.2,146.5,25.2,146.7,25.2z"/>
		</g>
	</g>
</g>
</svg>
