<?xml version="1.0" encoding="utf-8"?>
<!-- Generator: Adobe Illustrator 24.1.1, SVG Export Plug-In . SVG Version: 6.00 Build 0)  -->
<svg version="1.1" id="Layer_1" xmlns="http://www.w3.org/2000/svg" xmlns:xlink="http://www.w3.org/1999/xlink" x="0px" y="0px"
	 viewBox="0 0 102 35" style="enable-background:new 0 0 102 35;" xml:space="preserve">
<style type="text/css">
	.st0{fill:#FFFFFF;}
</style>
<g>
	<path class="st0" d="M25.8,33.8c0,0.4,0.2,0.6,0.7,0.6h0.3v0.3h-8.8v-0.3h0.3c0.4,0,0.6-0.2,0.6-0.6v-2.2c0-0.2-0.1-0.3-0.2-0.1
		c-1,1-2.1,1.8-3.4,2.4c-1.3,0.6-2.7,0.9-4.2,0.9c-1.4,0-2.7-0.3-4-0.8c-1.3-0.5-2.4-1.3-3.4-2.2c-1-1-1.7-2.1-2.3-3.4
		s-0.9-2.7-0.9-4.1c0-1.4,0.3-2.7,0.8-3.9c0.6-1.2,1.3-2.4,2.3-3.3s2.1-1.7,3.4-2.3c1.3-0.6,2.6-0.8,4.1-0.8c1.5,0,2.9,0.3,4.2,0.8
		c1.3,0.6,2.5,1.4,3.5,2.4c0.1,0.1,0.1,0.1,0.2,0.1c0,0,0.1-0.1,0.1-0.1v-3.2h0.3c0.9,1.2,2,2.1,3.3,2.9c1.3,0.7,2.7,1.2,4.3,1.4
		v0.3h-0.3c-0.5,0-0.7,0.2-0.7,0.6V33.8z M18.9,18.6c0-0.6-0.2-1-0.5-1.4c-1-1-2.1-1.8-3.3-2.3c-1.3-0.5-2.6-0.8-4-0.8h-0.1
		c-0.8,0-1.4,0.2-1.9,0.7c-0.7,0.7-1,1.7-1.2,3.2c-0.1,1.5-0.2,3.2-0.1,5v2.3c0,1.9,0,3.5,0.1,5C7.9,31.9,8.3,33,9,33.7
		c0.5,0.5,1.2,0.7,1.9,0.7H11c1.4,0,2.8-0.3,4-0.8c1.2-0.6,2.3-1.3,3.3-2.3c0.4-0.3,0.6-0.8,0.6-1.4V18.6z"/>
	<path class="st0" d="M47.1,14.7c0.4,0.3,0.8,0.7,1,1.2c0.2,0.5,0.4,1,0.4,1.6c0,1-0.3,1.8-1,2.4c-0.7,0.7-1.5,1-2.4,1
		s-1.8-0.3-2.4-1c-0.7-0.7-1-1.5-1-2.4c0-0.8,0.2-1.4,0.7-2c0.4-0.6,1-1,1.7-1.3c-0.1-0.1-0.1-0.1-0.2-0.1c-0.1,0-0.1,0-0.2,0
		c-0.5,0-0.9,0.2-1.5,0.4c-0.5,0.2-1,0.5-1.5,0.8c-0.5,0.3-0.9,0.6-1.4,1c-0.4,0.3-0.7,0.6-1,0.9c-0.1,0.2-0.3,0.4-0.4,0.6
		c-0.1,0.3-0.2,0.5-0.2,0.8v15.1c0,0.4,0.2,0.6,0.7,0.6h0.3v0.3h-8.8v-0.3h0.3c0.4,0,0.6-0.2,0.6-0.6V19c0-0.5-0.2-0.7-0.6-0.7h-0.3
		V18c1.5-0.1,3-0.6,4.3-1.3c1.3-0.8,2.4-1.7,3.2-2.9h0.3V17c0,0.1,0,0.1,0.1,0.1c0.1,0,0.1,0,0.2-0.1c0.2-0.2,0.5-0.5,0.9-0.8
		c0.4-0.3,0.8-0.7,1.3-1c0.4-0.3,0.9-0.6,1.5-0.9c0.6-0.3,1.2-0.5,1.8-0.5C45,13.7,46.2,14,47.1,14.7z"/>
	<path class="st0" d="M58.3,32.8c0,0.7,0.3,1.1,0.9,1.2c0.8,0.2,1.7,0.3,2.7,0.3c0.3,0,0.7,0,1-0.1c0.3,0,0.6-0.1,0.9-0.1
		c-0.8-0.2-1.5-0.6-2-1.2c-0.5-0.6-0.8-1.3-0.8-2.2c0-1,0.3-1.8,1-2.4s1.5-1,2.4-1c1,0,1.8,0.3,2.4,1s1,1.5,1,2.4
		c0,0.7-0.2,1.4-0.6,1.9c-0.4,0.6-0.9,1-1.6,1.3c-1.2,0.5-2.5,0.7-3.8,0.7c-2.9,0-5.4-1-7.4-3.1c-1-1-1.7-2.1-2.3-3.4
		c-0.5-1.3-0.8-2.6-0.8-4V5.5c0-0.5-0.2-0.7-0.6-0.7h-0.3V4.4c1.5-0.1,3-0.6,4.3-1.3C56,2.4,57.1,1.4,58,0.3h0.3v16.4
		c0,0.5,0.2,0.7,0.7,0.7h4.6c0.4,0,0.6-0.2,0.6-0.7v-2.1h0.3v6h-0.3v-2.2c0-0.4-0.2-0.6-0.6-0.6H59c-0.5,0-0.7,0.2-0.7,0.6V32.8z"/>
	<path class="st0" d="M86.7,20.6c0-0.8,0-1.6-0.1-2.3c-0.1-0.8-0.3-1.5-0.5-2c-0.3-0.6-0.6-1.1-1.1-1.5c-0.5-0.4-1.1-0.6-1.8-0.6
		c-1.7,0-3.2,0.4-4.7,1.1c-0.4,0.2-0.6,0.6-0.6,1v0.1v12.5v4.8c0,0.4,0.2,0.6,0.7,0.6h0.3v0.3H70v-0.3h0.3c0.4,0,0.6-0.2,0.6-0.6
		v-4.9V8.7V5.5c0-0.5-0.2-0.7-0.6-0.7H70V4.4c1.5-0.1,3-0.6,4.3-1.3c1.3-0.8,2.4-1.7,3.2-2.9h0.3v8.4V15V15c0,0.1,0.1,0.2,0.2,0.1
		c0.8-0.5,1.6-0.8,2.4-1c0.9-0.2,1.8-0.3,2.6-0.3c1.7,0,3.3,0.3,4.6,0.8c1.3,0.5,2.4,1.2,3.3,2c0.9,0.8,1.5,1.7,2,2.7
		c0.4,1,0.7,2,0.7,2.9v11.6c0,0.4,0.2,0.6,0.6,0.6h0.3v0.3h-8.8v-0.3h0.3c0.5,0,0.7-0.2,0.7-0.6V20.6z"/>
	<circle class="st0" cx="99.3" cy="32.5" r="2.2"/>
	<path class="st0" d="M28.4,3c-3.7,0-6.7,3-6.7,6.7s3,6.7,6.7,6.7s6.7-3,6.7-6.7S32.1,3,28.4,3z M26.2,15.5
		c-0.3-0.1-0.5-0.2-0.8-0.4V11l0.8-0.3V15.5z M24.9,14.8c-0.3-0.2-0.5-0.4-0.8-0.6v-2.6l0.8-0.3V14.8z M28,15.9V5.5l2.1,1.2v0.7
		l0.5,0.2V6.4l-3.1-1.8v3.1l-2.6,0.9v1.5l0.5-0.2v-1l2.1-0.7v7.6c-0.3,0-0.5-0.1-0.8-0.2V10l-3.1,1.1v2.4c-0.8-1.1-1.4-2.4-1.4-3.9
		c0-3.4,2.8-6.2,6.2-6.2s6.2,2.8,6.2,6.2c0,1.5-0.5,2.8-1.4,3.9v-2.4L32,10.7V8.6l-3.1-1.1v8.4c-0.1,0-0.3,0-0.4,0
		S28.2,15.9,28,15.9z M31.4,11.6v3.5c-0.2,0.1-0.5,0.3-0.8,0.4v-4.7l2.1,0.7v2.6c-0.2,0.2-0.5,0.4-0.8,0.6v-3L31.4,11.6z M31.4,10.5
		L30.1,10v5.6c-0.3,0.1-0.5,0.1-0.8,0.2V8.2l2.1,0.7V10.5z"/>
</g>
</svg>
