<?xml version="1.0" encoding="utf-8"?>
<!-- Generator: Adobe Illustrator 27.0.0, SVG Export Plug-In . SVG Version: 6.00 Build 0)  -->
<svg version="1.1" id="Layer_1" xmlns="http://www.w3.org/2000/svg" xmlns:xlink="http://www.w3.org/1999/xlink" x="0px" y="0px"
	 viewBox="0 0 211 35" style="enable-background:new 0 0 211 35;" xml:space="preserve">
<style type="text/css">
	.st0{fill:#FFFFFF;}
</style>
<g id="Warstwa_1-2">
	<g>
		<path class="st0" d="M34.9,25.2l-15.3-7.7l15.3-7.7c0.3-0.2,0.5-0.5,0.4-0.8c0-0.3-0.3-0.6-0.6-0.6l-6.6-1.1L27,0.7
			c-0.1-0.3-0.3-0.6-0.6-0.6c-0.3,0-0.6,0.1-0.8,0.4l-7.7,15.3L10.3,0.5C10.1,0.2,9.8,0,9.5,0.1c-0.3,0-0.6,0.3-0.6,0.6L7.7,7.2
			L1.1,8.4C0.8,8.5,0.6,8.7,0.5,9s0.1,0.6,0.4,0.8l15.3,7.7L0.9,25.2c-0.3,0.2-0.5,0.5-0.4,0.8c0,0.3,0.3,0.6,0.6,0.6l6.6,1.1
			l1.1,6.6c0.1,0.3,0.3,0.6,0.6,0.6h0.1c0.3,0,0.6-0.2,0.7-0.4l7.7-15.3l7.7,15.3c0.2,0.3,0.5,0.4,0.8,0.4s0.6-0.3,0.6-0.6l1.1-6.6
			l6.6-1.1c0.3-0.1,0.6-0.3,0.6-0.6C35.4,25.6,35.2,25.3,34.9,25.2z"/>
		<g>
			<path class="st0" d="M75.2,12.4c0,10.3-6.5,11.9-15.1,11.9h-4.5v10.1h-7.7V0.5h12.2C68.6,0.5,75.2,2.2,75.2,12.4z M67.5,12.4
				c0-4.7-2.4-5.2-6.9-5.2h-4.9v10.3h4.9C65.1,17.6,67.5,17.1,67.5,12.4L67.5,12.4z"/>
			<path class="st0" d="M95.4,0.1c10.7,0,17.3,7.5,17.3,17.4S106.2,35,95.4,35s-17.3-7.5-17.3-17.5S84.6,0.1,95.4,0.1z M95.4,28.2
				c6.4,0,9.6-4.2,9.6-10.7s-3.2-10.7-9.6-10.7s-9.6,4.2-9.6,10.7S89,28.2,95.4,28.2z"/>
			<path class="st0" d="M116.9,30.9V0.5h7.7v27.7l16.5-0.5v6.7L121,34.9C118.4,35,116.9,33.5,116.9,30.9z"/>
			<path class="st0" d="M167.6,23.6h-13.7l-3,10.9h-7.8l9.8-33.9h15.9l9.8,33.9h-7.8L167.6,23.6L167.6,23.6z M165.8,16.9l-4-14.4
				h-1.9l-4,14.4H165.8L165.8,16.9z"/>
			<path class="st0" d="M181.9,0.5H195c8.1,0,15.1,1.9,15.1,9.5c0,5.6-4.5,7.1-8.6,7.6v1.9h4.9c2.6,0,4.1,1.4,4.1,4.1v10.8h-7.7
				V22.5h-13.3v11.9h-7.7L181.9,0.5L181.9,0.5z M195,15.8c4.6,0,7.4,0,7.4-4.2s-2.8-4.3-7.4-4.3h-5.4v8.5H195L195,15.8z"/>
		</g>
	</g>
</g>
</svg>
