<?xml version="1.0" encoding="utf-8"?>
<!-- Generator: Adobe Illustrator 24.1.1, SVG Export Plug-In . SVG Version: 6.00 Build 0)  -->
<svg version="1.1" id="Layer_1" xmlns="http://www.w3.org/2000/svg" xmlns:xlink="http://www.w3.org/1999/xlink" x="0px" y="0px"
	 viewBox="0 0 112 35" style="enable-background:new 0 0 112 35;" xml:space="preserve">
<style type="text/css">
	.st0{fill:#FFFFFF;}
</style>
<g>
	<g>
		<rect x="1.3" y="0.1" class="st0" width="3.3" height="34.8"/>
	</g>
	<g>
		<g>
			<g>
				<path class="st0" d="M19.9,33.9l-2.3,0l-6-7.1v7.1h-1.6V20.7h1.6v5.8l5.5-5.8l2.1,0l-5.8,5.8L19.9,33.9z"/>
			</g>
			<g>
				<path class="st0" d="M26.8,33.9h-1.5V20.7h1.5V33.9z"/>
			</g>
			<g>
				<path class="st0" d="M41.1,22.1h-3.8v11.7h-1.6V22.1h-3.8v-1.4h9.2V22.1z"/>
			</g>
			<g>
				<path class="st0" d="M54.6,33.3c-0.6,0.3-1.2,0.5-1.9,0.6c-0.6,0.1-1.3,0.2-1.9,0.2c-0.9,0-1.8-0.1-2.6-0.4
					c-0.8-0.3-1.6-0.7-2.3-1.3c-1.4-1.4-2.1-3.1-2.1-5c0-1.3,0.3-2.3,0.8-3.2c0.5-0.9,1.1-1.6,1.6-2.1c0.5-0.5,1-0.8,1.5-1
					c0.5-0.2,0.9-0.3,1.2-0.4c0.3-0.1,0.6-0.1,0.9-0.2c0.3,0,0.6-0.1,0.9-0.1c0.4,0,0.9,0,1.4,0.1c0.5,0.1,1,0.2,1.5,0.3l1,0.4V23
					c-1.1-0.8-2.3-1.2-3.6-1.2c-0.9,0-1.7,0.2-2.5,0.5c-0.8,0.4-1.4,0.9-2,1.7c-0.3,0.5-0.6,1-0.7,1.5c-0.2,0.6-0.3,1.1-0.3,1.7
					c0,1,0.3,1.9,0.8,2.8c0.5,0.9,1.2,1.5,2.1,2c0.9,0.4,1.8,0.7,2.7,0.7c1,0,1.9-0.2,2.6-0.7l0.9-0.6V33.3z"/>
			</g>
			<g>
				<path class="st0" d="M70.9,33.9h-1.5v-6.5h-7.3v6.5h-1.5V20.8h1.5V26h7.3v-5.2h1.5V33.9z"/>
			</g>
			<g>
				<path class="st0" d="M84.1,33.9H77V20.7h7.1v1.4h-5.6v3.9h5.6v1.3h-5.6v5.1h5.6V33.9z"/>
			</g>
			<g>
				<path class="st0" d="M101.6,34.2h-0.3l-9.6-10.5v10.3h-1.5V20.4l0.4,0l9.5,10.5V20.7h1.5V34.2z"/>
			</g>
		</g>
		<g>
			<g>
				<path class="st0" d="M21.6,7.7c0,1.9-0.7,3.6-2,5s-3,2.1-5,2.1c-2,0-3.7-0.7-5.1-2c-1.4-1.3-2.1-2.9-2.1-4.9c0-1.9,0.7-3.6,2-5
					c1.4-1.4,3-2.1,5-2.1c2,0,3.7,0.7,5.1,2C20.9,4.1,21.6,5.8,21.6,7.7z M20,7.6c0-1.5-0.5-2.8-1.6-3.8c-1.1-1-2.4-1.6-3.9-1.6
					c-1.5,0-2.8,0.5-3.8,1.6C9.6,5,9,6.3,9,7.8c0,1.5,0.5,2.8,1.6,3.8c1.1,1,2.4,1.6,3.9,1.6c1.5,0,2.8-0.5,3.8-1.6
					C19.4,10.5,20,9.2,20,7.6z"/>
			</g>
			<g>
				<path class="st0" d="M37.6,14.6h-0.3L27.7,4.1v10.3h-1.5V0.9l0.4,0L36,11.4V1.2h1.5V14.6z"/>
			</g>
			<g>
				<path class="st0" d="M50,14.3h-6.5V1.2h1.6v11.7H50V14.3z"/>
			</g>
			<g>
				<path class="st0" d="M63.1,1.2l-4.3,7.2v5.9h-1.6V8.5l-4.5-7.2l2,0l3.4,5.9l3.2-5.8L63.1,1.2z"/>
			</g>
		</g>
	</g>
	<g>
		<g>
			<path class="st0" d="M110.7,23.8c0,1.7-1.3,3.1-3.1,3.1c-1.7,0-3.1-1.3-3.1-3.1c0-1.7,1.4-3,3.1-3
				C109.4,20.7,110.7,22.1,110.7,23.8z M105.3,23.8c0,1.3,1,2.4,2.4,2.4c1.3,0,2.3-1.1,2.3-2.4c0-1.3-1-2.4-2.3-2.4
				C106.3,21.4,105.3,22.4,105.3,23.8z M107.1,25.4h-0.7v-3c0.3-0.1,0.7-0.1,1.2-0.1c0.6,0,0.8,0.1,1.1,0.2c0.2,0.1,0.3,0.4,0.3,0.7
				c0,0.3-0.3,0.6-0.6,0.7v0c0.3,0.1,0.5,0.3,0.6,0.7c0.1,0.5,0.1,0.6,0.2,0.8h-0.8c-0.1-0.1-0.1-0.4-0.2-0.7
				c-0.1-0.3-0.2-0.5-0.6-0.5h-0.3V25.4z M107.1,23.6h0.3c0.4,0,0.7-0.1,0.7-0.4c0-0.3-0.2-0.5-0.6-0.5c-0.2,0-0.3,0-0.4,0V23.6z"/>
		</g>
	</g>
</g>
</svg>
