<?xml version="1.0" encoding="utf-8"?>
<!-- Generator: Adobe Illustrator 24.1.1, SVG Export Plug-In . SVG Version: 6.00 Build 0)  -->
<svg version="1.1" id="Layer_1" xmlns="http://www.w3.org/2000/svg" xmlns:xlink="http://www.w3.org/1999/xlink" x="0px" y="0px"
	 viewBox="0 0 162 35" style="enable-background:new 0 0 162 35;" xml:space="preserve">
<style type="text/css">
	.st0{fill:#FFFFFF;}
</style>
<g>
	<g>
		<path class="st0" d="M6.4,2.8L0.2,9l1.9,1.9l0.2-0.1c0.2-0.1,0.5-0.1,0.7-0.2l0.2-0.1v0c0.2-0.1,0.4-0.1,0.7-0.2l0.6-0.1L3.2,9
			l4-4h11.4l2.1-2.1H6.4z"/>
		<path class="st0" d="M40.3,2.8H25.9L28,5h11.4l4,4l-1.3,1.3l0.6,0.1c0.2,0.1,0.4,0.1,0.7,0.2l0.3,0.1c0.2,0.1,0.4,0.1,0.7,0.2
			l0.2,0.1L46.5,9L40.3,2.8z"/>
		<polygon class="st0" points="34,18.5 23.3,29.1 12.7,18.5 11.1,20 23.3,32.2 35.5,20 		"/>
		<path class="st0" d="M42.8,12c-0.3-0.1-0.5-0.1-0.8-0.2l-0.2-0.1c-0.2-0.1-0.4-0.1-0.6-0.2c-3.4-0.8-6.8-1.4-10.3-1.7l-7-7h-0.9
			l-7,7c-3.5,0.3-7,0.9-10.3,1.7c-0.2,0.1-0.4,0.1-0.7,0.2l-0.2,0.1c-0.2,0.1-0.5,0.1-0.7,0.2l-0.6,0.2l1.8,1.8l0.3-0.1
			c0.2-0.1,0.5-0.1,0.7-0.2c0.3-0.1,0.5-0.1,0.8-0.2c2.1-0.5,4.3-0.9,6.5-1.2l-5,5l1.5,1.5l6.9-6.9c4.3-0.4,8.7-0.4,13,0l6.9,6.9
			l1.5-1.5l-5-5c2.2,0.3,4.4,0.7,6.5,1.2c0.3,0.1,0.5,0.1,0.8,0.2c0.2,0.1,0.5,0.1,0.7,0.2l0.3,0.1l1.8-1.8L42.8,12z M27.5,9.6
			c-1.4-0.1-2.8-0.1-4.2-0.1c-1.4,0-2.8,0-4.2,0.1l4.2-4.2L27.5,9.6z"/>
	</g>
	<g>
		<path class="st0" d="M79.3,30.1v2.8h0c0,0.4-0.1,0.7-0.4,1c-0.3,0.3-0.6,0.4-1,0.4v0c-0.4,0-0.7-0.1-0.9-0.4
			c-0.3-0.2-0.4-0.5-0.4-0.9l0.3,0c0,0.3,0.1,0.5,0.3,0.7c0.2,0.2,0.4,0.3,0.7,0.3v0c0.3,0,0.5-0.1,0.7-0.3c0.2-0.2,0.3-0.4,0.3-0.7
			h0v-2.8H79.3z"/>
		<polygon class="st0" points="86.6,30.4 84.4,30.4 84.4,31.7 86.3,31.7 86.3,32 84.4,32 84.4,33.7 86.6,33.7 86.6,34 84.1,34 
			84.1,30.1 86.6,30.1 		"/>
		<polygon class="st0" points="91.1,30.1 92.3,33.3 93.2,31 92.8,30.1 93.1,30.1 94.4,33.3 95.7,30.1 96,30.1 94.4,34.1 93.4,31.5 
			92.3,34.1 90.7,30.1 		"/>
		<polygon class="st0" points="102.9,30.4 100.7,30.4 100.7,31.7 102.7,31.7 102.7,32 100.7,32 100.7,33.7 102.9,33.7 102.9,34 
			100.4,34 100.4,30.1 102.9,30.1 		"/>
		<polygon class="st0" points="107.7,30.1 107.7,33.7 110,33.7 110,34 107.4,34 107.4,30.1 		"/>
		<polygon class="st0" points="114.8,30.1 114.8,33.7 117.1,33.7 117.1,34 114.5,34 114.5,30.1 		"/>
		<polygon class="st0" points="124.1,30.4 121.9,30.4 121.9,31.7 123.9,31.7 123.9,32 121.9,32 121.9,33.7 124.1,33.7 124.1,34 
			121.6,34 121.6,30.1 124.1,30.1 		"/>
		<path class="st0" d="M128.6,34v-3.9h1.5c0.5,0,0.8,0.1,1.1,0.4c0.2,0.2,0.3,0.5,0.3,0.8c0,0.3-0.1,0.6-0.3,0.8
			c-0.2,0.3-0.5,0.4-0.9,0.4l1.3,1.5h-0.4l-1.3-1.5h-0.9V34H128.6z M128.9,32.2h1.2c0.3,0,0.6-0.1,0.8-0.3c0.2-0.2,0.3-0.4,0.3-0.6
			c0-0.3-0.1-0.5-0.2-0.6c-0.2-0.2-0.5-0.3-0.9-0.3h-1.2V32.2z"/>
		<polygon class="st0" points="136.1,30.1 137.4,32.4 138.8,30.1 139.1,30.1 137.6,32.8 137.6,34 137.3,34 137.3,32.8 135.7,30.1 		
			"/>
		<path class="st0" d="M73.2,20.5c-0.2,0-0.4,0-0.5-0.1c-0.1-0.1-0.2-0.2-0.3-0.3c0-0.1-7-17.7-7-17.7c-0.1-0.4-0.3-0.7-0.6-1
			c-0.3-0.3-0.8-0.5-1.5-0.6c-0.1,0-0.2,0-0.2,0c-0.6,0-1.1,0.1-1.7,0.4c-0.6,0.3-1.2,0.6-1.7,1.1v0.1c0.3-0.2,0.5-0.3,0.8-0.3
			c0,0,0,0,0,0h0c0.4,0,0.7,0.3,0.7,0.7c0,0.1,0,0.2,0,0.2l-7.4,18.8h0.8l2.9-7.5h8.2l2.4,6c0.1,0.4,0.3,0.7,0.7,1
			c0.3,0.3,0.8,0.5,1.4,0.6c0.1,0,0.2,0,0.2,0c0.6,0,1.1-0.1,1.7-0.4c0.6-0.3,1.2-0.6,1.7-1.1v-0.1C73.7,20.4,73.5,20.5,73.2,20.5
			 M58,13.4l3.8-9.7c0.4,1,0.9,2.4,1.6,4.2c0.7,1.8,1.4,3.6,2.1,5.5H58z"/>
		<path class="st0" d="M96.9,21.8H86.8c-0.9,0-2-0.8-2-2.1V2.9l0-0.1c0,0,0-0.1,0-0.2c0-0.1-0.1-0.2-0.1-0.3
			c-0.1-0.1-0.1-0.2-0.2-0.2c-0.1-0.1-0.2-0.1-0.4-0.1c-0.3,0-0.6,0.1-0.8,0.3V2.3c0.5-0.5,1.1-0.8,1.7-1.1c0.5-0.2,1.1-0.4,1.7-0.4
			c0.5,0,0.9,0.1,1.2,0.3c0.3,0.2,0.6,0.4,0.7,0.6c0.2,0.2,0.3,0.5,0.4,0.7C88.9,2.7,89,2.9,89,3.1l0,0.2V21h8.4L96.9,21.8z"/>
		<path class="st0" d="M119.6,18.6l-6.5-16.2c-0.1-0.3-0.2-0.5-0.4-0.7c-0.2-0.2-0.4-0.4-0.7-0.6c-0.3-0.2-0.7-0.2-1.2-0.2
			c-0.6,0-1.1,0.1-1.7,0.4c-0.6,0.3-1.2,0.6-1.7,1.1v0.1c0.3-0.2,0.5-0.3,0.8-0.3h0c0.5,0,0.8,0.4,0.8,0.8v18.8l0.8-0.4V4.9
			c0.5,1.3,6,15.5,6,15.5c0.4,0.9,1.1,1.4,2,1.4c0.8,0,1.7-0.6,2.1-1.7l5-15v14.2l0,0.2c0,0.2,0.1,0.4,0.1,0.6
			c0.1,0.2,0.2,0.5,0.4,0.7c0.2,0.2,0.4,0.5,0.7,0.6c0.3,0.2,0.7,0.3,1.2,0.3c0.6,0,1.1-0.1,1.7-0.4c0.6-0.3,1.2-0.6,1.7-1.1v-0.1
			c-0.3,0.2-0.5,0.3-0.8,0.3c-0.2,0-0.3,0-0.4-0.1c-0.1-0.1-0.2-0.1-0.2-0.2c-0.1-0.1-0.1-0.2-0.1-0.2c0-0.1,0-0.2,0-0.2
			c0-0.1,0-16.4,0-16.4l0-0.3c0-0.2-0.1-0.4-0.2-0.7c-0.1-0.3-0.3-0.5-0.5-0.8c-0.2-0.3-0.6-0.5-1-0.6c-0.2-0.1-0.5-0.1-0.8-0.1
			c-0.6,0-1.1,0.1-1.7,0.4c-0.6,0.3-1.2,0.6-1.7,1.1v0.1c0.3-0.2,0.5-0.3,0.8-0.3c0.5,0,0.8,0.4,0.8,0.9c0,0.1,0,0.2,0,0.3
			L119.6,18.6z"/>
		<path class="st0" d="M161,20.5c-0.2,0-0.4,0-0.5-0.1c-0.1-0.1-0.2-0.3-0.3-0.4c0,0,0-0.1-0.1-0.2c-0.1-0.3-6.9-17.4-6.9-17.4
			c-0.1-0.4-0.3-0.7-0.6-1c-0.3-0.3-0.8-0.5-1.5-0.6c-0.1,0-0.2,0-0.2,0c-0.6,0-1.1,0.1-1.7,0.4c-0.6,0.3-1.2,0.6-1.7,1.1v0.1
			c0.3-0.2,0.5-0.3,0.8-0.3c0,0,0,0,0.1,0c0.4,0,0.6,0.3,0.6,0.7c0,0.1,0,0.2,0,0.2l0,0l-7.3,18.8h0.8l2.9-7.5h8.2l2.4,6
			c0.1,0.4,0.3,0.7,0.7,1c0.3,0.3,0.8,0.5,1.4,0.6c0.1,0,0.2,0,0.2,0c0.6,0,1.1-0.1,1.7-0.4c0.6-0.3,1.2-0.6,1.7-1.1v-0.1
			C161.6,20.4,161.3,20.5,161,20.5 M145.8,13.4l3.8-9.7c0.4,1,3,7.8,3.8,9.7H145.8z"/>
	</g>
</g>
</svg>
