<?xml version="1.0" encoding="utf-8"?>
<!-- Generator: Adobe Illustrator 24.1.1, SVG Export Plug-In . SVG Version: 6.00 Build 0)  -->
<svg version="1.1" id="Layer_1" xmlns="http://www.w3.org/2000/svg" xmlns:xlink="http://www.w3.org/1999/xlink" x="0px" y="0px"
	 viewBox="0 0 204 35" style="enable-background:new 0 0 204 35;" xml:space="preserve">
<style type="text/css">
	.st0{fill:#FFFFFF;}
</style>
<g>
	<g>
		<g>
			<path class="st0" d="M35.8,33.6c-0.9,0.3-2,0.5-3.1,0.7c-1.1,0.2-2.3,0.3-3.5,0.3c-1.3,0-2.7-0.1-4.1-0.4c-1.4-0.3-2.7-0.7-4-1.3
				c-1.3-0.6-2.5-1.4-3.6-2.4c-1.1-1-2.1-2.2-2.9-3.7c-1.1-1.9-2-3.3-2.8-4.4c-0.8-1.1-1.6-1.6-2.5-1.6H7v4.9c0,0.9,0.1,1.5,0.2,2.1
				c0.2,0.5,0.4,0.9,0.6,1.2c0.3,0.3,0.6,0.5,1,0.6c0.4,0.1,0.8,0.2,1.3,0.3H0.5c0.5-0.1,0.9-0.1,1.3-0.3c0.4-0.1,0.7-0.3,1-0.6
				c0.3-0.3,0.5-0.7,0.6-1.2c0.2-0.5,0.2-1.2,0.2-2.1V4.5c0-0.9-0.1-1.5-0.2-2.1C3.2,1.9,3,1.5,2.8,1.2C2.5,1,2.2,0.8,1.8,0.7
				C1.4,0.5,1,0.5,0.5,0.4h8.9c2.2,0,4.1,0.5,5.6,1.4c1.5,0.9,2.7,2.1,3.5,3.5c0.8,1.4,1.3,3,1.3,4.6c0.1,1.7-0.2,3.3-0.8,4.8
				c-0.6,1.5-1.6,2.8-3,3.9c-1.3,1.1-3,1.8-5.1,2c0.9,0.1,1.7,0.3,2.4,0.6c0.7,0.3,1.3,0.7,1.9,1.2c0.6,0.5,1.1,1,1.5,1.7
				c0.5,0.6,1,1.3,1.5,2.1c1,1.5,2,2.8,3.1,3.7c1.1,1,2.3,1.8,3.5,2.4c1.2,0.6,2.4,1,3.6,1.2c1.2,0.2,2.3,0.4,3.4,0.4
				c0.8,0,1.5,0,2.1-0.1c0.7-0.1,1.3-0.2,1.8-0.4L35.8,33.6z M7,20.4h2.4c1.6,0,2.9-0.5,3.9-1.4c1-1,1.8-2.2,2.4-3.6
				c0.5-1.5,0.8-3,0.8-4.7c0-1.7-0.3-3.3-0.8-4.7c-0.5-1.5-1.3-2.7-2.4-3.6c-1.1-1-2.4-1.4-3.9-1.4H9.3c-0.4,0-0.8,0-1.1,0.1
				C7.9,1,7.7,1.1,7.5,1.4C7.3,1.6,7.2,2,7.1,2.4C7,2.9,7,3.5,7,4.3V20.4z"/>
		</g>
	</g>
	<g>
		<g>
			<path class="st0" d="M28.5,21.3c-0.5,1.5-0.7,2.6-0.8,3.5c-0.1,0.8,0,1.5,0.2,1.9c0.2,0.4,0.6,0.7,1.1,0.8
				c0.5,0.1,1.1,0.2,1.7,0.2h-8.1c0.8-0.1,1.4-0.2,2-0.4c0.5-0.2,1-0.5,1.4-1c0.4-0.5,0.8-1.1,1.1-2c0.4-0.8,0.8-2,1.2-3.4l6.4-20.5
				h0.2l7.3,23.1c0.3,0.8,0.5,1.5,0.8,2c0.3,0.5,0.6,0.9,1,1.2c0.4,0.3,0.8,0.5,1.3,0.6c0.5,0.1,1.1,0.2,1.9,0.3H36.4
				c1.3-0.1,2.1-0.5,2.5-1.2c0.4-0.7,0.4-1.7,0-3L37.5,19h-8.4L28.5,21.3z M29.3,18.7h8.2l-4-13.3L29.3,18.7z"/>
		</g>
		<g>
			<path class="st0" d="M52.9,23.9c0,0.8,0.1,1.4,0.2,1.9c0.1,0.5,0.3,0.8,0.6,1.1c0.3,0.3,0.6,0.4,0.9,0.5c0.4,0.1,0.7,0.2,1.1,0.2
				h-8.7c0.4-0.1,0.8-0.1,1.2-0.2c0.4-0.1,0.7-0.3,0.9-0.5c0.2-0.3,0.4-0.6,0.6-1.1c0.1-0.5,0.2-1.1,0.2-1.9V4.7
				c0-0.8-0.1-1.4-0.2-1.9c-0.1-0.5-0.3-0.8-0.6-1.1c-0.2-0.3-0.5-0.4-0.9-0.5c-0.4-0.1-0.7-0.2-1.2-0.2h8.7
				c-0.4,0.1-0.8,0.1-1.1,0.2c-0.4,0.1-0.7,0.3-0.9,0.5c-0.3,0.3-0.5,0.6-0.6,1.1c-0.1,0.5-0.2,1.1-0.2,1.9V23.9z"/>
		</g>
		<g>
			<path class="st0" d="M78.1,1c-0.8,0.1-1.5,0.7-2.1,1.7c-0.5,1-0.8,2.3-0.8,3.9v21.5h-0.3l-13.5-24V22c0,1.6,0.3,2.9,0.8,3.9
				c0.5,1,1.2,1.6,2,1.7h-6c0.9-0.1,1.6-0.7,2.1-1.7c0.5-1,0.8-2.3,0.8-3.9V6.1c0-1.6-0.2-2.7-0.7-3.5c-0.5-0.8-1.2-1.3-2.1-1.6h5.2
				l11.6,20.4V6.6c0-1.6-0.3-2.9-0.8-3.9c-0.5-1-1.2-1.6-2.1-1.7H78.1z"/>
		</g>
		<g>
			<path class="st0" d="M86.3,23.9c0,0.8,0.1,1.4,0.2,1.9c0.1,0.5,0.3,0.8,0.6,1.1c0.3,0.3,0.6,0.4,0.9,0.5c0.4,0.1,0.7,0.2,1.1,0.2
				h-8.7c0.4-0.1,0.8-0.1,1.2-0.2c0.4-0.1,0.7-0.3,0.9-0.5c0.2-0.3,0.4-0.6,0.6-1.1c0.1-0.5,0.2-1.1,0.2-1.9V4.7
				c0-0.8-0.1-1.4-0.2-1.9c-0.1-0.5-0.3-0.8-0.6-1.1c-0.2-0.3-0.5-0.4-0.9-0.5c-0.4-0.1-0.7-0.2-1.2-0.2h16.2l1.1,6.5
				c-0.1-0.3-0.2-0.8-0.4-1.5c-0.2-0.7-0.5-1.4-1-2.1c-0.5-0.7-1.2-1.3-2-1.8c-0.9-0.5-2-0.8-3.5-0.8h-4.4v12.1h5
				c0.6,0,1.1-0.1,1.5-0.4c0.4-0.2,0.6-0.5,0.8-0.9c0.2-0.4,0.3-0.7,0.4-1.2c0.1-0.4,0.1-0.8,0.2-1.2v7.5c-0.1-0.4-0.1-0.7-0.2-1.1
				c-0.1-0.4-0.2-0.8-0.4-1.2c-0.2-0.4-0.5-0.7-0.8-0.9c-0.4-0.2-0.9-0.4-1.5-0.4h-5V23.9z"/>
		</g>
		<g>
			<path class="st0" d="M126.8,14.3c0,2.3-0.4,4.3-1.2,6.1c-0.8,1.7-1.9,3.2-3.2,4.3c-1.3,1.2-2.8,2-4.4,2.6
				c-1.7,0.6-3.4,0.9-5.1,0.9c-1.7,0-3.5-0.3-5.1-0.9c-1.7-0.6-3.1-1.5-4.4-2.6c-1.3-1.2-2.3-2.6-3.1-4.3c-0.8-1.7-1.2-3.8-1.2-6.1
				c0-2.3,0.4-4.4,1.2-6.1c0.8-1.7,1.9-3.2,3.2-4.3c1.3-1.2,2.8-2,4.4-2.6c1.7-0.6,3.4-0.9,5.1-0.9c1.7,0,3.5,0.3,5.1,0.9
				c1.7,0.6,3.1,1.4,4.4,2.6c1.3,1.2,2.3,2.6,3.1,4.3C126.4,10,126.8,12,126.8,14.3z M102,11.9c0,2.7,0.4,5,1.1,6.9
				c0.7,2,1.6,3.6,2.8,4.9c1.1,1.3,2.4,2.3,3.8,2.9c1.4,0.6,2.9,1,4.3,1c1.2,0,2.4-0.2,3.6-0.7c1.2-0.5,2.2-1.2,3.1-2.2
				c0.9-1,1.6-2.2,2.2-3.6c0.5-1.4,0.8-3.1,0.8-5c0-2.5-0.3-4.7-1-6.6c-0.7-1.9-1.7-3.5-2.9-4.8c-1.2-1.3-2.5-2.2-4-2.9
				c-1.5-0.6-2.9-1-4.4-1c-1.2,0-2.4,0.2-3.5,0.7c-1.1,0.4-2.1,1.1-3,2c-0.9,0.9-1.6,2.1-2.1,3.4C102.3,8.5,102,10.1,102,11.9z"/>
		</g>
		<g>
			<path class="st0" d="M165,24c-1.7,1.5-3.4,2.5-4.8,3.2c-1.5,0.6-2.9,0.9-4.1,0.9c-1.3,0-2.5-0.2-3.6-0.7
				c-1.1-0.5-2.2-1.1-3.2-1.8c-1-0.7-2-1.4-3-2.2c-1-0.8-2-1.5-3-2.1c-1-0.6-2.1-1.1-3.1-1.5c-1.1-0.4-2.2-0.4-3.4-0.2v-0.1
				c1.5-0.4,2.8-1.1,3.7-2.2c1-1,1.7-2.2,2.1-3.6c0.5-1.3,0.7-2.7,0.6-4.2s-0.3-2.8-0.8-4c-0.5-1.2-1.3-2.2-2.2-3
				c-1-0.8-2.1-1.2-3.5-1.2h-0.1c-0.4,0-0.7,0-1,0.1c-0.3,0.1-0.5,0.2-0.7,0.4c-0.2,0.2-0.3,0.6-0.4,1c-0.1,0.4-0.1,1-0.1,1.7v19.4
				c0,0.8,0.1,1.4,0.2,1.9c0.1,0.5,0.3,0.8,0.6,1.1c0.3,0.3,0.6,0.4,0.9,0.5c0.4,0.1,0.7,0.2,1.1,0.2h-8.7c0.4-0.1,0.8-0.1,1.2-0.2
				c0.4-0.1,0.7-0.3,0.9-0.5c0.2-0.3,0.4-0.6,0.6-1.1c0.1-0.5,0.2-1.1,0.2-1.9V4.7c0-0.8-0.1-1.4-0.2-1.9c-0.1-0.5-0.3-0.8-0.6-1.1
				c-0.2-0.3-0.5-0.4-0.9-0.5c-0.4-0.1-0.7-0.2-1.2-0.2h8.1c1.9,0,3.5,0.4,4.9,1.1c1.4,0.7,2.5,1.7,3.3,2.8c0.8,1.1,1.3,2.4,1.5,3.8
				c0.2,1.4,0.1,2.8-0.4,4.1c-0.4,1.3-1.2,2.5-2.3,3.7c-1.1,1.1-2.6,1.9-4.4,2.5c1.4-0.1,2.7,0,3.9,0.3c1.2,0.3,2.3,0.7,3.3,1.3
				c1,0.5,2,1.1,3,1.8c1,0.7,1.9,1.3,2.8,1.9c0.9,0.6,1.9,1.1,2.9,1.5c1,0.4,2.1,0.6,3.2,0.6c1,0,2-0.2,3.1-0.5
				c1.1-0.4,2.3-1,3.6-1.8L165,24z M159.4,19.6c1.5,0,2.6-0.2,3.5-0.6c0.8-0.4,1.5-0.9,2-1.4c0.5-0.6,0.8-1.1,0.9-1.7
				c0.2-0.6,0.3-1,0.4-1.3l-0.9,5.4h-15.4c0.4-0.1,0.8-0.1,1.1-0.2c0.3-0.1,0.6-0.3,0.8-0.5c0.2-0.2,0.4-0.6,0.5-1.1
				c0.1-0.5,0.2-1.1,0.2-1.8V4.7c0-0.8-0.1-1.4-0.2-1.9c-0.1-0.5-0.3-0.8-0.5-1.1c-0.2-0.3-0.5-0.4-0.8-0.5
				c-0.3-0.1-0.7-0.2-1.1-0.2h14.9l0.9,5.1c-0.1-0.3-0.2-0.7-0.4-1.3c-0.2-0.5-0.5-1.1-0.9-1.6c-0.5-0.5-1.1-1-1.9-1.3
				c-0.8-0.4-2-0.6-3.5-0.6h-3.7v8.3h4.3c0.6,0,1.1-0.1,1.4-0.3c0.4-0.2,0.6-0.4,0.8-0.7c0.2-0.3,0.3-0.6,0.4-1
				c0.1-0.4,0.2-0.7,0.2-1.1v6.5c-0.1-0.4-0.1-0.7-0.2-1.1c-0.1-0.4-0.2-0.7-0.4-1c-0.2-0.3-0.5-0.5-0.8-0.7
				c-0.4-0.2-0.8-0.3-1.4-0.3l-4.3,0v6.5c0,0.7,0,1.3,0.1,1.7c0.1,0.4,0.3,0.7,0.5,1c0.3,0.2,0.6,0.4,1.1,0.5c0.5,0.1,1.1,0.1,2,0.1
				H159.4z"/>
		</g>
		<g>
			<path class="st0" d="M185.6,20.4c0,1.3-0.2,2.4-0.7,3.4c-0.5,1-1.2,1.8-2,2.4c-0.8,0.6-1.8,1.1-2.8,1.4c-1.1,0.3-2.2,0.5-3.3,0.5
				c-1.6,0-3.2-0.3-4.8-0.9c-1.6-0.6-3-1.5-4.1-2.7l1.4-5.8c0,1.6,0.2,2.9,0.7,4.1c0.5,1.1,1.1,2.1,1.9,2.8c0.8,0.7,1.6,1.3,2.6,1.7
				c1,0.4,1.9,0.5,2.9,0.5c0.8,0,1.6-0.1,2.3-0.4c0.7-0.2,1.4-0.6,2-1.1c0.6-0.5,1-1.1,1.4-1.8c0.3-0.7,0.5-1.5,0.5-2.4
				c0-1.3-0.4-2.5-1.1-3.4c-0.7-0.9-1.6-1.8-2.7-2.5c-1.1-0.7-2.2-1.4-3.4-2c-1.2-0.6-2.4-1.3-3.4-2c-1.1-0.7-2-1.5-2.7-2.4
				c-0.7-0.9-1.1-2-1.1-3.3c0-1.1,0.2-2,0.6-2.8c0.4-0.8,1-1.4,1.7-1.9c0.7-0.5,1.5-0.9,2.4-1.1c0.9-0.2,1.8-0.3,2.7-0.3
				c1.3,0,2.5,0.2,3.7,0.6c1.2,0.4,2.1,0.9,2.9,1.6l-0.5,4.8c0-1.1-0.2-2.1-0.6-2.9c-0.4-0.8-0.9-1.5-1.6-2
				c-0.7-0.5-1.4-0.9-2.2-1.2c-0.8-0.3-1.6-0.4-2.4-0.4c-0.7,0-1.3,0.1-1.9,0.2c-0.6,0.2-1.1,0.4-1.6,0.7c-0.5,0.3-0.8,0.7-1.1,1.2
				c-0.3,0.5-0.4,1-0.4,1.6c0,1.1,0.4,2,1.1,2.9c0.7,0.8,1.6,1.6,2.7,2.3c1.1,0.7,2.3,1.4,3.6,2c1.3,0.7,2.5,1.4,3.6,2.2
				c1.1,0.8,2,1.7,2.7,2.7C185.3,17.7,185.6,19,185.6,20.4z"/>
		</g>
		<g>
			<path class="st0" d="M196.5,23.9c0,0.8,0.1,1.4,0.2,1.9c0.1,0.5,0.3,0.8,0.6,1.1c0.2,0.3,0.5,0.4,0.9,0.5
				c0.4,0.1,0.7,0.2,1.1,0.2h-8.7c0.4-0.1,0.8-0.1,1.2-0.2c0.4-0.1,0.7-0.3,0.9-0.5c0.2-0.3,0.4-0.6,0.6-1.1
				c0.1-0.5,0.2-1.1,0.2-1.9V1.4h0c-1.5,0-2.6,0.3-3.5,0.8c-0.9,0.5-1.5,1.1-2,1.8c-0.5,0.7-0.8,1.4-1,2.1c-0.2,0.7-0.3,1.2-0.4,1.5
				l1.1-6.5h14.8l1.1,6.5c-0.1-0.3-0.3-0.8-0.5-1.5c-0.2-0.7-0.5-1.4-1-2.1c-0.5-0.7-1.1-1.3-2-1.8c-0.9-0.5-2-0.8-3.5-0.8h0V23.9z"
				/>
		</g>
	</g>
	<g>
		<path class="st0" d="M39.3,29.8l1.9,4.4h-0.5l-0.5-1.3h-1.7l-0.5,1.3h-0.5L39.3,29.8z M39.3,30.9l-0.7,1.6H40L39.3,30.9z"/>
		<path class="st0" d="M41.7,34.2v-4.4l3.1,3.4V30h0.5v4.4L42.1,31v3.2H41.7z"/>
		<path class="st0" d="M48,34.2V30h0.5v4.2H48z"/>
		<path class="st0" d="M53,31c-0.2-0.2-0.4-0.4-0.6-0.5c-0.2-0.1-0.5-0.2-0.8-0.2c-0.2,0-0.4,0-0.7,0.1c-0.2,0.1-0.4,0.2-0.6,0.4
			c-0.2,0.2-0.3,0.4-0.4,0.6c-0.1,0.2-0.1,0.4-0.1,0.7c0,0.2,0,0.4,0.1,0.5c0,0.2,0.1,0.3,0.2,0.5c0.2,0.2,0.4,0.4,0.6,0.6
			c0.2,0.1,0.5,0.2,0.8,0.2c0.3,0,0.5-0.1,0.8-0.2s0.4-0.3,0.6-0.5v0.7c-0.2,0.2-0.4,0.3-0.7,0.3c-0.2,0.1-0.5,0.1-0.7,0.1
			c-0.2,0-0.4,0-0.7-0.1s-0.4-0.2-0.6-0.3c-0.3-0.2-0.5-0.5-0.7-0.8c-0.2-0.3-0.2-0.7-0.2-1c0-0.3,0.1-0.6,0.2-0.9
			c0.1-0.3,0.3-0.5,0.5-0.7c0.2-0.2,0.5-0.4,0.7-0.5c0.3-0.1,0.5-0.2,0.9-0.2c0.2,0,0.5,0,0.7,0.1s0.5,0.2,0.7,0.3V31z"/>
		<path class="st0" d="M58.1,32.1c0,0.3-0.1,0.6-0.2,0.9s-0.3,0.5-0.5,0.7S57,34,56.7,34.1c-0.3,0.1-0.6,0.2-0.9,0.2
			s-0.6-0.1-0.9-0.2c-0.3-0.1-0.5-0.3-0.7-0.5c-0.2-0.2-0.4-0.4-0.5-0.7c-0.1-0.3-0.2-0.6-0.2-0.9c0-0.3,0.1-0.6,0.2-0.9
			c0.1-0.3,0.3-0.5,0.5-0.7c0.2-0.2,0.5-0.4,0.7-0.5c0.3-0.1,0.6-0.2,0.9-0.2c0.3,0,0.6,0.1,0.9,0.2c0.3,0.1,0.5,0.3,0.7,0.5
			c0.2,0.2,0.4,0.4,0.5,0.7S58.1,31.8,58.1,32.1z M55.9,33.8c0.2,0,0.5,0,0.7-0.1s0.4-0.2,0.6-0.4c0.2-0.2,0.3-0.4,0.4-0.6
			c0.1-0.2,0.1-0.4,0.1-0.7c0-0.2,0-0.5-0.1-0.7c-0.1-0.2-0.2-0.4-0.4-0.6c-0.2-0.2-0.4-0.3-0.6-0.4s-0.4-0.1-0.7-0.1
			c-0.2,0-0.5,0-0.7,0.1c-0.2,0.1-0.4,0.2-0.6,0.4c-0.2,0.2-0.3,0.4-0.4,0.6c-0.1,0.2-0.1,0.4-0.1,0.7c0,0.2,0,0.5,0.1,0.7
			c0.1,0.2,0.2,0.4,0.4,0.6c0.2,0.2,0.4,0.3,0.6,0.4C55.4,33.8,55.6,33.8,55.9,33.8z"/>
		<path class="st0" d="M59,34.2v-4.4l3.1,3.4V30h0.5v4.4L59.4,31v3.2H59z"/>
		<path class="st0" d="M63.5,34.2V30H64v4.2H63.5z"/>
		<path class="st0" d="M68.5,31c-0.2-0.2-0.4-0.4-0.6-0.5c-0.2-0.1-0.5-0.2-0.8-0.2c-0.2,0-0.4,0-0.7,0.1c-0.2,0.1-0.4,0.2-0.6,0.4
			c-0.2,0.2-0.3,0.4-0.4,0.6c-0.1,0.2-0.1,0.4-0.1,0.7c0,0.2,0,0.4,0.1,0.5c0,0.2,0.1,0.3,0.2,0.5c0.2,0.2,0.4,0.4,0.6,0.6
			c0.2,0.1,0.5,0.2,0.8,0.2c0.3,0,0.5-0.1,0.8-0.2s0.4-0.3,0.6-0.5v0.7c-0.2,0.2-0.4,0.3-0.7,0.3c-0.2,0.1-0.5,0.1-0.7,0.1
			c-0.2,0-0.4,0-0.7-0.1s-0.4-0.2-0.6-0.3c-0.3-0.2-0.5-0.5-0.7-0.8c-0.2-0.3-0.2-0.7-0.2-1c0-0.3,0.1-0.6,0.2-0.9
			c0.1-0.3,0.3-0.5,0.5-0.7c0.2-0.2,0.5-0.4,0.7-0.5c0.3-0.1,0.5-0.2,0.9-0.2c0.2,0,0.5,0,0.7,0.1s0.5,0.2,0.7,0.3V31z"/>
		<path class="st0" d="M71.1,34.2V30h2.2v0.5h-1.7v1.2h1.7v0.5h-1.7v1.6h1.7v0.5H71.1z"/>
		<path class="st0" d="M73.6,34.2l1.3-2.2l-1.2-2h0.6l0.9,1.6l0.9-1.6h0.6l-1.2,2l1.3,2.2h-0.6l-1-1.8l-1,1.8H73.6z"/>
		<path class="st0" d="M77.8,32.3v1.9h-0.5V30h0.9c0.3,0,0.5,0,0.7,0c0.1,0,0.3,0.1,0.4,0.2c0.1,0.1,0.2,0.2,0.3,0.4
			c0.1,0.2,0.1,0.4,0.1,0.6s0,0.4-0.1,0.6c-0.1,0.2-0.2,0.3-0.3,0.4c-0.1,0.1-0.2,0.1-0.4,0.2c-0.1,0-0.4,0-0.7,0H78H77.8z
			 M77.8,31.9H78c0.4,0,0.7-0.1,0.9-0.2c0.1-0.1,0.2-0.3,0.2-0.5c0-0.3-0.1-0.5-0.2-0.6s-0.4-0.2-0.9-0.2h-0.3V31.9z"/>
		<path class="st0" d="M80.3,34.2V30h2.2v0.5h-1.7v1.2h1.7v0.5h-1.7v1.6h1.7v0.5H80.3z"/>
		<path class="st0" d="M83.4,34.2V30h1c0.3,0,0.5,0,0.6,0c0.1,0,0.2,0.1,0.3,0.2c0.1,0.1,0.2,0.2,0.3,0.4c0.1,0.2,0.1,0.3,0.1,0.5
			c0,0.3-0.1,0.6-0.3,0.8c-0.2,0.2-0.5,0.3-0.9,0.3h-0.1l1.6,2h-0.6l-1.5-2h-0.1v2H83.4z M83.9,30.4v1.4h0.4c0.4,0,0.7-0.1,0.8-0.2
			c0.1-0.1,0.2-0.3,0.2-0.5c0-0.3-0.1-0.5-0.2-0.6c-0.1-0.1-0.4-0.2-0.8-0.2H83.9z"/>
		<path class="st0" d="M86.6,34.2V30h0.5v4.2H86.6z"/>
		<path class="st0" d="M88.1,34.2V30h2.2v0.5h-1.7v1.2h1.7v0.5h-1.7v1.6h1.7v0.5H88.1z"/>
		<path class="st0" d="M91.2,34.2v-4.4l3.1,3.4V30h0.5v4.4L91.6,31v3.2H91.2z"/>
		<path class="st0" d="M99.2,31c-0.2-0.2-0.4-0.4-0.6-0.5c-0.2-0.1-0.5-0.2-0.8-0.2c-0.2,0-0.4,0-0.7,0.1c-0.2,0.1-0.4,0.2-0.6,0.4
			c-0.2,0.2-0.3,0.4-0.4,0.6c-0.1,0.2-0.1,0.4-0.1,0.7c0,0.2,0,0.4,0.1,0.5c0,0.2,0.1,0.3,0.2,0.5c0.2,0.2,0.4,0.4,0.6,0.6
			c0.2,0.1,0.5,0.2,0.8,0.2c0.3,0,0.5-0.1,0.8-0.2s0.4-0.3,0.6-0.5v0.7c-0.2,0.2-0.4,0.3-0.7,0.3c-0.2,0.1-0.5,0.1-0.7,0.1
			c-0.2,0-0.4,0-0.7-0.1s-0.4-0.2-0.6-0.3c-0.3-0.2-0.5-0.5-0.7-0.8c-0.2-0.3-0.2-0.7-0.2-1c0-0.3,0.1-0.6,0.2-0.9
			c0.1-0.3,0.3-0.5,0.5-0.7c0.2-0.2,0.5-0.4,0.7-0.5c0.3-0.1,0.5-0.2,0.9-0.2c0.2,0,0.5,0,0.7,0.1s0.5,0.2,0.7,0.3V31z"/>
		<path class="st0" d="M100,34.2V30h2.2v0.5h-1.7v1.2h1.7v0.5h-1.7v1.6h1.7v0.5H100z"/>
		<path class="st0" d="M104.3,30h0.5l1.1,3.1l1.1-3.3l1.1,3.3l1.1-3.1h0.5l-1.6,4.4l-1.1-3.3l-1.1,3.3L104.3,30z"/>
		<path class="st0" d="M110.3,34.2V30h0.5v4.2H110.3z"/>
		<path class="st0" d="M112.5,34.2v-3.7h-1.2V30h2.9v0.5H113v3.7H112.5z"/>
		<path class="st0" d="M114.8,34.2V30h0.5v1.6h2.2V30h0.5v4.2h-0.5v-2.1h-2.2v2.1H114.8z"/>
		<path class="st0" d="M120.8,34.2V30h0.5v3.7h1.6v0.5H120.8z"/>
		<path class="st0" d="M127.6,32.1c0,0.3-0.1,0.6-0.2,0.9c-0.1,0.3-0.3,0.5-0.5,0.7c-0.2,0.2-0.5,0.4-0.7,0.5
			c-0.3,0.1-0.6,0.2-0.9,0.2s-0.6-0.1-0.9-0.2c-0.3-0.1-0.5-0.3-0.7-0.5c-0.2-0.2-0.4-0.4-0.5-0.7c-0.1-0.3-0.2-0.6-0.2-0.9
			c0-0.3,0.1-0.6,0.2-0.9c0.1-0.3,0.3-0.5,0.5-0.7c0.2-0.2,0.5-0.4,0.7-0.5c0.3-0.1,0.6-0.2,0.9-0.2c0.3,0,0.6,0.1,0.9,0.2
			c0.3,0.1,0.5,0.3,0.7,0.5c0.2,0.2,0.4,0.4,0.5,0.7C127.5,31.5,127.6,31.8,127.6,32.1z M125.3,33.8c0.2,0,0.5,0,0.7-0.1
			s0.4-0.2,0.6-0.4c0.2-0.2,0.3-0.4,0.4-0.6s0.1-0.4,0.1-0.7c0-0.2,0-0.5-0.1-0.7c-0.1-0.2-0.2-0.4-0.4-0.6
			c-0.2-0.2-0.4-0.3-0.6-0.4s-0.4-0.1-0.7-0.1c-0.2,0-0.5,0-0.7,0.1s-0.4,0.2-0.6,0.4c-0.2,0.2-0.3,0.4-0.4,0.6
			c-0.1,0.2-0.1,0.4-0.1,0.7c0,0.2,0,0.5,0.1,0.7s0.2,0.4,0.4,0.6c0.2,0.2,0.4,0.3,0.6,0.4C124.9,33.8,125.1,33.8,125.3,33.8z"/>
		<path class="st0" d="M129.5,34.4l-1.8-4.4h0.5l1.2,3.2l1.2-3.2h0.5L129.5,34.4z"/>
		<path class="st0" d="M131.7,34.2V30h2.2v0.5h-1.7v1.2h1.7v0.5h-1.7v1.6h1.7v0.5H131.7z"/>
	</g>
</g>
</svg>
