<?xml version="1.0" encoding="utf-8"?>
<!-- Generator: Adobe Illustrator 24.1.1, SVG Export Plug-In . SVG Version: 6.00 Build 0)  -->
<svg version="1.1" id="Layer_1" xmlns="http://www.w3.org/2000/svg" xmlns:xlink="http://www.w3.org/1999/xlink" x="0px" y="0px"
	 viewBox="0 0 250 35" style="enable-background:new 0 0 250 35;" xml:space="preserve">
<style type="text/css">
	.st0{fill:#FFFFFF;}
</style>
<g>
	<path class="st0" d="M34.6,18.4c0,0,0,0.3,0,0.4c-0.7,0.4-1.1,1.1-1.1,2.9V27c-1.3,2.8-6,8-15.6,8C8.3,35,0.5,27.2,0.5,17.5
		S9.2,0,18.9,0c5.3,0,8.5,1.4,12.6,4.1L30,9.7h-0.3C26.1,4,20.3-0.2,13.9,1.2C5.6,3,2.5,12.9,5.2,21.5c2.6,8.6,9,13.4,17.7,12.3
		c2.9-0.4,5.1-1.8,6.7-3.5v-6.5c0-3-1.4-4.8-3.8-5c0-0.3,0-0.4,0-0.4H34.6z"/>
	<path class="st0" d="M64.4,34.4v0.3h-7.5v-0.3c1.3-1.3,0.2-3-1.7-6.4l-5.2-9.1c-0.7,0-1.5,0.1-2.2,0.1h-4.5v12.6
		c0,1.7,0.3,2.4,1.1,2.9c0,0.1,0,0.3,0,0.3h-6c0,0,0-0.2,0-0.3c0.7-0.4,1.1-1.2,1.1-2.9V3.8c0-1.8-0.3-2.4-1.1-2.9
		c0-0.1,0-0.4,0-0.4h9.5c7.6,0,14.4,2.8,14.4,9.2c0,4.6-3.7,7.4-8.6,8.5L58,26C60.9,31,62.5,32.7,64.4,34.4z M58.3,9.7
		c0-3.8-1.3-8.8-10.6-8.8h-4.5v17.6h4.5C57,18.5,58.3,13.5,58.3,9.7z"/>
	<path class="st0" d="M94.7,34.7h-7.5v-0.3c1.3-1.3,0.9-3-0.5-6.6l-2.4-6.2H72.2l-1.3,3.7c-1.6,4.4-1.8,6.8,0.2,9v0.3h-5.8v-0.3
		c2.1-2.2,3.5-4.4,5.1-9l7.3-20.6l-1.6-4.2h3.9l9.5,24.8c2,4.9,3.3,6.8,5.1,9V34.7z M84.2,21.2L78,5.2l-5.7,16H84.2z"/>
	<path class="st0" d="M127.7,0.5c0,0,0,0.3,0,0.4c-1.6,0.8-3.1,3.4-3.1,5.5v28.4h-0.7L100.6,4.9v23.9c0,2.1,1.5,4.7,3.1,5.5
		c0,0.1,0,0.3,0,0.3h-6.6c0,0,0-0.2,0-0.3c1.7-0.8,3.1-3.4,3.1-5.5V4.5l-3.1-4h4.9l22.1,28.1V6.4c0-2.1-1.5-4.6-3.1-5.5
		c0-0.1,0-0.4,0-0.4H127.7z"/>
	<path class="st0" d="M163.4,17.6c0,9.7-8.3,17.1-19.6,17.1h-12.2c0,0,0-0.2,0-0.3c0.7-0.4,1.1-1.2,1.1-2.9V3.8
		c0-1.7-0.3-2.4-1.1-2.9c0-0.1,0-0.4,0-0.4h12.2C155.2,0.5,163.4,8,163.4,17.6z M159.6,17.6c0-9-6-16.7-15.7-16.7h-7.3v33.5h7.3
		C153.6,34.4,159.6,26.6,159.6,17.6z"/>
	<path class="st0" d="M187.8,28.8l-1.1,5.9h-19.8c0,0,0-0.2,0-0.3c0.7-0.4,1.1-1.2,1.1-2.9V3.8c0-1.7-0.3-2.4-1.1-2.9
		c0-0.1,0-0.4,0-0.4h18.3l1,5.4l-0.2,0.2c-2.2-2.5-5.3-5.2-10.7-5.2h-3.4v14.4l12.3-1.1v2.5l-12.3-1v18.7h4c5.4,0,9.4-2.8,11.7-5.8
		L187.8,28.8z"/>
	<path class="st0" d="M219.5,0.5c0,0,0,0.3,0,0.4c-1.6,0.8-2.1,3.4-2.1,5.5v16.9c0,6.8-4.8,11.8-11.7,11.8c-7.3,0-13.4-4.1-13.4-13
		V3.8c0-1.8-0.3-2.4-1.1-2.9c0-0.1,0-0.4,0-0.4h6.1c0,0,0,0.3,0,0.4c-0.7,0.4-1.1,1.1-1.1,2.9V22c0,8.1,4.2,13,11.2,12.4
		c6-0.5,9.7-5.7,9.7-11.2V6.9c0-2.7-1.3-5.7-3.7-6c0-0.1,0-0.4,0-0.4H219.5z"/>
	<path class="st0" d="M249.5,34.4v0.3H242v-0.3c1.3-1.3,0.2-3-1.7-6.4l-5.2-9.1c-0.7,0-1.5,0.1-2.2,0.1h-4.5v12.6
		c0,1.7,0.3,2.4,1.1,2.9c0,0.1,0,0.3,0,0.3h-6c0,0,0-0.2,0-0.3c0.7-0.4,1.1-1.2,1.1-2.9V3.8c0-1.8-0.3-2.4-1.1-2.9
		c0-0.1,0-0.4,0-0.4h9.5c7.6,0,14.4,2.8,14.4,9.2c0,4.6-3.7,7.4-8.6,8.5l4.4,7.7C246.1,31,247.6,32.7,249.5,34.4z M243.5,9.7
		c0-3.8-1.3-8.8-10.6-8.8h-4.5v17.6h4.5C242.1,18.5,243.5,13.5,243.5,9.7z"/>
</g>
</svg>
