<?xml version="1.0" encoding="utf-8"?>
<!-- Generator: Adobe Illustrator 27.0.0, SVG Export Plug-In . SVG Version: 6.00 Build 0)  -->
<svg version="1.1" id="Layer_1" xmlns="http://www.w3.org/2000/svg" xmlns:xlink="http://www.w3.org/1999/xlink" x="0px" y="0px"
	 viewBox="0 0 166 35" style="enable-background:new 0 0 166 35;" xml:space="preserve">
<style type="text/css">
	.st0{fill:#FFFFFF;}
</style>
<g>
	<g>
		<path class="st0" d="M12.5,14.9H5.8l-1,3.3H0.2L6.6,0.6h5.1L18,18.1h-4.5L12.5,14.9z M11.4,11.6L9.1,4.3l-2.3,7.3H11.4z"/>
	</g>
	<g>
		<path class="st0" d="M34.7,0.6v17.6h-3.8L24.1,7.9v10.2h-4.3V0.6h3.8l6.9,10.2V0.6H34.7z"/>
	</g>
	<g>
		<path class="st0" d="M57.1,0.6v17.6h-4.3V7.7l-4.6,7.6h-1.6L42,7.7v10.4h-4.3V0.6h4.5l5.1,8.5l5.1-8.5H57.1z"/>
	</g>
	<g>
		<path class="st0" d="M77.3,9.3c0,5.2-3.7,9.1-8.9,9.1s-8.9-3.9-8.9-9.1c0-5.2,3.7-9.1,8.9-9.1S77.3,4.1,77.3,9.3z M73,9.3
			c0-2.5-1.6-4.9-4.6-4.9s-4.6,2.5-4.6,4.9c0,2.5,1.6,5,4.6,5S73,11.8,73,9.3z"/>
	</g>
	<g>
		<path class="st0" d="M90.6,14.1v4H79.7V0.6H84v13.5H90.6z"/>
	</g>
	<g>
		<path class="st0" d="M125.3,0.6v17.6h-4.3V7.7l-4.6,7.6h-1.6l-4.6-7.6v10.4h-4.3V0.6h4.5l5.1,8.5l5.1-8.5H125.3z"/>
	</g>
	<g>
		<path class="st0" d="M145.5,9.3c0,5.2-3.7,9.1-8.9,9.1s-8.9-3.9-8.9-9.1c0-5.2,3.7-9.1,8.9-9.1S145.5,4.1,145.5,9.3z M141.2,9.3
			c0-2.5-1.6-4.9-4.6-4.9c-3.1,0-4.6,2.5-4.6,4.9c0,2.5,1.6,5,4.6,5C139.7,14.3,141.2,11.8,141.2,9.3z"/>
	</g>
	<g>
		<path class="st0" d="M159.2,4.6h-4.1v13.5h-4.3V4.6h-4.1V0.6h12.5V4.6z"/>
	</g>
	<g>
		<path class="st0" d="M165.8,0.6v17.6h-4.3V0.6H165.8z"/>
	</g>
	<g>
		<path class="st0" d="M47.7,31.3h2.5c0,0,0,0.1,0,0.2c0,0.2,0,0.3,0,0.4c0,0.9-0.3,1.6-0.8,2.1s-1.2,0.7-2.2,0.7
			c-0.5,0-1-0.1-1.4-0.2s-0.8-0.4-1.1-0.7c-0.3-0.3-0.5-0.7-0.7-1.1s-0.2-0.9-0.2-1.3c0-0.5,0.1-0.9,0.2-1.3s0.4-0.8,0.7-1.1
			c0.3-0.3,0.7-0.5,1.1-0.7c0.4-0.2,0.9-0.2,1.3-0.2c0.5,0,1,0.1,1.4,0.3c0.4,0.2,0.8,0.5,1.1,0.8L49,29.7c-0.2-0.3-0.5-0.4-0.7-0.6
			C48,29.1,47.7,29,47.3,29c-0.7,0-1.3,0.2-1.7,0.7c-0.4,0.4-0.7,1-0.7,1.7c0,0.7,0.2,1.3,0.7,1.8c0.4,0.4,1,0.7,1.7,0.7
			c0.6,0,1.1-0.1,1.4-0.4c0.3-0.3,0.5-0.7,0.5-1.1v-0.1h-1.5V31.3z"/>
	</g>
	<g>
		<path class="st0" d="M51.3,34.6v-6.4h1v2.4h3.1v-2.4h1v6.4h-1v-3.1h-3.1v3.1H51.3z"/>
	</g>
	<g>
		<path class="st0" d="M62.3,34.6l-0.7-1.6H59l-0.7,1.6h-1.1l3.1-6.6l3.1,6.6H62.3z M59.4,32.1h1.8l-0.7-1.5c0-0.1-0.1-0.2-0.1-0.3
			c0-0.1-0.1-0.3-0.1-0.4c0,0.1-0.1,0.3-0.1,0.4c0,0.1-0.1,0.2-0.1,0.3L59.4,32.1z"/>
	</g>
	<g>
		<path class="st0" d="M64.9,31.7v2.9h-1v-6.4h1.4c0.4,0,0.8,0,1,0.1c0.2,0.1,0.4,0.1,0.6,0.3c0.2,0.2,0.4,0.4,0.5,0.6
			c0.1,0.2,0.2,0.5,0.2,0.8c0,0.5-0.1,0.9-0.4,1.2s-0.6,0.5-1.1,0.5l2.2,2.9h-1.2L65,31.7H64.9z M65,30.9h0.2c0.5,0,0.9-0.1,1.1-0.2
			s0.3-0.4,0.3-0.7c0-0.4-0.1-0.6-0.3-0.7s-0.6-0.2-1.1-0.2H65V30.9z"/>
	</g>
	<g>
		<path class="st0" d="M71.6,33.4c0.1,0.1,0.2,0.2,0.3,0.3s0.2,0.1,0.3,0.1c0.2,0,0.3-0.1,0.4-0.2c0.1-0.1,0.1-0.4,0.1-0.7v-4.6h1v5
			c0,0.5-0.1,0.9-0.4,1.2c-0.2,0.3-0.6,0.4-1.1,0.4c-0.3,0-0.5-0.1-0.8-0.2c-0.2-0.1-0.4-0.3-0.6-0.5L71.6,33.4z"/>
	</g>
	<g>
		<path class="st0" d="M79.4,34.6l-0.7-1.6h-2.5l-0.7,1.6h-1.1l3.1-6.6l3.1,6.6H79.4z M76.5,32.1h1.8l-0.7-1.5
			c0-0.1-0.1-0.2-0.1-0.3s-0.1-0.3-0.1-0.4c0,0.1-0.1,0.3-0.1,0.4s-0.1,0.2-0.1,0.3L76.5,32.1z"/>
	</g>
	<g>
		<path class="st0" d="M81.1,34.6v-6.4h1v6.4H81.1z"/>
	</g>
	<g>
		<path class="st0" d="M83.3,33.3l0.8-0.4c0.1,0.3,0.2,0.5,0.4,0.7s0.5,0.2,0.8,0.2c0.3,0,0.6-0.1,0.7-0.3c0.2-0.2,0.3-0.4,0.3-0.7
			c0-0.4-0.3-0.7-0.9-1c-0.1,0-0.2-0.1-0.2-0.1c-0.7-0.3-1.2-0.7-1.4-0.9c-0.2-0.3-0.4-0.6-0.4-1c0-0.5,0.2-0.9,0.5-1.3
			s0.8-0.5,1.4-0.5c0.5,0,0.9,0.1,1.2,0.3c0.3,0.2,0.5,0.4,0.7,0.8l-0.8,0.4c-0.1-0.2-0.3-0.3-0.4-0.4s-0.3-0.1-0.5-0.1
			c-0.3,0-0.5,0.1-0.7,0.2c-0.2,0.1-0.2,0.3-0.2,0.6c0,0.4,0.4,0.7,1.1,1.1c0.1,0,0.1,0,0.1,0.1c0.6,0.3,1.1,0.6,1.3,0.9
			c0.2,0.3,0.4,0.6,0.4,1c0,0.6-0.2,1.1-0.6,1.4s-0.9,0.5-1.5,0.5c-0.5,0-1-0.1-1.3-0.4S83.4,33.8,83.3,33.3z"/>
	</g>
	<g>
		<path class="st0" d="M88.6,34.6v-6.4h1v6.4H88.6z"/>
	</g>
	<g>
		<path class="st0" d="M93.4,33.3l0.8-0.4c0.1,0.3,0.2,0.5,0.4,0.7s0.5,0.2,0.8,0.2c0.3,0,0.6-0.1,0.7-0.3c0.2-0.2,0.3-0.4,0.3-0.7
			c0-0.4-0.3-0.7-0.9-1c-0.1,0-0.2-0.1-0.2-0.1c-0.7-0.3-1.2-0.7-1.4-0.9c-0.2-0.3-0.4-0.6-0.4-1c0-0.5,0.2-0.9,0.5-1.3
			S95,28,95.5,28c0.5,0,0.9,0.1,1.2,0.3c0.3,0.2,0.5,0.4,0.7,0.8l-0.8,0.4c-0.1-0.2-0.3-0.3-0.4-0.4c-0.2-0.1-0.3-0.1-0.5-0.1
			c-0.3,0-0.5,0.1-0.7,0.2s-0.2,0.3-0.2,0.6c0,0.4,0.4,0.7,1.1,1.1c0.1,0,0.1,0,0.1,0.1c0.6,0.3,1.1,0.6,1.3,0.9
			c0.2,0.3,0.4,0.6,0.4,1c0,0.6-0.2,1.1-0.6,1.4c-0.4,0.4-0.9,0.5-1.5,0.5c-0.5,0-1-0.1-1.3-0.4S93.5,33.8,93.4,33.3z"/>
	</g>
	<g>
		<path class="st0" d="M98.7,34.6v-6.4h1v2.4h3.1v-2.4h1v6.4h-1v-3.1h-3.1v3.1H98.7z"/>
	</g>
	<g>
		<path class="st0" d="M105.4,28.2h1v3.9c0,0.6,0.1,1,0.4,1.3c0.3,0.3,0.7,0.4,1.2,0.4c0.5,0,0.9-0.1,1.2-0.4
			c0.3-0.3,0.4-0.7,0.4-1.3v-3.9h1v4c0,0.9-0.2,1.5-0.7,1.9c-0.4,0.4-1.1,0.6-2,0.6s-1.5-0.2-2-0.6s-0.7-1.1-0.7-1.9V28.2z"/>
	</g>
	<g>
		<path class="st0" d="M112,34.6v-6.4h1.4c0.9,0,1.6,0,1.9,0.1c0.4,0.1,0.7,0.2,1,0.5c0.4,0.3,0.6,0.6,0.8,1.1s0.3,0.9,0.3,1.5
			s-0.1,1.1-0.3,1.5s-0.5,0.8-0.8,1.1c-0.3,0.2-0.6,0.4-1,0.5c-0.4,0.1-0.9,0.1-1.7,0.1h-0.3H112z M113.1,33.6h0.9
			c0.5,0,0.8,0,1.1-0.1c0.2-0.1,0.4-0.2,0.6-0.3c0.2-0.2,0.4-0.5,0.5-0.8c0.1-0.3,0.2-0.7,0.2-1.1s-0.1-0.8-0.2-1.1
			c-0.1-0.3-0.3-0.6-0.5-0.8c-0.2-0.2-0.4-0.3-0.6-0.3c-0.3-0.1-0.6-0.1-1.2-0.1h-0.4h-0.4V33.6z"/>
	</g>
	<g>
		<path class="st0" d="M118.7,34.6v-6.4h1v2.4h3.1v-2.4h1v6.4h-1v-3.1h-3.1v3.1H118.7z"/>
	</g>
	<g>
		<path class="st0" d="M127.4,29.1v5.5h-1v-5.5h-1.7v-0.9h4.4v0.9H127.4z"/>
	</g>
	<g>
		<path class="st0" d="M133.5,34.6l-0.7-1.6h-2.5l-0.7,1.6h-1.1l3.1-6.6l3.1,6.6H133.5z M130.6,32.1h1.8l-0.7-1.5
			c0-0.1-0.1-0.2-0.1-0.3s-0.1-0.3-0.1-0.4c0,0.1-0.1,0.3-0.1,0.4c0,0.1-0.1,0.2-0.1,0.3L130.6,32.1z"/>
	</g>
</g>
</svg>
