<?xml version="1.0" encoding="utf-8"?>
<!-- Generator: Adobe Illustrator 27.0.0, SVG Export Plug-In . SVG Version: 6.00 Build 0)  -->
<svg version="1.1" id="Layer_1" xmlns="http://www.w3.org/2000/svg" xmlns:xlink="http://www.w3.org/1999/xlink" x="0px" y="0px"
	 viewBox="0 0 70 35" style="enable-background:new 0 0 70 35;" xml:space="preserve">
<style type="text/css">
	.st0{fill:#FFFFFF;}
</style>
<g>
	<path class="st0" d="M15.1,25.8c1.4-0.8,2.9-1.7,4.3-2.6c0.2-0.2,0.4-0.4,0.4-0.7c0.1-1.1,0.1-2.2,0-3.3c0-0.3-0.3-0.6-0.4-0.7
		c-4.3-1.8-8.5-3.6-12.8-5.3c-0.3-0.1-0.6-0.1-0.8,0.1c-1.5,0.7-2.9,1.3-4.4,2c-0.2,0.1-0.4,0.2-0.7,0.3c0-0.3-0.1-0.5-0.1-0.7
		c0-3.3,0-6.8,0-10.1c0-1.2,0.3-2.3,1-3.2c0.7-0.8,1.4-1.2,2.4-1.2c7.1,0,14.2,0,21.2,0c1.8,0,3.2,1.4,3.4,3.3
		c0,0.3,0.1,0.6,0.1,0.8c0,5.5,0,11-0.1,16.6c-0.1,4.5-2.1,8.1-5.8,10.5c-3.8,2.4-7.8,3-12.2,1.8c-0.2,0-0.3-0.1-0.5-0.3
		c1.5-0.8,2.9-1.7,4.4-2.5c0.4-0.3,0.6-0.5,0.6-1C15.1,28.6,15.1,27.2,15.1,25.8L15.1,25.8z M24,13.1c-3.3-1.4-6.7-2.8-9.9-4.3
		c-1.1-0.5-2-0.6-3.1,0.1c-1,0.6-2.2,1.1-3.3,1.6c0.3,0.2,0.4,0.2,0.6,0.3c3.7,1.6,7.3,3.2,11,4.8c0.6,0.3,0.8,0.6,0.8,1.2
		c-0.1,0.7,0,1.3,0,2.1c1.3-0.8,2.3-1.3,3.5-2c0.4-0.2,0.5-0.4,0.5-0.9C23.9,15,23.9,14,24,13.1c0.3-0.3,0.7-0.6,1.1-0.7
		c1.6-0.5,2.1-1.7,1.8-3.3c-0.1-0.4-0.2-0.6-0.5-0.8c-2.6-1.1-5.1-2.2-7.7-3.3c-0.2-0.1-0.4-0.2-0.6-0.1c-1.2,0.5-2.3,1-3.5,1.6
		C15,6.8,15.1,6.9,15.4,7c2.7,1.2,5.3,2.3,7.9,3.4c0.5,0.3,0.8,0.4,0.7,1C23.8,12,23.9,12.5,24,13.1z"/>
	<path class="st0" d="M15.1,25.8c-4.5-1.9-9.1-3.8-13.6-5.8c-0.6-0.3-0.8-0.6-0.8-1.3c0.1-0.9,0-1.8,0-2.8c0.3,0.1,0.5,0.2,0.7,0.3
		c4.4,1.9,8.8,3.8,13.2,5.8c0.5,0.2,0.6,0.4,0.6,0.9C15.1,23.8,15.1,24.8,15.1,25.8L15.1,25.8z"/>
	<path class="st0" d="M2,26.2c2.5,1.1,5.1,2.3,7.6,3.3c0.2,0.1,0.3,0.3,0.3,0.4c0,1.1,0,2.3,0,3.4C6.1,32.1,3.5,29.8,2,26.2z"/>
	<g>
		<path class="st0" d="M44.6,2.3c2.3,0,4.3-0.1,6.5,0c1.8,0.1,2.5,1.1,2.5,2.8c0,0.3,0,0.6,0,0.9c0,1.3-0.6,2-1.9,2.3
			c2.7,0.8,1.8,2.8,1.9,4.6c-1,0-2,0-3,0c0-0.7,0-1.3,0-2c0-0.8-0.3-1.2-1.2-1.2c-0.6,0-1.2,0-1.8,0c0,1.1,0,2.1,0,3.2c-1,0-2,0-3,0
			C44.6,9.5,44.6,5.9,44.6,2.3z M47.7,4.7c0,0.9,0,1.8,0,2.7c0.7,0,1.3,0,1.9,0c0.8,0,1.1-0.6,1-1.3c0-1-0.3-1.3-1.1-1.3
			C48.9,4.7,48.3,4.7,47.7,4.7z"/>
		<path class="st0" d="M38.1,9.2c0-0.7,0-1.3,0-1.9c1.5,0,3,0,4.5,0c0.1,1.3,0.2,2.8-0.3,4.1c-0.4,1-1.2,1.6-2.3,1.8
			c-1.4,0.2-2.8,0.3-4.2,0.1c-1.6-0.1-2.7-1.1-2.8-2.7c-0.2-1.8-0.2-3.8,0-5.7c0.2-1.7,1.3-2.7,3-2.8C37.3,2,38.7,2,39.9,2.2
			c1.8,0.3,2.8,1.7,2.7,3.4c-1,0-1.9,0-2.9,0c-0.6-1.1-2.1-1.6-3.3-1c-0.3,0.2-0.6,0.5-0.6,0.8c0,1.4,0,2.9,0,4.3
			c0,0.1,0.1,0.3,0.1,0.3c0.3,0.8,1.3,0.8,2.8,0.6c0.8-0.1,0.9-0.7,0.8-1.4C39.2,9.2,38.7,9.2,38.1,9.2z"/>
		<path class="st0" d="M66.4,13.1c-1.1,0-2,0-3,0c0-2.8,0-5.5,0-8.3c-1,0-1.8,0-2.8,0c0-0.9,0-1.7,0-2.5c2.8,0,5.8,0,8.7,0
			c0,0.8,0,1.6,0,2.4c-0.9,0-1.8,0-2.8,0C66.4,7.5,66.4,10.2,66.4,13.1z"/>
		<path class="st0" d="M55.7,2.2c1,0,1.9,0,2.9,0c0,3.6,0,7.2,0,10.8c-0.9,0-1.9,0-2.9,0C55.7,9.5,55.7,5.9,55.7,2.2z"/>
		<path class="st0" d="M32.7,15.4c1,0,2.1,0,3.2,0c0,0.4,0,0.8,0,1.1c0,2.3,0,4.5,0,6.8c0,1.5,0.4,1.8,1.9,1.9h0.1
			c2.1,0,2.4-0.3,2.4-2.3c0.1-2.4,0-4.8,0-7.3c1.1,0,2.2,0,3.3,0c0,0.1,0.1,0.1,0.1,0.2c0,3.1,0,6.3-0.1,9.3c-0.1,1.7-1.3,2.9-2.9,3
			c-1.7,0.2-3.3,0.2-5,0c-1.6-0.1-2.8-1.3-2.9-2.8C32.7,21.9,32.7,18.7,32.7,15.4z M40.9,15.8c0,0.4,0,0.8,0,1.1
			c0,2.1,0.1,4.1-0.1,6.2c-0.1,2.1-0.7,2.6-2.8,2.5c-0.2,0-0.3,0-0.5,0c-1.5-0.2-1.9-0.6-2-2.1c-0.1-2.3-0.1-4.4-0.1-6.7
			c0-0.3,0-0.7,0-1c-0.8,0-1.6,0-2.3,0c0,3-0.1,6,0,8.9c0.1,1.7,1.1,2.6,2.7,2.8c1.5,0.2,3.1,0.2,4.6,0c1.8-0.2,2.8-1.3,2.8-3.3
			c0.1-1.3,0-2.7,0-3.9c0-1.5,0-3,0-4.5C42.6,15.8,41.8,15.8,40.9,15.8z"/>
		<path class="st0" d="M58.7,15.5c2.6,0,5.1-0.1,7.7,0c1.5,0.1,2.5,1.1,2.7,2.7c0.1,1.2,0.2,2.3,0,3.4c-0.3,1.7-1.2,2.5-2.8,2.8
			c-1.3,0.2-2.7,0.2-4.1,0.3c0,1,0,2.1,0,3.2c-1.2,0-2.3,0-3.4,0C58.7,23.8,58.7,19.6,58.7,15.5z M59.1,16c0,3.8,0,7.7,0,11.5
			c0.8,0,1.6,0,2.4,0c0-0.8,0-1.6,0-2.3c-0.1-0.8,0.3-1,1-1c1,0,2.1,0.1,3.1,0c1.9-0.2,2.8-1.1,3-2.9c0.1-0.8,0.1-1.7,0-2.5
			c-0.2-1.6-0.8-2.5-2.4-2.7C63.9,15.8,61.5,16,59.1,16z"/>
		<path class="st0" d="M46.3,27.8c0-4.2,0-8.3,0-12.3c0.1,0,0.1-0.1,0.2-0.1c2.4,0,4.8-0.1,7.2,0.1c2.1,0.2,3.1,1.3,3.2,3.4
			c0,0.8,0,1.5,0,2.3c-0.2,1.8-1.2,2.9-3,3.2c-0.7,0.1-1.3,0.2-2,0.2c-0.7,0-1.3,0-2.1,0c0,0.6,0,1.1,0,1.6c0,0.5,0,1.1,0,1.7
			C48.4,27.8,47.3,27.8,46.3,27.8z M49.1,27.4c0-0.8,0-1.5,0-2.2c0-1.1,0.1-1.1,1.2-1.2c0.9,0,1.9,0,2.8,0c1.9-0.1,2.8-1,3.1-2.9
			c0.1-0.8,0.1-1.4,0.1-2.2c-0.2-2.1-1.1-3.1-3.3-3.2c-1.4-0.1-2.9,0-4.3,0c-0.7,0-1.3,0-2,0c0,3.9,0,7.8,0,11.7
			C47.5,27.4,48.3,27.4,49.1,27.4z"/>
		<path class="st0" d="M61.5,19.9c0-2.2,0-2.2,2.1-2.2c0.3,0,0.5,0,0.8,0c0.3,0,0.4,0,0.7,0.1c0.9,0.3,1.3,1.2,1,2.9
			c-0.1,0.9-0.5,1.3-1.5,1.4c-0.8,0-1.6,0-2.3,0c-0.6,0-0.8-0.3-0.8-0.8C61.6,20.9,61.5,20.4,61.5,19.9z M62.1,21.8
			c0.7,0,1.3,0,1.8,0c1.6,0,1.8-0.3,1.8-1.8c0-0.3,0-0.6-0.1-0.8c-0.2-0.3-0.5-0.8-0.8-0.8c-0.9-0.1-1.8,0-2.8,0
			C62.1,19.4,62.1,20.6,62.1,21.8z"/>
		<path class="st0" d="M49.1,19.9c0-2.2,0-2.2,2.2-2.2c0.4,0,0.9-0.1,1.3,0.1c0.4,0.2,0.9,0.6,1,1c0.2,0.8,0.1,1.6,0,2.4
			c-0.1,0.8-0.8,0.9-1.4,0.9c-0.8,0-1.5,0-2.3,0c-0.6,0-0.8-0.3-0.8-0.8S49.1,20.4,49.1,19.9z M49.6,21.8c0.9,0,1.8,0.1,2.7,0
			c0.3,0,0.8-0.4,0.9-0.7c0.2-0.7,0.2-1.3,0-2c-0.1-0.3-0.6-0.8-0.9-0.8c-0.8-0.1-1.8,0-2.7,0C49.6,19.4,49.6,20.5,49.6,21.8z"/>
	</g>
</g>
</svg>
