<svg width="1133" height="364" viewBox="0 0 1133 364" fill="none" xmlns="../../www.w3.org/2000/svg.html">
<path d="M0 120.037H140.069V160.374H0V120.037ZM138.61 316.374L144.446 355.738C131.801 360.922 118.183 363.514 103.593 363.514C89.6507 363.514 77.654 360.922 67.6028 355.738C57.5515 350.231 49.932 342.131 44.7443 331.439C39.5565 320.424 36.9627 306.654 36.9627 290.131V45.6823H84.6251V283.327C84.6251 296.935 87.3811 306.654 92.893 312.486C98.7292 317.994 106.187 320.748 115.265 320.748C122.398 320.748 130.18 319.29 138.61 316.374Z" fill="white"/>
<path d="M167.772 239.103C167.772 214.48 173.122 192.773 183.822 173.981C194.521 155.19 209.274 140.449 228.08 129.757C246.885 119.065 268.285 113.72 292.278 113.72C316.271 113.72 337.509 119.065 355.99 129.757C374.795 140.449 389.548 155.19 400.248 173.981C411.272 192.773 416.784 214.48 416.784 239.103C416.784 263.402 411.272 284.947 400.248 303.738C389.548 322.53 374.795 337.271 355.99 347.963C337.509 358.654 316.271 364 292.278 364C268.285 364 246.885 358.654 228.08 347.963C209.274 337.271 194.521 322.53 183.822 303.738C173.122 284.947 167.772 263.402 167.772 239.103ZM215.921 238.617C215.921 254.816 219.163 269.234 225.648 281.869C232.133 294.181 241.049 303.9 252.397 311.028C264.07 317.832 277.363 321.234 292.278 321.234C307.193 321.234 320.324 317.832 331.672 311.028C343.345 303.9 352.423 294.181 358.908 281.869C365.393 269.234 368.635 254.816 368.635 238.617C368.635 222.417 365.393 208.162 358.908 195.85C352.423 183.539 343.345 173.981 331.672 167.178C320.324 160.05 307.193 156.486 292.278 156.486C277.363 156.486 264.07 160.05 252.397 167.178C241.049 173.981 232.133 183.539 225.648 195.85C219.163 208.162 215.921 222.417 215.921 238.617Z" fill="white"/>
<path d="M446.455 239.103C446.455 214.48 451.805 192.773 462.505 173.981C473.204 155.19 487.957 140.449 506.762 129.757C525.568 119.065 546.968 113.72 570.961 113.72C594.954 113.72 616.191 119.065 634.673 129.757C653.478 140.449 668.231 155.19 678.931 173.981C689.955 192.773 695.467 214.48 695.467 239.103C695.467 263.402 689.955 284.947 678.931 303.738C668.231 322.53 653.478 337.271 634.673 347.963C616.191 358.654 594.954 364 570.961 364C546.968 364 525.568 358.654 506.762 347.963C487.957 337.271 473.204 322.53 462.505 303.738C451.805 284.947 446.455 263.402 446.455 239.103ZM494.604 238.617C494.604 254.816 497.846 269.234 504.331 281.869C510.815 294.181 519.732 303.9 531.08 311.028C542.752 317.832 556.046 321.234 570.961 321.234C585.876 321.234 599.007 317.832 610.355 311.028C622.028 303.9 631.106 294.181 637.591 281.869C644.076 269.234 647.318 254.816 647.318 238.617C647.318 222.417 644.076 208.162 637.591 195.85C631.106 183.539 622.028 173.981 610.355 167.178C599.007 160.05 585.876 156.486 570.961 156.486C556.046 156.486 542.752 160.05 531.08 167.178C519.732 173.981 510.815 183.539 504.331 195.85C497.846 208.162 494.604 222.417 494.604 238.617Z" fill="white"/>
<path d="M788.85 358.168H741.187V0H788.85V358.168Z" fill="white"/>
<path d="M831.797 288.673H877.028C877.352 300.336 881.729 309.57 890.159 316.374C898.589 323.178 910.262 326.579 925.176 326.579C941.064 326.579 953.223 323.502 961.653 317.346C970.083 311.19 974.298 302.928 974.298 292.561C974.298 285.109 972.028 278.953 967.489 274.093C962.95 268.91 954.682 264.698 942.685 261.458L900.372 251.738C879.297 246.555 863.572 238.617 853.196 227.925C843.145 217.234 838.119 202.978 838.119 185.159C838.119 170.579 841.848 157.944 849.305 147.252C857.087 136.237 867.787 127.813 881.405 121.981C895.023 116.15 910.748 113.234 928.581 113.234C946.089 113.234 961.328 116.312 974.298 122.467C987.267 128.623 997.318 137.371 1004.45 148.71C1011.91 159.726 1015.8 172.847 1016.12 188.075H970.407C970.083 176.411 966.03 167.178 958.248 160.374C950.791 153.57 940.253 150.168 926.635 150.168C913.017 150.168 902.318 153.246 894.536 159.402C887.079 165.234 883.35 173.333 883.35 183.701C883.35 199.252 894.86 209.782 917.881 215.29L959.707 225.495C980.134 230.031 995.211 237.483 1004.94 247.85C1014.99 257.894 1020.01 271.826 1020.01 289.645C1020.01 304.548 1015.96 317.67 1007.86 329.009C999.75 340.349 988.564 349.097 974.298 355.252C960.031 361.084 943.333 364 924.204 364C895.995 364 873.461 357.196 856.601 343.589C840.065 329.657 831.797 311.352 831.797 288.673Z" fill="white"/>
<path d="M1097.5 364C1087.77 364 1079.34 360.598 1072.21 353.794C1065.4 346.991 1061.99 338.891 1061.99 329.495C1061.99 319.452 1065.4 311.028 1072.21 304.224C1079.34 297.421 1087.77 294.019 1097.5 294.019C1107.22 294.019 1115.49 297.421 1122.3 304.224C1129.43 311.028 1133 319.452 1133 329.495C1133 338.891 1129.43 346.991 1122.3 353.794C1115.49 360.598 1107.22 364 1097.5 364Z" fill="white"/>
</svg>
