<?xml version="1.0" encoding="utf-8"?>
<!-- Generator: Adobe Illustrator 27.0.0, SVG Export Plug-In . SVG Version: 6.00 Build 0)  -->
<svg version="1.1" id="Layer_1" xmlns="http://www.w3.org/2000/svg" xmlns:xlink="http://www.w3.org/1999/xlink" x="0px" y="0px"
	 viewBox="0 0 900 410" style="enable-background:new 0 0 900 410;" xml:space="preserve">
<style type="text/css">
	.st0{opacity:0.1;fill:none;stroke:#FFFFFF;enable-background:new    ;}
</style>
<g transform="matrix(1 0 0 1 -434.03 -0.37)">
	<rect x="434.5" y="0.9" vector-effect="non-scaling-stroke" class="st0" width="30.9" height="408.2"/>
</g>
<g transform="matrix(1 0 0 1 -370.14 -0.37)">
	<rect x="434.5" y="0.9" vector-effect="non-scaling-stroke" class="st0" width="30.9" height="408.2"/>
</g>
<g transform="matrix(1 0 0 1 -338.2 -0.37)">
	<rect x="433.1" y="0.9" vector-effect="non-scaling-stroke" class="st0" width="33.7" height="408.2"/>
</g>
<g transform="matrix(1 0 0 1 -305.56 -0.37)">
	<rect x="433.8" y="0.9" vector-effect="non-scaling-stroke" class="st0" width="32.3" height="408.2"/>
</g>
<g transform="matrix(1 0 0 1 -273.61 -0.37)">
	<rect x="433.8" y="0.9" vector-effect="non-scaling-stroke" class="st0" width="32.3" height="408.2"/>
</g>
<g transform="matrix(1 0 0 1 -241.14 -0.37)">
	<rect x="433.4" y="0.9" vector-effect="non-scaling-stroke" class="st0" width="33.2" height="408.2"/>
</g>
<g transform="matrix(1 0 0 1 -337.01 0)">
	<rect x="337.5" y="0.5" vector-effect="non-scaling-stroke" class="st0" width="225" height="409"/>
</g>
<g transform="matrix(1 0 0 1 -112.01 0)">
	<rect x="337.5" y="0.5" vector-effect="non-scaling-stroke" class="st0" width="225" height="409"/>
</g>
<g transform="matrix(1 0 0 1 112.99 0)">
	<rect x="337.5" y="0.5" vector-effect="non-scaling-stroke" class="st0" width="225" height="409"/>
</g>
<g transform="matrix(1 0 0 1 337.5 0)">
	<rect x="338" y="0.5" vector-effect="non-scaling-stroke" class="st0" width="224" height="409"/>
</g>
</svg>
