<?xml version="1.0" encoding="utf-8"?>
<!-- Generator: Adobe Illustrator 27.0.0, SVG Export Plug-In . SVG Version: 6.00 Build 0)  -->
<svg version="1.1" id="Layer_1" xmlns="http://www.w3.org/2000/svg" xmlns:xlink="http://www.w3.org/1999/xlink" x="0px" y="0px"
	 viewBox="0 0 670 151" style="enable-background:new 0 0 670 151;" xml:space="preserve">
<g>
	<path d="M1.26,97.09h6.98V54.1H1.26v-0.88h11.69c0.59,0,1.17-0.01,1.76-0.03c0.59-0.02,1.17-0.05,1.76-0.09
		c0.59,0,1.17-0.01,1.76-0.03c0.59-0.02,1.17-0.03,1.76-0.03c1.26,0,2.38,0.02,3.36,0.06c0.98,0.04,1.91,0.12,2.76,0.22
		c0.86,0.1,1.68,0.25,2.45,0.44c0.77,0.19,1.6,0.43,2.48,0.72c2.55,0.84,4.77,1.96,6.63,3.36c1.86,1.4,3.39,3.03,4.59,4.87
		c1.19,1.84,2.07,3.86,2.64,6.03c0.57,2.18,0.85,4.46,0.85,6.85c0,2.76-0.34,5.25-1,7.45c-0.67,2.2-1.59,4.15-2.76,5.84
		c-1.17,1.7-2.55,3.16-4.12,4.4c-1.57,1.24-3.26,2.23-5.06,2.98c-1,0.46-1.96,0.82-2.86,1.07c-0.9,0.25-1.82,0.44-2.76,0.57
		c-0.94,0.13-1.98,0.21-3.11,0.25c-1.13,0.04-2.43,0.06-3.9,0.06c-0.63,0-1.3-0.01-2.01-0.03c-0.71-0.02-1.43-0.05-2.14-0.09
		c-0.71-0.04-1.41-0.07-2.11-0.09c-0.69-0.02-1.35-0.03-1.98-0.03H1.26V97.09z M14.52,97.09c0.71,0.08,1.54,0.15,2.48,0.19
		c0.94,0.04,1.98,0.06,3.11,0.06c1.42,0,2.84-0.07,4.24-0.22c1.4-0.15,2.74-0.46,4.02-0.94c1.28-0.48,2.47-1.17,3.58-2.07
		c1.11-0.9,2.11-2.08,2.98-3.55c1.34-2.26,2.27-4.58,2.8-6.94c0.52-2.37,0.79-4.95,0.79-7.76c0-3.31-0.31-6.32-0.94-9.02
		c-0.63-2.7-1.67-5.01-3.11-6.91c-1.45-1.91-3.36-3.38-5.75-4.43c-2.39-1.05-5.34-1.57-8.86-1.57c-1.05,0-2,0.02-2.86,0.06
		c-0.86,0.04-1.69,0.08-2.48,0.13V97.09z"/>
	<path d="M52.47,97.09h6.98V54.1h-6.98v-0.88h35.94v10.87h-0.69c-0.54-1.63-1.13-3.07-1.76-4.3c-0.63-1.24-1.38-2.28-2.26-3.14
		c-0.88-0.86-1.93-1.5-3.14-1.92c-1.22-0.42-2.68-0.63-4.4-0.63H65.73v19.42h4.09c1.38,0,2.55-0.13,3.52-0.38
		c0.96-0.25,1.79-0.72,2.48-1.41s1.28-1.63,1.76-2.83c0.48-1.19,0.95-2.73,1.41-4.62h0.69v19.54h-0.69
		c-0.29-1.21-0.6-2.39-0.91-3.52c-0.31-1.13-0.75-2.14-1.32-3.02c-0.57-0.88-1.32-1.58-2.26-2.11c-0.94-0.52-2.17-0.79-3.68-0.79
		h-5.09v22.69h11.88c2.3,0,4.22-0.49,5.75-1.48c1.53-0.98,2.78-2.16,3.74-3.52c0.96-1.36,1.67-2.77,2.14-4.24
		c0.46-1.47,0.75-2.68,0.88-3.65h0.69v13.76H52.47V97.09z"/>
	<path d="M99.54,84.45h0.69c0.46,2.26,1.06,4.17,1.79,5.72c0.73,1.55,1.54,2.83,2.42,3.83c0.88,1.01,1.8,1.78,2.76,2.33
		c0.96,0.55,1.94,0.94,2.92,1.19c0.98,0.25,1.93,0.4,2.83,0.44c0.9,0.04,1.75,0.06,2.55,0.06c2.22,0,4.04-0.33,5.47-1.01
		c1.42-0.67,2.55-1.52,3.39-2.55c0.84-1.03,1.42-2.14,1.76-3.33c0.33-1.19,0.5-2.29,0.5-3.3c0-1.47-0.27-2.72-0.82-3.77
		c-0.54-1.05-1.24-1.94-2.07-2.67c-0.84-0.73-1.75-1.33-2.73-1.79c-0.99-0.46-1.92-0.82-2.8-1.07l-7.23-2.2
		c-3.39-1.05-5.96-2.43-7.7-4.15c-1.74-1.72-2.61-4.02-2.61-6.91c0-1.89,0.33-3.63,1-5.25c0.67-1.61,1.61-3.01,2.83-4.18
		c1.21-1.17,2.67-2.09,4.37-2.76c1.7-0.67,3.55-1.01,5.56-1.01c1.47,0,2.69,0.13,3.68,0.38s1.83,0.53,2.55,0.85
		c0.71,0.31,1.35,0.6,1.92,0.85c0.57,0.25,1.14,0.38,1.73,0.38c0.54,0,0.91-0.07,1.1-0.22c0.19-0.15,0.45-0.51,0.79-1.1h0.88V64.6
		h-0.75c-0.25-1.51-0.68-2.96-1.29-4.37c-0.61-1.4-1.39-2.64-2.36-3.71c-0.96-1.07-2.13-1.93-3.49-2.58
		c-1.36-0.65-2.94-0.97-4.74-0.97c-1.01,0-2.12,0.14-3.33,0.41c-1.22,0.27-2.35,0.74-3.39,1.41c-1.05,0.67-1.92,1.55-2.61,2.64
		c-0.69,1.09-1.04,2.47-1.04,4.15c0,1.34,0.27,2.48,0.82,3.42c0.54,0.94,1.25,1.74,2.11,2.39c0.86,0.65,1.82,1.19,2.89,1.63
		c1.07,0.44,2.15,0.83,3.24,1.16l7.6,2.39c0.8,0.25,1.8,0.59,3.02,1.01c1.21,0.42,2.4,1.05,3.55,1.89c1.15,0.84,2.14,1.95,2.95,3.33
		c0.82,1.38,1.22,3.14,1.22,5.28c0,1.97-0.37,3.84-1.1,5.62c-0.73,1.78-1.79,3.35-3.17,4.71c-1.38,1.36-3.06,2.45-5.03,3.27
		c-1.97,0.82-4.19,1.23-6.66,1.23c-0.88,0-1.66-0.01-2.33-0.03c-0.67-0.02-1.3-0.07-1.89-0.16c-0.59-0.08-1.17-0.18-1.76-0.28
		c-0.59-0.11-1.24-0.26-1.95-0.47c-0.84-0.25-1.74-0.54-2.7-0.88c-0.96-0.33-1.8-0.5-2.51-0.5c-0.63,0-1.06,0.13-1.29,0.38
		c-0.23,0.25-0.43,0.59-0.6,1.01h-0.94V84.45z"/>
	<path d="M138.81,97.09h6.98V54.1h-6.98v-0.88h20.23v0.88h-6.97v42.98h6.97v0.88h-20.23V97.09z"/>
	<path d="M209.76,81.94h-5.03v14.26h-0.75c-0.46-0.46-0.84-0.77-1.13-0.94c-0.29-0.17-0.75-0.25-1.38-0.25
		c-0.75,0-1.52,0.2-2.29,0.6c-0.78,0.4-1.68,0.85-2.7,1.35c-1.03,0.5-2.23,0.95-3.61,1.35s-3.06,0.6-5.03,0.6
		c-2.97,0-5.61-0.49-7.92-1.48c-2.3-0.98-4.53-2.55-6.66-4.68c-2.1-2.09-3.83-4.57-5.22-7.42c-1.38-2.85-2.07-6.05-2.07-9.61
		c0-2.39,0.27-4.53,0.82-6.44c0.54-1.91,1.2-3.57,1.98-5c0.77-1.42,1.57-2.62,2.39-3.58c0.82-0.96,1.5-1.72,2.04-2.26
		c1.89-1.89,4.04-3.41,6.47-4.59c2.43-1.17,5.19-1.76,8.29-1.76c1.59,0,2.9,0.13,3.93,0.38c1.03,0.25,1.92,0.53,2.67,0.85
		c0.75,0.31,1.43,0.6,2.04,0.85c0.61,0.25,1.29,0.38,2.04,0.38c0.84,0,1.43-0.12,1.79-0.35c0.36-0.23,0.7-0.55,1.04-0.97h0.94v12.57
		h-0.69c-0.17-1.09-0.49-2.37-0.97-3.83c-0.48-1.47-1.24-2.87-2.26-4.21c-1.03-1.34-2.39-2.47-4.08-3.39
		c-1.7-0.92-3.86-1.38-6.5-1.38c-3.14,0-5.67,0.66-7.57,1.98c-1.91,1.32-3.39,3.06-4.46,5.22c-1.07,2.16-1.78,4.6-2.14,7.32
		c-0.36,2.72-0.53,5.47-0.53,8.23c0,1.88,0.08,3.77,0.25,5.66c0.17,1.88,0.45,3.67,0.85,5.34c0.4,1.68,0.95,3.23,1.67,4.65
		c0.71,1.42,1.63,2.64,2.76,3.65c1.26,1.13,2.55,1.92,3.9,2.36c1.34,0.44,3.08,0.66,5.22,0.66c1.3,0,2.6-0.22,3.9-0.66
		c1.3-0.44,2.46-1.1,3.49-1.98c1.03-0.88,1.86-2,2.51-3.36c0.65-1.36,0.97-2.96,0.97-4.81v-5.28h-8.11v-0.88h19.17V81.94z"/>
	<path d="M212.46,97.09h6.98V54.1h-6.98v-0.88h13.45l21.24,34.25h0.13V54.1h-6.98v-0.88h14.89v0.88h-6.97v44.74h-1.26L220.5,56.68
		h-0.13v40.41h6.98v0.88h-14.89V97.09z"/>
	<path d="M278.26,75.53c0-3.35,0.66-6.45,1.98-9.3c1.32-2.85,3.02-5.32,5.09-7.42c2.07-2.09,4.41-3.74,7.01-4.93
		c2.6-1.19,5.19-1.79,7.79-1.79c2.76,0,5.46,0.6,8.08,1.79c2.62,1.19,4.95,2.84,7.01,4.93c2.05,2.1,3.7,4.57,4.93,7.42
		c1.24,2.85,1.85,5.95,1.85,9.3c0,2.93-0.57,5.8-1.7,8.61c-1.13,2.81-2.68,5.3-4.65,7.48c-1.97,2.18-4.28,3.94-6.94,5.28
		c-2.66,1.34-5.52,2.01-8.58,2.01c-3.14,0-6.05-0.65-8.73-1.95c-2.68-1.3-5-3.03-6.94-5.18c-1.95-2.16-3.47-4.65-4.56-7.48
		C278.8,81.47,278.26,78.55,278.26,75.53z M285.48,75.53c0,3.77,0.25,7.06,0.75,9.87c0.5,2.81,1.34,5.15,2.51,7.04
		c1.17,1.89,2.68,3.29,4.52,4.21c1.84,0.92,4.13,1.38,6.85,1.38c2.68,0,4.95-0.46,6.82-1.38c1.86-0.92,3.38-2.32,4.56-4.21
		c1.17-1.89,2.01-4.23,2.51-7.04c0.5-2.81,0.75-6.1,0.75-9.87c0-2.89-0.19-5.69-0.57-8.39c-0.38-2.7-1.1-5.11-2.17-7.23
		c-1.07-2.11-2.56-3.8-4.46-5.06c-1.91-1.26-4.39-1.88-7.45-1.88c-3.06,0-5.54,0.63-7.45,1.88c-1.91,1.26-3.39,2.94-4.46,5.06
		c-1.07,2.12-1.79,4.52-2.17,7.23C285.67,69.84,285.48,72.64,285.48,75.53z"/>
	<path d="M328.15,97.09h6.98V54.1h-6.98v-0.88h35.94v10.87h-0.69c-0.54-1.63-1.13-3.07-1.76-4.3c-0.63-1.24-1.38-2.28-2.26-3.14
		c-0.88-0.86-1.93-1.5-3.14-1.92c-1.22-0.42-2.68-0.63-4.4-0.63h-10.43v20.36h4.09c1.38,0,2.55-0.13,3.52-0.38
		c0.96-0.25,1.79-0.72,2.48-1.41s1.28-1.63,1.76-2.83c0.48-1.19,0.95-2.73,1.41-4.62h0.69v19.54h-0.69
		c-0.29-1.21-0.6-2.39-0.91-3.52c-0.31-1.13-0.75-2.14-1.32-3.02c-0.57-0.88-1.32-1.58-2.26-2.11c-0.94-0.52-2.17-0.79-3.68-0.79
		h-5.09v21.74h6.98v0.88h-20.23V97.09z"/>
	<path d="M391.37,97.09h6.98V54.1h-3.65c-0.84,0-1.78,0.07-2.83,0.22c-1.05,0.15-2.11,0.56-3.17,1.23c-1.07,0.67-2.1,1.73-3.08,3.17
		c-0.99,1.45-1.83,3.45-2.55,6h-0.69v-11.5h38.21v11.5h-0.69c-0.71-2.55-1.56-4.56-2.55-6c-0.98-1.45-2.01-2.5-3.08-3.17
		c-1.07-0.67-2.13-1.08-3.17-1.23c-1.05-0.15-1.99-0.22-2.83-0.22h-3.65v42.98h6.98v0.88h-20.23V97.09z"/>
	<path d="M425.05,97.09h6.98V54.1h-6.98v-0.88h20.23v0.88h-6.97v42.98h6.97v0.88h-20.23V97.09z"/>
	<path d="M448.99,97.09h6.98V54.1h-6.98v-0.88h14.14l11.63,33.81h0.13l11.63-33.81h13.89v0.88h-6.97v42.98h6.97v0.88h-20.23v-0.88
		h6.98V54.48h-0.13l-15.02,43.55l-14.96-43.11h-0.13v42.17h6.97v0.88h-14.89V97.09z"/>
	<path d="M503.91,97.09h6.98V54.1h-6.98v-0.88h35.94v10.87h-0.69c-0.54-1.63-1.13-3.07-1.76-4.3c-0.63-1.24-1.38-2.28-2.26-3.14
		c-0.88-0.86-1.93-1.5-3.14-1.92c-1.22-0.42-2.68-0.63-4.4-0.63h-10.43v19.42h4.09c1.38,0,2.55-0.13,3.52-0.38
		c0.96-0.25,1.79-0.72,2.48-1.41c0.69-0.69,1.28-1.63,1.76-2.83c0.48-1.19,0.95-2.73,1.41-4.62h0.69v19.54h-0.69
		c-0.29-1.21-0.6-2.39-0.91-3.52c-0.31-1.13-0.75-2.14-1.32-3.02c-0.57-0.88-1.32-1.58-2.26-2.11c-0.94-0.52-2.17-0.79-3.68-0.79
		h-5.09v22.69h11.88c2.3,0,4.22-0.49,5.75-1.48c1.53-0.98,2.78-2.16,3.74-3.52c0.96-1.36,1.67-2.77,2.14-4.24
		c0.46-1.47,0.75-2.68,0.88-3.65h0.69v13.76h-38.33V97.09z"/>
	<path d="M605.9,97.97h-0.94c-0.29-0.33-0.63-0.64-1.01-0.91c-0.38-0.27-0.96-0.41-1.76-0.41c-0.63,0-1.31,0.12-2.04,0.35
		c-0.73,0.23-1.57,0.49-2.51,0.79c-0.94,0.29-2,0.55-3.17,0.79c-1.17,0.23-2.47,0.35-3.9,0.35c-2.64,0-5.21-0.48-7.7-1.45
		c-2.49-0.96-4.85-2.53-7.07-4.71c-2.05-2.05-3.77-4.48-5.15-7.29c-1.38-2.81-2.07-6.05-2.07-9.74c0-3.14,0.57-6.14,1.7-8.99
		c1.13-2.85,2.7-5.36,4.71-7.54c2.01-2.18,4.38-3.91,7.1-5.18c2.72-1.28,5.7-1.92,8.92-1.92c1.3,0,2.45,0.13,3.46,0.38
		c1.01,0.25,1.91,0.53,2.7,0.85c0.8,0.31,1.53,0.6,2.2,0.85c0.67,0.25,1.32,0.38,1.95,0.38c0.84,0,1.43-0.14,1.79-0.41
		c0.36-0.27,0.68-0.58,0.97-0.91h0.94v12.57h-0.69c-0.38-1.59-0.86-3.16-1.44-4.71c-0.59-1.55-1.4-2.92-2.45-4.12
		c-1.05-1.19-2.38-2.16-3.99-2.89c-1.61-0.73-3.61-1.1-6-1.1c-2.22,0-4.13,0.35-5.72,1.04s-2.93,1.61-4.02,2.76
		c-1.09,1.15-1.96,2.49-2.61,4.02c-0.65,1.53-1.14,3.14-1.48,4.84c-0.34,1.7-0.56,3.41-0.66,5.15c-0.1,1.74-0.16,3.38-0.16,4.93
		c0,4.4,0.36,8.04,1.07,10.93c0.71,2.89,1.71,5.17,2.98,6.85c1.28,1.68,2.82,2.85,4.62,3.52c1.8,0.67,3.79,1.01,5.97,1.01
		c2.81,0,5.07-0.4,6.79-1.19c1.72-0.8,3.1-1.83,4.15-3.11c1.05-1.28,1.84-2.72,2.39-4.34c0.54-1.61,1.03-3.21,1.44-4.81h0.69V97.97z
		"/>
	<path d="M613.38,75.53c0-3.35,0.66-6.45,1.98-9.3c1.32-2.85,3.02-5.32,5.09-7.42c2.07-2.09,4.41-3.74,7.01-4.93
		c2.6-1.19,5.19-1.79,7.79-1.79c2.76,0,5.46,0.6,8.08,1.79c2.62,1.19,4.95,2.84,7.01,4.93c2.05,2.1,3.7,4.57,4.93,7.42
		c1.24,2.85,1.85,5.95,1.85,9.3c0,2.93-0.57,5.8-1.7,8.61c-1.13,2.81-2.68,5.3-4.65,7.48c-1.97,2.18-4.28,3.94-6.94,5.28
		c-2.66,1.34-5.52,2.01-8.58,2.01c-3.14,0-6.05-0.65-8.73-1.95c-2.68-1.3-5-3.03-6.94-5.18c-1.95-2.16-3.47-4.65-4.56-7.48
		C613.93,81.47,613.38,78.55,613.38,75.53z M620.61,75.53c0,3.77,0.25,7.06,0.75,9.87c0.5,2.81,1.34,5.15,2.51,7.04
		c1.17,1.89,2.68,3.29,4.52,4.21c1.84,0.92,4.13,1.38,6.85,1.38c2.68,0,4.95-0.46,6.82-1.38c1.86-0.92,3.38-2.32,4.56-4.21
		c1.17-1.89,2.01-4.23,2.51-7.04c0.5-2.81,0.75-6.1,0.75-9.87c0-2.89-0.19-5.69-0.57-8.39c-0.38-2.7-1.1-5.11-2.17-7.23
		c-1.07-2.11-2.56-3.8-4.46-5.06c-1.91-1.26-4.39-1.88-7.45-1.88c-3.06,0-5.54,0.63-7.45,1.88c-1.91,1.26-3.39,2.94-4.46,5.06
		c-1.07,2.12-1.79,4.52-2.17,7.23C620.8,69.84,620.61,72.64,620.61,75.53z"/>
	<path d="M662.08,95.33c0-0.92,0.32-1.71,0.97-2.36c0.65-0.65,1.43-0.97,2.36-0.97c0.92,0,1.71,0.32,2.36,0.97
		c0.65,0.65,0.97,1.44,0.97,2.36c0,0.92-0.33,1.71-0.97,2.36c-0.65,0.65-1.44,0.97-2.36,0.97c-0.92,0-1.71-0.33-2.36-0.97
		C662.41,97.03,662.08,96.25,662.08,95.33z"/>
</g>
</svg>
