<svg width="327" height="687" viewBox="0 0 327 687" fill="none" xmlns="http://www.w3.org/2000/svg">
<rect x="261" y="1" width="64.9183" height="260" transform="rotate(90 261 1)" stroke="#3E3E46"/>
<rect x="261" y="65.9185" width="64.9183" height="260" transform="rotate(90 261 65.9185)" stroke="#3E3E46"/>
<rect x="326" y="195.755" width="64.9183" height="260" transform="rotate(90 326 195.755)" stroke="#3E3E46"/>
<rect x="326" y="260.673" width="64.9183" height="260" transform="rotate(90 326 260.673)" stroke="#3E3E46"/>
<rect x="261" y="491.245" width="64.9183" height="260" transform="rotate(90 261 491.245)" stroke="#3E3E46"/>
<rect x="131" y="426.327" width="64.9183" height="130" transform="rotate(90 131 426.327)" stroke="#3E3E46"/>
<rect x="131" y="325.591" width="100.735" height="32.5" transform="rotate(90 131 325.591)" stroke="#3E3E46"/>
<rect x="131" y="359.17" width="65" height="33.5784" transform="rotate(-180 131 359.17)" stroke="#3E3E46"/>
<rect x="131" y="392.749" width="65" height="33.5784" transform="rotate(-180 131 392.749)" stroke="#3E3E46"/>
<rect x="326" y="589.742" width="65" height="33.5784" transform="rotate(-180 326 589.742)" stroke="#3E3E46"/>
<rect x="261" y="34.5786" width="65" height="33.5784" transform="rotate(-180 261 34.5786)" stroke="#3E3E46"/>
<rect x="261" y="621.082" width="64.9183" height="33.6207" transform="rotate(-90 261 621.082)" stroke="#3E3E46"/>
<rect x="196" y="65.9185" width="64.9183" height="33.6207" transform="rotate(-90 196 65.9185)" stroke="#3E3E46"/>
<rect x="326" y="130.836" width="64.9183" height="325" transform="rotate(90 326 130.836)" stroke="#3E3E46"/>
<rect x="326" y="621.082" width="64.9183" height="325" transform="rotate(90 326 621.082)" stroke="#3E3E46"/>
<rect x="326" y="556.164" width="64.9183" height="325" transform="rotate(90 326 556.164)" stroke="#3E3E46"/>
<rect x="1" y="1" width="325" height="685" stroke="#3E3E46"/>
<rect x="1" y="1" width="65" height="685" stroke="#3E3E46"/>
<rect x="66" y="1" width="65" height="685" stroke="#3E3E46"/>
<rect x="131" y="1" width="65" height="685" stroke="#3E3E46"/>
<rect x="196" y="1" width="65" height="685" stroke="#3E3E46"/>
<rect x="261" y="1" width="65" height="685" stroke="#3E3E46"/>
</svg>
