<svg width="327" height="687" viewBox="0 0 327 687" fill="none" xmlns="http://www.w3.org/2000/svg">
<rect x="1" y="289.773" width="325" height="167.892" stroke="#3E3E46"/>
<rect x="1" y="1" width="107.586" height="107.451" stroke="#3E3E46"/>
<rect x="108.586" y="1" width="217.414" height="107.451" stroke="#3E3E46"/>
<rect x="1" y="108.45" width="107.586" height="181.323" stroke="#3E3E46"/>
<rect x="108.586" y="108.45" width="107.586" height="181.323" stroke="#3E3E46"/>
<rect x="216.172" y="164.415" width="109.828" height="125.359" stroke="#3E3E46"/>
<rect x="1" y="1" width="53.7931" height="53.7255" stroke="#3E3E46"/>
<rect x="1" y="236.049" width="161.379" height="53.7255" stroke="#3E3E46"/>
<rect x="1" y="632.274" width="53.7931" height="53.7255" stroke="#3E3E46"/>
<rect x="1" y="289.773" width="17.931" height="167.892" stroke="#3E3E46"/>
<rect x="216.172" y="164.415" width="17.931" height="167.892" stroke="#3E3E46"/>
<rect x="216.172" y="332.307" width="17.931" height="167.892" stroke="#3E3E46"/>
<rect x="216.172" y="500.199" width="17.931" height="185.801" stroke="#3E3E46"/>
<rect x="54.793" y="632.274" width="53.7931" height="53.7255" stroke="#3E3E46"/>
<rect x="216.172" y="108.45" width="56.0345" height="55.964" stroke="#3E3E46"/>
<rect x="216.172" y="401.703" width="56.0345" height="55.964" stroke="#3E3E46"/>
<rect x="272.207" y="108.45" width="53.7931" height="55.964" stroke="#3E3E46"/>
<rect x="272.207" y="401.703" width="53.7931" height="55.964" stroke="#3E3E46"/>
<rect x="216.172" y="457.667" width="109.828" height="228.333" stroke="#3E3E46"/>
<rect x="108.586" y="289.773" width="107.586" height="396.225" stroke="#3E3E46"/>
<rect x="1" y="439.758" width="107.586" height="246.242" stroke="#3E3E46"/>
</svg>
