<svg width="670" height="151" viewBox="0 0 670 151" fill="none" xmlns="http://www.w3.org/2000/svg">
<path d="M58.1557 49.1955V68.4721H49.5326C40.709 68.4721 33.6902 71.0155 28.4762 76.1024C23.396 81.0554 20.8558 88.2841 20.8558 97.7886V148.39H0V49.9987H19.4521L21.2569 70.0785H19.2515C20.5885 63.5191 23.7302 58.2314 28.6768 54.2154C33.757 50.0656 40.1742 47.9907 47.9283 47.9907C49.6663 47.9907 51.3374 48.1246 52.9417 48.3923C54.546 48.5262 56.284 48.7939 58.1557 49.1955Z" fill="white"/>
<path d="M111.173 151C101.547 151 92.9906 148.791 85.5039 144.374C78.1509 139.956 72.3353 133.865 68.0572 126.101C63.9128 118.337 61.8406 109.368 61.8406 99.1942C61.8406 88.8865 63.8459 79.8506 67.8567 72.0864C72.0011 64.1884 77.683 58.0306 84.9023 53.613C92.2553 49.1955 100.745 46.9867 110.37 46.9867C119.863 46.9867 128.085 49.0616 135.037 53.2114C142.122 57.2274 147.604 62.9167 151.481 70.2793C155.358 77.6418 157.296 86.2761 157.296 96.1822V103.411L72.8701 103.612L73.2712 89.9574H136.641C136.641 82.1933 134.234 75.9685 129.421 71.2832C124.742 66.598 118.392 64.2553 110.37 64.2553C104.354 64.2553 99.2073 65.594 94.9292 68.2713C90.651 70.9486 87.3756 74.8307 85.1028 79.9175C82.8301 85.0044 81.6937 91.1622 81.6937 98.391C81.6937 109.903 84.2338 118.672 89.3141 124.695C94.3944 130.719 101.814 133.731 111.574 133.731C118.659 133.731 124.475 132.326 129.02 129.515C133.566 126.703 136.574 122.688 138.045 117.467H157.497C155.224 127.908 150.01 136.141 141.855 142.165C133.833 148.055 123.606 151 111.173 151Z" fill="white"/>
<path d="M163.488 49.7979H222.044V67.2673H163.488V49.7979ZM222.446 1.00399V18.6742C221.242 18.6742 219.905 18.6742 218.435 18.6742C217.098 18.6742 215.627 18.6742 214.023 18.6742C207.873 18.6742 203.729 20.2137 201.59 23.2926C199.584 26.2376 198.582 30.2535 198.582 35.3404V148.39H177.926V35.3404C177.926 27.0408 179.33 20.2806 182.138 15.0598C184.945 9.83909 188.755 6.02394 193.568 3.61436C198.515 1.20479 204.197 0 210.614 0C212.486 0 214.424 0.0669317 216.429 0.200795C218.568 0.334659 220.574 0.60239 222.446 1.00399Z" fill="white"/>
<path d="M225.764 98.9934C225.764 88.8196 227.97 79.8506 232.382 72.0864C236.927 64.3222 243.077 58.2314 250.831 53.8138C258.719 49.3963 267.609 47.1875 277.502 47.1875C287.529 47.1875 296.42 49.3963 304.174 53.8138C311.928 58.2314 318.011 64.3222 322.423 72.0864C326.968 79.8506 329.241 88.8196 329.241 98.9934C329.241 109.167 326.968 118.136 322.423 125.9C318.011 133.664 311.928 139.755 304.174 144.173C296.42 148.59 287.529 150.799 277.502 150.799C267.609 150.799 258.719 148.59 250.831 144.173C243.077 139.755 236.927 133.664 232.382 125.9C227.97 118.136 225.764 109.167 225.764 98.9934ZM246.62 98.9934C246.62 105.419 247.957 111.175 250.63 116.262C253.304 121.215 256.914 125.097 261.459 127.908C266.139 130.719 271.486 132.125 277.502 132.125C283.652 132.125 289 130.719 293.545 127.908C298.224 125.097 301.834 121.215 304.374 116.262C307.048 111.175 308.385 105.419 308.385 98.9934C308.385 92.3001 307.048 86.477 304.374 81.5239C301.834 76.5709 298.224 72.7558 293.545 70.0785C289 67.2673 283.652 65.8617 277.502 65.8617C271.486 65.8617 266.139 67.2673 261.459 70.0785C256.914 72.7558 253.304 76.5709 250.63 81.5239C247.957 86.477 246.62 92.3001 246.62 98.9934Z" fill="white"/>
<path d="M366.729 148.39H345.873V0H366.729V94.375L408.44 49.7979H434.51L397.01 89.1543L434.109 148.39H410.245L382.571 104.214L366.729 120.88V148.39Z" fill="white"/>
<path d="M512.836 49.7979H533.491V148.39H514.64L512.836 133.932C510.028 139.019 505.616 143.169 499.6 146.382C493.584 149.461 487.1 151 480.148 151C468.651 151 459.76 147.386 453.477 140.157C447.193 132.928 444.051 123.29 444.051 111.242V49.7979H464.907V104.214C464.907 114.254 466.913 121.483 470.923 125.9C474.934 130.184 480.482 132.326 487.568 132.326C495.857 132.326 502.14 129.782 506.418 124.695C510.696 119.609 512.836 111.978 512.836 101.805V49.7979Z" fill="white"/>
<path d="M546.421 119.274H566.274C566.408 124.093 568.146 127.908 571.488 130.719C574.83 133.397 579.509 134.735 585.525 134.735C591.943 134.735 596.822 133.531 600.165 131.121C603.641 128.578 605.379 125.231 605.379 121.081C605.379 118.136 604.443 115.66 602.571 113.652C600.833 111.644 597.491 110.037 592.544 108.832L575.098 104.616C566.408 102.608 559.857 99.395 555.445 94.9774C551.167 90.426 549.028 84.469 549.028 77.1064C549.028 70.8147 550.632 65.4601 553.841 61.0425C557.183 56.4911 561.662 53.0106 567.277 50.6011C573.025 48.1915 579.576 46.9867 586.929 46.9867C594.149 46.9867 600.432 48.3254 605.78 51.0027C611.261 53.5461 615.539 57.1605 618.614 61.8457C621.689 66.3972 623.226 71.8856 623.226 78.3112H603.574C603.44 73.492 601.836 69.7438 598.761 67.0665C595.686 64.2553 591.475 62.8497 586.127 62.8497C580.646 62.8497 576.368 64.0545 573.293 66.4641C570.352 68.8737 568.881 72.1534 568.881 76.3032C568.881 82.5949 573.493 86.8116 582.718 88.9535L600.165 93.1702C608.453 95.0443 614.67 98.1232 618.815 102.407C622.959 106.557 625.031 112.313 625.031 119.676C625.031 125.967 623.36 131.523 620.018 136.342C616.676 141.027 611.996 144.641 605.98 147.185C599.964 149.728 593.012 151 585.124 151C573.226 151 563.801 148.122 556.849 142.366C549.897 136.476 546.421 128.778 546.421 119.274Z" fill="white"/>
<path d="M654.96 150.799C650.949 150.799 647.473 149.394 644.532 146.582C641.591 143.637 640.12 140.157 640.12 136.141C640.12 131.991 641.591 128.511 644.532 125.699C647.473 122.754 650.949 121.282 654.96 121.282C659.104 121.282 662.647 122.754 665.588 125.699C668.529 128.511 670 131.991 670 136.141C670 140.157 668.529 143.637 665.588 146.582C662.647 149.394 659.104 150.799 654.96 150.799Z" fill="white"/>
</svg>
