<?xml version="1.0" encoding="utf-8"?>
<!-- Generator: Adobe Illustrator 27.0.0, SVG Export Plug-In . SVG Version: 6.00 Build 0)  -->
<svg version="1.1" id="Layer_1" xmlns="http://www.w3.org/2000/svg" xmlns:xlink="http://www.w3.org/1999/xlink" x="0px" y="0px"
	 viewBox="0 0 84 22" style="enable-background:new 0 0 84 22;" xml:space="preserve">
<style type="text/css">
	.st0{fill:#FFFFFF;}
</style>
<path class="st0" d="M0,22.1v-22h22v22H0z"/>
<path d="M17.2,22.1c-1,0-1.8-0.8-1.8-1.8c0-1,0.8-1.8,1.8-1.8c1,0,1.8,0.8,1.8,1.8C19,21.2,18.2,22.1,17.2,22.1z"/>
<g>
	<g>
		<path class="st0" d="M26.7,9.2h1.4V0.4h-1.4V0.2h2.4c0.1,0,0.2,0,0.4,0c0.1,0,0.2,0,0.4,0c0.1,0,0.2,0,0.4,0s0.2,0,0.4,0
			c0.3,0,0.5,0,0.7,0c0.2,0,0.4,0,0.6,0c0.2,0,0.3,0.1,0.5,0.1c0.2,0,0.3,0.1,0.5,0.1c0.5,0.2,1,0.4,1.4,0.7c0.4,0.3,0.7,0.6,0.9,1
			c0.2,0.4,0.4,0.8,0.5,1.2c0.1,0.4,0.2,0.9,0.2,1.4c0,0.6-0.1,1.1-0.2,1.5c-0.1,0.4-0.3,0.8-0.6,1.2c-0.2,0.3-0.5,0.6-0.8,0.9
			c-0.3,0.3-0.7,0.5-1,0.6c-0.2,0.1-0.4,0.2-0.6,0.2c-0.2,0.1-0.4,0.1-0.6,0.1c-0.2,0-0.4,0-0.6,0.1c-0.2,0-0.5,0-0.8,0
			c-0.1,0-0.3,0-0.4,0c-0.1,0-0.3,0-0.4,0c-0.1,0-0.3,0-0.4,0c-0.1,0-0.3,0-0.4,0h-2.2V9.2z M29.4,9.2c0.1,0,0.3,0,0.5,0
			c0.2,0,0.4,0,0.6,0c0.3,0,0.6,0,0.9,0c0.3,0,0.6-0.1,0.8-0.2c0.3-0.1,0.5-0.2,0.7-0.4c0.2-0.2,0.4-0.4,0.6-0.7
			c0.3-0.5,0.5-0.9,0.6-1.4c0.1-0.5,0.2-1,0.2-1.6c0-0.7-0.1-1.3-0.2-1.8c-0.1-0.6-0.3-1-0.6-1.4c-0.3-0.4-0.7-0.7-1.2-0.9
			c-0.5-0.2-1.1-0.3-1.8-0.3c-0.2,0-0.4,0-0.6,0c-0.2,0-0.3,0-0.5,0V9.2z"/>
		<path class="st0" d="M37.1,9.2h1.4V0.4h-1.4V0.2h7.3v2.2h-0.1c-0.1-0.3-0.2-0.6-0.4-0.9c-0.1-0.3-0.3-0.5-0.5-0.6
			c-0.2-0.2-0.4-0.3-0.6-0.4c-0.2-0.1-0.5-0.1-0.9-0.1h-2.1v4h0.8c0.3,0,0.5,0,0.7-0.1c0.2-0.1,0.4-0.1,0.5-0.3
			c0.1-0.1,0.3-0.3,0.4-0.6s0.2-0.6,0.3-0.9h0.1v4h-0.1c-0.1-0.2-0.1-0.5-0.2-0.7c-0.1-0.2-0.2-0.4-0.3-0.6
			c-0.1-0.2-0.3-0.3-0.5-0.4c-0.2-0.1-0.4-0.2-0.7-0.2h-1v4.6h2.4c0.5,0,0.9-0.1,1.2-0.3c0.3-0.2,0.6-0.4,0.8-0.7
			c0.2-0.3,0.3-0.6,0.4-0.9c0.1-0.3,0.2-0.5,0.2-0.7h0.1v2.8h-7.8V9.2z"/>
		<path class="st0" d="M46.7,6.6h0.1c0.1,0.5,0.2,0.8,0.4,1.2c0.1,0.3,0.3,0.6,0.5,0.8c0.2,0.2,0.4,0.4,0.6,0.5
			c0.2,0.1,0.4,0.2,0.6,0.2c0.2,0.1,0.4,0.1,0.6,0.1c0.2,0,0.4,0,0.5,0c0.5,0,0.8-0.1,1.1-0.2c0.3-0.1,0.5-0.3,0.7-0.5
			C51.9,8.4,52,8.2,52.1,8c0.1-0.2,0.1-0.5,0.1-0.7c0-0.3-0.1-0.6-0.2-0.8c-0.1-0.2-0.3-0.4-0.4-0.5c-0.2-0.1-0.4-0.3-0.6-0.4
			c-0.2-0.1-0.4-0.2-0.6-0.2L49,4.9c-0.7-0.2-1.2-0.5-1.6-0.8c-0.4-0.3-0.5-0.8-0.5-1.4c0-0.4,0.1-0.7,0.2-1.1
			c0.1-0.3,0.3-0.6,0.6-0.9c0.2-0.2,0.5-0.4,0.9-0.6C48.9,0.1,49.3,0,49.7,0c0.3,0,0.5,0,0.7,0.1s0.4,0.1,0.5,0.2
			c0.1,0.1,0.3,0.1,0.4,0.2c0.1,0.1,0.2,0.1,0.4,0.1c0.1,0,0.2,0,0.2,0c0,0,0.1-0.1,0.2-0.2h0.2v2.3h-0.2c-0.1-0.3-0.1-0.6-0.3-0.9
			c-0.1-0.3-0.3-0.5-0.5-0.8c-0.2-0.2-0.4-0.4-0.7-0.5c-0.3-0.1-0.6-0.2-1-0.2c-0.2,0-0.4,0-0.7,0.1c-0.2,0.1-0.5,0.2-0.7,0.3
			c-0.2,0.1-0.4,0.3-0.5,0.5s-0.2,0.5-0.2,0.8c0,0.3,0.1,0.5,0.2,0.7S48,3,48.2,3.1c0.2,0.1,0.4,0.2,0.6,0.3
			c0.2,0.1,0.4,0.2,0.7,0.2L51,4.2c0.2,0.1,0.4,0.1,0.6,0.2c0.2,0.1,0.5,0.2,0.7,0.4c0.2,0.2,0.4,0.4,0.6,0.7
			c0.2,0.3,0.2,0.6,0.2,1.1c0,0.4-0.1,0.8-0.2,1.1c-0.1,0.4-0.4,0.7-0.6,1c-0.3,0.3-0.6,0.5-1,0.7c-0.4,0.2-0.9,0.2-1.4,0.2
			c-0.2,0-0.3,0-0.5,0c-0.1,0-0.3,0-0.4,0c-0.1,0-0.2,0-0.4-0.1c-0.1,0-0.3-0.1-0.4-0.1c-0.2-0.1-0.4-0.1-0.6-0.2
			c-0.2-0.1-0.4-0.1-0.5-0.1c-0.1,0-0.2,0-0.3,0.1c0,0.1-0.1,0.1-0.1,0.2h-0.2V6.6z"/>
		<path class="st0" d="M54.7,9.2h1.4V0.4h-1.4V0.2h4.1v0.2h-1.4v8.8h1.4v0.2h-4.1V9.2z"/>
		<path class="st0" d="M69.1,6.1h-1V9H68c-0.1-0.1-0.2-0.2-0.2-0.2c-0.1,0-0.2-0.1-0.3-0.1c-0.2,0-0.3,0-0.5,0.1
			c-0.2,0.1-0.3,0.2-0.6,0.3c-0.2,0.1-0.5,0.2-0.7,0.3c-0.3,0.1-0.6,0.1-1,0.1c-0.6,0-1.1-0.1-1.6-0.3c-0.5-0.2-0.9-0.5-1.4-1
			c-0.4-0.4-0.8-0.9-1.1-1.5c-0.3-0.6-0.4-1.2-0.4-2c0-0.5,0.1-0.9,0.2-1.3c0.1-0.4,0.2-0.7,0.4-1c0.2-0.3,0.3-0.5,0.5-0.7
			c0.2-0.2,0.3-0.3,0.4-0.5c0.4-0.4,0.8-0.7,1.3-0.9C63.5,0.1,64.1,0,64.7,0c0.3,0,0.6,0,0.8,0.1c0.2,0.1,0.4,0.1,0.5,0.2
			c0.2,0.1,0.3,0.1,0.4,0.2c0.1,0.1,0.3,0.1,0.4,0.1c0.2,0,0.3,0,0.4-0.1c0.1,0,0.1-0.1,0.2-0.2h0.2v2.6h-0.1c0-0.2-0.1-0.5-0.2-0.8
			c-0.1-0.3-0.3-0.6-0.5-0.9c-0.2-0.3-0.5-0.5-0.8-0.7c-0.3-0.2-0.8-0.3-1.3-0.3c-0.6,0-1.2,0.1-1.5,0.4c-0.4,0.3-0.7,0.6-0.9,1.1
			c-0.2,0.4-0.4,0.9-0.4,1.5c-0.1,0.6-0.1,1.1-0.1,1.7c0,0.4,0,0.8,0.1,1.2c0,0.4,0.1,0.7,0.2,1.1C62,7.4,62.1,7.7,62.3,8
			c0.1,0.3,0.3,0.5,0.6,0.7c0.3,0.2,0.5,0.4,0.8,0.5c0.3,0.1,0.6,0.1,1.1,0.1c0.3,0,0.5,0,0.8-0.1C65.7,9.1,66,9,66.2,8.8
			c0.2-0.2,0.4-0.4,0.5-0.7c0.1-0.3,0.2-0.6,0.2-1V6.1h-1.7V5.9h3.9V6.1z"/>
		<path class="st0" d="M69.7,9.2h1.4V0.4h-1.4V0.2h2.7l4.3,7h0V0.4h-1.4V0.2h3v0.2H77v9.1h-0.3l-5.4-8.6h0v8.2h1.4v0.2h-3V9.2z"/>
	</g>
	<g>
		<path class="st0" d="M26.7,17.2c0-0.7,0.1-1.3,0.4-1.9c0.3-0.6,0.6-1.1,1-1.5s0.9-0.8,1.4-1c0.5-0.2,1.1-0.4,1.6-0.4
			c0.6,0,1.1,0.1,1.6,0.4c0.5,0.2,1,0.6,1.4,1c0.4,0.4,0.8,0.9,1,1.5c0.3,0.6,0.4,1.2,0.4,1.9c0,0.6-0.1,1.2-0.3,1.8
			c-0.2,0.6-0.5,1.1-0.9,1.5c-0.4,0.4-0.9,0.8-1.4,1.1c-0.5,0.3-1.1,0.4-1.7,0.4c-0.6,0-1.2-0.1-1.8-0.4c-0.5-0.3-1-0.6-1.4-1.1
			c-0.4-0.4-0.7-0.9-0.9-1.5C26.8,18.4,26.7,17.9,26.7,17.2z M28.2,17.2c0,0.8,0.1,1.4,0.2,2c0.1,0.6,0.3,1,0.5,1.4
			c0.2,0.4,0.5,0.7,0.9,0.9c0.4,0.2,0.8,0.3,1.4,0.3c0.5,0,1-0.1,1.4-0.3c0.4-0.2,0.7-0.5,0.9-0.9c0.2-0.4,0.4-0.9,0.5-1.4
			c0.1-0.6,0.2-1.2,0.2-2c0-0.6,0-1.2-0.1-1.7c-0.1-0.6-0.2-1-0.4-1.5c-0.2-0.4-0.5-0.8-0.9-1c-0.4-0.3-0.9-0.4-1.5-0.4
			c-0.6,0-1.1,0.1-1.5,0.4c-0.4,0.3-0.7,0.6-0.9,1c-0.2,0.4-0.4,0.9-0.4,1.5C28.2,16.1,28.2,16.6,28.2,17.2z"/>
		<path class="st0" d="M36.8,21.6h1.4v-8.8h-1.4v-0.2h7.3v2.2H44c-0.1-0.3-0.2-0.6-0.4-0.9c-0.1-0.3-0.3-0.5-0.5-0.6
			c-0.2-0.2-0.4-0.3-0.6-0.4c-0.2-0.1-0.5-0.1-0.9-0.1h-2.1V17h0.8c0.3,0,0.5,0,0.7-0.1c0.2-0.1,0.4-0.1,0.5-0.3
			c0.1-0.1,0.3-0.3,0.4-0.6c0.1-0.2,0.2-0.6,0.3-0.9h0.1v4h-0.1c-0.1-0.2-0.1-0.5-0.2-0.7c-0.1-0.2-0.2-0.4-0.3-0.6
			c-0.1-0.2-0.3-0.3-0.5-0.4c-0.2-0.1-0.4-0.2-0.7-0.2h-1v4.4H41v0.2h-4.1V21.6z"/>
		<path class="st0" d="M53.3,21.6h1.4v-8.8H54c-0.2,0-0.4,0-0.6,0c-0.2,0-0.4,0.1-0.6,0.2c-0.2,0.1-0.4,0.4-0.6,0.6
			c-0.2,0.3-0.4,0.7-0.5,1.2h-0.1v-2.3h7.8V15h-0.1c-0.1-0.5-0.3-0.9-0.5-1.2s-0.4-0.5-0.6-0.6c-0.2-0.1-0.4-0.2-0.6-0.2
			c-0.2,0-0.4,0-0.6,0H56v8.8h1.4v0.2h-4.1V21.6z"/>
		<path class="st0" d="M60.1,21.6h1.4v-8.8h-1.4v-0.2h4.1v0.2h-1.4v8.8h1.4v0.2h-4.1V21.6z"/>
		<path class="st0" d="M65,21.6h1.4v-8.8H65v-0.2h2.9l2.4,6.9h0l2.4-6.9h2.8v0.2h-1.4v8.8h1.4v0.2h-4.1v-0.2h1.4v-8.7h0l-3.1,8.9
			l-3-8.8h0v8.6H68v0.2h-3V21.6z"/>
		<path class="st0" d="M76.2,21.6h1.4v-8.8h-1.4v-0.2h7.3v2.2h-0.1c-0.1-0.3-0.2-0.6-0.4-0.9c-0.1-0.3-0.3-0.5-0.5-0.6
			c-0.2-0.2-0.4-0.3-0.6-0.4c-0.2-0.1-0.5-0.1-0.9-0.1h-2.1v4h0.8c0.3,0,0.5,0,0.7-0.1c0.2-0.1,0.4-0.1,0.5-0.3
			c0.1-0.1,0.3-0.3,0.4-0.6c0.1-0.2,0.2-0.6,0.3-0.9h0.1v4h-0.1c-0.1-0.2-0.1-0.5-0.2-0.7s-0.2-0.4-0.3-0.6
			c-0.1-0.2-0.3-0.3-0.5-0.4c-0.2-0.1-0.4-0.2-0.7-0.2h-1v4.6h2.4c0.5,0,0.9-0.1,1.2-0.3c0.3-0.2,0.6-0.4,0.8-0.7
			c0.2-0.3,0.3-0.6,0.4-0.9c0.1-0.3,0.2-0.5,0.2-0.7H84v2.8h-7.8V21.6z"/>
	</g>
</g>
</svg>
