<?xml version="1.0" encoding="utf-8"?>
<!-- Generator: Adobe Illustrator 27.0.0, SVG Export Plug-In . SVG Version: 6.00 Build 0)  -->
<svg version="1.1" id="Layer_1" xmlns="http://www.w3.org/2000/svg" xmlns:xlink="http://www.w3.org/1999/xlink" x="0px" y="0px"
	 viewBox="0 0 1365 454" style="enable-background:new 0 0 1365 454;" xml:space="preserve">
<style type="text/css">
	.st0{opacity:0.1;fill:none;stroke:#FFFFFF;stroke-width:0.5;enable-background:new    ;}
</style>
<g transform="matrix(1 0 0 1 540 540)">
	<g vector-effect="non-scaling-stroke">
		<g transform="matrix(1 0 0 1 -665 0)">
			<rect x="125.25" y="-539.75" vector-effect="non-scaling-stroke" class="st0" width="34.5" height="453.5"/>
		</g>
		<g transform="matrix(1 0 0 1 -630 0)">
			<rect x="125.25" y="-539.75" vector-effect="non-scaling-stroke" class="st0" width="34.5" height="453.5"/>
		</g>
		<g transform="matrix(1 0 0 1 -595 0)">
			<rect x="125.25" y="-539.75" vector-effect="non-scaling-stroke" class="st0" width="34.5" height="453.5"/>
		</g>
		<g transform="matrix(1 0 0 1 -560 0)">
			<rect x="125.25" y="-539.75" vector-effect="non-scaling-stroke" class="st0" width="34.5" height="453.5"/>
		</g>
		<g transform="matrix(1 0 0 1 -525 0)">
			<rect x="125.25" y="-539.75" vector-effect="non-scaling-stroke" class="st0" width="34.5" height="453.5"/>
		</g>
		<g transform="matrix(1 0 0 1 -490 0)">
			<rect x="125.25" y="-539.75" vector-effect="non-scaling-stroke" class="st0" width="34.5" height="453.5"/>
		</g>
		<g transform="matrix(1 0 0 1 -455 0)">
			<rect x="125.25" y="-539.75" vector-effect="non-scaling-stroke" class="st0" width="34.5" height="453.5"/>
		</g>
		<g transform="matrix(1 0 0 1 -420 0)">
			<rect x="125.25" y="-539.75" vector-effect="non-scaling-stroke" class="st0" width="34.5" height="453.5"/>
		</g>
		<g transform="matrix(1 0 0 1 -385 0)">
			<rect x="125.25" y="-539.75" vector-effect="non-scaling-stroke" class="st0" width="34.5" height="453.5"/>
		</g>
		<g transform="matrix(1 0 0 1 -350 0)">
			<rect x="125.25" y="-539.75" vector-effect="non-scaling-stroke" class="st0" width="34.5" height="453.5"/>
		</g>
		<g transform="matrix(1 0 0 1 -315 0)">
			<rect x="125.25" y="-539.75" vector-effect="non-scaling-stroke" class="st0" width="34.5" height="453.5"/>
		</g>
		<g transform="matrix(1 0 0 1 -280 0)">
			<rect x="125.25" y="-539.75" vector-effect="non-scaling-stroke" class="st0" width="34.5" height="453.5"/>
		</g>
		<g transform="matrix(1 0 0 1 -245 0)">
			<rect x="125.25" y="-539.75" vector-effect="non-scaling-stroke" class="st0" width="34.5" height="453.5"/>
		</g>
		<g transform="matrix(1 0 0 1 -210 0)">
			<rect x="125.25" y="-539.75" vector-effect="non-scaling-stroke" class="st0" width="34.5" height="453.5"/>
		</g>
		<g transform="matrix(1 0 0 1 -175 0)">
			<rect x="125.25" y="-539.75" vector-effect="non-scaling-stroke" class="st0" width="34.5" height="453.5"/>
		</g>
		<g transform="matrix(1 0 0 1 -140 0)">
			<rect x="125.25" y="-539.75" vector-effect="non-scaling-stroke" class="st0" width="34.5" height="453.5"/>
		</g>
		<g transform="matrix(1 0 0 1 -105 0)">
			<rect x="125.25" y="-539.75" vector-effect="non-scaling-stroke" class="st0" width="34.5" height="453.5"/>
		</g>
		<g transform="matrix(1 0 0 1 -70 0)">
			<rect x="125.25" y="-539.75" vector-effect="non-scaling-stroke" class="st0" width="34.5" height="453.5"/>
		</g>
		<g transform="matrix(1 0 0 1 -35 0)">
			<rect x="125.25" y="-539.75" vector-effect="non-scaling-stroke" class="st0" width="34.5" height="453.5"/>
		</g>
		<g transform="matrix(1 0 0 1 0 0)">
			<rect x="125.25" y="-539.75" vector-effect="non-scaling-stroke" class="st0" width="34.5" height="453.5"/>
		</g>
		<g transform="matrix(1 0 0 1 35 0)">
			<rect x="125.25" y="-539.75" vector-effect="non-scaling-stroke" class="st0" width="34.5" height="453.5"/>
		</g>
		<g transform="matrix(1 0 0 1 70 0)">
			<rect x="125.25" y="-539.75" vector-effect="non-scaling-stroke" class="st0" width="34.5" height="453.5"/>
		</g>
		<g transform="matrix(1 0 0 1 105 0)">
			<rect x="125.25" y="-539.75" vector-effect="non-scaling-stroke" class="st0" width="34.5" height="453.5"/>
		</g>
		<g transform="matrix(1 0 0 1 140 0)">
			<rect x="125.25" y="-539.75" vector-effect="non-scaling-stroke" class="st0" width="34.5" height="453.5"/>
		</g>
		<g transform="matrix(1 0 0 1 175 0)">
			<rect x="125.25" y="-539.75" vector-effect="non-scaling-stroke" class="st0" width="34.5" height="453.5"/>
		</g>
		<g transform="matrix(1 0 0 1 210 0)">
			<rect x="125.25" y="-539.75" vector-effect="non-scaling-stroke" class="st0" width="34.5" height="453.5"/>
		</g>
		<g transform="matrix(1 0 0 1 245 0)">
			<rect x="125.25" y="-539.75" vector-effect="non-scaling-stroke" class="st0" width="34.5" height="453.5"/>
		</g>
		<g transform="matrix(1 0 0 1 280 0)">
			<rect x="125.25" y="-539.75" vector-effect="non-scaling-stroke" class="st0" width="34.5" height="453.5"/>
		</g>
		<g transform="matrix(1 0 0 1 315 0)">
			<rect x="125.25" y="-539.75" vector-effect="non-scaling-stroke" class="st0" width="34.5" height="453.5"/>
		</g>
		<g transform="matrix(1 0 0 1 350 0)">
			<rect x="125.25" y="-539.75" vector-effect="non-scaling-stroke" class="st0" width="34.5" height="453.5"/>
		</g>
		<g transform="matrix(1 0 0 1 385 0)">
			<rect x="125.25" y="-539.75" vector-effect="non-scaling-stroke" class="st0" width="34.5" height="453.5"/>
		</g>
		<g transform="matrix(1 0 0 1 420 0)">
			<rect x="125.25" y="-539.75" vector-effect="non-scaling-stroke" class="st0" width="34.5" height="453.5"/>
		</g>
		<g transform="matrix(1 0 0 1 455 0)">
			<rect x="125.25" y="-539.75" vector-effect="non-scaling-stroke" class="st0" width="34.5" height="453.5"/>
		</g>
		<g transform="matrix(1 0 0 1 490 0)">
			<rect x="125.25" y="-539.75" vector-effect="non-scaling-stroke" class="st0" width="34.5" height="453.5"/>
		</g>
		<g transform="matrix(1 0 0 1 525 0)">
			<rect x="125.25" y="-539.75" vector-effect="non-scaling-stroke" class="st0" width="34.5" height="453.5"/>
		</g>
		<g transform="matrix(1 0 0 1 560 0)">
			<rect x="125.25" y="-539.75" vector-effect="non-scaling-stroke" class="st0" width="34.5" height="453.5"/>
		</g>
		<g transform="matrix(1 0 0 1 595 0)">
			<rect x="125.25" y="-539.75" vector-effect="non-scaling-stroke" class="st0" width="34.5" height="453.5"/>
		</g>
		<g transform="matrix(1 0 0 1 630 0)">
			<rect x="125.25" y="-539.75" vector-effect="non-scaling-stroke" class="st0" width="34.5" height="453.5"/>
		</g>
		<g transform="matrix(1 0 0 1 665 0)">
			<rect x="125.25" y="-539.75" vector-effect="non-scaling-stroke" class="st0" width="34.5" height="453.5"/>
		</g>
	</g>
</g>
</svg>
