<svg width="95" height="25" viewBox="0 0 95 25" fill="none" xmlns="http://www.w3.org/2000/svg">
<g clip-path="url(#clip0_2246_1109)">
<path d="M30.8128 9.90892C30.8128 8.21229 29.163 6.41035 26.308 6.41035C23.1019 6.41035 19.58 8.76223 19.0417 13.4543C18.4918 18.1932 21.4404 20.2993 24.4124 20.2993C27.3845 20.2993 28.9407 19.141 30.532 17.5964C29.163 15.8764 27.3962 16.6721 27.0569 16.8476C26.6824 17.0348 26.2027 17.2922 25.2198 17.2922C24.0731 17.2922 22.903 16.7774 22.903 14.6361C30.2512 13.9106 30.8128 11.6056 30.8128 9.90892ZM27.1739 10.1897C27.1271 10.7163 26.9164 11.6173 23.1955 12.1204C23.9795 9.33558 25.4772 9.12496 26.1676 9.12496C26.8111 9.12496 27.2207 9.6281 27.1739 10.1897ZM14.7241 10.6461C14.7241 10.6461 13.1445 15.6073 13.0157 16.0168C12.9689 15.5956 11.8105 6.69117 11.8105 6.69117C9.11934 6.69117 7.68012 8.61012 6.91956 10.6344C6.91956 10.6344 5.00061 15.6073 4.8368 16.0285C4.8251 15.6424 4.54427 10.6929 4.54427 10.6929C4.38046 8.21229 2.11048 6.70287 0.273438 6.70287L2.49661 20.194C5.31654 20.1823 6.83766 18.2751 7.63332 16.2508C7.63332 16.2508 9.32995 11.863 9.40016 11.6641C9.41186 11.8513 10.6171 20.194 10.6171 20.194C13.4487 20.194 14.9698 18.4038 15.7889 16.4497L19.7555 6.70287C16.959 6.70287 15.4846 8.61012 14.7241 10.6461ZM41.2033 6.38695C39.4598 6.38695 38.1259 7.33472 37.0026 8.72713V8.71543L38.0089 0.606689C35.6921 0.606689 33.8083 2.61925 33.4456 5.61469L31.6904 20.0887C33.0243 20.0887 34.4401 19.7026 35.2007 18.7197C35.8793 19.5973 36.8973 20.2993 38.4067 20.2993C42.3149 20.2993 44.9944 15.7594 44.9944 11.5002C44.971 7.61554 43.0871 6.38695 41.2033 6.38695ZM40.8405 13.349C40.431 15.7243 39.1088 17.339 37.8334 17.339C36.5463 17.339 35.9964 16.7657 35.9964 16.7657C36.2421 14.6829 36.3942 13.4075 36.8622 12.3076C37.3303 11.2077 38.4419 9.45259 39.6002 9.45259C40.7352 9.45259 41.2501 10.962 40.8405 13.349ZM54.7529 6.70287H52.0266L52.0383 6.56246C52.2255 4.78392 52.6468 3.84785 54.0392 3.69573C54.987 3.60213 55.4082 3.11069 55.5135 2.57244C55.5954 2.15121 55.8528 0.688596 55.8528 0.688596C50.3768 0.653493 48.6568 3.01708 48.2121 6.62097L48.2004 6.70287H48.1419C47.2526 6.70287 46.2698 7.70915 46.106 8.98455L46.0475 9.45259H47.8728L46.34 22.113L45.8719 24.383C45.9304 24.383 46.0006 24.3947 46.0592 24.3947C48.6217 24.3011 50.2598 22.2768 50.6225 19.3399L51.816 9.45259H52.6702C53.5126 9.45259 54.4955 8.61012 54.671 7.20601L54.7529 6.70287ZM68.9345 6.46885C65.7869 6.46885 62.8149 8.78564 61.9022 12.4246C60.9895 16.0636 62.3702 20.3696 67.0038 20.3696C71.6257 20.3696 74.2935 15.8881 74.2935 12.1555C74.2935 8.44631 71.7778 6.46885 68.9345 6.46885ZM70.2099 13.232C70.046 14.8818 69.3206 17.3858 67.3314 17.3858C65.3306 17.3858 65.6114 14.4606 65.8103 13.0682C66.0209 11.5822 66.8517 9.46429 68.6419 9.46429C70.245 9.46429 70.3971 11.3715 70.2099 13.232ZM89.844 10.6461C89.844 10.6461 88.2644 15.6073 88.1357 16.0168C88.0889 15.5956 86.9305 6.69117 86.9305 6.69117C84.2393 6.69117 82.8 8.61012 82.0395 10.6344C82.0395 10.6344 80.1205 15.6073 79.9567 16.0285C79.945 15.6424 79.6642 10.6929 79.6642 10.6929C79.5004 8.21229 77.2304 6.70287 75.3934 6.70287L77.6048 20.194C80.4248 20.1823 81.9459 18.2751 82.7415 16.2508C82.7415 16.2508 84.4382 11.863 84.4967 11.6641C84.5201 11.8513 85.7136 20.194 85.7136 20.194C88.5452 20.194 90.0663 18.4038 90.8854 16.4497L94.852 6.70287C92.0672 6.70287 90.5929 8.61012 89.844 10.6461ZM57.3271 0.688596L55.0338 19.1878L54.5657 21.4694C54.6242 21.4694 54.6944 21.4811 54.7529 21.4811C57.2218 21.446 58.977 19.2814 59.3046 16.555L60.6268 5.94231C61.0246 2.70115 59.094 0.688596 57.3271 0.688596Z" fill="white"/>
</g>
<defs>
<clipPath id="clip0_2246_1109">
<rect width="94.5786" height="23.788" fill="white" transform="translate(0.273438 0.605957)"/>
</clipPath>
</defs>
</svg>
