<?xml version="1.0" encoding="utf-8"?>
<!-- Generator: Adobe Illustrator 27.0.0, SVG Export Plug-In . SVG Version: 6.00 Build 0)  -->
<svg version="1.1" id="Layer_1" xmlns="http://www.w3.org/2000/svg" xmlns:xlink="http://www.w3.org/1999/xlink" x="0px" y="0px"
	 viewBox="0 0 116 35" style="enable-background:new 0 0 116 35;" xml:space="preserve">
<style type="text/css">
	.st0{fill:#FFFFFF;}
</style>
<g>
	<path class="st0" d="M0.92,5.06H9.9v0.59H7.62l5.08,16.78c0.81-2.28,1.4-4.27,1.99-5.89c0.52-1.62,0.96-3.02,1.32-4.12
		c0.37-1.1,0.66-1.99,0.88-2.65c0.22-0.66,0.37-1.18,0.44-1.62c0.07-0.37,0.15-0.66,0.15-0.88c0-0.15,0-0.37,0-0.44
		c0-0.29-0.07-0.59-0.29-0.74c-0.15-0.15-0.44-0.29-0.66-0.37c-0.29-0.07-0.59-0.07-0.88-0.07c-0.29,0-0.59,0-0.81,0h-0.07V5.06h6.7
		v0.59h-0.29c-0.59,0-1.03,0-1.32,0.07c-0.29,0-0.59,0.15-0.74,0.29c-0.22,0.15-0.37,0.44-0.52,0.88c-0.15,0.37-0.29,0.96-0.52,1.62
		l-7.21,21.86L2.91,5.72H0.92V5.06z"/>
	<path class="st0" d="M23.81,5.06h9.05v0.59h-2.65v23.11h2.65v0.59h-9.05v-0.59h2.28V5.72h-2.28V5.06z"/>
	<path class="st0" d="M37.94,20.74h0.59c0.07,1.25,0.29,2.36,0.59,3.39c0.29,1.03,0.74,1.91,1.25,2.58
		c0.52,0.74,1.25,1.32,2.06,1.69s1.84,0.59,2.94,0.59c0.74,0,1.32-0.07,1.91-0.29c0.59-0.22,1.03-0.52,1.4-0.96
		c0.37-0.37,0.66-0.88,0.74-1.47c0.15-0.59,0.15-1.18-0.07-1.84c-0.22-0.74-0.66-1.25-1.4-1.69c-0.74-0.44-1.62-0.88-2.58-1.32
		c-0.88-0.37-1.69-0.81-2.58-1.25s-1.69-1.03-2.43-1.77c-0.74-0.66-1.4-1.55-1.84-2.5c-0.44-0.96-0.74-2.13-0.74-3.61
		c0-0.22,0-0.44,0-0.74c0-0.29,0.07-0.52,0.07-0.81c0.29-1.99,0.96-3.46,1.99-4.42c1.1-0.96,2.5-1.47,4.34-1.62
		c1.03,0,1.84,0.15,2.58,0.44c0.66,0.37,1.25,0.66,1.69,0.96c0.37,0.52,0.74,0.74,1.03,0.74c0.37,0,0.52-0.15,0.59-0.52
		c0.07-0.29,0.07-0.66,0.07-0.96h0.59v7.36h-0.59c-0.15-1.1-0.37-2.06-0.66-2.94c-0.29-0.88-0.66-1.62-1.18-2.28
		c-0.44-0.59-1.03-1.1-1.77-1.47c-0.66-0.37-1.47-0.52-2.43-0.52c-0.66,0-1.25,0.07-1.84,0.22c-0.59,0.15-1.1,0.44-1.55,0.81
		C40.3,6.9,40,7.34,39.78,7.93s-0.29,1.25-0.29,1.99c0.07,0.66,0.22,1.25,0.52,1.69c0.29,0.44,0.66,0.88,1.1,1.25
		c0.44,0.37,0.96,0.66,1.55,0.96c0.59,0.29,1.18,0.52,1.84,0.74c0.81,0.29,1.62,0.66,2.43,1.1c0.81,0.37,1.55,0.88,2.28,1.47
		c0.66,0.59,1.25,1.32,1.77,2.13c0.44,0.88,0.74,1.91,0.88,3.09c0.07,1.1-0.07,2.13-0.44,3.02c-0.29,0.88-0.81,1.69-1.4,2.36
		c-0.59,0.66-1.32,1.18-2.13,1.55s-1.77,0.52-2.72,0.52c-0.96,0-1.77-0.15-2.5-0.44c-0.74-0.29-1.4-0.59-1.91-0.81
		c-0.29-0.15-0.59-0.29-0.81-0.44c-0.22-0.07-0.52-0.15-0.74-0.15c-0.29,0-0.44,0.22-0.59,0.59c-0.07,0.37-0.15,0.74-0.22,1.03
		h-0.52v-8.83H37.94z"/>
	<path class="st0" d="M56.56,5.06h9.05v0.59h-2.65v23.11h2.65v0.59h-9.05v-0.59h2.28V5.72h-2.28V5.06z"/>
	<path class="st0" d="M79.82,4.62c1.4,0,2.65,0.37,3.83,1.1s2.13,1.69,3.02,2.94s1.47,2.58,1.99,4.12c0.44,1.55,0.66,3.02,0.66,4.56
		c0,1.55-0.22,3.09-0.66,4.56s-1.1,2.87-1.99,4.05c-0.81,1.18-1.84,2.13-3.02,2.87c-1.18,0.74-2.43,1.1-3.83,1.1s-2.72-0.37-3.9-1.1
		c-1.18-0.74-2.13-1.69-3.02-2.94c-0.81-1.25-1.47-2.58-1.91-4.12c-0.44-1.55-0.66-3.09-0.66-4.64c0-1.47,0.22-3.02,0.74-4.49
		c0.52-1.47,1.18-2.8,2.06-3.97c0.88-1.18,1.84-2.13,3.02-2.87C77.32,4.99,78.5,4.62,79.82,4.62z M79.9,5.21
		c-0.81,0-1.47,0.22-1.99,0.59c-0.59,0.37-1.03,0.96-1.4,1.62s-0.74,1.4-0.96,2.28c-0.22,0.81-0.44,1.69-0.52,2.58
		c-0.15,0.88-0.22,1.77-0.29,2.65c-0.07,0.88-0.07,1.62-0.07,2.28c0,0.74,0,1.47,0.07,2.36c0,0.88,0.15,1.77,0.22,2.65
		c0.15,0.88,0.29,1.77,0.52,2.58c0.22,0.88,0.52,1.62,0.88,2.28s0.81,1.18,1.4,1.62c0.59,0.37,1.25,0.59,2.06,0.59
		s1.47-0.22,2.06-0.59c0.59-0.44,1.03-0.96,1.4-1.62c0.37-0.66,0.66-1.4,0.81-2.28c0.22-0.88,0.37-1.77,0.44-2.65
		s0.15-1.77,0.15-2.65s0-1.62,0-2.28c0-0.59,0-1.32-0.07-2.13c0-0.81-0.15-1.69-0.22-2.58c-0.15-0.88-0.29-1.77-0.52-2.65
		c-0.22-0.88-0.52-1.62-0.88-2.36c-0.37-0.66-0.81-1.25-1.32-1.69C81.3,5.43,80.63,5.21,79.9,5.21z"/>
	<path class="st0" d="M93.52,28.84c0.74,0,1.32,0,1.69-0.07c0.44,0,0.74-0.15,0.88-0.37c0.15-0.22,0.29-0.52,0.29-0.96
		c0-0.44,0.07-1.03,0.07-1.84V6.16l-0.44-0.44h-2.5V5.06h7.36l10.6,17.37V8.74c0-0.81,0-1.4-0.07-1.77c0-0.44-0.15-0.74-0.29-0.88
		c-0.15-0.15-0.37-0.29-0.66-0.29c-0.29,0-0.66,0-1.18,0h-0.81V5.06h6.62v0.59h-0.81c-0.52,0-0.88,0-1.18,0
		c-0.29,0-0.52,0.15-0.66,0.29s-0.22,0.52-0.29,0.88c0,0.44-0.07,1.03-0.07,1.77v21.05h-1.84L97.2,7.93v17.08c0,0.96,0,1.69,0,2.21
		s0.15,0.88,0.29,1.1c0.15,0.22,0.52,0.37,0.88,0.37c0.44,0,1.03,0.07,1.77,0.07v0.59h-6.7v-0.52H93.52z"/>
</g>
</svg>
