<?xml version="1.0" encoding="utf-8"?>
<!-- Generator: Adobe Illustrator 27.0.0, SVG Export Plug-In . SVG Version: 6.00 Build 0)  -->
<svg version="1.1" id="Layer_1" xmlns="http://www.w3.org/2000/svg" xmlns:xlink="http://www.w3.org/1999/xlink" x="0px" y="0px"
	 viewBox="0 0 920 137" style="enable-background:new 0 0 920 137;" xml:space="preserve">
<style type="text/css">
	.st0{fill:none;stroke:#3E3E46;}
</style>
<g transform="matrix(1 0 0 1 540 540)">
	<g vector-effect="non-scaling-stroke">
		<g transform="matrix(1 0 0 1 -443.67 -0.12)">
			<rect x="-96.33" y="-539.88" vector-effect="non-scaling-stroke" class="st0" width="23.68" height="101.55"/>
		</g>
		<g transform="matrix(1 0 0 1 -378.36 -0.12)">
			<rect x="-112.78" y="-539.88" vector-effect="non-scaling-stroke" class="st0" width="23.68" height="101.55"/>
		</g>
		<g transform="matrix(1 0 0 1 -345.71 -0.12)">
			<rect x="-122.07" y="-539.88" vector-effect="non-scaling-stroke" class="st0" width="25.8" height="101.55"/>
		</g>
		<g transform="matrix(1 0 0 1 -312.35 -0.12)">
			<rect x="-129.94" y="-539.88" vector-effect="non-scaling-stroke" class="st0" width="24.74" height="101.55"/>
		</g>
		<g transform="matrix(1 0 0 1 -279.69 -0.12)">
			<rect x="-138.17" y="-539.88" vector-effect="non-scaling-stroke" class="st0" width="24.74" height="101.55"/>
		</g>
		<g transform="matrix(1 0 0 1 -246.5 -0.12)">
			<rect x="-146.88" y="-539.88" vector-effect="non-scaling-stroke" class="st0" width="25.43" height="101.55"/>
		</g>
		<g transform="matrix(1 0 0 1 402.5 -0.12)">
			<rect x="-340.31" y="-539.88" vector-effect="non-scaling-stroke" class="st0" width="85.28" height="101.55"/>
		</g>
		<g transform="matrix(1 0 0 1 -344.5 0)">
			<rect x="-195.5" y="-540" vector-effect="non-scaling-stroke" class="st0" width="172.05" height="101.74"/>
		</g>
		<g transform="matrix(1 0 0 1 -114.5 0)">
			<rect x="-253.45" y="-540" vector-effect="non-scaling-stroke" class="st0" width="172.05" height="101.74"/>
		</g>
		<g transform="matrix(1 0 0 1 115.5 0)">
			<rect x="-311.39" y="-540" vector-effect="non-scaling-stroke" class="st0" width="172.05" height="101.74"/>
		</g>
		<g transform="matrix(1 0 0 1 345 0)">
			<rect x="-368.84" y="-540" vector-effect="non-scaling-stroke" class="st0" width="171.31" height="101.74"/>
		</g>
	</g>
</g>
</svg>
