<svg width="145" height="30" viewBox="0 0 145 30" fill="none" xmlns="http://www.w3.org/2000/svg">
<path d="M5.55224 1.79105L0 7.34328L1.70149 9.04478L1.8806 8.95522C2.0597 8.86567 2.32836 8.86567 2.50746 8.77612L2.68657 8.68657C2.86567 8.59701 3.04478 8.59702 3.31343 8.50746L3.85075 8.41791L2.68657 7.34328L6.26866 3.76119H16.4776L18.3582 1.8806H5.55224V1.79105Z" fill="white"/>
<path d="M35.9104 1.79104H23.0149L24.8955 3.76119H35.1045L38.6866 7.34328L37.5224 8.50746L38.0597 8.59701C38.2388 8.68657 38.4179 8.68657 38.6866 8.77612L38.9552 8.86567C39.1343 8.95522 39.3134 8.95522 39.5821 9.04477L39.7612 9.13433L41.4627 7.34328L35.9104 1.79104Z" fill="white"/>
<path d="M30.2687 15.8507L20.6866 25.3433L11.194 15.8507L9.7612 17.194L20.6866 28.1194L31.6119 17.194L30.2687 15.8507Z" fill="white"/>
<path d="M38.1493 10.0299C37.8806 9.9403 37.7015 9.9403 37.4328 9.85075L37.2537 9.76119C37.0746 9.67164 36.8955 9.67164 36.7164 9.58209C33.6716 8.86567 30.6269 8.32836 27.4925 8.0597L21.2239 1.79104H20.4179L14.1493 8.0597C11.0149 8.32836 7.8806 8.86567 4.92537 9.58209C4.74627 9.67164 4.56716 9.67164 4.29851 9.76119L4.1194 9.85075C3.9403 9.9403 3.67164 9.9403 3.49254 10.0299L2.95522 10.209L4.56716 11.8209L4.83582 11.7313C5.01492 11.6418 5.28358 11.6418 5.46269 11.5522C5.73134 11.4627 5.91045 11.4627 6.1791 11.3731C8.0597 10.9254 10.0299 10.5672 12 10.2985L7.52239 14.7761L8.86567 16.1194L15.0448 9.9403C18.8955 9.58209 22.8358 9.58209 26.6866 9.9403L32.8657 16.1194L34.209 14.7761L29.7313 10.2985C31.7015 10.5672 33.6716 10.9254 35.5522 11.3731C35.8209 11.4627 36 11.4627 36.2687 11.5522C36.4478 11.6418 36.7164 11.6418 36.8955 11.7313L37.1642 11.8209L38.7761 10.209L38.1493 10.0299ZM24.4478 7.8806C23.194 7.79104 21.9403 7.79104 20.6866 7.79104C19.4328 7.79104 18.1791 7.79104 16.9254 7.8806L20.6866 4.1194L24.4478 7.8806Z" fill="white"/>
<path d="M70.8358 26.2388V28.7463C70.8358 29.1045 70.7463 29.3731 70.4776 29.6418C70.209 29.9105 69.9403 30 69.5821 30C69.2239 30 68.9552 29.9105 68.7761 29.6418C68.5075 29.4627 68.4179 29.194 68.4179 28.8358H68.6866C68.6866 29.1045 68.7761 29.2836 68.9552 29.4627C69.1343 29.6418 69.3134 29.7313 69.5821 29.7313C69.8507 29.7313 70.0298 29.6418 70.209 29.4627C70.3881 29.2836 70.4776 29.1045 70.4776 28.8358V26.3284H70.8358V26.2388Z" fill="white"/>
<path d="M77.3731 26.5075H75.403V27.6716H77.1045V27.9403H75.403V29.4627H77.3731V29.7313H75.1343V26.2388H77.3731V26.5075Z" fill="white"/>
<path d="M81.403 26.2388L82.4776 29.1045L83.2836 27.0448L82.9254 26.2388H83.194L84.3582 29.1045L85.5224 26.2388H85.791L84.3582 29.8209L83.4627 27.4925L82.4776 29.8209L81.0448 26.2388H81.403Z" fill="white"/>
<path d="M91.9701 26.5075H90V27.6716H91.791V27.9403H90V29.4627H91.9701V29.7313H89.7313V26.2388H91.9701V26.5075Z" fill="white"/>
<path d="M96.2686 26.2388V29.4627H98.3284V29.7313H96V26.2388H96.2686Z" fill="white"/>
<path d="M102.627 26.2388V29.4627H104.687V29.7313H102.358V26.2388H102.627Z" fill="white"/>
<path d="M110.955 26.5075H108.985V27.6716H110.776V27.9403H108.985V29.4627H110.955V29.7313H108.716V26.2388H110.955V26.5075Z" fill="white"/>
<path d="M114.985 29.7313V26.2388H116.328C116.776 26.2388 117.045 26.3284 117.313 26.597C117.493 26.7761 117.582 27.0448 117.582 27.3134C117.582 27.5821 117.493 27.8507 117.313 28.0299C117.134 28.2985 116.866 28.3881 116.507 28.3881L117.672 29.7313H117.313L116.149 28.3881H115.343V29.7313H114.985ZM115.254 28.1194H116.328C116.597 28.1194 116.866 28.0299 117.045 27.8507C117.224 27.6716 117.313 27.4925 117.313 27.3134C117.313 27.0448 117.224 26.8657 117.134 26.7761C116.955 26.597 116.687 26.5075 116.328 26.5075H115.254V28.1194Z" fill="white"/>
<path d="M121.701 26.2388L122.866 28.2985L124.119 26.2388H124.388L123.045 28.6567V29.7313H122.776V28.6567L121.343 26.2388H121.701Z" fill="white"/>
<path d="M65.3731 17.6418C65.194 17.6418 65.0149 17.6418 64.9254 17.5522C64.8358 17.4627 64.7463 17.3731 64.6567 17.2836C64.6567 17.194 58.3881 1.43284 58.3881 1.43284C58.2985 1.07463 58.1194 0.80597 57.8507 0.537313C57.5821 0.268657 57.1343 0.0895522 56.5075 0C56.4179 0 56.3284 0 56.3284 0C55.791 0 55.3433 0.0895523 54.806 0.358209C54.2687 0.626866 53.7313 0.895522 53.2836 1.34328V1.43284C53.5522 1.25373 53.7313 1.16418 54 1.16418C54.3582 1.16418 54.6269 1.43284 54.6269 1.79104C54.6269 1.8806 54.6269 1.97015 54.6269 1.97015L48 18.806H48.7164L51.3134 12.0896H58.6567L60.806 17.4627C60.8955 17.8209 61.0746 18.0896 61.4328 18.3582C61.7015 18.6269 62.1492 18.806 62.6866 18.8955C62.7761 18.8955 62.8657 18.8955 62.8657 18.8955C63.403 18.8955 63.8507 18.806 64.3881 18.5373C64.9254 18.2687 65.4627 18 65.9104 17.5522V17.4627C65.8209 17.5522 65.6418 17.6418 65.3731 17.6418ZM51.7612 11.2836L55.1642 2.59702C55.5224 3.49254 55.9701 4.74627 56.597 6.35821C57.2239 7.97015 57.8507 9.58209 58.4776 11.2836H51.7612Z" fill="white"/>
<path d="M86.597 18.806H77.5522C76.7463 18.806 75.7612 18.0896 75.7612 16.9254V1.8806V1.79104C75.7612 1.79104 75.7612 1.70149 75.7612 1.61194C75.7612 1.52239 75.6716 1.43284 75.6716 1.34328C75.5821 1.25373 75.5821 1.16418 75.4925 1.16418C75.403 1.07463 75.3134 1.07463 75.1343 1.07463C74.8657 1.07463 74.597 1.16418 74.4179 1.34328C74.8657 0.895522 75.403 0.626866 75.9403 0.358209C76.3881 0.179105 76.9254 0 77.4627 0C77.9104 0 78.2687 0.0895522 78.5373 0.268657C78.806 0.447761 79.0746 0.626866 79.1642 0.80597C79.3433 0.985075 79.4328 1.25373 79.5224 1.43284C79.4328 1.70149 79.5224 1.8806 79.5224 2.0597V2.23881V18.0896H87.0448L86.597 18.806Z" fill="white"/>
<path d="M106.925 15.9403L101.104 1.43284C101.015 1.16418 100.925 0.985075 100.746 0.80597C100.567 0.626866 100.388 0.447761 100.119 0.268657C99.8507 0.0895522 99.4925 0.0895522 99.0448 0.0895522C98.5075 0.0895522 98.0597 0.179104 97.5224 0.447761C96.9851 0.716418 96.4478 0.985075 96 1.43284V1.52239C96.2687 1.34328 96.4478 1.25373 96.7164 1.25373C97.1642 1.25373 97.4328 1.61194 97.4328 1.97015V18.806L98.1493 18.4478V3.67164C98.597 4.83582 103.522 17.5522 103.522 17.5522C103.881 18.3582 104.507 18.806 105.313 18.806C106.03 18.806 106.836 18.2687 107.194 17.2836L111.672 3.85075V16.5672V16.7463C111.672 16.9254 111.761 17.1045 111.761 17.2836C111.851 17.4627 111.94 17.7313 112.119 17.9104C112.299 18.0896 112.478 18.3582 112.746 18.4478C113.015 18.6269 113.373 18.7164 113.821 18.7164C114.358 18.7164 114.806 18.6269 115.343 18.3582C115.881 18.0896 116.418 17.8209 116.866 17.3731V17.2836C116.597 17.4627 116.418 17.5522 116.149 17.5522C115.97 17.5522 115.881 17.5522 115.791 17.4627C115.701 17.3731 115.612 17.3731 115.612 17.2836C115.522 17.194 115.522 17.1045 115.522 17.1045C115.522 17.0149 115.522 16.9254 115.522 16.9254C115.522 16.8358 115.522 2.23881 115.522 2.23881V1.97015C115.522 1.79104 115.433 1.61194 115.343 1.34328C115.254 1.07463 115.075 0.895522 114.896 0.626866C114.716 0.358209 114.358 0.179104 114 0.0895522C113.821 -3.33608e-08 113.552 0 113.284 0C112.746 0 112.299 0.0895523 111.761 0.358209C111.224 0.626866 110.687 0.895522 110.239 1.34328V1.43284C110.507 1.25373 110.687 1.16418 110.955 1.16418C111.403 1.16418 111.672 1.52239 111.672 1.97015C111.672 2.0597 111.672 2.14925 111.672 2.23881L106.925 15.9403Z" fill="white"/>
<path d="M144 17.6418C143.821 17.6418 143.642 17.6418 143.552 17.5522C143.463 17.4627 143.373 17.2836 143.284 17.194C143.284 17.194 143.284 17.1045 143.194 17.0149C143.104 16.7463 137.015 1.43284 137.015 1.43284C136.925 1.07463 136.746 0.80597 136.478 0.537313C136.209 0.268657 135.761 0.0895522 135.134 0C135.045 0 134.955 0 134.955 0C134.418 0 133.97 0.0895523 133.433 0.358209C132.896 0.626866 132.358 0.895522 131.91 1.34328V1.43284C132.179 1.25373 132.358 1.16418 132.627 1.16418C132.627 1.16418 132.627 1.16418 132.716 1.16418C133.075 1.16418 133.254 1.43284 133.254 1.79104C133.254 1.8806 133.254 1.97015 133.254 1.97015L126.716 18.806H127.433L130.03 12.0896H137.373L139.522 17.4627C139.612 17.8209 139.791 18.0896 140.149 18.3582C140.418 18.6269 140.866 18.806 141.403 18.8955C141.493 18.8955 141.582 18.8955 141.582 18.8955C142.119 18.8955 142.567 18.806 143.104 18.5373C143.642 18.2687 144.179 18 144.627 17.5522V17.4627C144.537 17.5522 144.269 17.6418 144 17.6418ZM130.388 11.2836L133.791 2.59702C134.149 3.49254 136.478 9.58209 137.194 11.2836H130.388Z" fill="white"/>
</svg>
