<svg width="204" height="35" viewBox="0 0 204 35" fill="none" xmlns="http://www.w3.org/2000/svg">
<g clip-path="url(#clip0_1_295)">
<path d="M35.8 33.6C34.9 33.9 33.8 34.1 32.7 34.3C31.6 34.5 30.4 34.6 29.2 34.6C27.9 34.6 26.5 34.5 25.1 34.2C23.7 33.9 22.4 33.5 21.1 32.9C19.8 32.3 18.6 31.5 17.5 30.5C16.4 29.5 15.4 28.3 14.6 26.8C13.5 24.9 12.6 23.5 11.8 22.4C11 21.3 10.2 20.8 9.3 20.8H7V25.7C7 26.6 7.1 27.2 7.2 27.8C7.4 28.3 7.6 28.7 7.8 29C8.1 29.3 8.4 29.5 8.8 29.6C9.2 29.7 9.6 29.8 10.1 29.9H0.5C1 29.8 1.4 29.8 1.8 29.6C2.2 29.5 2.5 29.3 2.8 29C3.1 28.7 3.3 28.3 3.4 27.8C3.6 27.3 3.6 26.6 3.6 25.7V4.5C3.6 3.6 3.5 3 3.4 2.4C3.2 1.9 3 1.5 2.8 1.2C2.5 1 2.2 0.8 1.8 0.7C1.4 0.5 1 0.5 0.5 0.4H9.4C11.6 0.4 13.5 0.9 15 1.8C16.5 2.7 17.7 3.9 18.5 5.3C19.3 6.7 19.8 8.3 19.8 9.9C19.9 11.6 19.6 13.2 19 14.7C18.4 16.2 17.4 17.5 16 18.6C14.7 19.7 13 20.4 10.9 20.6C11.8 20.7 12.6 20.9 13.3 21.2C14 21.5 14.6 21.9 15.2 22.4C15.8 22.9 16.3 23.4 16.7 24.1C17.2 24.7 17.7 25.4 18.2 26.2C19.2 27.7 20.2 29 21.3 29.9C22.4 30.9 23.6 31.7 24.8 32.3C26 32.9 27.2 33.3 28.4 33.5C29.6 33.7 30.7 33.9 31.8 33.9C32.6 33.9 33.3 33.9 33.9 33.8C34.6 33.7 35.2 33.6 35.7 33.4L35.8 33.6ZM7 20.4H9.4C11 20.4 12.3 19.9 13.3 19C14.3 18 15.1 16.8 15.7 15.4C16.2 13.9 16.5 12.4 16.5 10.7C16.5 9 16.2 7.4 15.7 6C15.2 4.5 14.4 3.3 13.3 2.4C12.2 1.4 10.9 1 9.4 1H9.3C8.9 1 8.5 1 8.2 1.1C7.9 1 7.7 1.1 7.5 1.4C7.3 1.6 7.2 2 7.1 2.4C7 2.9 7 3.5 7 4.3V20.4Z" fill="white"/>
<path d="M28.5 21.3C28 22.8 27.8 23.9 27.7 24.8C27.6 25.6 27.7 26.3 27.9 26.7C28.1 27.1 28.5 27.4 29 27.5C29.5 27.6 30.1 27.7 30.7 27.7H22.6C23.4 27.6 24 27.5 24.6 27.3C25.1 27.1 25.6 26.8 26 26.3C26.4 25.8 26.8 25.2 27.1 24.3C27.5 23.5 27.9 22.3 28.3 20.9L34.7 0.4H34.9L42.2 23.5C42.5 24.3 42.7 25 43 25.5C43.3 26 43.6 26.4 44 26.7C44.4 27 44.8 27.2 45.3 27.3C45.8 27.4 46.4 27.5 47.2 27.6H36.4C37.7 27.5 38.5 27.1 38.9 26.4C39.3 25.7 39.3 24.7 38.9 23.4L37.5 19H29.1L28.5 21.3ZM29.3 18.7H37.5L33.5 5.4L29.3 18.7Z" fill="white"/>
<path d="M52.9 23.9C52.9 24.7 53 25.3 53.1 25.8C53.2 26.3 53.4 26.6 53.7 26.9C54 27.2 54.3 27.3 54.6 27.4C55 27.5 55.3 27.6 55.7 27.6H47C47.4 27.5 47.8 27.5 48.2 27.4C48.6 27.3 48.9 27.1 49.1 26.9C49.3 26.6 49.5 26.3 49.7 25.8C49.8 25.3 49.9 24.7 49.9 23.9V4.7C49.9 3.9 49.8 3.3 49.7 2.8C49.6 2.3 49.4 2 49.1 1.7C48.9 1.4 48.6 1.3 48.2 1.2C47.8 1.1 47.5 1 47 1H55.7C55.3 1.1 54.9 1.1 54.6 1.2C54.2 1.3 53.9 1.5 53.7 1.7C53.4 2 53.2 2.3 53.1 2.8C53 3.3 52.9 3.9 52.9 4.7V23.9Z" fill="white"/>
<path d="M78.1 1C77.3 1.1 76.6 1.7 76 2.7C75.5 3.7 75.2 5 75.2 6.6V28.1H74.9L61.4 4.1V22C61.4 23.6 61.7 24.9 62.2 25.9C62.7 26.9 63.4 27.5 64.2 27.6H58.2C59.1 27.5 59.8 26.9 60.3 25.9C60.8 24.9 61.1 23.6 61.1 22V6.1C61.1 4.5 60.9 3.4 60.4 2.6C59.9 1.8 59.2 1.3 58.3 1H63.5L75.1 21.4V6.6C75.1 5 74.8 3.7 74.3 2.7C73.8 1.7 73.1 1.1 72.2 1H78.1Z" fill="white"/>
<path d="M86.3 23.9C86.3 24.7 86.4 25.3 86.5 25.8C86.6 26.3 86.8 26.6 87.1 26.9C87.4 27.2 87.7 27.3 88 27.4C88.4 27.5 88.7 27.6 89.1 27.6H80.4C80.8 27.5 81.2 27.5 81.6 27.4C82 27.3 82.3 27.1 82.5 26.9C82.7 26.6 82.9 26.3 83.1 25.8C83.2 25.3 83.3 24.7 83.3 23.9V4.7C83.3 3.9 83.2 3.3 83.1 2.8C83 2.3 82.8 2 82.5 1.7C82.3 1.4 82 1.3 81.6 1.2C81.2 1.1 80.9 1 80.4 1H96.6L97.7 7.5C97.6 7.2 97.5 6.7 97.3 6C97.1 5.3 96.8 4.6 96.3 3.9C95.8 3.2 95.1 2.6 94.3 2.1C93.4 1.6 92.3 1.3 90.8 1.3H86.4V13.4H91.4C92 13.4 92.5 13.3 92.9 13C93.3 12.8 93.5 12.5 93.7 12.1C93.9 11.7 94 11.4 94.1 10.9C94.2 10.5 94.2 10.1 94.3 9.7V17.2C94.2 16.8 94.2 16.5 94.1 16.1C94 15.7 93.9 15.3 93.7 14.9C93.5 14.5 93.2 14.2 92.9 14C92.5 13.8 92 13.6 91.4 13.6H86.4V23.9H86.3Z" fill="white"/>
<path d="M126.8 14.3C126.8 16.6 126.4 18.6 125.6 20.4C124.8 22.1 123.7 23.6 122.4 24.7C121.1 25.9 119.6 26.7 118 27.3C116.3 27.9 114.6 28.2 112.9 28.2C111.2 28.2 109.4 27.9 107.8 27.3C106.1 26.7 104.7 25.8 103.4 24.7C102.1 23.5 101.1 22.1 100.3 20.4C99.5 18.7 99.1 16.6 99.1 14.3C99.1 12 99.5 9.9 100.3 8.2C101.1 6.5 102.2 5 103.5 3.9C104.8 2.7 106.3 1.9 107.9 1.3C109.6 0.7 111.3 0.4 113 0.4C114.7 0.4 116.5 0.7 118.1 1.3C119.8 1.9 121.2 2.7 122.5 3.9C123.8 5.1 124.8 6.5 125.6 8.2C126.4 10 126.8 12 126.8 14.3ZM102 11.9C102 14.6 102.4 16.9 103.1 18.8C103.8 20.8 104.7 22.4 105.9 23.7C107 25 108.3 26 109.7 26.6C111.1 27.2 112.6 27.6 114 27.6C115.2 27.6 116.4 27.4 117.6 26.9C118.8 26.4 119.8 25.7 120.7 24.7C121.6 23.7 122.3 22.5 122.9 21.1C123.4 19.7 123.7 18 123.7 16.1C123.7 13.6 123.4 11.4 122.7 9.5C122 7.6 121 6 119.8 4.7C118.6 3.4 117.3 2.5 115.8 1.8C114.3 1.2 112.9 0.8 111.4 0.8C110.2 0.8 109 1 107.9 1.5C106.8 1.9 105.8 2.6 104.9 3.5C104 4.4 103.3 5.6 102.8 6.9C102.3 8.5 102 10.1 102 11.9Z" fill="white"/>
<path d="M165 24C163.3 25.5 161.6 26.5 160.2 27.2C158.7 27.8 157.3 28.1 156.1 28.1C154.8 28.1 153.6 27.9 152.5 27.4C151.4 26.9 150.3 26.3 149.3 25.6C148.3 24.9 147.3 24.2 146.3 23.4C145.3 22.6 144.3 21.9 143.3 21.3C142.3 20.7 141.2 20.2 140.2 19.8C139.1 19.4 138 19.4 136.8 19.6V19.5C138.3 19.1 139.6 18.4 140.5 17.3C141.5 16.3 142.2 15.1 142.6 13.7C143.1 12.4 143.3 11 143.2 9.5C143.1 8 142.9 6.7 142.4 5.5C141.9 4.3 141.1 3.3 140.2 2.5C139.2 1.7 138.1 1.3 136.7 1.3H136.6C136.2 1.3 135.9 1.3 135.6 1.4C135.3 1.5 135.1 1.6 134.9 1.8C134.7 2 134.6 2.4 134.5 2.8C134.4 3.2 134.4 3.8 134.4 4.5V23.9C134.4 24.7 134.5 25.3 134.6 25.8C134.7 26.3 134.9 26.6 135.2 26.9C135.5 27.2 135.8 27.3 136.1 27.4C136.5 27.5 136.8 27.6 137.2 27.6H128.5C128.9 27.5 129.3 27.5 129.7 27.4C130.1 27.3 130.4 27.1 130.6 26.9C130.8 26.6 131 26.3 131.2 25.8C131.3 25.3 131.4 24.7 131.4 23.9V4.7C131.4 3.9 131.3 3.3 131.2 2.8C131.1 2.3 130.9 2 130.6 1.7C130.4 1.4 130.1 1.3 129.7 1.2C129.3 1.1 129 1 128.5 1H136.6C138.5 1 140.1 1.4 141.5 2.1C142.9 2.8 144 3.8 144.8 4.9C145.6 6 146.1 7.3 146.3 8.7C146.5 10.1 146.4 11.5 145.9 12.8C145.5 14.1 144.7 15.3 143.6 16.5C142.5 17.6 141 18.4 139.2 19C140.6 18.9 141.9 19 143.1 19.3C144.3 19.6 145.4 20 146.4 20.6C147.4 21.1 148.4 21.7 149.4 22.4C150.4 23.1 151.3 23.7 152.2 24.3C153.1 24.9 154.1 25.4 155.1 25.8C156.1 26.2 157.2 26.4 158.3 26.4C159.3 26.4 160.3 26.2 161.4 25.9C162.5 25.5 163.7 24.9 165 24.1V24ZM159.4 19.6C160.9 19.6 162 19.4 162.9 19C163.7 18.6 164.4 18.1 164.9 17.6C165.4 17 165.7 16.5 165.8 15.9C166 15.3 166.1 14.9 166.2 14.6L165.3 20H149.9C150.3 19.9 150.7 19.9 151 19.8C151.3 19.7 151.6 19.5 151.8 19.3C152 19.1 152.2 18.7 152.3 18.2C152.4 17.7 152.5 17.1 152.5 16.4V4.7C152.5 3.9 152.4 3.3 152.3 2.8C152.2 2.3 152 2 151.8 1.7C151.6 1.4 151.3 1.3 151 1.2C150.7 1.1 150.3 1 149.9 1H164.8L165.7 6.1C165.6 5.8 165.5 5.4 165.3 4.8C165.1 4.3 164.8 3.7 164.4 3.2C163.9 2.7 163.3 2.2 162.5 1.9C161.7 1.5 160.5 1.3 159 1.3H155.3V9.6H159.6C160.2 9.6 160.7 9.5 161 9.3C161.4 9.1 161.6 8.9 161.8 8.6C162 8.3 162.1 8 162.2 7.6C162.3 7.2 162.4 6.9 162.4 6.5V13C162.3 12.6 162.3 12.3 162.2 11.9C162.1 11.5 162 11.2 161.8 10.9C161.6 10.6 161.3 10.4 161 10.2C160.6 10 160.2 9.9 159.6 9.9H155.3V16.4C155.3 17.1 155.3 17.7 155.4 18.1C155.5 18.5 155.7 18.8 155.9 19.1C156.2 19.3 156.5 19.5 157 19.6C157.5 19.7 158.1 19.7 159 19.7H159.4V19.6Z" fill="white"/>
<path d="M185.6 20.4C185.6 21.7 185.4 22.8 184.9 23.8C184.4 24.8 183.7 25.6 182.9 26.2C182.1 26.8 181.1 27.3 180.1 27.6C179 27.9 177.9 28.1 176.8 28.1C175.2 28.1 173.6 27.8 172 27.2C170.4 26.6 169 25.7 167.9 24.5L169.3 18.7C169.3 20.3 169.5 21.6 170 22.8C170.5 23.9 171.1 24.9 171.9 25.6C172.7 26.3 173.5 26.9 174.5 27.3C175.5 27.7 176.4 27.8 177.4 27.8C178.2 27.8 179 27.7 179.7 27.4C180.4 27.2 181.1 26.8 181.7 26.3C182.3 25.8 182.7 25.2 183.1 24.5C183.4 23.8 183.6 23 183.6 22.1C183.6 20.8 183.2 19.6 182.5 18.7C181.8 17.8 180.9 16.9 179.8 16.2C178.7 15.5 177.6 14.8 176.4 14.2C175.2 13.6 174 12.9 173 12.2C171.9 11.5 171 10.7 170.3 9.8C169.6 8.9 169.2 7.8 169.2 6.5C169.2 5.4 169.4 4.5 169.8 3.7C170.2 2.9 170.8 2.3 171.5 1.8C172.2 1.3 173 0.9 173.9 0.7C174.8 0.5 175.7 0.4 176.6 0.4C177.9 0.4 179.1 0.6 180.3 1C181.5 1.4 182.4 1.9 183.2 2.6L182.7 7.4C182.7 6.3 182.5 5.3 182.1 4.5C181.7 3.7 181.2 3 180.5 2.5C179.8 2 179.1 1.6 178.3 1.3C177.5 1 176.7 0.9 175.9 0.9C175.2 0.9 174.6 1 174 1.1C173.4 1.3 172.9 1.5 172.4 1.8C171.9 2.1 171.6 2.5 171.3 3C171 3.5 170.9 4 170.9 4.6C170.9 5.7 171.3 6.6 172 7.5C172.7 8.3 173.6 9.1 174.7 9.8C175.8 10.5 177 11.2 178.3 11.8C179.6 12.5 180.8 13.2 181.9 14C183 14.8 183.9 15.7 184.6 16.7C185.3 17.7 185.6 19 185.6 20.4Z" fill="white"/>
<path d="M196.5 23.9C196.5 24.7 196.6 25.3 196.7 25.8C196.8 26.3 197 26.6 197.3 26.9C197.5 27.2 197.8 27.3 198.2 27.4C198.6 27.5 198.9 27.6 199.3 27.6H190.6C191 27.5 191.4 27.5 191.8 27.4C192.2 27.3 192.5 27.1 192.7 26.9C192.9 26.6 193.1 26.3 193.3 25.8C193.4 25.3 193.5 24.7 193.5 23.9V1.4C192 1.4 190.9 1.7 190 2.2C189.1 2.7 188.5 3.3 188 4C187.5 4.7 187.2 5.4 187 6.1C186.8 6.8 186.7 7.3 186.6 7.6L187.7 1.1H202.5L203.6 7.6C203.5 7.3 203.3 6.8 203.1 6.1C202.9 5.4 202.6 4.7 202.1 4C201.6 3.3 201 2.7 200.1 2.2C199.2 1.7 198.1 1.4 196.6 1.4V23.9H196.5Z" fill="white"/>
<path d="M39.3 29.8L41.2 34.2H40.7L40.2 32.9H38.5L38 34.2H37.5L39.3 29.8ZM39.3 30.9L38.6 32.5H40L39.3 30.9Z" fill="white"/>
<path d="M41.7 34.2V29.8L44.8 33.2V30H45.3V34.4L42.1 31V34.2H41.7Z" fill="white"/>
<path d="M48 34.2V30H48.5V34.2H48Z" fill="white"/>
<path d="M53 31C52.8 30.8 52.6 30.6 52.4 30.5C52.2 30.4 51.9 30.3 51.6 30.3C51.4 30.3 51.2 30.3 50.9 30.4C50.7 30.5 50.5 30.6 50.3 30.8C50.1 31 50 31.2 49.9 31.4C49.8 31.6 49.8 31.8 49.8 32.1C49.8 32.3 49.8 32.5 49.9 32.6C49.9 32.8 50 32.9 50.1 33.1C50.3 33.3 50.5 33.5 50.7 33.7C50.9 33.8 51.2 33.9 51.5 33.9C51.8 33.9 52 33.8 52.3 33.7C52.6 33.6 52.7 33.4 52.9 33.2V33.9C52.7 34.1 52.5 34.2 52.2 34.2C52 34.3 51.7 34.3 51.5 34.3C51.3 34.3 51.1 34.3 50.8 34.2C50.5 34.1 50.4 34 50.2 33.9C49.9 33.7 49.7 33.4 49.5 33.1C49.3 32.8 49.3 32.4 49.3 32.1C49.3 31.8 49.4 31.5 49.5 31.2C49.6 30.9 49.8 30.7 50 30.5C50.2 30.3 50.5 30.1 50.7 30C51 29.9 51.2 29.8 51.6 29.8C51.8 29.8 52.1 29.8 52.3 29.9C52.5 30 52.8 30.1 53 30.2V31Z" fill="white"/>
<path d="M58.1 32.1C58.1 32.4 58 32.7 57.9 33C57.8 33.3 57.6 33.5 57.4 33.7C57.2 33.9 57 34 56.7 34.1C56.4 34.2 56.1 34.3 55.8 34.3C55.5 34.3 55.2 34.2 54.9 34.1C54.6 34 54.4 33.8 54.2 33.6C54 33.4 53.8 33.2 53.7 32.9C53.6 32.6 53.5 32.3 53.5 32C53.5 31.7 53.6 31.4 53.7 31.1C53.8 30.8 54 30.6 54.2 30.4C54.4 30.2 54.7 30 54.9 29.9C55.2 29.8 55.5 29.7 55.8 29.7C56.1 29.7 56.4 29.8 56.7 29.9C57 30 57.2 30.2 57.4 30.4C57.6 30.6 57.8 30.8 57.9 31.1C58 31.4 58.1 31.8 58.1 32.1ZM55.9 33.8C56.1 33.8 56.4 33.8 56.6 33.7C56.8 33.6 57 33.5 57.2 33.3C57.4 33.1 57.5 32.9 57.6 32.7C57.7 32.5 57.7 32.3 57.7 32C57.7 31.8 57.7 31.5 57.6 31.3C57.5 31.1 57.4 30.9 57.2 30.7C57 30.5 56.8 30.4 56.6 30.3C56.4 30.2 56.2 30.2 55.9 30.2C55.7 30.2 55.4 30.2 55.2 30.3C55 30.4 54.8 30.5 54.6 30.7C54.4 30.9 54.3 31.1 54.2 31.3C54.1 31.5 54.1 31.7 54.1 32C54.1 32.2 54.1 32.5 54.2 32.7C54.3 32.9 54.4 33.1 54.6 33.3C54.8 33.5 55 33.6 55.2 33.7C55.4 33.8 55.6 33.8 55.9 33.8Z" fill="white"/>
<path d="M59 34.2V29.8L62.1 33.2V30H62.6V34.4L59.4 31V34.2H59Z" fill="white"/>
<path d="M63.5 34.2V30H64V34.2H63.5Z" fill="white"/>
<path d="M68.5 31C68.3 30.8 68.1 30.6 67.9 30.5C67.7 30.4 67.4 30.3 67.1 30.3C66.9 30.3 66.7 30.3 66.4 30.4C66.2 30.5 66 30.6 65.8 30.8C65.6 31 65.5 31.2 65.4 31.4C65.3 31.6 65.3 31.8 65.3 32.1C65.3 32.3 65.3 32.5 65.4 32.6C65.4 32.8 65.5 32.9 65.6 33.1C65.8 33.3 66 33.5 66.2 33.7C66.4 33.8 66.7 33.9 67 33.9C67.3 33.9 67.5 33.8 67.8 33.7C68.1 33.6 68.2 33.4 68.4 33.2V33.9C68.2 34.1 68 34.2 67.7 34.2C67.5 34.3 67.2 34.3 67 34.3C66.8 34.3 66.6 34.3 66.3 34.2C66 34.1 65.9 34 65.7 33.9C65.4 33.7 65.2 33.4 65 33.1C64.8 32.8 64.8 32.4 64.8 32.1C64.8 31.8 64.9 31.5 65 31.2C65.1 30.9 65.3 30.7 65.5 30.5C65.7 30.3 66 30.1 66.2 30C66.5 29.9 66.7 29.8 67.1 29.8C67.3 29.8 67.6 29.8 67.8 29.9C68 30 68.3 30.1 68.5 30.2V31Z" fill="white"/>
<path d="M71.1 34.2V30H73.3V30.5H71.6V31.7H73.3V32.2H71.6V33.8H73.3V34.3H71.1V34.2Z" fill="white"/>
<path d="M73.6 34.2L74.9 32L73.7 30H74.3L75.2 31.6L76.1 30H76.7L75.5 32L76.8 34.2H76.2L75.2 32.4L74.2 34.2H73.6Z" fill="white"/>
<path d="M77.8 32.3V34.2H77.3V30H78.2C78.5 30 78.7 30 78.9 30C79 30 79.2 30.1 79.3 30.2C79.4 30.3 79.5 30.4 79.6 30.6C79.7 30.8 79.7 31 79.7 31.2C79.7 31.4 79.7 31.6 79.6 31.8C79.5 32 79.4 32.1 79.3 32.2C79.2 32.3 79.1 32.3 78.9 32.4C78.8 32.4 78.5 32.4 78.2 32.4H78H77.8V32.3ZM77.8 31.9H78C78.4 31.9 78.7 31.8 78.9 31.7C79 31.6 79.1 31.4 79.1 31.2C79.1 30.9 79 30.7 78.9 30.6C78.8 30.5 78.5 30.4 78 30.4H77.7V31.9H77.8Z" fill="white"/>
<path d="M80.3 34.2V30H82.5V30.5H80.8V31.7H82.5V32.2H80.8V33.8H82.5V34.3H80.3V34.2Z" fill="white"/>
<path d="M83.4 34.2V30H84.4C84.7 30 84.9 30 85 30C85.1 30 85.2 30.1 85.3 30.2C85.4 30.3 85.5 30.4 85.6 30.6C85.7 30.8 85.7 30.9 85.7 31.1C85.7 31.4 85.6 31.7 85.4 31.9C85.2 32.1 84.9 32.2 84.5 32.2H84.4L86 34.2H85.4L83.9 32.2H83.8V34.2H83.4ZM83.9 30.4V31.8H84.3C84.7 31.8 85 31.7 85.1 31.6C85.2 31.5 85.3 31.3 85.3 31.1C85.3 30.8 85.2 30.6 85.1 30.5C85 30.4 84.7 30.3 84.3 30.3H83.9V30.4Z" fill="white"/>
<path d="M86.6 34.2V30H87.1V34.2H86.6Z" fill="white"/>
<path d="M88.1 34.2V30H90.3V30.5H88.6V31.7H90.3V32.2H88.6V33.8H90.3V34.3H88.1V34.2Z" fill="white"/>
<path d="M91.2 34.2V29.8L94.3 33.2V30H94.8V34.4L91.6 31V34.2H91.2Z" fill="white"/>
<path d="M99.2 31C99 30.8 98.8 30.6 98.6 30.5C98.4 30.4 98.1 30.3 97.8 30.3C97.6 30.3 97.4 30.3 97.1 30.4C96.9 30.5 96.7 30.6 96.5 30.8C96.3 31 96.2 31.2 96.1 31.4C96 31.6 96 31.8 96 32.1C96 32.3 96 32.5 96.1 32.6C96.1 32.8 96.2 32.9 96.3 33.1C96.5 33.3 96.7 33.5 96.9 33.7C97.1 33.8 97.4 33.9 97.7 33.9C98 33.9 98.2 33.8 98.5 33.7C98.8 33.6 98.9 33.4 99.1 33.2V33.9C98.9 34.1 98.7 34.2 98.4 34.2C98.2 34.3 97.9 34.3 97.7 34.3C97.5 34.3 97.3 34.3 97 34.2C96.7 34.1 96.6 34 96.4 33.9C96.1 33.7 95.9 33.4 95.7 33.1C95.5 32.8 95.5 32.4 95.5 32.1C95.5 31.8 95.6 31.5 95.7 31.2C95.8 30.9 96 30.7 96.2 30.5C96.4 30.3 96.7 30.1 96.9 30C97.2 29.9 97.4 29.8 97.8 29.8C98 29.8 98.3 29.8 98.5 29.9C98.7 30 99 30.1 99.2 30.2V31Z" fill="white"/>
<path d="M100 34.2V30H102.2V30.5H100.5V31.7H102.2V32.2H100.5V33.8H102.2V34.3H100V34.2Z" fill="white"/>
<path d="M104.3 30H104.8L105.9 33.1L107 29.8L108.1 33.1L109.2 30H109.7L108.1 34.4L107 31.1L105.9 34.4L104.3 30Z" fill="white"/>
<path d="M110.3 34.2V30H110.8V34.2H110.3Z" fill="white"/>
<path d="M112.5 34.2V30.5H111.3V30H114.2V30.5H113V34.2H112.5Z" fill="white"/>
<path d="M114.8 34.2V30H115.3V31.6H117.5V30H118V34.2H117.5V32.1H115.3V34.2H114.8Z" fill="white"/>
<path d="M120.8 34.2V30H121.3V33.7H122.9V34.2H120.8Z" fill="white"/>
<path d="M127.6 32.1C127.6 32.4 127.5 32.7 127.4 33C127.3 33.3 127.1 33.5 126.9 33.7C126.7 33.9 126.4 34.1 126.2 34.2C125.9 34.3 125.6 34.4 125.3 34.4C125 34.4 124.7 34.3 124.4 34.2C124.1 34.1 123.9 33.9 123.7 33.7C123.5 33.5 123.3 33.3 123.2 33C123.1 32.7 123 32.4 123 32.1C123 31.8 123.1 31.5 123.2 31.2C123.3 30.9 123.5 30.7 123.7 30.5C123.9 30.3 124.2 30.1 124.4 30C124.7 29.9 125 29.8 125.3 29.8C125.6 29.8 125.9 29.9 126.2 30C126.5 30.1 126.7 30.3 126.9 30.5C127.1 30.7 127.3 30.9 127.4 31.2C127.5 31.5 127.6 31.8 127.6 32.1ZM125.3 33.8C125.5 33.8 125.8 33.8 126 33.7C126.2 33.6 126.4 33.5 126.6 33.3C126.8 33.1 126.9 32.9 127 32.7C127.1 32.5 127.1 32.3 127.1 32C127.1 31.8 127.1 31.5 127 31.3C126.9 31.1 126.8 30.9 126.6 30.7C126.4 30.5 126.2 30.4 126 30.3C125.8 30.2 125.6 30.2 125.3 30.2C125.1 30.2 124.8 30.2 124.6 30.3C124.4 30.4 124.2 30.5 124 30.7C123.8 30.9 123.7 31.1 123.6 31.3C123.5 31.5 123.5 31.7 123.5 32C123.5 32.2 123.5 32.5 123.6 32.7C123.7 32.9 123.8 33.1 124 33.3C124.2 33.5 124.4 33.6 124.6 33.7C124.9 33.8 125.1 33.8 125.3 33.8Z" fill="white"/>
<path d="M129.5 34.4L127.7 30H128.2L129.4 33.2L130.6 30H131.1L129.5 34.4Z" fill="white"/>
<path d="M131.7 34.2V30H133.9V30.5H132.2V31.7H133.9V32.2H132.2V33.8H133.9V34.3H131.7V34.2Z" fill="white"/>
</g>
<defs>
<clipPath id="clip0_1_295">
<rect width="204" height="35" fill="white"/>
</clipPath>
</defs>
</svg>
