<svg width="102" height="35" viewBox="0 0 102 35" fill="none" xmlns="http://www.w3.org/2000/svg">
<g clip-path="url(#clip0_1_352)">
<path d="M25.8 33.8C25.8 34.2 26 34.4 26.5 34.4H26.8V34.7H18V34.4H18.3C18.7 34.4 18.9 34.2 18.9 33.8V31.6C18.9 31.4 18.8 31.3 18.7 31.5C17.7 32.5 16.6 33.3 15.3 33.9C14 34.5 12.6 34.8 11.1 34.8C9.7 34.8 8.4 34.5 7.1 34C5.8 33.5 4.7 32.7 3.7 31.8C2.7 30.8 2 29.7 1.4 28.4C0.8 27.1 0.5 25.7 0.5 24.3C0.5 22.9 0.8 21.6 1.3 20.4C1.9 19.2 2.6 18 3.6 17.1C4.6 16.2 5.7 15.4 7 14.8C8.3 14.2 9.6 14 11.1 14C12.6 14 14 14.3 15.3 14.8C16.6 15.4 17.8 16.2 18.8 17.2C18.9 17.3 18.9 17.3 19 17.3L19.1 17.2V14H19.4C20.3 15.2 21.4 16.1 22.7 16.9C24 17.6 25.4 18.1 27 18.3V18.6H26.7C26.2 18.6 26 18.8 26 19.2V33.8H25.8ZM18.9 18.6C18.9 18 18.7 17.6 18.4 17.2C17.4 16.2 16.3 15.4 15.1 14.9C13.8 14.4 12.5 14.1 11.1 14.1H11C10.2 14.1 9.6 14.3 9.1 14.8C8.4 15.5 8.1 16.5 7.9 18C7.8 19.5 7.7 21.2 7.8 23V25.3C7.8 27.2 7.8 28.8 7.9 30.3C7.9 31.9 8.3 33 9 33.7C9.5 34.2 10.2 34.4 10.9 34.4H11C12.4 34.4 13.8 34.1 15 33.6C16.2 33 17.3 32.3 18.3 31.3C18.7 31 18.9 30.5 18.9 29.9V18.6Z" fill="white"/>
<path d="M47.1 14.7C47.5 15 47.9 15.4 48.1 15.9C48.3 16.4 48.5 16.9 48.5 17.5C48.5 18.5 48.2 19.3 47.5 19.9C46.8 20.6 46 20.9 45.1 20.9C44.2 20.9 43.3 20.6 42.7 19.9C42 19.2 41.7 18.4 41.7 17.5C41.7 16.7 41.9 16.1 42.4 15.5C42.8 14.9 43.4 14.5 44.1 14.2C44 14.1 44 14.1 43.9 14.1C43.8 14.1 43.8 14.1 43.7 14.1C43.2 14.1 42.8 14.3 42.2 14.5C41.7 14.7 41.2 15 40.7 15.3C40.2 15.6 39.8 15.9 39.3 16.3C38.9 16.6 38.6 16.9 38.3 17.2C38.2 17.4 38 17.6 37.9 17.8C37.8 18.1 37.7 18.3 37.7 18.6V33.7C37.7 34.1 37.9 34.3 38.4 34.3H38.7V34.6H29.9V34.3H30.2C30.6 34.3 30.8 34.1 30.8 33.7V19C30.8 18.5 30.6 18.3 30.2 18.3H29.9V18C31.4 17.9 32.9 17.4 34.2 16.7C35.5 15.9 36.6 15 37.4 13.8H37.7V17C37.7 17.1 37.7 17.1 37.8 17.1C37.9 17.1 37.9 17.1 38 17C38.2 16.8 38.5 16.5 38.9 16.2C39.3 15.9 39.7 15.5 40.2 15.2C40.6 14.9 41.1 14.6 41.7 14.3C42.3 14 42.9 13.8 43.5 13.8C45 13.7 46.2 14 47.1 14.7Z" fill="white"/>
<path d="M58.3 32.8C58.3 33.5 58.6 33.9 59.2 34C60 34.2 60.9 34.3 61.9 34.3C62.2 34.3 62.6 34.3 62.9 34.2C63.2 34.2 63.5 34.1 63.8 34.1C63 33.9 62.3 33.5 61.8 32.9C61.3 32.3 61 31.6 61 30.7C61 29.7 61.3 28.9 62 28.3C62.7 27.7 63.5 27.3 64.4 27.3C65.4 27.3 66.2 27.6 66.8 28.3C67.4 29 67.8 29.8 67.8 30.7C67.8 31.4 67.6 32.1 67.2 32.6C66.8 33.2 66.3 33.6 65.6 33.9C64.4 34.4 63.1 34.6 61.8 34.6C58.9 34.6 56.4 33.6 54.4 31.5C53.4 30.5 52.7 29.4 52.1 28.1C51.6 26.8 51.3 25.5 51.3 24.1V5.5C51.3 5 51.1 4.8 50.7 4.8H50.4V4.4C51.9 4.3 53.4 3.8 54.7 3.1C56 2.4 57.1 1.4 58 0.3H58.3V16.7C58.3 17.2 58.5 17.4 59 17.4H63.6C64 17.4 64.2 17.2 64.2 16.7V14.6H64.5V20.6H64.2V18.4C64.2 18 64 17.8 63.6 17.8H59C58.5 17.8 58.3 18 58.3 18.4V32.8Z" fill="white"/>
<path d="M86.7 20.6C86.7 19.8 86.7 19 86.6 18.3C86.5 17.5 86.3 16.8 86.1 16.3C85.8 15.7 85.5 15.2 85 14.8C84.5 14.4 83.9 14.2 83.2 14.2C81.5 14.2 80 14.6 78.5 15.3C78.1 15.5 77.9 15.9 77.9 16.3V16.4V28.9V33.7C77.9 34.1 78.1 34.3 78.6 34.3H78.9V34.6H70V34.3H70.3C70.7 34.3 70.9 34.1 70.9 33.7V28.8V8.7V5.5C70.9 5 70.7 4.8 70.3 4.8H70V4.4C71.5 4.3 73 3.8 74.3 3.1C75.6 2.3 76.7 1.4 77.5 0.2H77.8V8.6V15C77.8 15.1 77.9 15.2 78 15.1C78.8 14.6 79.6 14.3 80.4 14.1C81.3 13.9 82.2 13.8 83 13.8C84.7 13.8 86.3 14.1 87.6 14.6C88.9 15.1 90 15.8 90.9 16.6C91.8 17.4 92.4 18.3 92.9 19.3C93.3 20.3 93.6 21.3 93.6 22.2V33.8C93.6 34.2 93.8 34.4 94.2 34.4H94.5V34.7H85.7V34.4H86C86.5 34.4 86.7 34.2 86.7 33.8V20.6Z" fill="white"/>
<path d="M99.3 34.7C100.515 34.7 101.5 33.715 101.5 32.5C101.5 31.285 100.515 30.3 99.3 30.3C98.085 30.3 97.1 31.285 97.1 32.5C97.1 33.715 98.085 34.7 99.3 34.7Z" fill="white"/>
<path d="M28.4 3C24.7 3 21.7 6 21.7 9.7C21.7 13.4 24.7 16.4 28.4 16.4C32.1 16.4 35.1 13.4 35.1 9.7C35.1 6 32.1 3 28.4 3ZM26.2 15.5C25.9 15.4 25.7 15.3 25.4 15.1V11L26.2 10.7V15.5ZM24.9 14.8C24.6 14.6 24.4 14.4 24.1 14.2V11.6L24.9 11.3V14.8ZM28 15.9V5.5L30.1 6.7V7.4L30.6 7.6V6.4L27.5 4.6V7.7L24.9 8.6V10.1L25.4 9.9V8.9L27.5 8.2V15.8C27.2 15.8 27 15.7 26.7 15.6V10L23.6 11.1V13.5C22.8 12.4 22.2 11.1 22.2 9.6C22.2 6.2 25 3.4 28.4 3.4C31.8 3.4 34.6 6.2 34.6 9.6C34.6 11.1 34.1 12.4 33.2 13.5V11.1L32 10.7V8.6L28.9 7.5V15.9C28.8 15.9 28.6 15.9 28.5 15.9C28.4 15.9 28.2 15.9 28 15.9ZM31.4 11.6V15.1C31.2 15.2 30.9 15.4 30.6 15.5V10.8L32.7 11.5V14.1C32.5 14.3 32.2 14.5 31.9 14.7V11.7L31.4 11.6ZM31.4 10.5L30.1 10V15.6C29.8 15.7 29.6 15.7 29.3 15.8V8.2L31.4 8.9V10.5Z" fill="white"/>
</g>
<defs>
<clipPath id="clip0_1_352">
<rect width="102" height="35" fill="white"/>
</clipPath>
</defs>
</svg>
