<svg width="58" height="35" viewBox="0 0 58 35" fill="none" xmlns="http://www.w3.org/2000/svg">
<g clip-path="url(#clip0_1_395)">
<path d="M30.1 24.3C30.1 23.9 30 23.5 30 23.1C29.9 22.7 29.9 22.3 29.8 21.8C29.7 21.4 29.6 21 29.4 20.7C29.2 20.4 29 20.1 28.8 19.9C28.6 19.7 28.3 19.6 27.9 19.6C27.5 19.6 27.2 19.7 26.9 19.9C26.6 20.1 26.4 20.4 26.2 20.7C26 21 25.9 21.4 25.7 21.8C25.6 22.2 25.5 22.6 25.4 23.1C25.3 23.5 25.3 24 25.3 24.4C25.3 24.8 25.3 25.2 25.3 25.5C25.3 25.8 25.3 26.2 25.3 26.6C25.3 27 25.4 27.4 25.4 27.9C25.5 28.3 25.5 28.7 25.7 29.2C25.8 29.6 25.9 30 26.1 30.3C26.3 30.6 26.5 30.9 26.8 31.1C27.1 31.3 27.4 31.4 27.8 31.4C28.2 31.4 28.5 31.3 28.8 31.1C29.1 30.9 29.3 30.6 29.5 30.3C29.7 30 29.8 29.6 29.9 29.2C30 28.8 30.1 28.4 30.1 27.9C30.1 27.5 30.2 27 30.2 26.6C30.2 26.2 30.2 25.8 30.2 25.5C30.1 25.1 30.1 24.7 30.1 24.3ZM30.1 24.3C30.1 23.9 30 23.5 30 23.1C29.9 22.7 29.9 22.3 29.8 21.8C29.7 21.4 29.6 21 29.4 20.7C29.2 20.4 29 20.1 28.8 19.9C28.6 19.7 28.3 19.6 27.9 19.6C27.5 19.6 27.2 19.7 26.9 19.9C26.6 20.1 26.4 20.4 26.2 20.7C26 21 25.9 21.4 25.7 21.8C25.6 22.2 25.5 22.6 25.4 23.1C25.3 23.5 25.3 24 25.3 24.4C25.3 24.8 25.3 25.2 25.3 25.5C25.3 25.8 25.3 26.2 25.3 26.6C25.3 27 25.4 27.4 25.4 27.9C25.5 28.3 25.5 28.7 25.7 29.2C25.8 29.6 25.9 30 26.1 30.3C26.3 30.6 26.5 30.9 26.8 31.1C27.1 31.3 27.4 31.4 27.8 31.4C28.2 31.4 28.5 31.3 28.8 31.1C29.1 30.9 29.3 30.6 29.5 30.3C29.7 30 29.8 29.6 29.9 29.2C30 28.8 30.1 28.4 30.1 27.9C30.1 27.5 30.2 27 30.2 26.6C30.2 26.2 30.2 25.8 30.2 25.5C30.1 25.1 30.1 24.7 30.1 24.3ZM30.1 24.3C30.1 23.9 30 23.5 30 23.1C29.9 22.7 29.9 22.3 29.8 21.8C29.7 21.4 29.6 21 29.4 20.7C29.2 20.4 29 20.1 28.8 19.9C28.6 19.7 28.3 19.6 27.9 19.6C27.5 19.6 27.2 19.7 26.9 19.9C26.6 20.1 26.4 20.4 26.2 20.7C26 21 25.9 21.4 25.7 21.8C25.6 22.2 25.5 22.6 25.4 23.1C25.3 23.5 25.3 24 25.3 24.4C25.3 24.8 25.3 25.2 25.3 25.5C25.3 25.8 25.3 26.2 25.3 26.6C25.3 27 25.4 27.4 25.4 27.9C25.5 28.3 25.5 28.7 25.7 29.2C25.8 29.6 25.9 30 26.1 30.3C26.3 30.6 26.5 30.9 26.8 31.1C27.1 31.3 27.4 31.4 27.8 31.4C28.2 31.4 28.5 31.3 28.8 31.1C29.1 30.9 29.3 30.6 29.5 30.3C29.7 30 29.8 29.6 29.9 29.2C30 28.8 30.1 28.4 30.1 27.9C30.1 27.5 30.2 27 30.2 26.6C30.2 26.2 30.2 25.8 30.2 25.5C30.1 25.1 30.1 24.7 30.1 24.3ZM39.3 21.1C39.2 20.8 39 20.5 38.7 20.3C38.5 20.1 38.2 20 37.8 19.9C37.5 19.8 37.1 19.8 36.7 19.8H36.2V25H36.8C37.1 25 37.5 24.9 37.8 24.9C38.1 24.8 38.4 24.7 38.7 24.4C38.9 24.2 39.1 23.9 39.3 23.6C39.5 23.3 39.5 22.9 39.5 22.4C39.5 21.9 39.5 21.5 39.3 21.1ZM39.3 21.1C39.2 20.8 39 20.5 38.7 20.3C38.5 20.1 38.2 20 37.8 19.9C37.5 19.8 37.1 19.8 36.7 19.8H36.2V25H36.8C37.1 25 37.5 24.9 37.8 24.9C38.1 24.8 38.4 24.7 38.7 24.4C38.9 24.2 39.1 23.9 39.3 23.6C39.5 23.3 39.5 22.9 39.5 22.4C39.5 21.9 39.5 21.5 39.3 21.1ZM30.1 24.3C30.1 23.9 30 23.5 30 23.1C29.9 22.7 29.9 22.3 29.8 21.8C29.7 21.4 29.6 21 29.4 20.7C29.2 20.4 29 20.1 28.8 19.9C28.6 19.7 28.3 19.6 27.9 19.6C27.5 19.6 27.2 19.7 26.9 19.9C26.6 20.1 26.4 20.4 26.2 20.7C26 21 25.9 21.4 25.7 21.8C25.6 22.2 25.5 22.6 25.4 23.1C25.3 23.5 25.3 24 25.3 24.4C25.3 24.8 25.3 25.2 25.3 25.5C25.3 25.8 25.3 26.2 25.3 26.6C25.3 27 25.4 27.4 25.4 27.9C25.5 28.3 25.5 28.7 25.7 29.2C25.8 29.6 25.9 30 26.1 30.3C26.3 30.6 26.5 30.9 26.8 31.1C27.1 31.3 27.4 31.4 27.8 31.4C28.2 31.4 28.5 31.3 28.8 31.1C29.1 30.9 29.3 30.6 29.5 30.3C29.7 30 29.8 29.6 29.9 29.2C30 28.8 30.1 28.4 30.1 27.9C30.1 27.5 30.2 27 30.2 26.6C30.2 26.2 30.2 25.8 30.2 25.5C30.1 25.1 30.1 24.7 30.1 24.3ZM0.300001 17.5V34.4H57.7V17.5H0.300001ZM57.6 34.3H0.400001V17.6H57.5V34.3H57.6ZM37.8 24.9C38.1 24.8 38.4 24.7 38.7 24.4C38.9 24.2 39.1 23.9 39.3 23.6C39.5 23.3 39.5 22.9 39.5 22.4C39.5 21.9 39.4 21.4 39.3 21.1C39.2 20.8 39 20.5 38.7 20.3C38.5 20.1 38.2 20 37.8 19.9C37.5 19.8 37.1 19.8 36.7 19.8H36.2V25H36.8C37.2 25 37.5 25 37.8 24.9ZM25.4 27.8C25.5 28.2 25.5 28.6 25.7 29.1C25.8 29.5 25.9 29.9 26.1 30.2C26.3 30.5 26.5 30.8 26.8 31C27.1 31.2 27.4 31.3 27.8 31.3C28.2 31.3 28.5 31.2 28.8 31C29.1 30.8 29.3 30.5 29.5 30.2C29.7 29.9 29.8 29.5 29.9 29.1C30 28.7 30.1 28.3 30.1 27.8C30.1 27.4 30.2 26.9 30.2 26.5C30.2 26.1 30.2 25.7 30.2 25.4C30.2 25.1 30.2 24.8 30.2 24.4C30.2 24 30.1 23.6 30.1 23.2C30 22.8 30 22.4 29.9 21.9C29.8 21.5 29.7 21.1 29.5 20.8C29.3 20.5 29.1 20.2 28.9 20C28.7 19.8 28.4 19.7 28 19.7C27.6 19.7 27.3 19.8 27 20C26.7 20.2 26.5 20.5 26.3 20.8C26.1 21.1 26 21.5 25.8 21.9C25.7 22.3 25.6 22.7 25.5 23.2C25.4 23.6 25.4 24.1 25.4 24.5C25.4 24.9 25.4 25.3 25.4 25.6C25.4 25.9 25.4 26.3 25.4 26.7C25.3 26.9 25.3 27.4 25.4 27.8ZM30.1 24.3C30.1 23.9 30 23.5 30 23.1C29.9 22.7 29.9 22.3 29.8 21.8C29.7 21.4 29.6 21 29.4 20.7C29.2 20.4 29 20.1 28.8 19.9C28.6 19.7 28.3 19.6 27.9 19.6C27.5 19.6 27.2 19.7 26.9 19.9C26.6 20.1 26.4 20.4 26.2 20.7C26 21 25.9 21.4 25.7 21.8C25.6 22.2 25.5 22.6 25.4 23.1C25.3 23.5 25.3 24 25.3 24.4C25.3 24.8 25.3 25.2 25.3 25.5C25.3 25.8 25.3 26.2 25.3 26.6C25.3 27 25.4 27.4 25.4 27.9C25.5 28.3 25.5 28.7 25.7 29.2C25.8 29.6 25.9 30 26.1 30.3C26.3 30.6 26.5 30.9 26.8 31.1C27.1 31.3 27.4 31.4 27.8 31.4C28.2 31.4 28.5 31.3 28.8 31.1C29.1 30.9 29.3 30.6 29.5 30.3C29.7 30 29.8 29.6 29.9 29.2C30 28.8 30.1 28.4 30.1 27.9C30.1 27.5 30.2 27 30.2 26.6C30.2 26.2 30.2 25.8 30.2 25.5C30.1 25.1 30.1 24.7 30.1 24.3ZM39.3 21.1C39.2 20.8 39 20.5 38.7 20.3C38.5 20.1 38.2 20 37.8 19.9C37.5 19.8 37.1 19.8 36.7 19.8H36.2V25H36.8C37.1 25 37.5 24.9 37.8 24.9C38.1 24.8 38.4 24.7 38.7 24.4C38.9 24.2 39.1 23.9 39.3 23.6C39.5 23.3 39.5 22.9 39.5 22.4C39.5 21.9 39.5 21.5 39.3 21.1ZM39.3 21.1C39.2 20.8 39 20.5 38.7 20.3C38.5 20.1 38.2 20 37.8 19.9C37.5 19.8 37.1 19.8 36.7 19.8H36.2V25H36.8C37.1 25 37.5 24.9 37.8 24.9C38.1 24.8 38.4 24.7 38.7 24.4C38.9 24.2 39.1 23.9 39.3 23.6C39.5 23.3 39.5 22.9 39.5 22.4C39.5 21.9 39.5 21.5 39.3 21.1ZM30.1 24.3C30.1 23.9 30 23.5 30 23.1C29.9 22.7 29.9 22.3 29.8 21.8C29.7 21.4 29.6 21 29.4 20.7C29.2 20.4 29 20.1 28.8 19.9C28.6 19.7 28.3 19.6 27.9 19.6C27.5 19.6 27.2 19.7 26.9 19.9C26.6 20.1 26.4 20.4 26.2 20.7C26 21 25.9 21.4 25.7 21.8C25.6 22.2 25.5 22.6 25.4 23.1C25.3 23.5 25.3 24 25.3 24.4C25.3 24.8 25.3 25.2 25.3 25.5C25.3 25.8 25.3 26.2 25.3 26.6C25.3 27 25.4 27.4 25.4 27.9C25.5 28.3 25.5 28.7 25.7 29.2C25.8 29.6 25.9 30 26.1 30.3C26.3 30.6 26.5 30.9 26.8 31.1C27.1 31.3 27.4 31.4 27.8 31.4C28.2 31.4 28.5 31.3 28.8 31.1C29.1 30.9 29.3 30.6 29.5 30.3C29.7 30 29.8 29.6 29.9 29.2C30 28.8 30.1 28.4 30.1 27.9C30.1 27.5 30.2 27 30.2 26.6C30.2 26.2 30.2 25.8 30.2 25.5C30.1 25.1 30.1 24.7 30.1 24.3Z" fill="white"/>
<path d="M0.200001 17.3V34.5H57.8V17.3H0.200001ZM57.6 34.3H0.400001V17.6H57.5V34.3H57.6Z" fill="white"/>
<path d="M0.400002 17.6V34.3H57.5V17.6H0.400002ZM12.3 29.4C12.1 29.8 11.9 30.2 11.6 30.5C11.3 30.8 11 31.1 10.6 31.2C10.2 31.4 9.8 31.5 9.3 31.5C8.8 31.5 8.4 31.4 8.1 31.3C7.7 31.2 7.4 31 7.2 30.9C7.1 30.8 6.9 30.8 6.8 30.7C6.7 30.6 6.6 30.6 6.4 30.6C6.3 30.6 6.2 30.7 6.1 30.9C6.1 31.1 6 31.3 6 31.4H5.7V27.1H6C6 27.7 6.1 28.2 6.3 28.7C6.4 29.2 6.6 29.6 6.9 30C7.2 30.4 7.5 30.6 7.9 30.8C8.3 31 8.8 31.1 9.3 31.1C9.6 31.1 9.9 31 10.2 30.9C10.5 30.8 10.7 30.6 10.9 30.4C11.1 30.2 11.2 30 11.3 29.7C11.4 29.4 11.4 29.1 11.3 28.8C11.2 28.5 11 28.2 10.6 28C10.2 27.8 9.8 27.6 9.3 27.3C8.9 27.1 8.5 26.9 8 26.7C7.6 26.5 7.2 26.2 6.8 25.9C6.4 25.6 6.1 25.2 5.9 24.7C5.7 24.2 5.6 23.7 5.6 23C5.6 22.9 5.6 22.8 5.6 22.6C5.6 22.4 5.6 22.3 5.6 22.2C5.7 21.2 6.1 20.5 6.6 20.1C7.1 19.7 7.8 19.4 8.7 19.3C9.2 19.3 9.6 19.4 9.9 19.5C10.2 19.7 10.5 19.8 10.7 20C10.9 20.2 11.1 20.3 11.2 20.3C11.4 20.3 11.5 20.2 11.5 20.1C11.5 19.9 11.6 19.8 11.6 19.6H12V23.1H11.7C11.6 22.6 11.5 22.1 11.4 21.7C11.3 21.3 11.1 20.9 10.8 20.6C10.6 20.3 10.3 20.1 10 19.9C9.7 19.7 9.3 19.7 8.8 19.7C8.5 19.7 8.2 19.7 7.9 19.8C7.6 19.9 7.4 20 7.2 20.2C7 20.4 6.8 20.6 6.7 20.9C6.6 21.2 6.5 21.5 6.6 21.9C6.6 22.2 6.7 22.5 6.9 22.7C7 22.9 7.2 23.1 7.4 23.3C7.6 23.5 7.9 23.6 8.2 23.8C8.4 23.9 8.6 24 9 24.1C9.4 24.3 9.8 24.4 10.2 24.6C10.6 24.8 11 25 11.3 25.3C11.6 25.6 11.9 25.9 12.1 26.3C12.3 26.7 12.5 27.2 12.5 27.8C12.5 28.5 12.5 29 12.3 29.4ZM22 23.1C22 22.4 22 21.8 21.9 21.4C21.8 21 21.6 20.6 21.4 20.4C21.2 20.2 20.9 20 20.5 20C20.1 19.9 19.6 19.9 19 19.9V31H20.2V31.3H15.7V31H17V19.8H16.7C16.1 19.8 15.7 19.8 15.3 19.9C14.9 20 14.6 20.2 14.4 20.4C14.2 20.6 14 21 13.9 21.4C13.8 21.8 13.8 22.4 13.8 23H13.5C13.5 22.4 13.5 21.8 13.5 21.2C13.5 20.6 13.5 20 13.5 19.4H22.2C22.2 20 22.2 20.6 22.2 21.2C22.2 21.8 22.2 22.4 22.2 23H22V23.1ZM32 27.6C31.8 28.3 31.5 29 31.1 29.5C30.7 30.1 30.2 30.5 29.7 30.9C29.1 31.3 28.5 31.4 27.9 31.4C27.2 31.4 26.6 31.2 26 30.9C25.4 30.5 25 30.1 24.6 29.5C24.2 28.9 23.9 28.2 23.7 27.5C23.5 26.8 23.4 26 23.4 25.2C23.4 24.5 23.5 23.8 23.8 23C24 22.3 24.4 21.6 24.8 21.1C25.2 20.5 25.7 20.1 26.2 19.7C26.8 19.3 27.4 19.2 28 19.2C28.7 19.2 29.3 19.4 29.8 19.7C30.4 20.1 30.8 20.5 31.2 21.1C31.6 21.7 31.9 22.3 32.1 23.1C32.3 23.8 32.4 24.6 32.4 25.3C32.3 26.2 32.2 26.9 32 27.6ZM42.3 31.4C42.1 31.4 41.9 31.5 41.7 31.5C41.2 31.5 40.8 31.4 40.5 31.3C40.2 31.1 40 30.9 39.8 30.7C39.6 30.4 39.5 30.1 39.5 29.7C39.4 29.3 39.4 28.9 39.4 28.4C39.4 28.3 39.4 28.1 39.4 28C39.4 27.8 39.4 27.7 39.3 27.5C39.2 27 39.1 26.6 38.9 26.3C38.7 26 38.5 25.8 38.2 25.7C37.9 25.6 37.6 25.5 37.3 25.4C37 25.4 36.6 25.4 36.3 25.4V31H37.4V31.3H33.4V31H34.4V19.8H33.4V19.5H38.5C38.9 19.5 39.3 19.5 39.6 19.6C40 19.7 40.3 19.9 40.6 20.1C40.9 20.3 41.1 20.6 41.3 21C41.5 21.4 41.6 21.8 41.6 22.4C41.6 22.8 41.5 23.2 41.4 23.5C41.3 23.8 41.1 24.1 40.9 24.3C40.7 24.5 40.4 24.7 40.2 24.8C39.9 24.9 39.6 25 39.3 25.1V25.3C39.8 25.4 40.2 25.6 40.5 25.9C40.8 26.2 41 26.5 41.1 26.9C41.2 27.3 41.3 27.6 41.4 28.1C41.4 28.5 41.5 28.9 41.5 29.3C41.5 29.6 41.5 29.8 41.5 30C41.5 30.2 41.6 30.4 41.6 30.6C41.6 30.8 41.7 30.9 41.8 31C41.9 31.1 42 31.2 42.2 31.2C42.3 31.2 42.4 31.2 42.5 31.2C42.6 31.2 42.7 31.1 42.8 31.1L42.9 31.4C42.7 31.3 42.5 31.3 42.3 31.4ZM52.2 19.8H51.8C51.6 19.8 51.5 19.8 51.4 19.8C51.3 19.8 51.2 19.9 51.1 20C51 20.1 50.9 20.2 50.9 20.4C50.8 20.6 50.7 20.8 50.6 21L48.4 26.6V31H49.5V31.3H45.4V31H46.5V27L43.7 19.8H42.8V19.5H47V19.8H45.9L48.2 25.9L49.9 21.7C49.9 21.6 50 21.5 50 21.4C50 21.3 50.1 21.1 50.1 21C50.1 20.9 50.2 20.7 50.2 20.6C50.2 20.5 50.3 20.4 50.3 20.3C50.3 20.1 50.2 20 50 19.9C49.8 19.8 49.6 19.8 49.4 19.8C49.3 19.8 49.2 19.8 49.2 19.8C49.1 19.8 49.1 19.8 49 19.8V19.5H52.1V19.8H52.2Z" fill="white"/>
<path d="M57.7 17.4H0.300001V0.6H57.7V17.4ZM0.400001 17.3H57.6V0.7H0.400001V17.3Z" fill="white"/>
<path d="M57.8 17.5H0.200001V0.5H57.8V17.5ZM0.500001 17.2H57.5V0.8H0.500001V17.2Z" fill="white"/>
<path d="M3.8 3.6H7.5C8.3 3.6 9.1 3.7 9.8 3.9C10.5 4.1 11.2 4.4 11.7 4.9C12.3 5.4 12.7 6 13 6.7C13.3 7.5 13.5 8.4 13.5 9.6C13.5 10.7 13.3 11.7 13 12.4C12.7 13.1 12.3 13.7 11.7 14.2C11.2 14.6 10.5 15 9.8 15.2C9.1 15.4 8.3 15.5 7.5 15.5H3.8V15H4.8V3.9H3.8V3.6ZM6.9 3.9V15C7.7 15 8.5 14.9 9 14.7C9.6 14.5 10 14.1 10.4 13.6C10.8 13.1 11 12.5 11.2 11.8C11.4 11.1 11.4 10.2 11.4 9.3C11.4 8.5 11.3 7.8 11.2 7.1C11 6.4 10.8 5.8 10.5 5.4C10.2 4.9 9.7 4.5 9.2 4.3C8.6 4 8 3.9 7.3 3.9H6.9Z" fill="white"/>
<path d="M17.7 15H19.4C19.9 15 20.4 15 20.9 15C21.4 15 21.8 14.9 22.1 14.7C22.4 14.5 22.7 14.2 22.9 13.8C23.1 13.4 23.2 12.8 23.2 12H23.5V15.5H14.6V15H15.5V3.9H14.6V3.6H23.4V6.5H23.1C23.1 5.8 23 5.3 22.7 5C22.5 4.7 22.2 4.4 21.8 4.2C21.5 4 21.1 4 20.6 3.9C20.2 3.9 19.7 3.9 19.2 3.9H17.6V9.1H18.1C18.5 9.1 18.8 9.1 19.1 9.1C19.4 9.1 19.6 9 19.8 8.9C20 8.8 20.1 8.6 20.2 8.3C20.3 8 20.3 7.6 20.4 7.1H20.7V11.5H20.4C20.4 11.1 20.3 10.7 20.3 10.4C20.2 10.1 20.1 9.9 20 9.8C19.9 9.7 19.7 9.6 19.5 9.5C19.3 9.5 19.1 9.4 18.8 9.4H17.8V15H17.7Z" fill="white"/>
<path d="M32.6 15.3C32.6 15.2 32.6 15.1 32.6 15C32.6 14.9 32.6 14.8 32.5 14.7C32.5 14.6 32.4 14.5 32.4 14.4C32.3 14.3 32.3 14.3 32.1 14.3C32 14.3 32 14.3 31.9 14.4C31.8 14.5 31.7 14.5 31.6 14.6C31.4 14.8 31.1 15 30.7 15.2C30.3 15.4 29.9 15.5 29.4 15.5C28.7 15.5 28.1 15.3 27.5 15C26.9 14.7 26.5 14.3 26.1 13.7C25.7 13.2 25.4 12.5 25.2 11.8C25 11.1 24.9 10.3 24.9 9.5C24.9 8.7 25 7.9 25.2 7.2C25.4 6.4 25.7 5.8 26.1 5.2C26.5 4.6 27 4.1 27.5 3.8C28 3.5 28.7 3.3 29.4 3.3C29.7 3.3 30 3.4 30.2 3.5C30.4 3.6 30.7 3.7 30.9 3.8C31.1 3.9 31.3 4 31.5 4.1C31.7 4.2 31.9 4.3 32.1 4.3C32.2 4.3 32.3 4.3 32.4 4.2C32.5 4.1 32.5 4 32.5 3.8H32.8V7.4H32.4C32.4 7 32.3 6.5 32.1 6.1C31.9 5.7 31.7 5.3 31.5 4.9C31.3 4.6 31 4.3 30.6 4.1C30.3 3.9 29.9 3.8 29.5 3.8C29.1 3.8 28.8 3.9 28.5 4.1C28.2 4.3 28 4.6 27.8 4.9C27.6 5.2 27.5 5.6 27.4 6C27.3 6.4 27.2 6.8 27.1 7.3C27 7.7 27 8.2 27 8.6C27 9 27 9.4 27 9.7C27 10.3 27 10.9 27.1 11.5C27.2 12.1 27.3 12.7 27.5 13.2C27.7 13.7 28 14.1 28.4 14.5C28.8 14.8 29.3 15 29.9 15C30.2 15 30.6 14.9 30.8 14.6C31.1 14.3 31.3 14 31.5 13.6C31.7 13.2 31.9 12.8 32 12.4C32.1 12 32.2 11.5 32.3 11.2H32.6V15.4V15.3Z" fill="white"/>
<path d="M39.1 3.3C39.8 3.3 40.4 3.5 40.9 3.8C41.5 4.2 41.9 4.6 42.3 5.2C42.7 5.8 43 6.4 43.2 7.2C43.4 7.9 43.5 8.7 43.5 9.4C43.5 10.2 43.4 10.9 43.2 11.6C43 12.3 42.7 13 42.3 13.5C41.9 14.1 41.4 14.5 40.9 14.9C40.3 15.3 39.7 15.4 39.1 15.4C38.4 15.4 37.8 15.2 37.2 14.9C36.6 14.5 36.2 14.1 35.8 13.5C35.4 12.9 35.1 12.2 34.9 11.5C34.7 10.8 34.6 10 34.6 9.2C34.6 8.5 34.7 7.7 35 7C35.2 6.3 35.6 5.6 36 5.1C36.4 4.5 36.9 4.1 37.5 3.7C37.8 3.5 38.4 3.3 39.1 3.3ZM39.1 3.6C38.7 3.6 38.4 3.7 38.1 3.9C37.8 4.1 37.6 4.4 37.4 4.7C37.3 5 37.1 5.4 37 5.8C36.9 6.2 36.8 6.6 36.7 7.1C36.6 7.5 36.6 8 36.6 8.4C36.6 8.8 36.6 9.2 36.6 9.5C36.6 9.8 36.6 10.2 36.6 10.6C36.6 11 36.7 11.4 36.7 11.9C36.8 12.3 36.8 12.8 36.9 13.2C37 13.6 37.1 14 37.3 14.3C37.5 14.6 37.7 14.9 38 15.1C38.3 15.3 38.6 15.4 39 15.4C39.4 15.4 39.7 15.3 40 15.1C40.3 14.9 40.5 14.6 40.7 14.3C40.9 14 41 13.6 41.1 13.2C41.2 12.8 41.3 12.4 41.3 11.9C41.3 11.5 41.4 11 41.4 10.6C41.4 10.2 41.4 9.8 41.4 9.5C41.4 9.2 41.4 8.9 41.4 8.5C41.4 8.1 41.3 7.7 41.3 7.3C41.2 6.9 41.2 6.5 41.1 6C41 5.6 40.9 5.2 40.7 4.9C40.5 4.6 40.3 4.3 40.1 4.1C39.8 3.7 39.5 3.6 39.1 3.6Z" fill="white"/>
<path d="M47.6 15H48.7V15.3H44.7V15H45.7V3.9H44.7V3.6H49.8C50.2 3.6 50.6 3.6 50.9 3.7C51.3 3.8 51.6 4 51.9 4.2C52.2 4.4 52.4 4.7 52.6 5.1C52.8 5.5 52.9 5.9 52.9 6.5C52.9 6.9 52.8 7.3 52.7 7.6C52.6 7.9 52.4 8.2 52.2 8.4C52 8.6 51.7 8.8 51.5 8.9C51.2 9 50.9 9.1 50.6 9.2V9.4C51.1 9.5 51.5 9.7 51.8 10C52.1 10.3 52.3 10.6 52.4 11C52.5 11.4 52.6 11.8 52.7 12.2C52.7 12.6 52.8 13 52.8 13.4C52.8 13.7 52.8 13.9 52.8 14.1C52.8 14.3 52.8 14.5 52.9 14.7C52.9 14.9 53 15 53.1 15.1C53.2 15.2 53.3 15.3 53.5 15.3C53.6 15.3 53.7 15.3 53.8 15.3C53.9 15.3 54 15.2 54.1 15.2L54.2 15.5C54 15.6 53.8 15.7 53.6 15.7C53.4 15.7 53.2 15.8 53 15.8C52.5 15.8 52.1 15.7 51.8 15.6C51.5 15.4 51.3 15.2 51.1 15C50.9 14.7 50.8 14.4 50.8 14C50.7 13.6 50.7 13.2 50.7 12.7C50.7 12.6 50.7 12.4 50.7 12.3C50.7 12.1 50.7 12 50.6 11.8C50.5 11.3 50.4 10.9 50.2 10.6C50 10 49.8 9.8 49.6 9.6C49.3 9.5 49 9.4 48.7 9.4C48.4 9.4 48 9.4 47.7 9.4V15H47.6ZM47.6 3.9V9.1H48.2C48.5 9.1 48.9 9.1 49.2 9C49.5 8.9 49.8 8.8 50.1 8.5C50.3 8.3 50.5 8 50.7 7.7C50.9 7.4 50.9 7 50.9 6.5C50.9 6 50.8 5.5 50.7 5.2C50.6 4.9 50.4 4.6 50.1 4.4C49.9 4.2 49.6 4.1 49.2 4C48.9 3.9 48.5 3.9 48.1 3.9H47.6Z" fill="white"/>
<path d="M53.9 4.2V2.7H53.3V2.5H54.6V2.7H54V4.2H53.9Z" fill="white"/>
<path d="M54.9 4.2V2.5H55.2L55.6 3.7C55.6 3.8 55.7 3.9 55.7 3.9C55.7 3.8 55.7 3.7 55.8 3.6L56.2 2.4H56.5V4.1H56.3V2.8L55.8 4.2H55.6L55.1 2.8V4.2H54.9Z" fill="white"/>
</g>
<defs>
<clipPath id="clip0_1_395">
<rect width="58" height="35" fill="white"/>
</clipPath>
</defs>
</svg>
