<?xml version="1.0" encoding="utf-8"?>
<!-- Generator: Adobe Illustrator 27.0.0, SVG Export Plug-In . SVG Version: 6.00 Build 0)  -->
<svg version="1.1" id="Layer_1" xmlns="http://www.w3.org/2000/svg" xmlns:xlink="http://www.w3.org/1999/xlink" x="0px" y="0px"
	 viewBox="0 0 60 35" style="enable-background:new 0 0 60 35;" xml:space="preserve">
<style type="text/css">
	.st0{fill:#FFFFFF;}
</style>
<g>
	<path class="st0" d="M1,12.4C0.5,11.8,0.2,11,0.2,10V3.4c0-1,0.3-1.8,0.8-2.3c0.5-0.5,1.2-0.8,2.2-0.8s1.7,0.3,2.2,0.8
		c0.5,0.5,0.8,1.3,0.8,2.3v1.1H4.2V3.3c0-0.8-0.3-1.2-1-1.2s-1,0.4-1,1.2v6.9c0,0.8,0.3,1.2,1,1.2s1-0.4,1-1.2V7.7h-1V5.9h2.9V10
		c0,1-0.3,1.8-0.8,2.3c-0.5,0.5-1.2,0.8-2.2,0.8S1.5,12.9,1,12.4z"/>
	<path class="st0" d="M7.4,0.4h2.9c1,0,1.8,0.2,2.2,0.7c0.5,0.5,0.7,1.2,0.7,2.2v0.8c0,1.3-0.4,2.1-1.3,2.5v0c0.5,0.1,0.8,0.4,1,0.9
		c0.2,0.4,0.3,1,0.3,1.8v2.2c0,0.4,0,0.6,0,0.9c0,0.2,0.1,0.4,0.2,0.7h-2c-0.1-0.2-0.1-0.4-0.1-0.6c0-0.2,0-0.5,0-1V9.2
		c0-0.6-0.1-1-0.3-1.2c-0.2-0.2-0.5-0.3-1-0.3H9.4V13h-2V0.4z M10.1,5.8c0.4,0,0.7-0.1,0.9-0.3c0.2-0.2,0.3-0.5,0.3-1v-1
		c0-0.5-0.1-0.8-0.2-1c-0.2-0.2-0.4-0.3-0.8-0.3H9.4v3.6H10.1z"/>
	<path class="st0" d="M16.1,0.4h2.7l2,12.6h-2l-0.4-2.5v0h-2.2L15.9,13h-1.8L16.1,0.4z M18.3,8.8l-0.9-6.2h0l-0.9,6.2H18.3z"/>
	<path class="st0" d="M21.8,0.4h2.5L26.2,8h0V0.4H28V13h-2l-2.4-9.2h0V13h-1.8V0.4z"/>
	<path class="st0" d="M29.5,0.4h3c1,0,1.7,0.3,2.2,0.8c0.5,0.5,0.7,1.3,0.7,2.3v6.4c0,1-0.2,1.8-0.7,2.3c-0.5,0.5-1.2,0.8-2.2,0.8
		h-3V0.4z M32.5,11.2c0.3,0,0.6-0.1,0.7-0.3c0.2-0.2,0.3-0.5,0.3-0.9V3.4c0-0.4-0.1-0.7-0.3-0.9c-0.2-0.2-0.4-0.3-0.7-0.3h-1v9H32.5
		z"/>
	<path class="st0" d="M36.8,0.4h2.9c1,0,1.7,0.3,2.2,0.8c0.5,0.5,0.7,1.3,0.7,2.3v1.2c0,1-0.2,1.8-0.7,2.3c-0.5,0.5-1.2,0.8-2.2,0.8
		h-0.9V13h-2V0.4z M39.7,6.1c0.3,0,0.6-0.1,0.7-0.3c0.2-0.2,0.2-0.5,0.2-0.9V3.4c0-0.4-0.1-0.7-0.2-0.9c-0.2-0.2-0.4-0.3-0.7-0.3
		h-0.9v3.9H39.7z"/>
	<path class="st0" d="M44.6,0.4h2.7l2,12.6h-2L47,10.5v0h-2.2L44.4,13h-1.8L44.6,0.4z M46.8,8.8l-0.9-6.2h0L45,8.8H46.8z"/>
	<path class="st0" d="M50,2.3h-0.6V0.4h1.9v1.7l-1.1,2.4h-0.9L50,2.3z"/>
	<path class="st0" d="M53.1,12.4c-0.5-0.5-0.7-1.3-0.7-2.3V9.3h1.9v0.9c0,0.8,0.3,1.2,1,1.2c0.3,0,0.6-0.1,0.8-0.3
		c0.2-0.2,0.3-0.5,0.3-1c0-0.5-0.1-1-0.4-1.4c-0.2-0.4-0.7-0.9-1.3-1.4c-0.8-0.7-1.4-1.4-1.7-1.9c-0.3-0.6-0.5-1.2-0.5-2
		c0-1,0.3-1.8,0.8-2.3c0.5-0.5,1.2-0.8,2.2-0.8c0.9,0,1.7,0.3,2.1,0.8c0.5,0.5,0.7,1.3,0.7,2.3v0.5h-1.9V3.3c0-0.4-0.1-0.7-0.3-0.9
		C56,2.1,55.7,2,55.4,2c-0.7,0-1,0.4-1,1.2c0,0.5,0.1,0.9,0.4,1.3C55,4.9,55.5,5.4,56.1,6c0.8,0.7,1.4,1.4,1.7,2
		c0.3,0.6,0.5,1.3,0.5,2.1c0,1-0.3,1.8-0.8,2.4c-0.5,0.6-1.2,0.8-2.2,0.8C54.3,13.2,53.6,12.9,53.1,12.4z"/>
	<path class="st0" d="M0.4,22h3c1,0,1.7,0.3,2.2,0.8c0.5,0.5,0.7,1.3,0.7,2.3v6.4c0,1-0.2,1.8-0.7,2.3c-0.5,0.5-1.2,0.8-2.2,0.8h-3
		V22z M3.3,32.8c0.3,0,0.6-0.1,0.7-0.3c0.2-0.2,0.3-0.5,0.3-0.9V25c0-0.4-0.1-0.7-0.3-0.9c-0.2-0.2-0.4-0.3-0.7-0.3h-1v9H3.3z"/>
	<path class="st0" d="M7.6,22h2v12.6h-2V22z"/>
	<path class="st0" d="M11.5,33.9c-0.5-0.5-0.7-1.3-0.7-2.3v-0.7h1.9v0.9c0,0.8,0.3,1.2,1,1.2c0.3,0,0.6-0.1,0.8-0.3
		c0.2-0.2,0.3-0.5,0.3-1c0-0.5-0.1-1-0.4-1.4c-0.2-0.4-0.7-0.9-1.3-1.4c-0.8-0.7-1.4-1.4-1.7-1.9c-0.3-0.6-0.5-1.2-0.5-2
		c0-1,0.3-1.8,0.8-2.3c0.5-0.5,1.2-0.8,2.2-0.8c0.9,0,1.7,0.3,2.1,0.8c0.5,0.5,0.7,1.3,0.7,2.3v0.5h-1.9v-0.6c0-0.4-0.1-0.7-0.3-0.9
		c-0.2-0.2-0.4-0.3-0.7-0.3c-0.7,0-1,0.4-1,1.2c0,0.5,0.1,0.9,0.4,1.3c0.2,0.4,0.7,0.9,1.3,1.4c0.8,0.7,1.4,1.4,1.7,2
		c0.3,0.6,0.5,1.3,0.5,2.1c0,1-0.3,1.8-0.8,2.4c-0.5,0.6-1.2,0.8-2.2,0.8C12.7,34.8,12,34.5,11.5,33.9z"/>
	<path class="st0" d="M19.3,23.8h-2.1V22h6.1v1.8h-2.1v10.8h-2V23.8z"/>
	<path class="st0" d="M24.3,22h2v12.6h-2V22z"/>
	<path class="st0" d="M27.8,22h2v10.8H33v1.8h-5.2V22z"/>
	<path class="st0" d="M34,22h2v10.8h3.3v1.8H34V22z"/>
	<path class="st0" d="M40.1,22h5.4v1.8h-3.4v3.3h2.7v1.8h-2.7v3.9h3.4v1.8h-5.4V22z"/>
	<path class="st0" d="M46.7,22h2.9c1,0,1.8,0.2,2.2,0.7c0.5,0.5,0.7,1.2,0.7,2.2v0.8c0,1.3-0.4,2.1-1.3,2.5v0c0.5,0.1,0.8,0.4,1,0.9
		c0.2,0.4,0.3,1,0.3,1.8V33c0,0.4,0,0.6,0,0.9c0,0.2,0.1,0.4,0.2,0.7h-2c-0.1-0.2-0.1-0.4-0.1-0.6c0-0.2,0-0.5,0-1v-2.3
		c0-0.6-0.1-1-0.3-1.2c-0.2-0.2-0.5-0.3-1-0.3h-0.7v5.4h-2V22z M49.4,27.4c0.4,0,0.7-0.1,0.9-0.3c0.2-0.2,0.3-0.5,0.3-1v-1
		c0-0.5-0.1-0.8-0.2-1s-0.4-0.3-0.8-0.3h-0.9v3.6H49.4z"/>
	<path class="st0" d="M55.4,29.2L53,22h2.1l1.3,4.6h0l1.3-4.6h1.9l-2.4,7.2v5.4h-2V29.2z"/>
</g>
</svg>
