<?xml version="1.0" encoding="utf-8"?>
<!-- Generator: Adobe Illustrator 27.0.0, SVG Export Plug-In . SVG Version: 6.00 Build 0)  -->
<svg version="1.1" id="Layer_1" xmlns="http://www.w3.org/2000/svg" xmlns:xlink="http://www.w3.org/1999/xlink" x="0px" y="0px"
	 viewBox="0 0 152 35" style="enable-background:new 0 0 152 35;" xml:space="preserve">
<style type="text/css">
	.st0{fill:url(#SVGID_1_);}
	.st1{fill:#FFFFFF;}
</style>
<g>
	
		<radialGradient id="SVGID_1_" cx="17.5993" cy="17.5" r="17.5" gradientTransform="matrix(0.9947 0 0 0.9947 0.4012 9.238677e-02)" gradientUnits="userSpaceOnUse">
		<stop  offset="0" style="stop-color:#000000"/>
		<stop  offset="0.3726" style="stop-color:#020202"/>
		<stop  offset="0.5069" style="stop-color:#090909"/>
		<stop  offset="0.6026" style="stop-color:#141414"/>
		<stop  offset="0.68" style="stop-color:#252525"/>
		<stop  offset="0.7463" style="stop-color:#3B3B3B"/>
		<stop  offset="0.805" style="stop-color:#575757"/>
		<stop  offset="0.8581" style="stop-color:#777777"/>
		<stop  offset="0.9069" style="stop-color:#9D9D9D"/>
		<stop  offset="0.9523" style="stop-color:#C8C8C8"/>
		<stop  offset="0.9926" style="stop-color:#F6F6F6"/>
		<stop  offset="1" style="stop-color:#FFFFFF"/>
	</radialGradient>
	<circle class="st0" cx="17.9" cy="17.5" r="17.4"/>
	<g>
		<path class="st1" d="M47.5,26.6V8.5h2.2v8h9.6v-8h2.2v18.2h-2.2v-8h-9.6v8H47.5z"/>
		<path class="st1" d="M66.9,32.7l2.6-7.2l0,2.1l-6-14.6H66l4.7,11.8h-0.8L74.3,13h2.3l-7.4,19.7H66.9z"/>
		<path class="st1" d="M78.6,32.7V13h2v10h0.3v9.7H78.6z M84.9,27c-1.3,0-2.4-0.3-3.2-1c-0.9-0.6-1.5-1.5-2-2.6S79,21.2,79,19.8
			c0-1.4,0.2-2.6,0.7-3.7c0.4-1.1,1.1-1.9,2-2.6c0.9-0.6,2-0.9,3.2-0.9c1.3,0,2.3,0.3,3.3,0.9c0.9,0.6,1.6,1.5,2.1,2.6
			c0.5,1.1,0.7,2.3,0.7,3.7s-0.2,2.6-0.7,3.7c-0.5,1.1-1.2,1.9-2.1,2.6C87.2,26.7,86.2,27,84.9,27z M84.6,25c0.9,0,1.6-0.2,2.2-0.7
			c0.6-0.5,1-1.1,1.3-1.8c0.3-0.8,0.4-1.7,0.4-2.6c0-1-0.1-1.8-0.4-2.6c-0.3-0.8-0.7-1.4-1.3-1.8c-0.6-0.5-1.4-0.7-2.3-0.7
			c-0.9,0-1.6,0.2-2.2,0.6c-0.6,0.4-1,1-1.3,1.8c-0.3,0.8-0.4,1.7-0.4,2.7c0,1,0.1,1.9,0.4,2.7c0.3,0.8,0.7,1.4,1.3,1.8
			C82.9,24.7,83.7,25,84.6,25z"/>
		<path class="st1" d="M99.7,27c-1.3,0-2.5-0.3-3.5-0.9c-1-0.6-1.8-1.4-2.3-2.5c-0.6-1.1-0.8-2.3-0.8-3.7c0-1.5,0.3-2.8,0.8-3.9
			c0.5-1.1,1.3-1.9,2.3-2.5c1-0.6,2.1-0.9,3.5-0.9c1.4,0,2.5,0.3,3.5,0.9c1,0.6,1.7,1.5,2.2,2.7c0.5,1.2,0.7,2.6,0.6,4.2h-2.3v-0.8
			c0-1.7-0.4-2.9-1-3.8c-0.7-0.8-1.6-1.2-2.9-1.2c-1.4,0-2.4,0.4-3.2,1.3c-0.7,0.9-1.1,2.2-1.1,3.8c0,1.6,0.4,2.9,1.1,3.7
			c0.7,0.9,1.8,1.3,3.1,1.3c0.9,0,1.7-0.2,2.3-0.6c0.7-0.4,1.2-1,1.6-1.8l2.2,0.7c-0.5,1.2-1.3,2.1-2.4,2.8
			C102.2,26.7,101,27,99.7,27z M94.6,20.5v-1.8h10.1v1.8H94.6z"/>
		<path class="st1" d="M108.7,26.6V13h2v3.3l-0.3-0.4c0.2-0.4,0.4-0.8,0.6-1.2c0.3-0.4,0.5-0.6,0.9-0.9c0.4-0.3,0.8-0.5,1.2-0.6
			c0.4-0.1,0.9-0.2,1.4-0.3c0.5,0,0.9,0,1.3,0.1v2.1c-0.5-0.1-1-0.1-1.6-0.1c-0.6,0.1-1.1,0.3-1.6,0.6c-0.4,0.3-0.8,0.7-1,1.1
			c-0.2,0.4-0.4,0.9-0.5,1.4c-0.1,0.5-0.1,1-0.1,1.6v6.8H108.7z"/>
		<path class="st1" d="M118.3,10.6V8.3h2.2v2.3H118.3z M118.3,26.6V13h2.2v13.6H118.3z"/>
		<path class="st1" d="M130.2,27c-1.4,0-2.5-0.3-3.5-0.9c-1-0.6-1.7-1.5-2.3-2.5c-0.5-1.1-0.8-2.3-0.8-3.7c0-1.4,0.3-2.7,0.8-3.8
			c0.5-1.1,1.3-1.9,2.3-2.5c1-0.6,2.1-0.9,3.5-0.9c1.4,0,2.5,0.3,3.5,0.9c1,0.6,1.7,1.5,2.3,2.5c0.5,1.1,0.8,2.3,0.8,3.7
			c0,1.4-0.3,2.7-0.8,3.8c-0.5,1.1-1.3,1.9-2.3,2.5C132.7,26.7,131.5,27,130.2,27z M130.2,24.9c1.4,0,2.5-0.5,3.1-1.4
			c0.7-0.9,1-2.2,1-3.7c0-1.5-0.3-2.8-1-3.7c-0.7-0.9-1.7-1.4-3.1-1.4c-1,0-1.7,0.2-2.3,0.6c-0.6,0.4-1.1,1-1.4,1.8
			c-0.3,0.8-0.5,1.6-0.5,2.6c0,1.5,0.4,2.8,1.1,3.7C127.8,24.4,128.8,24.9,130.2,24.9z"/>
		<path class="st1" d="M139.5,26.6V13h2v3.6h0.3v10H139.5z M149.2,26.6v-6.8c0-0.6-0.1-1.3-0.2-1.9c-0.1-0.6-0.3-1.1-0.6-1.6
			c-0.3-0.5-0.7-0.9-1.1-1.1c-0.5-0.3-1.1-0.4-1.8-0.4c-0.6,0-1.1,0.1-1.5,0.3c-0.5,0.2-0.9,0.5-1.2,0.9c-0.3,0.4-0.6,0.9-0.8,1.5
			c-0.2,0.6-0.3,1.3-0.3,2.1l-1.5-0.5c0-1.3,0.2-2.4,0.7-3.4c0.5-0.9,1.1-1.7,2-2.2c0.9-0.5,1.9-0.8,3-0.8c0.9,0,1.6,0.1,2.3,0.4
			c0.6,0.3,1.1,0.6,1.6,1.1c0.4,0.5,0.7,1,1,1.5s0.4,1.1,0.5,1.7c0.1,0.6,0.1,1.1,0.1,1.7v7.5H149.2z"/>
	</g>
</g>
</svg>
