<svg width="70" height="35" viewBox="0 0 70 35" fill="none" xmlns="http://www.w3.org/2000/svg">
<path d="M15.1 25.8C16.5 25 18 24.1 19.4 23.2C19.6 23 19.8 22.8 19.8 22.5C19.9 21.4 19.9 20.3 19.8 19.2C19.8 18.9 19.5 18.6 19.4 18.5C15.1 16.7 10.9 14.9 6.6 13.2C6.3 13.1 6 13.1 5.8 13.3C4.3 14 2.9 14.6 1.4 15.3C1.2 15.4 1 15.5 0.7 15.6C0.7 15.3 0.6 15.1 0.6 14.9C0.6 11.6 0.6 8.1 0.6 4.8C0.6 3.6 0.9 2.5 1.6 1.6C2.3 0.8 3 0.4 4 0.4C11.1 0.4 18.2 0.4 25.2 0.4C27 0.4 28.4 1.8 28.6 3.7C28.6 4 28.7 4.3 28.7 4.5C28.7 10 28.7 15.5 28.6 21.1C28.5 25.6 26.5 29.2 22.8 31.6C19 34 15 34.6 10.6 33.4C10.4 33.4 10.3 33.3 10.1 33.1C11.6 32.3 13 31.4 14.5 30.6C14.9 30.3 15.1 30.1 15.1 29.6C15.1 28.6 15.1 27.2 15.1 25.8ZM24 13.1C20.7 11.7 17.3 10.3 14.1 8.8C13 8.3 12.1 8.2 11 8.9C10 9.5 8.8 10 7.7 10.5C8 10.7 8.1 10.7 8.3 10.8C12 12.4 15.6 14 19.3 15.6C19.9 15.9 20.1 16.2 20.1 16.8C20 17.5 20.1 18.1 20.1 18.9C21.4 18.1 22.4 17.6 23.6 16.9C24 16.7 24.1 16.5 24.1 16C23.9 15 23.9 14 24 13.1C24.3 12.8 24.7 12.5 25.1 12.4C26.7 11.9 27.2 10.7 26.9 9.1C26.8 8.7 26.7 8.5 26.4 8.3C23.8 7.2 21.3 6.1 18.7 5C18.5 4.9 18.3 4.8 18.1 4.9C16.9 5.4 15.8 5.9 14.6 6.5C15 6.8 15.1 6.9 15.4 7C18.1 8.2 20.7 9.3 23.3 10.4C23.8 10.7 24.1 10.8 24 11.4C23.8 12 23.9 12.5 24 13.1Z" fill="white"/>
<path d="M15.1 25.8C10.6 23.9 6 22 1.5 20C0.900001 19.7 0.700001 19.4 0.700001 18.7C0.800001 17.8 0.700001 16.9 0.700001 15.9C1 16 1.2 16.1 1.4 16.2C5.8 18.1 10.2 20 14.6 22C15.1 22.2 15.2 22.4 15.2 22.9C15.1 23.8 15.1 24.8 15.1 25.8Z" fill="white"/>
<path d="M2 26.2C4.5 27.3 7.1 28.5 9.6 29.5C9.8 29.6 9.9 29.8 9.9 29.9C9.9 31 9.9 32.2 9.9 33.3C6.1 32.1 3.5 29.8 2 26.2Z" fill="white"/>
<path d="M44.6 2.3C46.9 2.3 48.9 2.2 51.1 2.3C52.9 2.4 53.6 3.4 53.6 5.1C53.6 5.4 53.6 5.7 53.6 6C53.6 7.3 53 8 51.7 8.3C54.4 9.1 53.5 11.1 53.6 12.9C52.6 12.9 51.6 12.9 50.6 12.9C50.6 12.2 50.6 11.6 50.6 10.9C50.6 10.1 50.3 9.7 49.4 9.7C48.8 9.7 48.2 9.7 47.6 9.7C47.6 10.8 47.6 11.8 47.6 12.9C46.6 12.9 45.6 12.9 44.6 12.9C44.6 9.5 44.6 5.9 44.6 2.3ZM47.7 4.7C47.7 5.6 47.7 6.5 47.7 7.4C48.4 7.4 49 7.4 49.6 7.4C50.4 7.4 50.7 6.8 50.6 6.1C50.6 5.1 50.3 4.8 49.5 4.8C48.9 4.7 48.3 4.7 47.7 4.7Z" fill="white"/>
<path d="M38.1 9.2C38.1 8.5 38.1 7.9 38.1 7.3C39.6 7.3 41.1 7.3 42.6 7.3C42.7 8.6 42.8 10.1 42.3 11.4C41.9 12.4 41.1 13 40 13.2C38.6 13.4 37.2 13.5 35.8 13.3C34.2 13.2 33.1 12.2 33 10.6C32.8 8.8 32.8 6.8 33 4.9C33.2 3.2 34.3 2.2 36 2.1C37.3 2 38.7 2 39.9 2.2C41.7 2.5 42.7 3.9 42.6 5.6C41.6 5.6 40.7 5.6 39.7 5.6C39.1 4.5 37.6 4 36.4 4.6C36.1 4.8 35.8 5.1 35.8 5.4C35.8 6.8 35.8 8.3 35.8 9.7C35.8 9.8 35.9 10 35.9 10C36.2 10.8 37.2 10.8 38.7 10.6C39.5 10.5 39.6 9.9 39.5 9.2C39.2 9.2 38.7 9.2 38.1 9.2Z" fill="white"/>
<path d="M66.4 13.1C65.3 13.1 64.4 13.1 63.4 13.1C63.4 10.3 63.4 7.6 63.4 4.8C62.4 4.8 61.6 4.8 60.6 4.8C60.6 3.9 60.6 3.1 60.6 2.3C63.4 2.3 66.4 2.3 69.3 2.3C69.3 3.1 69.3 3.9 69.3 4.7C68.4 4.7 67.5 4.7 66.5 4.7C66.4 7.5 66.4 10.2 66.4 13.1Z" fill="white"/>
<path d="M55.7 2.2C56.7 2.2 57.6 2.2 58.6 2.2C58.6 5.8 58.6 9.4 58.6 13C57.7 13 56.7 13 55.7 13C55.7 9.5 55.7 5.9 55.7 2.2Z" fill="white"/>
<path d="M32.7 15.4C33.7 15.4 34.8 15.4 35.9 15.4C35.9 15.8 35.9 16.2 35.9 16.5C35.9 18.8 35.9 21 35.9 23.3C35.9 24.8 36.3 25.1 37.8 25.2H37.9C40 25.2 40.3 24.9 40.3 22.9C40.4 20.5 40.3 18.1 40.3 15.6C41.4 15.6 42.5 15.6 43.6 15.6C43.6 15.7 43.7 15.7 43.7 15.8C43.7 18.9 43.7 22.1 43.6 25.1C43.5 26.8 42.3 28 40.7 28.1C39 28.3 37.4 28.3 35.7 28.1C34.1 28 32.9 26.8 32.8 25.3C32.7 21.9 32.7 18.7 32.7 15.4ZM40.9 15.8C40.9 16.2 40.9 16.6 40.9 16.9C40.9 19 41 21 40.8 23.1C40.7 25.2 40.1 25.7 38 25.6C37.8 25.6 37.7 25.6 37.5 25.6C36 25.4 35.6 25 35.5 23.5C35.4 21.2 35.4 19.1 35.4 16.8C35.4 16.5 35.4 16.1 35.4 15.8C34.6 15.8 33.8 15.8 33.1 15.8C33.1 18.8 33 21.8 33.1 24.7C33.2 26.4 34.2 27.3 35.8 27.5C37.3 27.7 38.9 27.7 40.4 27.5C42.2 27.3 43.2 26.2 43.2 24.2C43.3 22.9 43.2 21.5 43.2 20.3C43.2 18.8 43.2 17.3 43.2 15.8C42.6 15.8 41.8 15.8 40.9 15.8Z" fill="white"/>
<path d="M58.7 15.5C61.3 15.5 63.8 15.4 66.4 15.5C67.9 15.6 68.9 16.6 69.1 18.2C69.2 19.4 69.3 20.5 69.1 21.6C68.8 23.3 67.9 24.1 66.3 24.4C65 24.6 63.6 24.6 62.2 24.7C62.2 25.7 62.2 26.8 62.2 27.9C61 27.9 59.9 27.9 58.8 27.9C58.7 23.8 58.7 19.6 58.7 15.5ZM59.1 16C59.1 19.8 59.1 23.7 59.1 27.5C59.9 27.5 60.7 27.5 61.5 27.5C61.5 26.7 61.5 25.9 61.5 25.2C61.4 24.4 61.8 24.2 62.5 24.2C63.5 24.2 64.6 24.3 65.6 24.2C67.5 24 68.4 23.1 68.6 21.3C68.7 20.5 68.7 19.6 68.6 18.8C68.4 17.2 67.8 16.3 66.2 16.1C63.9 15.8 61.5 16 59.1 16Z" fill="white"/>
<path d="M46.3 27.8C46.3 23.6 46.3 19.5 46.3 15.5C46.4 15.5 46.4 15.4 46.5 15.4C48.9 15.4 51.3 15.3 53.7 15.5C55.8 15.7 56.8 16.8 56.9 18.9C56.9 19.7 56.9 20.4 56.9 21.2C56.7 23 55.7 24.1 53.9 24.4C53.2 24.5 52.6 24.6 51.9 24.6C51.2 24.6 50.6 24.6 49.8 24.6C49.8 25.2 49.8 25.7 49.8 26.2C49.8 26.7 49.8 27.3 49.8 27.9C48.4 27.8 47.3 27.8 46.3 27.8ZM49.1 27.4C49.1 26.6 49.1 25.9 49.1 25.2C49.1 24.1 49.2 24.1 50.3 24C51.2 24 52.2 24 53.1 24C55 23.9 55.9 23 56.2 21.1C56.3 20.3 56.3 19.7 56.3 18.9C56.1 16.8 55.2 15.8 53 15.7C51.6 15.6 50.1 15.7 48.7 15.7C48 15.7 47.4 15.7 46.7 15.7C46.7 19.6 46.7 23.5 46.7 27.4C47.5 27.4 48.3 27.4 49.1 27.4Z" fill="white"/>
<path d="M61.5 19.9C61.5 17.7 61.5 17.7 63.6 17.7C63.9 17.7 64.1 17.7 64.4 17.7C64.7 17.7 64.8 17.7 65.1 17.8C66 18.1 66.4 19 66.1 20.7C66 21.6 65.6 22 64.6 22.1C63.8 22.1 63 22.1 62.3 22.1C61.7 22.1 61.5 21.8 61.5 21.3C61.6 20.9 61.5 20.4 61.5 19.9ZM62.1 21.8C62.8 21.8 63.4 21.8 63.9 21.8C65.5 21.8 65.7 21.5 65.7 20C65.7 19.7 65.7 19.4 65.6 19.2C65.4 18.9 65.1 18.4 64.8 18.4C63.9 18.3 63 18.4 62 18.4C62.1 19.4 62.1 20.6 62.1 21.8Z" fill="white"/>
<path d="M49.1 19.9C49.1 17.7 49.1 17.7 51.3 17.7C51.7 17.7 52.2 17.6 52.6 17.8C53 18 53.5 18.4 53.6 18.8C53.8 19.6 53.7 20.4 53.6 21.2C53.5 22 52.8 22.1 52.2 22.1C51.4 22.1 50.7 22.1 49.9 22.1C49.3 22.1 49.1 21.8 49.1 21.3C49.1 20.8 49.1 20.4 49.1 19.9ZM49.6 21.8C50.5 21.8 51.4 21.9 52.3 21.8C52.6 21.8 53.1 21.4 53.2 21.1C53.4 20.4 53.4 19.8 53.2 19.1C53.1 18.8 52.6 18.3 52.3 18.3C51.5 18.2 50.5 18.3 49.6 18.3C49.6 19.4 49.6 20.5 49.6 21.8Z" fill="white"/>
</svg>
