<svg width="217" height="35" viewBox="0 0 217 35" fill="none" xmlns="http://www.w3.org/2000/svg">
<g clip-path="url(#clip0_1_152)">
<path d="M8.5 26.7V28.5H2.6V30H8.2V31.8H2.6V34.5H0.199997V26.7H8.5Z" fill="white"/>
<path d="M13 26.7H16L20.3 34.6H17.6L16.9 33.2H12L11.3 34.6H8.7L13 26.7ZM13 31.3H16L14.6 28.6L13 31.3Z" fill="white"/>
<path d="M23.7 31.9C23.7 32.3 23.8 32.6 24 32.7C24.1 32.7 24.2 32.8 24.3 32.8C24.4 32.8 24.6 32.8 24.9 32.8H25.6H27.4H28C28.5 32.8 28.7 32.6 28.7 32.2C28.7 31.9 28.5 31.7 28.2 31.6H27.7H27.2L25.8 31.5H25.1L24 31.4C23.8 31.4 23.6 31.4 23.5 31.4C23.3 31.4 23.1 31.4 22.9 31.3C22.2 31.2 21.8 30.9 21.6 30.3C21.5 30 21.5 29.6 21.5 29.3C21.5 28.6 21.6 28.2 21.7 27.9C21.9 27.4 22.2 27.1 22.7 26.9C23.2 26.7 24.1 26.7 25.6 26.7C25.9 26.7 26.3 26.7 26.8 26.7C27.3 26.7 27.7 26.7 27.9 26.7C28.4 26.7 28.8 26.7 29.2 26.8C29.6 26.9 29.9 27 30.1 27.1C30.4 27.2 30.6 27.5 30.7 27.7C30.9 28 30.9 28.3 30.9 28.8V29.3H28.5V29C28.4 28.7 28.3 28.6 28.1 28.5C28.1 28.5 28 28.5 27.9 28.5C27.7 28.5 27.5 28.5 27.4 28.5H26.8H25.4H24.8C24.6 28.5 24.5 28.5 24.3 28.6C24 28.7 23.9 28.8 23.9 29.2C23.9 29.5 24.1 29.7 24.4 29.8C24.5 29.8 24.6 29.8 24.7 29.8C24.8 29.8 24.9 29.8 25 29.8H25.6L27.8 29.9L29.1 30C29.3 30 29.4 30 29.6 30C29.8 30 29.9 30.1 30.1 30.1C30.9 30.4 31.3 31.1 31.3 32.4C31.3 33.8 30.7 34.5 29.4 34.7C29.3 34.7 29.2 34.7 29.1 34.7C29 34.7 28.8 34.7 28.7 34.7C28.5 34.7 28.2 34.7 27.8 34.7C27.4 34.7 27.2 34.7 27.1 34.7C27 34.7 26.7 34.7 26 34.7C25.4 34.7 24.8 34.7 24.5 34.7C24.4 34.7 24.2 34.7 24.1 34.7C24 34.7 23.8 34.7 23.7 34.7C23.4 34.7 23.1 34.7 22.8 34.6C22.5 34.5 22.3 34.4 22.1 34.2C21.9 34.1 21.8 33.9 21.7 33.6C21.6 33.3 21.5 33 21.5 32.6V32H23.7V31.9Z" fill="white"/>
<path d="M131.1 31.9C131.1 32.3 131.2 32.6 131.4 32.7C131.5 32.7 131.6 32.8 131.7 32.8C131.8 32.8 132 32.8 132.3 32.8H133H134.8H135.4C135.9 32.8 136.1 32.6 136.1 32.2C136.1 31.9 135.9 31.7 135.6 31.6H135.1H134.6L133.2 31.5H132.5L131.3 31.4C131.1 31.4 130.9 31.4 130.8 31.4C130.6 31.4 130.4 31.4 130.2 31.3C129.5 31.2 129.1 30.9 128.9 30.3C128.8 30 128.8 29.6 128.8 29.3C128.8 28.6 128.9 28.2 129 27.9C129.2 27.4 129.5 27.1 130 26.9C130.5 26.7 131.4 26.7 132.9 26.7C133.2 26.7 133.6 26.7 134.1 26.7C134.6 26.7 135 26.7 135.2 26.7C135.7 26.7 136.1 26.7 136.5 26.8C136.9 26.9 137.2 27 137.4 27.1C137.7 27.2 137.9 27.5 138 27.7C138.2 28 138.2 28.3 138.2 28.8V29.3H135.8V29C135.7 28.7 135.6 28.6 135.4 28.5C135.4 28.5 135.3 28.5 135.2 28.5C135 28.5 134.8 28.5 134.7 28.5H134.1H132.7H132.1C131.9 28.5 131.8 28.5 131.6 28.6C131.3 28.7 131.2 28.8 131.2 29.2C131.2 29.5 131.4 29.7 131.7 29.8C131.8 29.8 131.9 29.8 132 29.8C132.1 29.8 132.2 29.8 132.3 29.8H132.9L135.1 29.9L136.4 30C136.6 30 136.7 30 136.9 30C137.1 30 137.2 30.1 137.4 30.1C138.2 30.4 138.6 31.1 138.6 32.4C138.6 33.8 138 34.5 136.7 34.7C136.6 34.7 136.5 34.7 136.4 34.7C136.3 34.7 136.1 34.7 136 34.7C135.8 34.7 135.5 34.7 135.1 34.7C134.7 34.7 134.5 34.7 134.4 34.7C134.3 34.7 134 34.7 133.3 34.7C132.7 34.7 132.1 34.7 131.8 34.7C131.7 34.7 131.5 34.7 131.4 34.7C131.3 34.7 131.1 34.7 131 34.7C130.7 34.7 130.4 34.7 130.1 34.6C129.8 34.5 129.6 34.4 129.4 34.2C129.2 34.1 129.1 33.9 129 33.6C128.9 33.3 128.8 33 128.8 32.6V32H131.1V31.9Z" fill="white"/>
<path d="M32.6 26.7H35V29.6H40.4V26.7H42.8V34.5H40.4V31.6H35V34.5H32.6V26.7Z" fill="white"/>
<path d="M47.1 26.7H44.7V34.6H47.1V26.7Z" fill="white"/>
<path d="M52.3 34.6C52.1 34.6 51.9 34.6 51.7 34.6C51.5 34.6 51.4 34.6 51.2 34.6C50.8 34.6 50.5 34.5 50.2 34.4C49.9 34.3 49.7 34.1 49.5 33.9C49.3 33.7 49.2 33.5 49.1 33.4C49 33.2 48.9 32.8 48.9 32.4C48.8 32 48.8 31.5 48.8 30.8V29.8C48.8 29.5 48.8 29.1 48.9 28.9C48.9 28.6 49 28.4 49.1 28.1C49.3 27.5 49.7 27.1 50.3 26.9C50.5 26.8 50.9 26.8 51.5 26.7C52.1 26.7 52.8 26.6 53.8 26.6H55.5C56.7 26.6 57.5 26.7 57.9 26.8C58.7 27.1 59.2 27.7 59.3 28.6C59.3 28.7 59.3 28.9 59.3 29.1C59.3 29.3 59.3 29.5 59.3 29.7V31C59.3 31.5 59.3 32 59.2 32.3C59.2 32.6 59.1 32.9 59 33.2C58.8 33.6 58.5 33.9 58.2 34.2C57.8 34.4 57.4 34.5 56.8 34.5H55.6L52.3 34.6ZM55.3 32.6C55.7 32.6 56 32.6 56.2 32.6C56.5 32.6 56.7 32.4 56.9 32.1C57 31.8 57.1 31.3 57.1 30.4C57.1 30 57.1 29.6 57 29.4C56.9 29 56.7 28.8 56.4 28.7C56.3 28.7 56.2 28.6 56 28.6C55.9 28.6 55.7 28.6 55.6 28.6H54.1H53.2C53.1 28.6 52.9 28.6 52.7 28.6C52.5 28.6 52.3 28.6 52.3 28.6C52.1 28.6 51.9 28.6 51.8 28.7C51.7 28.8 51.6 28.9 51.5 29C51.4 29.2 51.3 29.8 51.3 30.9C51.3 31.6 51.4 32.1 51.7 32.3C51.9 32.4 52.4 32.5 53.2 32.5L55.3 32.6Z" fill="white"/>
<path d="M64.7 26.7L69.3 32.5V26.7H71.7V34.5H67.8L63.3 28.6V34.5H60.9V26.7H64.7Z" fill="white"/>
<path d="M81 26.7L82.5 32.2L84.6 26.7H87.3L89.4 32.3L90.8 26.7H93.2L91 34.5H88L85.9 29.1L83.9 34.5H80.9L78.7 26.7H81Z" fill="white"/>
<path d="M94.3 26.7H103V28.5H96.7V29.6H102.6V31.3H96.7V32.7H103V34.5H94.3V26.7Z" fill="white"/>
<path d="M108.5 26.7H111.5L115.8 34.6H113.1L112.4 33.2H107.5L106.8 34.6H104.1L108.5 26.7ZM108.6 31.3H111.5L110.1 28.6L108.6 31.3Z" fill="white"/>
<path d="M124.1 26.7C124.4 26.7 124.5 26.7 124.6 26.7C124.7 26.7 124.8 26.7 125 26.7C125.7 26.8 126.2 27 126.5 27.5C126.6 27.7 126.7 27.9 126.7 28C126.7 28.2 126.8 28.4 126.8 28.6C126.8 28.8 126.8 29 126.8 29.2C126.8 29.9 126.7 30.3 126.5 30.7C126.3 31 125.9 31.3 125.3 31.5C126 31.7 126.4 31.9 126.5 32.2C126.7 32.5 126.7 32.9 126.7 33.6V34.6H124.3V33.9C124.3 33.4 124.2 33.1 124.1 32.9C124 32.7 123.7 32.6 123.2 32.6H119.4V34.6H117V26.7H124.1ZM119.6 28.7V30.6H123H123.4H123.8C123.9 30.6 124 30.6 124.1 30.6C124.2 30.6 124.3 30.6 124.3 30.5C124.5 30.4 124.7 30.1 124.7 29.6C124.7 29.3 124.6 29 124.5 28.9C124.4 28.8 124.1 28.7 123.8 28.7H123.1H119.6Z" fill="white"/>
<path d="M150.1 26.7H151.1C151.3 26.7 151.5 26.7 151.7 26.7C151.9 26.7 152.1 26.8 152.3 26.8C153 27 153.5 27.4 153.7 28.2C153.8 28.6 153.9 29.1 153.9 29.6C153.9 31 153.6 31.9 152.9 32.3C152.6 32.5 152.3 32.6 152 32.6C151.9 32.6 151.7 32.6 151.6 32.6C151.5 32.6 151.3 32.6 151.2 32.6H146.9V34.5H144.5V26.6H150.1V26.7ZM146.8 28.7V30.6H149.8H150.5C150.8 30.6 151.1 30.5 151.2 30.3C151.3 30.1 151.4 29.9 151.4 29.6C151.4 29.3 151.3 29.1 151.2 28.9C151.1 28.7 150.9 28.7 150.7 28.7H149.7H146.8Z" fill="white"/>
<path d="M156.9 26.7L160 32.6L163.2 26.7H165.8L161.5 34.5H158.5L154.2 26.7H156.9Z" fill="white"/>
<path d="M175.5 26.7V28.7H172V34.5H169.6V28.7H166.2V26.7H175.5Z" fill="white"/>
<path d="M177.5 32.3H175.2V34.5H177.5V32.3Z" fill="white"/>
<path d="M187.6 26.7V32.5H192.9V34.5H185.2V26.7H187.6Z" fill="white"/>
<path d="M201.3 26.7V28.7H197.9V34.5H195.5V28.7H192V26.7H201.3Z" fill="white"/>
<path d="M209.8 26.7C210 26.7 210.1 26.7 210.2 26.7C210.3 26.7 210.5 26.7 210.6 26.7C210.7 26.7 210.9 26.7 211 26.8C211.1 26.8 211.3 26.9 211.4 26.9C211.7 27 212 27.2 212.1 27.4C212.5 27.9 212.7 28.4 212.7 29.1C212.7 29.4 212.7 29.7 212.8 29.9C212.8 30.2 212.8 30.5 212.8 30.9C212.8 31.6 212.8 32.1 212.7 32.4C212.6 33 212.4 33.4 212.1 33.8C211.8 34.1 211.4 34.4 210.8 34.5C210.5 34.6 210 34.6 209.3 34.6H202.2V26.7H209.8ZM204.9 28.7V32.5H209.2C209.7 32.5 210.1 32.4 210.2 32.2C210.3 32.1 210.4 32 210.4 31.8C210.5 31.6 210.5 31.4 210.5 31.2V30.6C210.5 30.4 210.5 30.2 210.5 30C210.5 29.8 210.5 29.7 210.4 29.5C210.3 29 209.9 28.7 209.2 28.7H204.9Z" fill="white"/>
<path d="M216.8 32.3H214.5V34.5H216.8V32.3Z" fill="white"/>
<path d="M19.7 0.4H21C22.3 0.4 23.5 0.7 24.4 1.3C25.3 1.9 26 2.8 26.5 3.9C27 5.1 27.3 7.4 27.3 10.7C27.3 12.4 27.2 13.6 27.1 14.3C26.9 15.7 26.4 16.8 25.7 17.6C25 18.4 24 19 22.6 19.3C21.9 19.5 20.7 19.5 19 19.5H1.9V12.3H0.199997V7.4H1.9V0.4H19.7ZM7.7 5.3V7.4H11.1V12.3H7.7V14.6H18.2C19.4 14.6 20.3 14.4 20.7 13.9C20.9 13.7 21.1 13.3 21.2 12.9C21.3 12.5 21.4 11.9 21.4 11.3V9.7C21.4 9.2 21.4 8.7 21.4 8.3C21.4 7.9 21.3 7.5 21.2 7.1C21 5.9 20 5.3 18.2 5.3H7.7Z" fill="white"/>
<path d="M31.1 0.4H52.1V4.8H36.9V7.5H51.3V11.6H36.9V15.1H52.3V19.5H31.1V0.4Z" fill="white"/>
<path d="M65.6 0.4H73L83.6 19.6H77L75.2 16.3H63.4L61.7 19.6H55.1L65.6 0.4ZM65.7 11.8H72.8L69.3 5.3L65.7 11.8Z" fill="white"/>
<path d="M104.4 0.4C104.8 0.4 105.1 0.4 105.5 0.4C105.9 0.4 106.2 0.4 106.5 0.5C106.8 0.5 107.2 0.5 107.5 0.6C107.8 0.7 108.1 0.8 108.4 0.9C109.2 1.2 109.8 1.6 110.2 2.2C111.1 3.3 111.6 4.7 111.8 6.3C111.9 7 111.9 7.7 111.9 8.3C111.9 8.9 111.9 9.7 111.9 10.7C111.9 12.4 111.8 13.6 111.7 14.3C111.5 15.7 111 16.8 110.3 17.6C109.6 18.4 108.6 19 107.2 19.3C106.5 19.5 105.3 19.5 103.6 19.5H86.6V0.4H104.4ZM92.4 5.3V14.6H102.9C104.1 14.6 105 14.4 105.4 13.9C105.6 13.7 105.8 13.3 105.9 12.9C106 12.5 106.1 11.9 106.1 11.3V9.7C106.1 9.2 106.1 8.7 106.1 8.3C106.1 7.9 106 7.5 105.9 7.1C105.7 5.9 104.7 5.3 102.9 5.3H92.4Z" fill="white"/>
<path d="M130 0.4H132.1C133 0.4 134 0.5 135 0.6C137.2 0.9 138.5 1.8 138.9 3.5C139.1 4.2 139.2 4.8 139.2 5.5C139.2 7.6 138.5 9 137 9.6L136.3 9.9L137.2 10.1C139 10.6 139.9 12 139.9 14.4C139.9 14.8 139.9 15.2 139.8 15.5C139.8 15.8 139.7 16.1 139.5 16.5C138.9 18.3 137.7 19.3 135.6 19.5C135.4 19.5 135 19.6 134.6 19.6C134.2 19.6 134 19.6 133.9 19.6H115.5V0.4H130ZM121.5 4.8V7.8H131.2C131.6 7.8 131.9 7.8 132.3 7.7C133 7.5 133.4 7.1 133.4 6.3C133.4 5.3 132.5 4.8 130.7 4.8H121.5ZM121.5 12V15.1H132C133.4 15.1 134.1 14.6 134.1 13.6C134.1 12.9 133.8 12.5 133.2 12.2C133.1 12.2 133 12.1 132.8 12.1C132.7 12.1 132.5 12 132.3 12H121.5Z" fill="white"/>
<path d="M143.6 0.4H164.7V4.8H149.4V7.5H163.8V11.6H149.4V15.1H164.8V19.5H143.6V0.4Z" fill="white"/>
<path d="M178.2 0.4H185.6L196.2 19.6H189.6L187.8 16.3H176L174.3 19.6H167.7L178.2 0.4ZM178.3 11.8H185.4L181.9 5.3L178.3 11.8Z" fill="white"/>
<path d="M216.8 0.4V5.3H208.5V19.5H202.6V5.3H194.2V0.4H216.8Z" fill="white"/>
</g>
<defs>
<clipPath id="clip0_1_152">
<rect width="217" height="35" fill="white"/>
</clipPath>
</defs>
</svg>
