<svg width="112" height="35" viewBox="0 0 112 35" fill="none" xmlns="http://www.w3.org/2000/svg">
<path d="M4.6 0.1H1.3V34.9H4.6V0.1Z" fill="white"/>
<path d="M19.9 33.9H17.6L11.6 26.8V33.9H10V20.7H11.6V26.5L17.1 20.7H19.2L13.4 26.5L19.9 33.9Z" fill="white"/>
<path d="M26.8 33.9H25.3V20.7H26.8V33.9Z" fill="white"/>
<path d="M41.1 22.1H37.3V33.8H35.7V22.1H31.9V20.7H41.1V22.1Z" fill="white"/>
<path d="M54.6 33.3C54 33.6 53.4 33.8 52.7 33.9C52.1 34 51.4 34.1 50.8 34.1C49.9 34.1 49 34 48.2 33.7C47.4 33.4 46.6 33 45.9 32.4C44.5 31 43.8 29.3 43.8 27.4C43.8 26.1 44.1 25.1 44.6 24.2C45.1 23.3 45.7 22.6 46.2 22.1C46.7 21.6 47.2 21.3 47.7 21.1C48.2 20.9 48.6 20.8 48.9 20.7C49.2 20.6 49.5 20.6 49.8 20.5C50.1 20.5 50.4 20.4 50.7 20.4C51.1 20.4 51.6 20.4 52.1 20.5C52.6 20.6 53.1 20.7 53.6 20.8L54.6 21.2V23C53.5 22.2 52.3 21.8 51 21.8C50.1 21.8 49.3 22 48.5 22.3C47.7 22.7 47.1 23.2 46.5 24C46.2 24.5 45.9 25 45.8 25.5C45.6 26.1 45.5 26.6 45.5 27.2C45.5 28.2 45.8 29.1 46.3 30C46.8 30.9 47.5 31.5 48.4 32C49.3 32.4 50.2 32.7 51.1 32.7C52.1 32.7 53 32.5 53.7 32L54.6 31.4V33.3Z" fill="white"/>
<path d="M70.9 33.9H69.4V27.4H62.1V33.9H60.6V20.8H62.1V26H69.4V20.8H70.9V33.9Z" fill="white"/>
<path d="M84.1 33.9H77V20.7H84.1V22.1H78.5V26H84.1V27.3H78.5V32.4H84.1V33.9Z" fill="white"/>
<path d="M101.6 34.2H101.3L91.7 23.7V34H90.2V20.4H90.6L100.1 30.9V20.7H101.6V34.2Z" fill="white"/>
<path d="M21.6 7.7C21.6 9.6 20.9 11.3 19.6 12.7C18.3 14.1 16.6 14.8 14.6 14.8C12.6 14.8 10.9 14.1 9.5 12.8C8.1 11.5 7.4 9.9 7.4 7.9C7.4 6 8.1 4.3 9.4 2.9C10.8 1.5 12.4 0.8 14.4 0.8C16.4 0.8 18.1 1.5 19.5 2.8C20.9 4.1 21.6 5.8 21.6 7.7ZM20 7.6C20 6.1 19.5 4.8 18.4 3.8C17.3 2.8 16 2.2 14.5 2.2C13 2.2 11.7 2.7 10.7 3.8C9.6 5 9 6.3 9 7.8C9 9.3 9.5 10.6 10.6 11.6C11.7 12.6 13 13.2 14.5 13.2C16 13.2 17.3 12.7 18.3 11.6C19.4 10.5 20 9.2 20 7.6Z" fill="white"/>
<path d="M37.6 14.6H37.3L27.7 4.1V14.4H26.2V0.900001H26.6L36 11.4V1.2H37.5V14.6H37.6Z" fill="white"/>
<path d="M50 14.3H43.5V1.2H45.1V12.9H50V14.3Z" fill="white"/>
<path d="M63.1 1.2L58.8 8.4V14.3H57.2V8.5L52.7 1.3H54.7L58.1 7.2L61.3 1.4L63.1 1.2Z" fill="white"/>
<path d="M110.7 23.8C110.7 25.5 109.4 26.9 107.6 26.9C105.9 26.9 104.5 25.6 104.5 23.8C104.5 22.1 105.9 20.8 107.6 20.8C109.4 20.7 110.7 22.1 110.7 23.8ZM105.3 23.8C105.3 25.1 106.3 26.2 107.7 26.2C109 26.2 110 25.1 110 23.8C110 22.5 109 21.4 107.7 21.4C106.3 21.4 105.3 22.4 105.3 23.8ZM107.1 25.4H106.4V22.4C106.7 22.3 107.1 22.3 107.6 22.3C108.2 22.3 108.4 22.4 108.7 22.5C108.9 22.6 109 22.9 109 23.2C109 23.5 108.7 23.8 108.4 23.9C108.7 24 108.9 24.2 109 24.6C109.1 25.1 109.1 25.2 109.2 25.4H108.4C108.3 25.3 108.3 25 108.2 24.7C108.1 24.4 108 24.2 107.6 24.2H107.3V25.4H107.1ZM107.1 23.6H107.4C107.8 23.6 108.1 23.5 108.1 23.2C108.1 22.9 107.9 22.7 107.5 22.7C107.3 22.7 107.2 22.7 107.1 22.7V23.6Z" fill="white"/>
</svg>
