<svg width="200" height="35" viewBox="0 0 200 35" fill="none" xmlns="http://www.w3.org/2000/svg">
<path d="M2.5 9.6H0V8.6C0.8 8.4 1.7 8 2.6 7.5C3.5 6.7 4.3 6.2 5.1 5.4C5.9 4.6 6.6 3.9 7.2 3.1C7.8 2.3 8.1 1.6 8.5 1H9.4V8.2H14.1L13.5 9.5H9.5V19.3V21.2C9.5 22.1 9.7 23.1 10.3 23.5C10.7 24.1 11.2 24.3 12 24.3C12.9 24.3 13.7 23.9 14.1 23.2C14.5 22.4 14.7 21.5 14.7 20.6H15.3C15.3 21.9 14.9 23.1 14.2 24.2C13.4 25.1 11.7 25.7 9.1 25.7C7.4 25.7 5.9 25.3 4.8 24.4C3.5 23.5 2.9 22.3 2.9 20.8V9.6H2.5Z" fill="white"/>
<path d="M29.3 12.8L28.5 10.7C28.3 10.1 28.1 9.8 27.9 9.6C27.8 9.2 27.6 9 27.2 9H26.4V8.4H37.4V8.8H36.8C36.6 8.8 36.4 8.8 36 9C35.6 9 35.4 9.4 35.4 9.9C35.4 10.1 35.4 10.3 35.4 10.5C35.4 10.7 35.6 11.1 35.8 11.8C36 12.6 36.4 13.7 36.9 15C37.5 16.5 37.8 17.6 38 18.4L40.5 12C41 11.1 41 10.3 41 9.9C41 9.5 41 9.3 40.8 9.1C40.6 9 40.5 9 40.1 9C39.7 9 39.5 9 39.3 9C39.1 9 38.9 9 38.7 9V8.4H45.1V8.8L43.9 9C43.1 9.2 42.6 9.9 41.8 11.5L36.5 25.5H33.9L29.7 13.6L25 25.4H22.5C22.1 24.5 21.7 23.3 21.4 22.2C21 21.1 20.3 19.2 19.3 16.3C18.3 13.4 17.6 11.6 17.4 10.8C17 10 16.8 9.5 16.6 9.3C16.4 9.2 16.3 9 16.1 9C15.7 8.8 15.3 8.8 15.2 8.8C15 8.8 14.6 8.8 14.4 8.8V8.2H25.7V8.8H25.5C25.3 8.8 25.1 8.8 24.9 9C24.5 9 24.3 9.4 24.3 9.9C24.3 10.1 24.3 10.3 24.3 10.5C24.3 10.7 24.5 11.1 24.7 11.6C24.9 12.2 25.3 13.1 25.6 14.4C26 15.7 26.5 17 27.1 18.6L29.3 12.8Z" fill="white"/>
<path d="M62.8 20C62 21.9 61.1 23.2 59.6 24.2C58.1 25.1 56.4 25.7 54.3 25.7C51.5 25.7 49.2 24.9 47.3 23.4C45.4 21.9 44.5 19.6 44.5 16.8C44.5 14.2 45.4 12.1 47.3 10.4C49.2 8.7 51.5 7.9 54.1 7.9C56.9 7.9 59 8.7 60.5 10.2C62 11.7 62.8 13.6 62.8 15.9H51.6C51.6 16.8 51.6 17.6 51.8 18.5C52 19.4 52.2 20.2 52.6 21.1C53 21.9 53.5 22.6 54.1 23.2C54.9 23.8 55.6 24 56.7 24C58.2 24 59.3 23.6 60.3 22.7C61.2 21.9 61.8 20.8 62.2 19.7L62.8 20ZM56.3 15.2C56.3 15 56.3 14.6 56.3 14.3C56.3 14 56.3 13.5 56.3 13C56.3 11.5 56.1 10.4 55.7 9.6C55.3 8.8 54.8 8.5 53.8 8.5C53 8.5 52.5 8.9 52.3 9.6C51.9 10.4 51.7 11.5 51.7 13V15.3H56.3V15.2Z" fill="white"/>
<path d="M77.3 13.3V11.8C77.3 9.9 76.7 9 75.4 9C74.6 9 73.9 9.2 73.7 9.8C73.3 10.4 73.1 10.9 72.9 11.5V20.8V22.5C72.9 23.4 72.9 24.2 73.1 24.4C73.3 24.6 73.9 24.8 74.6 24.8V25.4H63.5V24.8H64.4C65.2 24.8 65.5 24.6 65.7 24.2C65.9 24 65.9 23.4 65.9 22.5V20.8V12V10.5C65.9 9.9 65.7 9.6 65.7 9.2C65.7 8.8 64.9 9 64 8.8H63.2V8.2H72.5V10.8C72.7 10 73.3 9.5 74 8.7C74.8 7.9 76.1 7.8 78 7.8C79.7 7.8 81.2 8.4 82.3 9.3C83.6 10.2 84.2 11.4 84.2 12.7V20.8V22.5C84.2 23.4 84.2 24 84.4 24.2C84.6 24.4 85 24.6 85.7 24.8H86.5V25.4H75.4V24.8C76.3 24.8 76.7 24.6 76.9 24.4C77.1 24.2 77.3 23.5 77.3 22.5V20.8V13.3Z" fill="white"/>
<path d="M89 9.6H86.5V8.6C87.3 8.4 88.2 8 89.1 7.5C90 6.9 90.8 6.2 91.7 5.4C92.5 4.6 93.2 3.9 93.8 3.1C94.4 2.3 94.7 1.6 95.1 1H96V8.2H100.7L100.1 9.5H95.9V19.3V21.2C95.9 22.1 96.1 23.1 96.7 23.5C97.1 24.1 97.6 24.3 98.4 24.3C99.3 24.3 100.1 23.9 100.5 23.2C100.9 22.4 101.1 21.5 101.1 20.6H101.7C101.7 21.9 101.3 23.1 100.6 24.2C99.8 25.1 98.1 25.7 95.5 25.7C93.8 25.7 92.3 25.3 91.2 24.4C89.9 23.5 89.3 22.3 89.3 20.8V9.6H89Z" fill="white"/>
<path d="M103.2 10.7C102.8 10.1 102.6 9.8 102.4 9.4C102.2 9.2 102 9 101.6 8.8H100.3V8.2H112V8.8H111.4C111.2 8.8 111 8.8 110.6 8.8C110.2 8.8 110.2 9.2 110.2 9.6C110.2 9.8 110.2 10 110.4 10.4C110.6 10.8 110.6 11 110.8 11.3L113.6 17.9C113.8 17.3 114.2 16.4 114.7 15.1C115.2 13.8 115.6 12.6 116 11.7C116.4 10.8 116.4 10.2 116.4 9.8C116.4 9.4 116.4 9.2 116.2 9.2C116 9 115.8 9 115.3 8.8H114.2V8.2H120.2V8.8C120 8.8 119.8 8.8 119.8 8.8C119.6 8.8 119.4 8.8 118.9 9C118.5 9 118.1 9.4 117.8 9.6C117.4 10 117 11.1 116.3 13.2C115.6 15.3 114.6 17.4 113.8 19.6C112.9 21.9 111.9 24.1 110.8 26.6C109.7 29.1 108.7 30.8 107.6 32.1C106.7 33.2 105.3 34 103.6 34C102.7 34 101.7 33.6 101 33.1C100.2 32.5 99.9 31.6 99.9 30.6C99.9 29.7 100.3 28.9 100.8 28.1C101.4 27.3 102.3 27.2 103.3 27.2C104.2 27.2 105.2 27.6 105.8 28.1C106.4 28.6 106.7 29.4 106.7 30.2C106.7 31 106.5 31.7 105.9 32.1C105.5 32.7 105.1 32.9 105.1 33C105.3 33 105.5 33 105.9 33C106.5 32.8 106.8 32.2 107.4 31.7C108 30.9 108.3 30.4 108.7 29.6C109.1 28.8 109.5 28.1 109.8 27C109.2 25.7 108.7 24.2 107.9 22.3C107.1 20.4 106.2 18.5 105.3 16.3C104.5 13.5 103.8 11.8 103.2 10.7Z" fill="white"/>
<path d="M148.2 16.7C148.2 19.2 147.3 21.4 145.4 23.1C143.5 24.8 141.2 25.6 138.6 25.6C135.8 25.6 133.5 24.8 131.6 23.1C129.7 21.4 128.8 19.3 128.8 16.7C128.8 14.2 129.7 12 131.6 10.3C133.5 8.6 135.8 7.8 138.6 7.8C141.2 7.8 143.5 8.6 145.4 10.3C147.3 12 148.2 14.1 148.2 16.7ZM141 16.7C141 16.3 141 15.8 141 14.6C141 13.4 141 12.9 141 12.7C141 11.4 140.8 10.2 140.4 9.5C140 8.7 139.5 8.2 138.5 8.2C137.7 8.2 137.2 8.6 136.8 9.5C136.4 10.4 136.2 11.4 136.2 12.7C136.2 13.1 136.2 13.6 136.2 14.4C136.2 15 136.2 15.7 136.2 16.5C136.2 16.9 136.2 17.4 136.2 18.6C136.2 19.7 136.2 20.3 136.2 20.5C136.2 21.8 136.4 23 136.8 23.7C137.2 24.5 137.7 25 138.7 25C139.5 25 140 24.6 140.6 23.7C141 22.8 141.2 21.8 141.2 20.5C141.2 19.9 141.2 19.4 141.2 18.8C141 18.3 141 17.5 141 16.7Z" fill="white"/>
<path d="M171.6 24.7C170.8 24.7 170.5 24.5 170.3 24.1C170.1 23.9 170.1 23.3 170.1 22.4V20.7V12.6C170.1 11.3 169.5 10.1 168.2 9.2C166.9 8.3 165.6 7.7 163.9 7.7C162 7.7 160.7 8.1 159.9 8.6C159.1 9.4 158.8 9.9 158.4 10.7V8H149.1V8.8H149.9C150.7 8.8 151 9 151.2 9.4C151.4 9.8 151.4 10.2 151.4 10.7V12.2V14.7H158.4V11.7C158.6 11.1 159 10.6 159.2 10C159.6 9.4 160.1 9.2 160.9 9.2C162.2 9.2 162.8 10.1 162.8 12V13.5V20.9V22.6C162.8 23.5 162.6 24.1 162.4 24.5C162.2 24.7 161.6 24.9 160.9 24.9V25.5H172V24.9L171.6 24.7ZM158.8 24.3C158.6 24.1 158.6 23.4 158.6 22.4V21.6H151.6V22.4C151.6 23.3 151.6 23.9 151.4 24.1C151.2 24.3 150.8 24.5 150.1 24.7H149.2V25.3H160.4V24.7C159.5 24.7 159 24.5 158.8 24.3Z" fill="white"/>
<path d="M191.1 20C190.3 21.9 189.4 23.2 187.9 24.2C186.4 25.1 184.7 25.7 182.6 25.7C179.8 25.7 177.5 24.9 175.6 23.4C173.7 21.9 172.8 19.6 172.8 16.8C172.8 14.2 173.7 12.1 175.6 10.4C177.5 8.7 179.8 7.9 182.4 7.9C185.2 7.9 187.3 8.7 188.8 10.2C190.3 11.7 191.1 13.6 191.1 15.9H180C180 16.8 180 17.6 180.2 18.5C180.4 19.4 180.6 20.2 181 21.1C181.4 21.9 181.9 22.6 182.5 23.2C183.3 23.8 184.2 24 185.1 24C186.6 24 187.7 23.6 188.7 22.7C189.6 21.9 190.2 20.8 190.6 19.7L191.1 20ZM184.9 15.2C184.9 15 184.9 14.6 184.9 14.3C184.9 14 184.9 13.5 184.9 13C184.9 11.5 184.7 10.4 184.3 9.6C183.9 8.8 183.4 8.5 182.4 8.5C181.6 8.5 181.1 8.9 180.9 9.6C180.5 10.4 180.3 11.5 180.3 13V15.3H184.9V15.2Z" fill="white"/>
<path d="M192.8 22C192.8 21.1 193.2 20.3 193.9 19.5C194.7 18.7 195.4 18.6 196.4 18.6C197.3 18.6 198.3 19 198.9 19.5C199.7 20.3 200 21 200 22C200 23 199.6 23.9 198.9 24.5C198.1 25.3 197.4 25.4 196.3 25.4C195.4 25.4 194.4 25 193.8 24.5C193.2 23.9 192.8 23 192.8 22Z" fill="white"/>
<path d="M151.6 19.8C151.8 19.6 152 19.4 152.4 19.2C152.6 19 152.8 18.8 153 18.6C153.4 18.2 153.6 18 153.6 17.8C153.8 17.6 153.8 17.4 153.8 17C153.8 16.6 153.8 16.4 153.6 16.2C153.4 16 153.2 16 153 16C152.8 16 152.6 16 152.6 16.2C152.4 16.2 152.4 16.4 152.4 16.4C152.4 16.6 152.4 16.6 152.6 16.6C152.8 16.6 152.8 16.6 153 16.8C153 16.8 153.2 17 153.2 17.2C153.2 17.4 153.2 17.4 153 17.6C152.8 17.8 152.8 17.8 152.6 17.8C152.4 17.8 152.2 17.8 152 17.6C151.8 17.4 151.8 17.4 151.8 17.2C151.8 17 151.8 16.8 152 16.6C152.2 16.4 152.4 16.2 152.6 16.2C152.8 16.2 153 16 153.2 16C153.4 16 153.6 16 153.6 16C154 16 154.4 16 154.7 16.2C155 16.4 155.1 16.6 155.1 17C155.1 17.2 155.1 17.4 154.9 17.6C154.7 17.8 154.5 18 154.5 18C154.3 18 154.1 18.2 153.7 18.4C153.3 18.6 153.1 18.6 153.1 18.8C153.1 18.8 153.3 18.8 153.5 18.8C153.7 18.8 153.7 18.8 153.9 18.8H154.7C154.9 18.8 155.1 18.8 155.1 18.8L155.3 18.6V18.4V18.2L154.9 19.7H151.6V19.8Z" fill="white"/>
<path d="M157.3 19.2V19.4C157.3 19.6 157.3 19.6 157.3 19.6C157.3 19.6 157.3 19.6 157.5 19.6H157.7H157.9H155.4C155.4 19.6 155.4 19.6 155.6 19.6H155.8H156V19.4V19.2V16.7V16.5C156 16.3 156 16.3 156 16.3H155.8H155.6H155.4H157.3C157.3 16.4 157.3 19.2 157.3 19.2Z" fill="white"/>
</svg>
