<svg width="157" height="35" viewBox="0 0 157 35" fill="none" xmlns="http://www.w3.org/2000/svg">
<path d="M0.900002 0.6H13.1V1.4H10L16.9 24.2C18 21.1 18.8 18.4 19.6 16.2C20.3 14 20.9 12.1 21.4 10.6C21.9 9.1 22.3 7.9 22.6 7C22.9 6.1 23.1 5.4 23.2 4.8C23.3 4.3 23.4 3.9 23.4 3.6C23.4 3.4 23.4 3.1 23.4 3C23.4 2.6 23.3 2.2 23 2C22.8 1.8 22.4 1.6 22.1 1.5C21.7 1.4 21.3 1.4 20.9 1.4C20.5 1.4 20.1 1.4 19.8 1.4H19.7V0.6H28.8V1.4H28.4C27.6 1.4 27 1.4 26.6 1.5C26.2 1.5 25.8 1.7 25.6 1.9C25.3 2.1 25.1 2.5 24.9 3.1C24.7 3.6 24.5 4.4 24.2 5.3L14.4 35L3.6 1.5H0.900002V0.6Z" fill="white"/>
<path d="M32 0.6H44.3V1.4H40.7V32.8H44.3V33.6H32V32.8H35.1V1.5H32V0.6Z" fill="white"/>
<path d="M51.2 21.9H52C52.1 23.6 52.4 25.1 52.8 26.5C53.2 27.9 53.8 29.1 54.5 30C55.2 31 56.2 31.8 57.3 32.3C58.4 32.8 59.8 33.1 61.3 33.1C62.3 33.1 63.1 33 63.9 32.7C64.7 32.4 65.3 32 65.8 31.4C66.3 30.9 66.7 30.2 66.8 29.4C67 28.6 67 27.8 66.7 26.9C66.4 25.9 65.8 25.2 64.8 24.6C63.8 24 62.6 23.4 61.3 22.8C60.1 22.3 59 21.7 57.8 21.1C56.6 20.5 55.5 19.7 54.5 18.7C53.5 17.8 52.6 16.6 52 15.3C51.4 14 51 12.4 51 10.4C51 10.1 51 9.8 51 9.4C51 9 51.1 8.7 51.1 8.3C51.5 5.6 52.4 3.6 53.8 2.3C55.3 1 57.2 0.3 59.7 0.1C61.1 0.1 62.2 0.3 63.2 0.7C64.1 1.2 64.9 1.6 65.5 2C66 2.7 66.5 3 66.9 3C67.4 3 67.6 2.8 67.7 2.3C67.8 1.9 67.8 1.4 67.8 1H68.6V11H67.8C67.6 9.5 67.3 8.2 66.9 7C66.5 5.8 66 4.8 65.3 3.9C64.7 3.1 63.9 2.4 62.9 1.9C62 1.4 60.9 1.2 59.6 1.2C58.7 1.2 57.9 1.3 57.1 1.5C56.3 1.7 55.6 2.1 55 2.6C54.4 3.1 54 3.7 53.7 4.5C53.4 5.3 53.3 6.2 53.3 7.2C53.4 8.1 53.6 8.9 54 9.5C54.4 10.1 54.9 10.7 55.5 11.2C56.1 11.7 56.8 12.1 57.6 12.5C58.4 12.9 59.2 13.2 60.1 13.5C61.2 13.9 62.3 14.4 63.4 15C64.5 15.5 65.5 16.2 66.5 17C67.4 17.8 68.2 18.8 68.9 19.9C69.5 21.1 69.9 22.5 70.1 24.1C70.2 25.6 70 27 69.5 28.2C69.1 29.4 68.4 30.5 67.6 31.4C66.8 32.3 65.8 33 64.7 33.5C63.6 34 62.3 34.2 61 34.2C59.7 34.2 58.6 34 57.6 33.6C56.6 33.2 55.7 32.8 55 32.5C54.6 32.3 54.2 32.1 53.9 31.9C53.6 31.8 53.2 31.7 52.9 31.7C52.5 31.7 52.3 32 52.1 32.5C52 33 51.9 33.5 51.8 33.9H51.1V21.9H51.2Z" fill="white"/>
<path d="M76.5 0.6H88.8V1.4H85.2V32.8H88.8V33.6H76.5V32.8H79.6V1.5H76.5V0.6Z" fill="white"/>
<path d="M108.1 0C110 0 111.7 0.5 113.3 1.5C114.9 2.5 116.2 3.8 117.4 5.5C118.6 7.2 119.4 9 120.1 11.1C120.7 13.2 121 15.2 121 17.3C121 19.4 120.7 21.5 120.1 23.5C119.5 25.5 118.6 27.4 117.4 29C116.3 30.6 114.9 31.9 113.3 32.9C111.7 33.9 110 34.4 108.1 34.4C106.2 34.4 104.4 33.9 102.8 32.9C101.2 31.9 99.9 30.6 98.7 28.9C97.6 27.2 96.7 25.4 96.1 23.3C95.5 21.2 95.2 19.1 95.2 17C95.2 15 95.5 12.9 96.2 10.9C96.9 8.9 97.8 7.1 99 5.5C100.2 3.9 101.5 2.6 103.1 1.6C104.7 0.5 106.3 0 108.1 0ZM108.2 0.8C107.1 0.8 106.2 1.1 105.5 1.6C104.7 2.1 104.1 2.9 103.6 3.8C103.1 4.7 102.6 5.7 102.3 6.9C102 8 101.7 9.2 101.6 10.4C101.4 11.6 101.3 12.8 101.2 14C101.1 15.2 101.1 16.2 101.1 17.1C101.1 18.1 101.1 19.1 101.2 20.3C101.2 21.5 101.4 22.7 101.5 23.9C101.7 25.1 101.9 26.3 102.2 27.4C102.5 28.6 102.9 29.6 103.4 30.5C103.9 31.4 104.5 32.1 105.3 32.7C106.1 33.2 107 33.5 108.1 33.5C109.2 33.5 110.1 33.2 110.9 32.7C111.7 32.1 112.3 31.4 112.8 30.5C113.3 29.6 113.7 28.6 113.9 27.4C114.2 26.2 114.4 25 114.5 23.8C114.6 22.6 114.7 21.4 114.7 20.2C114.7 19 114.7 18 114.7 17.1C114.7 16.3 114.7 15.3 114.6 14.2C114.6 13.1 114.4 11.9 114.3 10.7C114.1 9.5 113.9 8.3 113.6 7.1C113.3 5.9 112.9 4.9 112.4 3.9C111.9 3 111.3 2.2 110.6 1.6C110.1 1.1 109.2 0.8 108.2 0.8Z" fill="white"/>
<path d="M126.7 32.9C127.7 32.9 128.5 32.9 129 32.8C129.6 32.8 130 32.6 130.2 32.3C130.4 32 130.6 31.6 130.6 31C130.6 30.4 130.7 29.6 130.7 28.5V2.1L130.1 1.5H126.7V0.6H136.7L151.1 24.2V5.6C151.1 4.5 151.1 3.7 151 3.2C151 2.6 150.8 2.2 150.6 2C150.4 1.8 150.1 1.6 149.7 1.6C149.3 1.6 148.8 1.6 148.1 1.6H147V0.6H156V1.4H154.9C154.2 1.4 153.7 1.4 153.3 1.4C152.9 1.4 152.6 1.6 152.4 1.8C152.2 2 152.1 2.5 152 3C152 3.6 151.9 4.4 151.9 5.4V34H149.4L131.7 4.5V27.7C131.7 29 131.7 30 131.7 30.7C131.7 31.4 131.9 31.9 132.1 32.2C132.3 32.5 132.8 32.7 133.3 32.7C133.9 32.7 134.7 32.8 135.7 32.8V33.6H126.6V32.9H126.7Z" fill="white"/>
</svg>
