<?xml version="1.0" encoding="utf-8"?>
<!-- Generator: Adobe Illustrator 27.0.0, SVG Export Plug-In . SVG Version: 6.00 Build 0)  -->
<svg version="1.1" id="Layer_1" xmlns="http://www.w3.org/2000/svg" xmlns:xlink="http://www.w3.org/1999/xlink" x="0px" y="0px"
	 viewBox="0 0 107 35" style="enable-background:new 0 0 107 35;" xml:space="preserve">
<style type="text/css">
	.st0{fill:#FFFFFF;}
</style>
<g>
	<polygon class="st0" points="9.9,24.3 9.7,24.3 5.8,0 0.5,0 7.6,34.8 12,34.8 19.1,0 13.9,0 	"/>
	<path class="st0" d="M74.4,15h-6l3-14.9h-5.3L63.7,15h-3.2L58.2,0h-5.3l3,14.9H45.1V0h-4.9V15h-4.5l0,0h-8.6V4.8h9.8V0H22.1v34.8
		H37v-4.9h-9.9V19.7h3.2l0,0h9.9v15.2H55v-4.9h-9.9V19.8h11.7L59.9,35h4.4l3.1-15.2h7V35h14.8V30h-9.8V19.8H88l0,0l0,0V15h-8.6V4.8
		h9.8V0H74.4V15z M62.2,24.3L62.2,24.3l-0.8-4.7H63L62.2,24.3z"/>
	<polygon class="st0" points="90,0 90,4.7 95.8,4.7 95.8,34.8 100.7,34.8 100.7,4.7 106.5,4.7 106.5,0 	"/>
</g>
</svg>
