<svg width="155" height="35" viewBox="0 0 155 35" fill="none" xmlns="http://www.w3.org/2000/svg">
<g clip-path="url(#clip0_1_562)">
<path d="M20.7 11C20.8 11 20.8 11 20.9 11.1C20.9 11.1 21 11.1 21.1 11.1H21C22.6 11.3 24.2 11.4 25.9 11.4H26.3C28.4 11.4 30.5 11.1 32.5 10.5C33.7 10.2 34.7 9.6 35.6 8.8C36 8.5 36.2 8.1 36.5 7.7C36.7 7.4 36.7 7 36.7 6.7C36.7 6.3 36.6 5.8 36.3 5.4C36 4.9 35.7 4.6 35.2 4.2C34.1 3.3 32.9 2.7 31.6 2.3C30.1 1.8 28.6 1.4 27.1 1.2C26.1 1 25 0.9 23.9 0.9C23.6 0.9 23.4 0.9 23.1 0.9C21.2 1 19.4 1.3 17.7 1.9C14.8 2.8 12.3 4.3 10.2 6.3C9.3 7 8.7 7.9 8.3 8.9C8.3 9.2 8.2 9.4 8.2 9.6V9.7C8.2 9.9 8.3 10 8.4 10.2C8.5 10.3 8.5 10.4 8.5 10.4C8.5 10.5 8.5 10.6 8.4 10.6C8.3 10.7 8.2 10.7 8 10.7C7.8 10.7 7.7 10.6 7.6 10.5C7.4 10.3 7.3 10.1 7.2 9.8C7.2 9.5 7.3 9.2 7.4 8.9C7.8 8 8.3 7.2 8.9 6.5C10 5.2 11.3 4.2 12.7 3.3C15.4 1.6 18.4 0.6 21.7 0.2C22.7 0.1 23.7 0 24.7 0C25.6 0 26.6 0 27.5 0.1C29.7 0.3 31.8 0.8 33.9 1.7C34.8 2.1 35.6 2.6 36.4 3.2C36.8 3.5 37.2 3.9 37.5 4.3C38.2 5.1 38.5 6 38.5 6.9C38.5 7.3 38.4 7.7 38.3 8.1C38.1 8.8 37.7 9.5 37.2 10C36.5 10.8 35.6 11.4 34.6 11.8C33 12.5 31.4 12.9 29.7 13.1C28.5 13.3 27.3 13.3 26.1 13.3H26C25.9 13.3 25.8 13.3 25.8 13.3L25.9 13.4C25.9 13.4 26 13.4 26 13.5H26.1C26.7 13.8 27.3 14.1 27.9 14.5C28.9 15.2 29.7 16.1 30.1 17.3C30.1 17.4 30.2 17.5 30.2 17.5H30.3C30.4 17.5 30.4 17.5 30.5 17.5C30.9 17.4 31.3 17.4 31.7 17.3C32.6 17.1 33.5 17 34.4 16.8C35.5 16.6 36.6 16.5 37.7 16.5C37.9 16.5 38.1 16.5 38.3 16.5C38.4 16.5 38.5 16.5 38.6 16.6C38.7 16.6 38.7 16.7 38.7 16.8C38.7 16.9 38.7 17 38.6 17C38.5 17 38.5 17.1 38.4 17.1C37.6 17.2 36.9 17.3 36.1 17.5C35.6 17.6 35.2 17.7 34.7 17.8C34.1 17.9 33.6 18 33 18.1C32.2 18.3 31.4 18.4 30.6 18.5C30.5 18.5 30.4 18.5 30.4 18.6C30.4 18.6 30.3 18.7 30.3 18.8V19.2C30.3 20.5 30.1 21.6 29.6 22.7C29 23.9 28.4 25 27.5 26C25.2 28.7 22.5 30.8 19.3 32.3C16.8 33.6 14.1 34.4 11.2 34.8C10.6 34.9 9.9 35 9.2 35C8 35 6.7 34.9 5.4 34.6C4.7 34.4 4 34.1 3.3 33.8C2.9 33.6 2.5 33.3 2.2 32.9C1.6 32.3 1.3 31.6 1.3 30.8C1.3 30.5 1.3 30.2 1.4 29.9C1.6 29.4 1.8 28.9 2.1 28.5C2.8 27.6 3.7 26.8 4.6 26.1C6.7 24.6 9 23.4 11.4 22.5C14.1 21.5 16.9 20.7 19.7 20C22.3 19.3 25 18.7 27.7 18.2C28 18.2 28.1 18.1 28.1 18.1V18C28.1 17.9 28.1 17.8 28 17.6C27.8 17.2 27.6 16.8 27.3 16.5C26.9 16 26.4 15.6 25.8 15.3C24.7 14.6 23.6 14.1 22.4 13.6C22.3 13.6 22.3 13.5 22.2 13.5C21.8 13.5 21.4 13.4 21 13.3C20.8 13.2 20.5 13.2 20.3 13.2C20.1 13.2 19.9 13.2 19.8 13.2H19.6C19.4 13.2 19.3 13.2 19.2 13.2C19.1 13.2 19.1 13.2 19 13.3C18.9 13.4 18.9 13.4 18.9 13.4C18.8 13.6 18.6 13.8 18.5 14C18.1 14.5 17.7 15.1 17.4 15.6C16.6 16.8 15.9 18 15.2 19.3C15 19.8 14.8 20.3 14.6 20.9C14.6 21.1 14.5 21.2 14.3 21.2C14.2 21.2 14.2 21.2 14.1 21.2C13.9 21.1 13.7 20.9 13.6 20.7C13.5 20.4 13.4 20.1 13.4 19.8C13.4 19.6 13.4 19.5 13.4 19.3C13.5 18.8 13.6 18.4 13.8 17.9C14.6 16 15.7 14.2 16.9 12.6C17.5 11.8 18.1 10.9 18.8 10.1C18.9 9.9 19 9.7 19.2 9.6C20.1 8.4 21 7.2 22 6.1C22.4 5.7 22.8 5.4 23.2 5.1C23.4 4.9 23.7 4.8 24 4.7C24.1 4.6 24.3 4.6 24.4 4.6C24.5 4.6 24.5 4.6 24.6 4.6C25 4.7 25.3 4.8 25.4 5C25.5 5.2 25.6 5.5 25.6 5.6C25.6 5.8 25.6 5.9 25.5 6.1C25.4 6.2 25.3 6.4 25.2 6.5C25 6.7 24.6 7 24.2 7.2C24.1 7.2 24.1 7.2 24.1 7.3H24H23.9C23.8 7.3 23.8 7.2 23.8 7.2C23.8 7.2 23.8 7.2 23.7 7.2C23.6 7.2 23.6 7.2 23.5 7.3C22.5 8.4 21.5 9.6 20.7 10.8C20.7 10.9 20.7 10.9 20.7 11ZM6.9 33C7.2 33 7.5 33 7.8 33C10 33 12.2 32.7 14.3 32.1C17.8 31 20.8 29.3 23.6 27C24.6 26.2 25.5 25.3 26.3 24.3C27.1 23.3 27.7 22.2 28.1 21C28.3 20.4 28.4 19.8 28.4 19.2V19.1C28.4 19 28.4 18.9 28.3 18.9H28.2C27.9 19 27.5 19 27.2 19.1C27.1 19.1 27 19.1 26.8 19.2C22.3 20 18 21.1 13.7 22.6C12.4 23 11.1 23.5 9.9 24.1C8.2 24.9 6.6 25.9 5.1 27C4.4 27.6 3.7 28.3 3.1 29C2.9 29.3 2.7 29.6 2.5 30C2.4 30.2 2.4 30.4 2.4 30.6C2.4 31.1 2.6 31.5 3.1 31.9C3.5 32.2 3.8 32.4 4.3 32.5C5.3 32.9 6.1 33 6.9 33Z" fill="white"/>
<path d="M40.8 19.7C40.7 19.8 40.6 19.8 40.5 19.9V20C40.2 20.3 39.9 20.6 39.7 21C39.3 21.4 39 21.9 38.6 22.3C38.3 22.7 37.9 23.1 37.5 23.4C37.3 23.6 37.1 23.7 36.9 23.8C36.7 23.9 36.6 23.9 36.4 23.9C36.2 23.9 36.1 23.9 35.9 23.8C35.6 23.6 35.4 23.4 35.3 23C35.3 22.8 35.2 22.6 35.2 22.5C35.2 22.3 35.2 22.2 35.3 22C35.8 19.7 36.9 17.8 38.5 16.2C38.8 15.9 39.2 15.6 39.6 15.5C39.7 15.5 39.7 15.4 39.8 15.4C40.1 15.3 40.3 15.3 40.5 15.3C40.9 15.3 41.2 15.5 41.5 15.8C41.7 16 41.8 16.2 41.8 16.4C41.8 16.6 41.8 16.7 41.8 16.7C41.8 17 41.7 17.3 41.6 17.6C41.6 17.6 41.6 17.6 41.6 17.7C41.6 17.8 41.5 17.8 41.5 17.8L41.4 17.9H41.3C41.2 17.9 41.2 17.9 41.2 17.8C41.2 17.8 41.2 17.7 41.1 17.6V17.5C41.1 17.4 41.1 17.2 41 17.1C41 17 40.9 16.9 40.9 16.9C40.9 16.9 40.9 16.9 40.8 16.9C40.8 16.9 40.7 16.9 40.6 17C40.2 17.3 39.8 17.6 39.5 18C38.5 19.2 37.8 20.5 37.3 21.9V22V22.1C37.5 22 37.6 22 37.7 21.9C37.7 21.9 37.8 21.9 37.8 21.8C39 20.9 40.1 19.8 41.1 18.7C41.4 18.3 41.7 17.9 41.9 17.5C42 17.3 42.1 17.1 42.3 16.8L42.4 16.6C42.5 16.4 42.6 16.3 42.8 16.1C43 15.9 43.2 15.9 43.4 15.9C43.5 15.9 43.6 15.9 43.6 15.9C43.9 16 44.1 16.3 44.1 16.6V16.8C44.1 17 44.1 17.2 44 17.3C43.9 17.6 43.7 17.9 43.6 18.2C43.4 18.5 43.3 18.8 43.2 19C43.1 19.2 43 19.5 42.9 19.7C42.8 19.9 42.7 20.2 42.6 20.7C42.5 21.1 42.4 21.4 42.4 21.8V22.1C42.4 22.3 42.4 22.3 42.5 22.3C42.6 22.3 42.6 22.3 42.7 22.2C43 22 43.3 21.7 43.5 21.5C43.7 21.3 43.9 21.1 44.1 20.9C45.5 19.6 46.6 18.3 47.5 17.1C47.6 17 47.7 16.8 47.9 16.7L48 16.6C48.1 16.6 48.1 16.6 48.1 16.7C48.2 16.7 48.2 16.8 48.2 16.9V17C48.1 17.2 48 17.3 47.9 17.5C47.7 17.8 47.5 18.1 47.2 18.4C46.5 19.4 45.8 20.3 45 21.4C44.2 22.4 43.5 23.2 42.9 23.8C42.3 23.9 42 24 41.7 24H41.6C41.2 24 40.9 23.8 40.7 23.4C40.4 23 40.3 22.6 40.3 22.1V22C40.3 21.3 40.4 20.7 40.7 20.1C40.7 20 40.8 19.9 40.8 19.8V19.7C40.7 19.7 40.7 19.8 40.8 19.7Z" fill="white"/>
<path d="M53.2 16.4C53.3 16.3 53.4 16.3 53.5 16.3C53.6 16.3 53.6 16.3 53.7 16.4C53.8 16.5 53.8 16.5 53.8 16.6V16.7C53.8 16.8 53.8 16.9 53.7 16.9C53.4 17.4 52.8 18.1 52.1 19C51.3 20 50.5 20.9 49.7 21.8C48.9 22.7 48.3 23.3 47.9 23.7C47.6 23.9 47.3 24.1 46.9 24.1H46.7C46 24.1 45.5 23.7 45.3 23C45.3 22.8 45.2 22.6 45.2 22.5C45.2 22.3 45.2 22 45.3 21.8C45.5 21.2 45.7 20.6 45.9 20C46.3 19 46.7 18.1 47.2 17.2C47.3 17.1 47.3 17 47.4 16.8C47.6 16.4 47.8 15.9 48.1 15.5C48.2 15.4 48.3 15.2 48.4 15.1C48.6 15 48.8 14.9 49 14.9C49.2 14.9 49.3 14.9 49.4 15C49.7 15.2 49.9 15.4 49.9 15.8C49.9 15.9 49.9 15.9 49.9 16C49.8 16.2 49.8 16.4 49.7 16.6C49 17.9 48.4 19.3 47.8 20.7L47.5 21.4C47.4 21.7 47.3 21.9 47.3 22C47.3 22.1 47.3 22.2 47.4 22.2H47.5C47.7 22.1 48.1 21.9 48.7 21.4C49.3 20.9 49.8 20.3 50.4 19.7C51 19 51.6 18.4 52.1 17.9C52.6 17.3 53 16.9 53.2 16.7V16.4ZM49.4 12.4C49.4 11.8 49.6 11.3 50 10.9C50.3 10.6 50.6 10.5 51 10.5C51.1 10.5 51.2 10.5 51.3 10.5C51.6 10.6 51.8 10.7 51.8 11C51.8 11.1 51.8 11.2 51.7 11.3C51.6 11.6 51.4 11.9 51.2 12.1C51 12.3 50.9 12.6 50.7 12.9C50.6 13 50.6 13.1 50.5 13.2C50.5 13.2 50.5 13.2 50.5 13.3C50.5 13.3 50.5 13.4 50.4 13.4C50.3 13.6 50.2 13.6 50.1 13.6C50 13.6 49.9 13.5 49.8 13.4C49.5 13.2 49.4 12.8 49.4 12.4Z" fill="white"/>
<path d="M51.4 20.9C51.5 19.5 51.9 18.2 52.7 17C53.3 16.1 54.1 15.4 55 14.8C55.6 14.4 56.2 14.2 56.8 14C57 14 57.1 14 57.3 14C57.6 14 57.8 14 58.1 14.1C58.4 14.3 58.7 14.4 58.8 14.7C58.9 14.9 58.9 15.1 58.9 15.3C58.9 15.5 58.9 15.7 58.8 15.9C58.6 16.2 58.4 16.5 58.2 16.7C57.1 17.8 55.8 18.4 54.3 18.6C54.1 18.6 54 18.7 53.9 18.9C53.6 19.5 53.4 20.1 53.4 20.8V20.9C53.4 21 53.4 21.2 53.5 21.3C53.6 21.6 53.8 21.8 54.2 21.9C54.3 21.9 54.4 21.9 54.6 21.9C55.1 21.9 55.7 21.8 56.2 21.6C57.5 21 58.7 20.3 59.5 19.5C60.4 18.7 61.1 17.9 61.5 17.3C61.8 16.9 62 16.7 62.2 16.6C62.3 16.6 62.3 16.5 62.4 16.5C62.4 16.5 62.4 16.5 62.5 16.5C62.6 16.5 62.6 16.6 62.6 16.6V16.7V16.8C61.8 18 60.9 19.1 59.8 20.3C58.7 21.5 57.5 22.4 56.3 23.2C55.8 23.5 55.2 23.6 54.7 23.7C54.6 23.7 54.5 23.7 54.3 23.7C53.7 23.7 53.1 23.5 52.6 23.1C52 22.6 51.7 22 51.6 21.2V20.9H51.4ZM54.3 9H54.4C54.6 9 54.7 9.1 54.8 9.3C55.5 10.3 56.4 11.1 57.3 11.7L57.8 12.1L58.3 12.4L58.8 12.8C58.8 12.8 58.9 12.8 58.9 12.9V13C58.9 13 58.9 13.1 58.8 13.1C58.8 13.2 58.8 13.2 58.7 13.2H58.6H58.5C58.3 13.1 58.1 13.1 58 13L55.1 11.5C55 11.5 55 11.4 54.9 11.4C54.5 11.2 54.1 11 53.7 10.9C53.4 10.8 53.3 10.6 53.3 10.2C53.3 10.1 53.3 10 53.3 9.8C53.4 9.6 53.5 9.4 53.6 9.2C54 9.2 54.2 9.1 54.3 9ZM54.6 17.7C54.7 17.8 54.7 17.7 54.6 17.7C54.7 17.8 54.8 17.7 54.8 17.7L55.2 17.5C55.9 17.2 56.6 16.8 57.1 16.3C57.3 16.1 57.5 15.9 57.6 15.6C56.5 16 55.4 16.7 54.6 17.7Z" fill="white"/>
<path d="M98.6 18C98.4 17.9 98.3 17.8 98.1 17.8C97.1 17.4 96 17 94.9 16.8C92.7 16.4 90.5 16.1 88.2 16C87 15.9 85.8 15.9 84.6 15.9H82.7C82 15.9 81.3 15.8 80.6 15.7C80.2 15.6 79.9 15.5 79.5 15.3C78.8 14.9 78.5 14.4 78.5 13.7C78.5 13.5 78.5 13.3 78.6 13C78.8 12.5 79 12 79.4 11.6C79.9 11 80.5 10.4 81.1 9.9C82.6 8.7 84.1 7.6 85.7 6.6C89.4 4.3 93.4 2.5 97.7 1.4C99.7 0.8 101.8 0.5 103.9 0.4H104C104.9 0.4 105.8 0.5 106.6 0.8C107.4 1 108.1 1.4 108.7 1.9C109.5 2.6 109.9 3.4 109.9 4.4C109.9 4.8 109.8 5.2 109.7 5.7C109.5 6.4 109.1 7 108.7 7.5C107.2 9.5 105.4 11.1 103.4 12.4C103.3 12.5 103.2 12.5 103.1 12.5C103 12.5 103 12.5 102.9 12.4V12.3V12.2C103 12.1 103.1 12 103.1 11.9C103.3 11.7 103.6 11.5 103.9 11.3C104.1 11.2 104.2 11 104.4 10.9C105.6 9.9 106.7 8.7 107.7 7.4C108.1 6.9 108.4 6.3 108.7 5.7C108.8 5.4 108.9 5.1 109 4.8C109 4.7 109 4.6 109 4.6C109 4.1 108.8 3.7 108.5 3.4C108.2 3.1 107.8 2.9 107.4 2.7C106.6 2.4 105.8 2.3 105.1 2.3H104.8C103.6 2.3 102.4 2.5 101.3 2.7C94.9 4 89 6.7 83.7 10.7C83 11.2 82.4 11.7 81.8 12.3C81.5 12.6 81.2 12.9 81 13.3C81 13.4 80.9 13.4 80.9 13.5C80.9 13.5 81 13.6 81.1 13.6C81.5 13.7 81.9 13.7 82.3 13.7C83.2 13.7 84 13.8 84.9 13.8C85.5 13.8 86.1 13.8 86.7 13.8C90.1 13.9 93.4 14.4 96.8 15.3C97.6 15.5 98.4 15.8 99.2 16.2C99.9 16.5 100.4 17 100.9 17.6C101 17.7 101 17.7 101.1 17.7H101.2C101.3 17.7 101.3 17.7 101.3 17.7C101.6 17.6 101.9 17.6 102.3 17.5C102.8 17.4 103.2 17.3 103.7 17.3C103.9 17.3 104.1 17.2 104.3 17.2C106.9 16.7 109.6 16.3 112.3 16C112.4 16 112.5 16 112.6 16H112.7C112.8 16 112.8 16 112.9 16C113 16 113 16.1 113 16.2V16.3V16.4C113 16.5 112.9 16.5 112.9 16.5C112.7 16.7 112.5 16.7 112.2 16.8C110.7 16.9 109.3 17.1 107.8 17.4L104.9 17.9C103.8 18.1 102.8 18.3 101.8 18.6C101.6 18.7 101.4 18.8 101.4 19.1C101.3 19.9 101 20.7 100.6 21.4C99.8 22.6 98.8 23.6 97.7 24.5C96.3 25.7 94.8 26.7 93.2 27.7C90.2 29.7 87.1 31.3 83.8 32.7C81.7 33.6 79.5 34.2 77.2 34.6C76.6 34.7 76.1 34.7 75.5 34.7C74.9 34.7 74.3 34.6 73.7 34.5C73.3 34.4 72.9 34.2 72.5 34C71.8 33.5 71.5 32.9 71.5 32.2C71.5 32 71.5 31.8 71.6 31.6C71.7 31 72 30.5 72.3 30.1C72.7 29.5 73.2 29 73.7 28.5C74.6 27.6 75.6 26.9 76.7 26.2C79.5 24.4 82.5 22.9 85.6 21.8C89.8 20.2 94.1 19 98.5 18C98.6 18 98.7 18 98.9 17.9C99 17.9 99 17.8 99 17.8C98.7 18.1 98.7 18.1 98.6 18ZM74.3 33.3H74.5C75.4 33.2 76.2 33.1 76.9 33C78.9 32.5 80.9 31.8 82.8 31C86.6 29.3 90.2 27.3 93.7 24.9C94.4 24.4 95.2 23.9 95.9 23.3C96.7 22.7 97.4 22 98.1 21.2C98.4 20.9 98.7 20.5 99 20.1C99.1 20 99.1 19.9 99.2 19.7C99.2 19.6 99.2 19.6 99.2 19.6C99.2 19.5 99.2 19.5 99.2 19.5C99.2 19.4 99.1 19.4 99 19.4H98.9C98.8 19.4 98.7 19.4 98.7 19.4C98.6 19.4 98.5 19.4 98.4 19.5C98.2 19.5 98.1 19.6 98 19.6C96.6 19.8 95.2 20.1 93.8 20.5C90.9 21.3 88 22.3 85.2 23.5C82.9 24.5 80.6 25.6 78.3 26.9C77.5 27.4 76.7 27.9 76 28.4C75.1 29 74.2 29.8 73.5 30.7C73.2 31 73 31.4 72.8 31.8C72.7 32 72.6 32.3 72.6 32.4C72.6 32.8 72.9 33.1 73.4 33.2C73.6 33.2 73.8 33.3 74 33.3C74.1 33.3 74.2 33.3 74.3 33.3Z" fill="white"/>
<path d="M113.6 21.5C113.6 21.6 113.5 21.6 113.5 21.7L113.1 22.3C112.8 22.7 112.5 23.1 112 23.4C111.7 23.6 111.4 23.7 111.1 23.7H111C110.4 23.6 110 23.2 109.9 22.6C109.9 22.5 109.9 22.4 109.9 22.3C109.9 22 109.9 21.7 110 21.3C110.5 19.2 111.3 17.2 112.3 15.3C112.4 15.1 112.5 14.9 112.7 14.8C112.9 14.6 113.2 14.4 113.5 14.4C113.7 14.4 113.8 14.5 114 14.6C114.2 14.8 114.3 14.9 114.4 15.1C114.4 15.3 114.4 15.4 114.4 15.4C114.4 15.6 114.3 15.8 114.2 16C113.3 17.5 112.6 19.1 112.2 20.8L112 21.6V21.7H112.1C112.1 21.7 112.2 21.7 112.2 21.6C112.6 21.3 112.9 21 113.3 20.7C113.6 20.4 113.9 20 114.1 19.7C114.2 19.6 114.3 19.5 114.4 19.4C114.5 19.2 114.6 19.1 114.7 18.9C115.1 18.1 115.5 17.3 116 16.5L116.4 15.8C116.5 15.6 116.6 15.5 116.7 15.4C116.9 15.2 117.2 15 117.4 15C117.5 15 117.7 15 117.8 15.1C118.1 15.3 118.3 15.5 118.3 15.9C118.3 16 118.3 16.1 118.3 16.2C118.3 16.4 118.2 16.5 118.1 16.6L117.4 17.9C117.2 18.2 117 18.6 116.8 19C116.5 19.6 116.2 20.2 115.9 20.9C115.8 21.1 115.7 21.4 115.7 21.7V21.8C115.7 21.9 115.7 21.9 115.8 21.9C115.9 21.9 116 21.8 116.2 21.7C116.4 21.6 116.5 21.5 116.6 21.4C116.7 21.3 116.8 21.2 116.9 21.2C117.8 20.3 118.6 19.5 119.2 18.7C119.7 18.1 120.2 17.5 120.7 16.9C120.8 16.8 120.9 16.7 120.9 16.7C121 16.6 121 16.6 121.1 16.6C121.2 16.6 121.2 16.6 121.3 16.7C121.4 16.8 121.4 16.8 121.4 16.9C121.4 17 121.4 17.1 121.3 17.1C121.2 17.2 121.2 17.3 121.1 17.4C121 17.6 120.7 17.9 120.4 18.3C119.8 19.1 119 20.1 118.1 21.2C117.2 22.3 116.4 23 115.9 23.3C115.3 23.6 115 23.8 114.7 23.8C114.3 23.8 113.9 23.5 113.7 22.8C113.6 22.6 113.6 22.3 113.6 22.1V21.5Z" fill="white"/>
<path d="M124.1 16.3H123.9C123.1 16.9 122.5 17.6 122 18.4C121.5 19.2 121.1 20.1 120.8 21.1C120.7 21.4 120.7 21.6 120.7 21.9C120.7 22 120.7 22.1 120.7 22.2C120.7 22.4 120.7 22.4 120.8 22.5H120.9C121 22.5 121 22.5 121.1 22.5C121.5 22.4 121.9 22.2 122.2 22C123.1 21.4 124 20.8 124.8 20.1C125.6 19.4 126.3 18.7 127 18C127.4 17.6 127.8 17.2 128.2 16.8C128.3 16.8 128.3 16.8 128.3 16.7C128.3 16.7 128.4 16.7 128.4 16.8C128.4 16.9 128.5 16.9 128.5 16.9C128.5 17 128.4 17 128.4 17.1C128.3 17.2 128.3 17.2 128.3 17.3C126.7 19.3 125.1 21 123.4 22.5C122.8 23 122.3 23.4 121.6 23.7C121.2 23.9 120.8 24 120.4 24C119.8 24 119.3 23.7 119 23C118.8 22.6 118.7 22.2 118.7 21.7C118.7 21.5 118.7 21.3 118.8 21C118.8 20.8 118.9 20.6 118.9 20.4C119.3 19.1 119.8 18 120.5 16.9C121 16.2 121.6 15.5 122.3 15.1C122.7 14.8 123.2 14.6 123.7 14.6H123.8C123.9 14.6 124 14.6 124.1 14.6C124.7 14.7 125 15.1 125 15.6C125 15.7 125 15.8 125 15.9C124.9 16.2 124.8 16.6 124.6 16.9C124.5 17 124.4 17.1 124.3 17.2C124.3 17.2 124.2 17.2 124.1 17.2H124L123.9 17.1V17V16.9C123.9 16.8 123.9 16.8 123.9 16.7C123.9 16.6 123.9 16.6 123.9 16.5C124.1 16.4 124.1 16.4 124.1 16.3Z" fill="white"/>
<path d="M125.7 27.3C125.8 26.6 125.9 25.9 126.2 25.2C127 23.1 127.8 21 128.7 18.9C128.7 18.8 128.7 18.8 128.7 18.7C128.7 18.6 128.7 18.6 128.6 18.5C127.9 18 127.6 17.4 127.5 16.6V16.5C127.5 16.1 127.6 15.8 127.7 15.4C128 14.4 128.5 13.4 129.2 12.6C129.5 12.1 129.9 11.8 130.4 11.5C130.6 11.4 130.9 11.3 131.2 11.3H131.3C131.6 11.3 131.8 11.4 132 11.6C132.2 11.8 132.2 12 132.2 12.2C132.2 12.3 132.2 12.3 132.2 12.4C132.1 12.8 132 13.1 131.8 13.4C131.2 14.4 130.5 15.3 129.8 16.2C129.6 16.4 129.6 16.5 129.6 16.7C129.6 16.8 129.7 17 129.8 17.1C129.9 17.2 129.9 17.2 129.9 17.3C130.1 17.5 130.2 17.7 130.4 17.8C130.6 18 130.7 18.2 130.8 18.5C130.8 18.8 130.8 19.1 130.7 19.3C130.5 19.9 130.3 20.5 130 21.1C129.9 21.3 129.8 21.6 129.7 21.8C129.6 22.1 129.4 22.5 129.3 22.9C128.9 23.9 128.5 24.9 128.1 25.9C128 26.2 127.9 26.5 127.9 26.8C127.9 27 127.8 27.1 127.8 27.3V27.4C127.8 27.5 127.8 27.6 127.9 27.6C128 27.8 128 27.8 128.1 27.8C128.2 27.8 128.2 27.8 128.3 27.7C128.6 27.5 128.9 27.3 129.1 27C129.9 26.1 130.6 25.2 131.2 24.2C132.7 21.8 134.2 19.4 135.5 16.9C135.6 16.7 135.7 16.6 135.8 16.5C135.9 16.5 135.9 16.4 136 16.4C136.1 16.4 136.1 16.4 136.2 16.5C136.3 16.6 136.3 16.7 136.3 16.8C136.3 16.9 136.3 16.9 136.3 16.9C136.3 16.9 136.3 17 136.2 17C135.7 17.8 135.2 18.7 134.7 19.6C133.8 21.1 132.9 22.7 132 24.2C131.1 25.7 130.1 27.1 129.1 28.4C128.9 28.7 128.6 29 128.2 29.2C128 29.3 127.8 29.3 127.6 29.3C127.4 29.3 127.1 29.2 126.9 29.1C126 28.8 125.7 28.2 125.7 27.3ZM130.1 14.6C130.2 14.5 130.4 14.3 130.5 14.1C130.7 13.9 130.8 13.6 130.9 13.4C131 13.2 131.1 13 131.1 12.9C130.7 13.4 130.4 13.9 130.1 14.4C130.1 14.4 130.1 14.4 130.1 14.5C130.1 14.4 130.1 14.4 130.1 14.6C130.1 14.5 130.1 14.5 130.1 14.6Z" fill="white"/>
<path d="M133.8 20.9C133.9 19.5 134.3 18.2 135.1 17C135.7 16.1 136.5 15.4 137.4 14.8C138 14.4 138.6 14.2 139.2 14C139.4 14 139.5 14 139.7 14C140 14 140.2 14 140.5 14.1C140.8 14.3 141.1 14.4 141.2 14.7C141.3 14.9 141.3 15.1 141.3 15.3C141.3 15.5 141.3 15.7 141.2 15.9C141 16.2 140.8 16.5 140.6 16.7C139.5 17.8 138.2 18.4 136.7 18.6C136.5 18.6 136.4 18.7 136.3 18.9C136 19.5 135.8 20.1 135.8 20.8V20.9C135.8 21 135.8 21.2 135.9 21.3C136 21.6 136.2 21.8 136.6 21.9C136.7 21.9 136.8 21.9 137 21.9C137.5 21.9 138.1 21.8 138.6 21.6C139.9 21 141.1 20.3 141.9 19.5C142.8 18.7 143.5 17.9 143.9 17.3C144.2 16.9 144.4 16.7 144.6 16.6C144.7 16.6 144.7 16.5 144.8 16.5C144.8 16.5 144.8 16.5 144.9 16.5C145 16.5 145 16.6 145 16.6V16.7V16.8C144.2 18 143.3 19.1 142.2 20.3C141.1 21.5 139.9 22.4 138.7 23.2C138.2 23.5 137.6 23.6 137.1 23.7C137 23.7 136.9 23.7 136.7 23.7C136.1 23.7 135.5 23.5 135 23.1C134.4 22.6 134.1 22 134 21.2V20.9H133.8ZM136.7 9H136.8C137 9 137.1 9.1 137.2 9.3C137.9 10.3 138.8 11.1 139.7 11.7L140.2 12.1L140.7 12.4L141.2 12.8C141.2 12.8 141.3 12.8 141.3 12.9V13C141.3 13 141.3 13.1 141.2 13.1C141.2 13.2 141.2 13.2 141.1 13.2H141H140.9C140.7 13.1 140.5 13.1 140.4 13L137.5 11.5C137.4 11.5 137.4 11.4 137.3 11.4C136.9 11.2 136.5 11 136.1 10.9C135.8 10.8 135.7 10.6 135.7 10.2C135.7 10.1 135.7 10 135.7 9.8C135.8 9.6 135.9 9.4 136 9.2C136.4 9.2 136.6 9.1 136.7 9ZM137 17.7C137.1 17.8 137.1 17.7 137 17.7C137.1 17.8 137.2 17.7 137.2 17.7L137.6 17.5C138.3 17.2 139 16.8 139.5 16.3C139.7 16.1 139.9 15.9 140 15.6C138.9 16 137.8 16.7 137 17.7Z" fill="white"/>
<path d="M142.7 20.9C142.8 19.5 143.2 18.2 144 17C144.6 16.1 145.4 15.4 146.3 14.8C146.9 14.4 147.5 14.2 148.1 14C148.3 14 148.4 14 148.6 14C148.9 14 149.1 14 149.4 14.1C149.7 14.3 150 14.4 150.1 14.7C150.2 14.9 150.2 15.1 150.2 15.3C150.2 15.5 150.2 15.7 150.1 15.9C149.9 16.2 149.7 16.5 149.5 16.7C148.4 17.8 147.1 18.4 145.6 18.6C145.4 18.6 145.3 18.7 145.2 18.9C144.9 19.5 144.7 20.1 144.7 20.8V20.9C144.7 21 144.7 21.2 144.8 21.3C144.9 21.6 145.1 21.8 145.5 21.9C145.6 21.9 145.7 21.9 145.9 21.9C146.4 21.9 147 21.8 147.5 21.6C148.8 21 150 20.3 150.8 19.5C151.7 18.7 152.4 17.9 152.8 17.3C153.1 16.9 153.3 16.7 153.5 16.6C153.6 16.6 153.6 16.5 153.7 16.5C153.7 16.5 153.7 16.5 153.8 16.5C153.9 16.5 153.9 16.6 153.9 16.6V16.7V16.8C153.1 18 152.2 19.1 151.1 20.3C150 21.5 148.8 22.4 147.6 23.2C147.1 23.5 146.5 23.6 146 23.7C145.9 23.7 145.8 23.7 145.6 23.7C145 23.7 144.4 23.5 143.9 23.1C143.3 22.6 143 22 142.9 21.2V20.9H142.7ZM145.9 17.7C146 17.8 146.1 17.7 146.1 17.7L146.5 17.5C147.2 17.2 147.9 16.8 148.4 16.3C148.6 16.1 148.8 15.9 148.9 15.6C147.7 16 146.7 16.7 145.9 17.7Z" fill="white"/>
</g>
<defs>
<clipPath id="clip0_1_562">
<rect width="155" height="35" fill="white"/>
</clipPath>
</defs>
</svg>
