<svg width="166" height="35" viewBox="0 0 166 35" fill="none" xmlns="http://www.w3.org/2000/svg">
<g clip-path="url(#clip0_1_626)">
<path d="M12.5 14.9H5.8L4.8 18.2H0.199997L6.6 0.599999H11.7L18 18.1H13.5L12.5 14.9ZM11.4 11.6L9.1 4.3L6.8 11.6H11.4Z" fill="white"/>
<path d="M34.7 0.599999V18.2H30.9L24.1 7.9V18.1H19.8V0.599999H23.6L30.5 10.8V0.599999H34.7Z" fill="white"/>
<path d="M57.1 0.599999V18.2H52.8V7.7L48.2 15.3H46.6L42 7.7V18.1H37.7V0.599999H42.2L47.3 9.1L52.4 0.599999H57.1Z" fill="white"/>
<path d="M77.3 9.3C77.3 14.5 73.6 18.4 68.4 18.4C63.2 18.4 59.5 14.5 59.5 9.3C59.5 4.1 63.2 0.2 68.4 0.2C73.6 0.2 77.3 4.1 77.3 9.3ZM73 9.3C73 6.8 71.4 4.4 68.4 4.4C65.4 4.4 63.8 6.9 63.8 9.3C63.8 11.8 65.4 14.3 68.4 14.3C71.4 14.3 73 11.8 73 9.3Z" fill="white"/>
<path d="M90.6 14.1V18.1H79.7V0.599999H84V14.1H90.6Z" fill="white"/>
<path d="M125.3 0.599999V18.2H121V7.7L116.4 15.3H114.8L110.2 7.7V18.1H105.9V0.599999H110.4L115.5 9.1L120.6 0.599999H125.3Z" fill="white"/>
<path d="M145.5 9.3C145.5 14.5 141.8 18.4 136.6 18.4C131.4 18.4 127.7 14.5 127.7 9.3C127.7 4.1 131.4 0.2 136.6 0.2C141.8 0.2 145.5 4.1 145.5 9.3ZM141.2 9.3C141.2 6.8 139.6 4.4 136.6 4.4C133.5 4.4 132 6.9 132 9.3C132 11.8 133.6 14.3 136.6 14.3C139.7 14.3 141.2 11.8 141.2 9.3Z" fill="white"/>
<path d="M159.2 4.6H155.1V18.1H150.8V4.6H146.7V0.599999H159.2V4.6Z" fill="white"/>
<path d="M165.8 0.599999V18.2H161.5V0.599999H165.8Z" fill="white"/>
<path d="M47.7 31.3H50.2C50.2 31.3 50.2 31.4 50.2 31.5C50.2 31.7 50.2 31.8 50.2 31.9C50.2 32.8 49.9 33.5 49.4 34C48.9 34.5 48.2 34.7 47.2 34.7C46.7 34.7 46.2 34.6 45.8 34.5C45.4 34.4 45 34.1 44.7 33.8C44.4 33.5 44.2 33.1 44 32.7C43.8 32.3 43.8 31.8 43.8 31.4C43.8 30.9 43.9 30.5 44 30.1C44.1 29.7 44.4 29.3 44.7 29C45 28.7 45.4 28.5 45.8 28.3C46.2 28.1 46.7 28.1 47.1 28.1C47.6 28.1 48.1 28.2 48.5 28.4C48.9 28.6 49.3 28.9 49.6 29.2L49 29.7C48.8 29.4 48.5 29.3 48.3 29.1C48 29.1 47.7 29 47.3 29C46.6 29 46 29.2 45.6 29.7C45.2 30.1 44.9 30.7 44.9 31.4C44.9 32.1 45.1 32.7 45.6 33.2C46 33.6 46.6 33.9 47.3 33.9C47.9 33.9 48.4 33.8 48.7 33.5C49 33.2 49.2 32.8 49.2 32.4V32.3H47.7V31.3Z" fill="white"/>
<path d="M51.3 34.6V28.2H52.3V30.6H55.4V28.2H56.4V34.6H55.4V31.5H52.3V34.6H51.3Z" fill="white"/>
<path d="M62.3 34.6L61.6 33H59L58.3 34.6H57.2L60.3 28L63.4 34.6H62.3ZM59.4 32.1H61.2L60.5 30.6C60.5 30.5 60.4 30.4 60.4 30.3C60.4 30.2 60.3 30 60.3 29.9C60.3 30 60.2 30.2 60.2 30.3C60.2 30.4 60.1 30.5 60.1 30.6L59.4 32.1Z" fill="white"/>
<path d="M64.9 31.7V34.6H63.9V28.2H65.3C65.7 28.2 66.1 28.2 66.3 28.3C66.5 28.4 66.7 28.4 66.9 28.6C67.1 28.8 67.3 29 67.4 29.2C67.5 29.4 67.6 29.7 67.6 30C67.6 30.5 67.5 30.9 67.2 31.2C66.9 31.5 66.6 31.7 66.1 31.7L68.3 34.6H67.1L65 31.7H64.9ZM65 30.9H65.2C65.7 30.9 66.1 30.8 66.3 30.7C66.5 30.6 66.6 30.3 66.6 30C66.6 29.6 66.5 29.4 66.3 29.3C66.1 29.2 65.7 29.1 65.2 29.1H65V30.9Z" fill="white"/>
<path d="M71.6 33.4C71.7 33.5 71.8 33.6 71.9 33.7C72 33.8 72.1 33.8 72.2 33.8C72.4 33.8 72.5 33.7 72.6 33.6C72.7 33.5 72.7 33.2 72.7 32.9V28.3H73.7V33.3C73.7 33.8 73.6 34.2 73.3 34.5C73.1 34.8 72.7 34.9 72.2 34.9C71.9 34.9 71.7 34.8 71.4 34.7C71.2 34.6 71 34.4 70.8 34.2L71.6 33.4Z" fill="white"/>
<path d="M79.4 34.6L78.7 33H76.2L75.5 34.6H74.4L77.5 28L80.6 34.6H79.4ZM76.5 32.1H78.3L77.6 30.6C77.6 30.5 77.5 30.4 77.5 30.3C77.5 30.2 77.4 30 77.4 29.9C77.4 30 77.3 30.2 77.3 30.3C77.3 30.4 77.2 30.5 77.2 30.6L76.5 32.1Z" fill="white"/>
<path d="M81.1 34.6V28.2H82.1V34.6H81.1Z" fill="white"/>
<path d="M83.3 33.3L84.1 32.9C84.2 33.2 84.3 33.4 84.5 33.6C84.7 33.8 85 33.8 85.3 33.8C85.6 33.8 85.9 33.7 86 33.5C86.2 33.3 86.3 33.1 86.3 32.8C86.3 32.4 86 32.1 85.4 31.8C85.3 31.8 85.2 31.7 85.2 31.7C84.5 31.4 84 31 83.8 30.8C83.6 30.5 83.4 30.2 83.4 29.8C83.4 29.3 83.6 28.9 83.9 28.5C84.2 28.1 84.7 28 85.3 28C85.8 28 86.2 28.1 86.5 28.3C86.8 28.5 87 28.7 87.2 29.1L86.4 29.5C86.3 29.3 86.1 29.2 86 29.1C85.9 29 85.7 29 85.5 29C85.2 29 85 29.1 84.8 29.2C84.6 29.3 84.6 29.5 84.6 29.8C84.6 30.2 85 30.5 85.7 30.9C85.8 30.9 85.8 30.9 85.8 31C86.4 31.3 86.9 31.6 87.1 31.9C87.3 32.2 87.5 32.5 87.5 32.9C87.5 33.5 87.3 34 86.9 34.3C86.5 34.6 86 34.8 85.4 34.8C84.9 34.8 84.4 34.7 84.1 34.4C83.8 34.1 83.4 33.8 83.3 33.3Z" fill="white"/>
<path d="M88.6 34.6V28.2H89.6V34.6H88.6Z" fill="white"/>
<path d="M93.4 33.3L94.2 32.9C94.3 33.2 94.4 33.4 94.6 33.6C94.8 33.8 95.1 33.8 95.4 33.8C95.7 33.8 96 33.7 96.1 33.5C96.3 33.3 96.4 33.1 96.4 32.8C96.4 32.4 96.1 32.1 95.5 31.8C95.4 31.8 95.3 31.7 95.3 31.7C94.6 31.4 94.1 31 93.9 30.8C93.7 30.5 93.5 30.2 93.5 29.8C93.5 29.3 93.7 28.9 94 28.5C94.3 28.1 95 28 95.5 28C96 28 96.4 28.1 96.7 28.3C97 28.5 97.2 28.7 97.4 29.1L96.6 29.5C96.5 29.3 96.3 29.2 96.2 29.1C96 29 95.9 29 95.7 29C95.4 29 95.2 29.1 95 29.2C94.8 29.3 94.8 29.5 94.8 29.8C94.8 30.2 95.2 30.5 95.9 30.9C96 30.9 96 30.9 96 31C96.6 31.3 97.1 31.6 97.3 31.9C97.5 32.2 97.7 32.5 97.7 32.9C97.7 33.5 97.5 34 97.1 34.3C96.7 34.7 96.2 34.8 95.6 34.8C95.1 34.8 94.6 34.7 94.3 34.4C94 34.1 93.5 33.8 93.4 33.3Z" fill="white"/>
<path d="M98.7 34.6V28.2H99.7V30.6H102.8V28.2H103.8V34.6H102.8V31.5H99.7V34.6H98.7Z" fill="white"/>
<path d="M105.4 28.2H106.4V32.1C106.4 32.7 106.5 33.1 106.8 33.4C107.1 33.7 107.5 33.8 108 33.8C108.5 33.8 108.9 33.7 109.2 33.4C109.5 33.1 109.6 32.7 109.6 32.1V28.2H110.6V32.2C110.6 33.1 110.4 33.7 109.9 34.1C109.5 34.5 108.8 34.7 107.9 34.7C107 34.7 106.4 34.5 105.9 34.1C105.4 33.7 105.2 33 105.2 32.2V28.2H105.4Z" fill="white"/>
<path d="M112 34.6V28.2H113.4C114.3 28.2 115 28.2 115.3 28.3C115.7 28.4 116 28.5 116.3 28.8C116.7 29.1 116.9 29.4 117.1 29.9C117.3 30.4 117.4 30.8 117.4 31.4C117.4 32 117.3 32.5 117.1 32.9C116.9 33.3 116.6 33.7 116.3 34C116 34.2 115.7 34.4 115.3 34.5C114.9 34.6 114.4 34.6 113.6 34.6H113.3H112ZM113.1 33.6H114C114.5 33.6 114.8 33.6 115.1 33.5C115.3 33.4 115.5 33.3 115.7 33.2C115.9 33 116.1 32.7 116.2 32.4C116.3 32.1 116.4 31.7 116.4 31.3C116.4 30.9 116.3 30.5 116.2 30.2C116.1 29.9 115.9 29.6 115.7 29.4C115.5 29.2 115.3 29.1 115.1 29.1C114.8 29 114.5 29 113.9 29H113.5H113.1V33.6Z" fill="white"/>
<path d="M118.7 34.6V28.2H119.7V30.6H122.8V28.2H123.8V34.6H122.8V31.5H119.7V34.6H118.7Z" fill="white"/>
<path d="M127.4 29.1V34.6H126.4V29.1H124.7V28.2H129.1V29.1H127.4Z" fill="white"/>
<path d="M133.5 34.6L132.8 33H130.3L129.6 34.6H128.5L131.6 28L134.7 34.6H133.5ZM130.6 32.1H132.4L131.7 30.6C131.7 30.5 131.6 30.4 131.6 30.3C131.6 30.2 131.5 30 131.5 29.9C131.5 30 131.4 30.2 131.4 30.3C131.4 30.4 131.3 30.5 131.3 30.6L130.6 32.1Z" fill="white"/>
</g>
<defs>
<clipPath id="clip0_1_626">
<rect width="166" height="35" fill="white"/>
</clipPath>
</defs>
</svg>
