<svg width="250" height="35" viewBox="0 0 250 35" fill="none" xmlns="http://www.w3.org/2000/svg">
<g clip-path="url(#clip0_1_440)">
<path d="M34.6 18.4C34.6 18.4 34.6 18.7 34.6 18.8C33.9 19.2 33.5 19.9 33.5 21.7V27C32.2 29.8 27.5 35 17.9 35C8.3 35 0.5 27.2 0.5 17.5C0.5 7.8 9.2 0 18.9 0C24.2 0 27.4 1.4 31.5 4.1L30 9.7H29.7C26.1 4 20.3 -0.2 13.9 1.2C5.6 3 2.5 12.9 5.2 21.5C7.8 30.1 14.2 34.9 22.9 33.8C25.8 33.4 28 32 29.6 30.3V23.8C29.6 20.8 28.2 19 25.8 18.8C25.8 18.5 25.8 18.4 25.8 18.4H34.6Z" fill="white"/>
<path d="M64.4 34.4V34.7H56.9V34.4C58.2 33.1 57.1 31.4 55.2 28L50 18.9C49.3 18.9 48.5 19 47.8 19H43.3V31.6C43.3 33.3 43.6 34 44.4 34.5C44.4 34.6 44.4 34.8 44.4 34.8H38.4C38.4 34.8 38.4 34.6 38.4 34.5C39.1 34.1 39.5 33.3 39.5 31.6V3.8C39.5 2 39.2 1.4 38.4 0.9C38.4 0.8 38.4 0.5 38.4 0.5H47.9C55.5 0.5 62.3 3.3 62.3 9.7C62.3 14.3 58.6 17.1 53.7 18.2L58 26C60.9 31 62.5 32.7 64.4 34.4ZM58.3 9.7C58.3 5.9 57 0.9 47.7 0.9H43.2V18.5H47.7C57 18.5 58.3 13.5 58.3 9.7Z" fill="white"/>
<path d="M94.7 34.7H87.2V34.4C88.5 33.1 88.1 31.4 86.7 27.8L84.3 21.6H72.2L70.9 25.3C69.3 29.7 69.1 32.1 71.1 34.3V34.6H65.3V34.3C67.4 32.1 68.8 29.9 70.4 25.3L77.7 4.7L76.1 0.5H80L89.5 25.3C91.5 30.2 92.8 32.1 94.6 34.3V34.7H94.7ZM84.2 21.2L78 5.2L72.3 21.2H84.2Z" fill="white"/>
<path d="M127.7 0.5C127.7 0.5 127.7 0.8 127.7 0.9C126.1 1.7 124.6 4.3 124.6 6.4V34.8H123.9L100.6 4.9V28.8C100.6 30.9 102.1 33.5 103.7 34.3C103.7 34.4 103.7 34.6 103.7 34.6H97.1C97.1 34.6 97.1 34.4 97.1 34.3C98.8 33.5 100.2 30.9 100.2 28.8V4.5L97.1 0.5H102L124.1 28.6V6.4C124.1 4.3 122.6 1.8 121 0.9C121 0.8 121 0.5 121 0.5H127.7Z" fill="white"/>
<path d="M163.4 17.6C163.4 27.3 155.1 34.7 143.8 34.7H131.6C131.6 34.7 131.6 34.5 131.6 34.4C132.3 34 132.7 33.2 132.7 31.5V3.8C132.7 2.1 132.4 1.4 131.6 0.9C131.6 0.8 131.6 0.5 131.6 0.5H143.8C155.2 0.5 163.4 8 163.4 17.6ZM159.6 17.6C159.6 8.6 153.6 0.9 143.9 0.9H136.6V34.4H143.9C153.6 34.4 159.6 26.6 159.6 17.6Z" fill="white"/>
<path d="M187.8 28.8L186.7 34.7H166.9C166.9 34.7 166.9 34.5 166.9 34.4C167.6 34 168 33.2 168 31.5V3.8C168 2.1 167.7 1.4 166.9 0.9C166.9 0.8 166.9 0.5 166.9 0.5H185.2L186.2 5.9L186 6.1C183.8 3.6 180.7 0.9 175.3 0.9H171.9V15.3L184.2 14.2V16.7L171.9 15.7V34.4H175.9C181.3 34.4 185.3 31.6 187.6 28.6L187.8 28.8Z" fill="white"/>
<path d="M219.5 0.5C219.5 0.5 219.5 0.8 219.5 0.9C217.9 1.7 217.4 4.3 217.4 6.4V23.3C217.4 30.1 212.6 35.1 205.7 35.1C198.4 35.1 192.3 31 192.3 22.1V3.8C192.3 2 192 1.4 191.2 0.9C191.2 0.8 191.2 0.5 191.2 0.5H197.3C197.3 0.5 197.3 0.8 197.3 0.9C196.6 1.3 196.2 2 196.2 3.8V22C196.2 30.1 200.4 35 207.4 34.4C213.4 33.9 217.1 28.7 217.1 23.2V6.9C217.1 4.2 215.8 1.2 213.4 0.9C213.4 0.8 213.4 0.5 213.4 0.5H219.5Z" fill="white"/>
<path d="M249.5 34.4V34.7H242V34.4C243.3 33.1 242.2 31.4 240.3 28L235.1 18.9C234.4 18.9 233.6 19 232.9 19H228.4V31.6C228.4 33.3 228.7 34 229.5 34.5C229.5 34.6 229.5 34.8 229.5 34.8H223.5C223.5 34.8 223.5 34.6 223.5 34.5C224.2 34.1 224.6 33.3 224.6 31.6V3.8C224.6 2 224.3 1.4 223.5 0.9C223.5 0.8 223.5 0.5 223.5 0.5H233C240.6 0.5 247.4 3.3 247.4 9.7C247.4 14.3 243.7 17.1 238.8 18.2L243.2 25.9C246.1 31 247.6 32.7 249.5 34.4ZM243.5 9.7C243.5 5.9 242.2 0.9 232.9 0.9H228.4V18.5H232.9C242.1 18.5 243.5 13.5 243.5 9.7Z" fill="white"/>
</g>
<defs>
<clipPath id="clip0_1_440">
<rect width="250" height="35" fill="white"/>
</clipPath>
</defs>
</svg>
