<svg width="150" height="35" viewBox="0 0 150 35" fill="none" xmlns="http://www.w3.org/2000/svg">
<path d="M29.4 7.4H27.1L27.2 7.5C29.6 9.7 31.2 12.7 31.9 15.9C31.9 16.1 32 16.3 32 16.5L33.6 17C33.5 16 33.4 15.1 33.1 14.1C32.6 12.1 31.6 10.1 30.3 8.5C30.1 8.1 29.8 7.7 29.4 7.4Z" fill="white"/>
<path d="M6.9 22.2C6.9 20.7 6.9 18.8 6.7 17.2C6.5 15.7 6 14.3 5.4 12.9C5.3 13.6 5.5 14.3 5.5 15C5.5 16 5.5 17.1 5.5 18.1C5.3 19.8 5 21.6 5.3 23.3C3.8 20 3.5 16.1 4.7 12.6C5.4 10.2 6.8 8 8.7 6.3C10.1 5 11.8 4 13.6 3.6C13.7 3.6 13.7 3.6 13.8 3.6C15.1 3.3 16.3 2.8 17.4 2.1L17.5 2C13.2 2 9.1 3.8 6.1 6.7C4.7 8 3.7 9.6 2.8 11.3C1.8 13.5 1.2 15.9 1.3 18.3C1.2 23 3.3 27.6 6.8 30.6C10.1 33.6 14.7 35 19.1 34.5C22.4 34.2 25.5 32.9 28 30.8C30.5 28.7 32.3 25.9 33.2 22.8L31.8 22.5C31.8 22.6 31.8 22.6 31.7 22.7C31.2 24.7 30.3 26.6 29 28.3C28 29.5 26.6 30.3 25.3 30.9C22.3 32.3 18.9 32.7 15.7 31.9C13.4 31.4 11.3 30.3 9.5 28.9C9.1 28.6 8.7 28.3 8.5 27.8C10 27.8 11.6 27.6 13.1 27.4C15.9 27 18.7 26.3 21.2 25C22 24.6 22.9 24.1 23.5 23.5C22.6 23.8 21.7 24.2 20.7 24.2C19.8 24.3 18.9 24.3 18 24.3C14.9 24.4 11.9 25 9 26.1C8.7 26.2 8.3 26.4 8 26.4C8 26.5 6.2 24.8 6.9 22.2Z" fill="white"/>
<path d="M33.1 19.8C32.8 19.6 32.4 19.5 32 19.6C32 19.6 31.8 19.5 31.3 19.3C32.2 19.1 33.1 19.1 34 18.9C33.3 18.6 32.5 18.3 31.7 18C31.2 17.8 30.6 17.8 30.1 17.9C29.6 18 29.3 18.2 28.9 18.5C28.5 18.4 28.1 18.3 27.6 18.2C28.7 17.9 29.7 17.5 30.7 17.1C29.8 16.9 29 17 28.1 17C27.4 17 26.7 17.3 26.2 17.8C26.1 17.9 26.1 17.9 26 18C25.6 18 25.2 17.9 24.7 17.9C25.6 17.3 26.6 16.9 27.5 16.3C26.3 16.4 25 16.4 23.9 16.9C23.4 17.1 23 17.5 22.7 17.9L22.6 18C22.3 18 21.9 18.1 21.6 18.1C22.5 17.2 23.4 16.4 24.3 15.6C23.6 15.9 22.9 16 22.2 16.3C21.4 16.7 20.5 17 20 17.7C19.8 17.9 19.7 18.3 19.5 18.5C18.7 18.7 17.9 18.9 17.1 19.2H17C17.8 18.8 18.5 18.2 18.9 17.4C19.2 16.9 19.6 16.5 19.9 15.9C19.5 16 19.2 16.2 18.9 16.4C18.2 16.8 17.5 17.2 17 17.8C16.6 18.3 16.3 18.8 16.2 19.4C15.6 19.6 15.1 19.8 14.5 20.1C14.9 19.6 15.2 19.1 15.5 18.5C15.7 18.1 16.1 17.6 16.1 17.1C15.6 17.3 15.2 17.7 14.8 18C14.2 18.5 13.5 19.2 13.2 20C13.1 20.3 13.1 20.6 13 20.8C12.5 21.1 12 21.3 11.6 21.7C10.4 22.6 9.2 23.5 8.1 24.5C8.1 24 8.2 23.4 8.3 22.9C8.6 21.3 9 19.6 9.8 18.1C9.9 17.8 10.2 17.9 10.4 17.9C11.2 17.9 11.8 17.4 12.5 17.1C13.3 16.6 14.2 16.2 14.9 15.5C13.6 15.4 12.3 15.7 11.1 16.2C11.3 15.9 11.7 15.3 12.2 14.5C12.4 14.6 12.6 14.6 12.8 14.6C13.8 14.7 14.7 14.5 15.6 14.2C16.4 13.9 17.2 13.5 18 13.2C17.6 13.2 17.2 13.1 16.9 13.1C16 13.1 15 13 14.1 13.1C13.8 13.1 13.5 13.3 13.1 13.3C13.5 12.8 14 12.2 14.5 11.6C14.7 11.6 14.8 11.7 15 11.7C16.3 12.1 17.7 12.1 19.1 12C20 11.9 20.8 11.9 21.7 11.6C21.2 11.4 20.6 11.4 20.1 11.1C19.5 10.8 18.8 10.5 18 10.4C17.2 10.3 16.4 10.4 15.5 10.5C15.9 10.1 16.4 9.7 16.9 9.2C17.3 9.4 17.7 9.7 18.2 9.7C19.5 9.9 20.7 9.6 22 9.4C22.5 9.3 23 9.2 23.5 8.9C22.4 8.7 21.3 8.4 20.3 8.2C19.6 8.1 19 8.2 18.3 8.1C18.3 8.1 18.3 8.1 18.3 8C19 7.4 19.8 6.9 20.6 6.4C21 7 21.6 7.4 22.3 7.6C23.6 7.8 24.9 7.6 26.2 7.4C25.7 7.2 25.3 7 24.8 6.9C24.2 6.7 23.6 6.3 23 6.1C22.5 5.9 21.9 6 21.4 5.9C21.9 5.6 22.4 5.3 22.9 5.1C23 5 23.1 5 23.2 5C23.4 4.9 23.7 4.8 23.9 5C24.4 5.6 25.1 6.1 25.8 6.2C27 6.3 28.2 6.2 29.5 6.1C28.8 5.7 28 5.4 27.2 5.1C26.6 4.8 25.9 4.7 25.3 4.4C25.9 4 26.4 3.6 27 3.6C27.3 3.8 27.6 4.1 28 4.3C28.4 4.5 28.9 4.4 29.3 4.4C30.6 4.2 31.7 3.7 32.9 3.1C33.2 2.9 33.5 2.8 33.7 2.6C33.1 2.6 32.4 2.6 31.8 2.5C30.9 2.2 30 2.2 29 2.3C28.5 2.4 28.1 2.7 27.7 2.9C27.7 2.9 27.3 3 26.5 3.2C26.7 2.9 27 2.7 27.2 2.5C27.6 2.1 28 1.7 28.5 1.3C28.8 1 29.1 0.7 29.4 0.4C29.1 0.4 28.8 0.4 28.6 0.5C27.6 0.8 26.7 1.1 25.8 1.5C24.9 1.9 24.2 2.6 23.9 3.5C23.8 3.6 23.8 3.8 23.7 3.9C23.1 4.1 22.5 4.3 21.9 4.6C22.7 3.4 23.7 2.4 24.3 1.1C23.4 1.4 22.6 2 21.8 2.5C20.8 3.1 20.2 4 20.2 5C20.2 5.1 20.2 5.2 20.2 5.3C19.6 5.6 18.9 5.9 18.3 6.2C18.4 5.8 18.6 5.5 18.8 5.1C19 4.5 19.1 3.9 19.2 3.3C19.3 2.9 19.4 2.5 19.4 2.1C18.7 2.9 17.8 3.5 17.2 4.4C16.6 5 16.1 5.8 16.2 6.7C16.2 7 16.3 7.3 16.3 7.6C15.8 7.9 15.4 8.2 15 8.6C15.2 7.5 15.3 6.4 15.6 5.3C15.7 5 15.7 4.7 15.7 4.4C14.9 5.6 14 6.7 13.5 8C13 8.7 13 9.5 13.2 10.2C13 10.5 12.7 10.8 12.5 11.1C12.5 9.6 12.5 8.1 12.5 6.7C11.9 8.1 11.1 9.5 10.8 11.1C10.6 11.9 10.8 12.7 11.1 13.4C10.6 14 10.1 14.7 9.7 15.4C9.8 14.5 9.6 13.5 9.5 12.6C9.4 11.8 9.4 11.1 9.3 10.3C9.1 11.2 8.6 12.1 8.4 13.1C8.1 14 8 14.9 8.2 15.8C8.3 16.3 8.5 16.7 8.8 17.1C8 18.4 7.3 20 6.9 21.4C6.8 21.7 6.2 26 8.1 26.6C8.4 26.2 8.8 25.7 9.2 25.3C10.2 24.2 11.2 23.2 12.5 22.4C12.7 22.3 12.8 22.2 13 22.1H13.1C13.1 22.1 13.2 22.1 13.3 22C13.4 22 13.4 22 13.5 21.9C13.8 22 14.1 22.2 14.4 22.2C15.5 22.4 16.5 22.4 17.6 22.3C17.5 22.1 17.3 21.9 17.1 21.8C16.5 21.5 15.7 21.3 15 21.1C15.5 20.9 16 20.7 16.7 20.5C16.9 20.8 17.3 21 17.7 21.2C18.5 21.5 19.3 21.8 20.2 21.8C19.7 21.3 19.3 20.8 18.7 20.5C18.4 20.3 18.1 20.2 17.8 20.2C18.3 20 18.9 19.9 19.5 19.8C19.9 20.3 20.2 20.8 20.7 21.1C21.6 21.7 22.4 22.3 23.4 22.5C23.1 21.8 22.8 21.1 22.3 20.5C21.9 20 21.4 19.8 20.9 19.5C21.3 19.4 21.8 19.4 22.2 19.3C22.4 19.7 22.6 20.1 23 20.3C23.6 20.8 24.4 21.1 25.1 21.4C25.4 21.5 25.6 21.6 25.9 21.6C25.6 21 25.2 20.6 24.8 20.1C24.5 19.8 24.1 19.4 23.7 19.2C24.4 19.2 25 19.2 25.7 19.2C25.8 19.7 26 20.2 26.3 20.5C27.1 21.3 28.1 21.8 29.1 22.3C28.8 21.7 28.4 21.2 28 20.7C27.7 20.2 27.4 19.8 27 19.4C26.9 19.3 26.8 19.3 26.8 19.2C27.5 19.2 28.1 19.3 28.8 19.4C28.8 20.1 29.2 20.7 29.8 21.1C30.2 21.4 30.7 21.7 31.2 21.8C30.8 21 30.2 20.3 29.8 19.5C30.3 19.6 30.9 19.7 31.4 19.8C31.4 20.2 31.7 20.6 32.1 20.8C33 21.3 33.9 21.5 34.9 21.4C34.5 20.8 33.8 20.2 33.1 19.8Z" fill="white"/>
<path d="M51.5 21.6C51.3 21.6 51.1 21.6 50.8 21.5C49.9 21.4 49.2 21 48.6 20.5C48 20 47.5 19.3 47.3 18.5C46.5 18.9 45.5 19 44.6 19C43 19 41.7 18.5 40.6 17.6C39.6 16.7 39.1 15.5 39.1 14.1C39.1 13.1 39.3 12.3 39.8 11.5C40.3 10.8 40.9 10.2 41.8 9.8C42.7 9.4 43.6 9.2 44.7 9.2C45.4 9.2 46.1 9.3 46.8 9.4C47.5 9.5 48 9.7 48.4 9.9V12.2H48.3C48.1 11.4 47.7 10.8 47.1 10.3C46.5 9.9 45.7 9.7 44.9 9.7C43.8 9.7 43 10.1 42.3 10.9C41.6 11.7 41.3 12.8 41.3 14C41.3 15.3 41.6 16.3 42.3 17.1C43 17.9 43.8 18.3 44.8 18.3C45.4 18.3 45.8 18.2 46.2 17.9C46.6 17.7 46.9 17.3 47 16.9V14.9C47 14.7 46.9 14.5 46.8 14.4C46.7 14.3 46.5 14.2 46.3 14.2H46.1V14.1H50V14.2H49.8C49.6 14.2 49.4 14.3 49.3 14.4C49.2 14.5 49.1 14.7 49.1 14.8V16.9C49.1 17.5 49.2 18 49.4 18.6C49.9 19.7 50.7 20.4 51.8 20.6C52.1 20.7 52.4 20.7 52.7 20.7C53 20.7 53.3 20.7 53.7 20.6V20.7C53 21.5 52.2 21.6 51.5 21.6Z" fill="white"/>
<path d="M51.7 18.8C51.9 18.8 52.1 18.7 52.3 18.6C52.5 18.4 52.6 18.2 52.6 18V10.5C52.6 10.3 52.5 10.1 52.3 9.9C52.1 9.7 51.9 9.7 51.7 9.7H51.5V9.6H55.6V9.7H55.4C55.2 9.7 55 9.8 54.8 9.9C54.6 10.1 54.5 10.3 54.5 10.5V18C54.5 18.2 54.6 18.4 54.8 18.6C55 18.8 55.2 18.8 55.4 18.8H55.6V18.9H51.5V18.8H51.7Z" fill="white"/>
<path d="M61.1 10.2H60.5V18C60.5 18.3 60.7 18.6 60.9 18.7C61 18.8 61.2 18.8 61.3 18.8H61.5V19H57.4V18.9H57.6C57.9 18.9 58.2 18.8 58.3 18.5C58.4 18.4 58.4 18.2 58.4 18.1V10.6C58.4 10.4 58.3 10.2 58.1 10C57.9 9.8 57.7 9.8 57.5 9.8H57.3V9.6H62C62.9 9.6 63.6 9.8 64.2 10.2C64.5 10.4 64.7 10.7 64.9 11C65.1 11.3 65.2 11.7 65.2 12.1C65.2 12.5 65.1 12.9 65 13.3C64.9 13.7 64.6 14 64.3 14.2C64 14.5 63.5 14.6 63.1 14.7C63.6 14.9 64.1 15.3 64.5 15.9C65.5 17.5 66.2 18.4 66.7 18.7C66.9 18.8 67.2 18.9 67.6 18.9V19H66.3C65.5 19 64.9 18.9 64.4 18.7C63.9 18.5 63.5 18.1 63.1 17.6C62.9 17.3 62.7 16.9 62.5 16.4C62.2 15.9 62.1 15.5 62 15.3C61.8 14.8 61.5 14.5 61.1 14.4V14.3H61.5C61.9 14.3 62.3 14.2 62.6 13.9C62.9 13.7 63.1 13.3 63.2 12.7C63.2 12.5 63.3 12.4 63.3 12.3C63.3 11.6 63.2 11 62.9 10.7C62.6 10.4 62.2 10.2 61.8 10.2C61.4 10.2 61.3 10.2 61.1 10.2Z" fill="white"/>
<path d="M77 9.7H76.9C76.7 9.7 76.5 9.8 76.3 9.9C76.1 10 75.9 10.2 75.8 10.5L72.6 17.5C72.2 18.4 72 19 71.9 19.3H71.8L67.7 10.5C67.6 10.2 67.4 10.1 67.2 9.9C67 9.8 66.8 9.7 66.6 9.7H66.5V9.6H70.8V9.7H70.7C70.5 9.7 70.4 9.8 70.3 9.9C70 10 70 10.1 70 10.2C70 10.3 70 10.4 70.1 10.5L72.4 16.1L74.8 10.5C74.8 10.4 74.9 10.3 74.9 10.2C74.9 10.1 74.9 10 74.8 9.9C74.7 9.8 74.6 9.7 74.4 9.7H74.3V9.6H77V9.7Z" fill="white"/>
<path d="M85.6 18.8H85.7V19H81.4V18.9H81.5C81.7 18.9 81.8 18.8 81.9 18.7C82 18.6 82 18.5 82 18.4C82 18.3 82 18.2 81.9 18.1L81.2 16.4H78L77.6 18C77.6 18.1 77.5 18.2 77.5 18.3C77.5 18.4 77.5 18.5 77.6 18.6C77.7 18.7 77.8 18.8 78.1 18.8H78.2V19H75.3V18.9H75.4C75.6 18.9 75.8 18.8 76 18.7C76.2 18.6 76.4 18.4 76.5 18.1L79.6 11.1C80 10.2 80.2 9.6 80.3 9.3H80.4L84.4 18.1C84.5 18.4 84.7 18.6 84.9 18.7C85.2 18.8 85.4 18.8 85.6 18.8ZM78.5 15.8H81.2L79.9 12.5L78.5 15.8Z" fill="white"/>
<path d="M90.3 10.2H89.7V18C89.7 18.3 89.9 18.6 90.1 18.7C90.2 18.8 90.4 18.8 90.5 18.8H90.7V19H86.6V18.9H86.8C87.1 18.9 87.4 18.8 87.5 18.5C87.6 18.4 87.6 18.2 87.6 18.1V10.6C87.6 10.4 87.5 10.2 87.3 10C87.1 9.8 86.9 9.8 86.7 9.8H86.5V9.6H91.1C92 9.6 92.7 9.8 93.3 10.2C93.6 10.4 93.8 10.7 94 11C94.2 11.3 94.3 11.7 94.3 12.1C94.3 12.5 94.2 12.9 94.1 13.3C94 13.7 93.7 14 93.4 14.2C93.1 14.5 92.6 14.6 92.2 14.7C92.7 14.9 93.2 15.3 93.6 15.9C94.6 17.5 95.3 18.4 95.8 18.7C96 18.8 96.3 18.9 96.7 18.9V19H95.4C94.6 19 94 18.9 93.5 18.7C93 18.5 92.6 18.1 92.2 17.6C92 17.3 91.8 16.9 91.6 16.4C91.3 15.9 91.2 15.5 91.1 15.3C90.9 14.8 90.6 14.5 90.2 14.4V14.3H90.6C91 14.3 91.4 14.2 91.7 13.9C92 13.7 92.2 13.3 92.3 12.7C92.3 12.5 92.4 12.4 92.4 12.3C92.4 11.6 92.3 11 92 10.7C91.7 10.4 91.3 10.2 90.9 10.2C90.6 10.2 90.5 10.2 90.3 10.2Z" fill="white"/>
<path d="M116.2 18.8C116.4 18.8 116.5 18.7 116.7 18.5C116.8 18.4 116.8 18.3 116.8 18.2C116.8 18.1 116.8 18 116.7 17.9L114.8 15L112.8 17.9C112.6 18.2 112.7 18.4 112.9 18.6C113 18.7 113.1 18.7 113.2 18.7H113.4V19H110.1V18.9H110.3C110.8 18.9 111.2 18.6 111.6 18.1L114.3 14.3L111.8 10.4C111.6 10.2 111.4 10 111.2 9.8C111 9.6 110.7 9.6 110.4 9.6H110.2H114.8V9.7H114.6C114.4 9.7 114.3 9.8 114.1 10C114 10.1 114 10.2 114 10.3C114 10.4 114 10.5 114.1 10.6L115.8 13.2L117.5 10.6C117.6 10.5 117.6 10.4 117.6 10.3C117.6 10.2 117.6 10.1 117.5 10C117.4 9.8 117.2 9.7 117 9.7H116.8V9.6H120.1V9.7H120C119.7 9.7 119.5 9.8 119.2 9.9C119 10 118.8 10.2 118.6 10.5L116.3 13.9L119 18.1C119.2 18.3 119.4 18.5 119.6 18.7C119.8 18.8 120.1 18.9 120.4 18.9H120.6V19H116V18.9H116.2V18.8Z" fill="white"/>
<path d="M121.7 18.8C121.9 18.8 122.1 18.7 122.3 18.6C122.5 18.4 122.6 18.2 122.6 18V10.5C122.6 10.3 122.5 10.1 122.3 9.9C122.1 9.7 121.9 9.7 121.7 9.7H121.5V9.6H125.6V9.7H125.4C125.2 9.7 125 9.8 124.8 9.9C124.6 10.1 124.5 10.3 124.5 10.5V18C124.5 18.2 124.6 18.4 124.8 18.6C125 18.8 125.2 18.8 125.4 18.8H125.6V18.9H121.5V18.8H121.7Z" fill="white"/>
<path d="M139.6 18.8H139.8V19H135.8V18.9H136C136.2 18.9 136.3 18.8 136.4 18.7C136.5 18.6 136.6 18.4 136.5 18.3L136 13.4L133.5 17.8C133.2 18.4 133 18.9 133 19.3H132.9L129.4 13.5L128.9 18.3C128.9 18.4 128.9 18.6 129 18.7C129.1 18.8 129.2 18.9 129.4 18.9H129.6V19H126.8V18.9H127C127.3 18.9 127.5 18.8 127.7 18.7C127.9 18.5 128 18.3 128 18.1L129.1 9.5H129.2L133.4 16.4L137.4 9.5H137.5L138.6 18.1C138.6 18.4 138.8 18.6 138.9 18.7C139.1 18.8 139.3 18.8 139.6 18.8Z" fill="white"/>
<path d="M148.5 13.4C148.2 14.1 147.6 14.6 146.8 14.9C146.6 15 146.3 15 146.1 15C145.5 15 144.9 14.8 144.4 14.5V14.4C145.1 14.4 145.6 14.2 146 13.7C146.4 13.3 146.6 12.8 146.6 12.2C146.6 11.2 146.3 10.6 145.6 10.3C145.4 10.2 145.1 10.2 144.9 10.2H144V18C144 18.2 144.1 18.4 144.3 18.6C144.5 18.8 144.7 18.8 144.9 18.8H145.1V19H141V18.9H141.2C141.4 18.9 141.6 18.8 141.8 18.7C142 18.5 142.1 18.3 142.1 18.1V10.6C142.1 10.3 141.9 10.1 141.6 9.9C141.5 9.8 141.3 9.8 141.2 9.8H141V9.6H145.5C147.1 9.6 148.2 10.1 148.6 11.1C148.7 11.4 148.8 11.8 148.8 12.2C148.8 12.7 148.7 13.1 148.5 13.4Z" fill="white"/>
<path d="M101.5 18.8C101.7 18.8 101.9 18.7 102.1 18.6C102.3 18.4 102.3 18.2 102.4 18V10.5C102.4 10.3 102.3 10.1 102.2 10C102 9.8 101.8 9.7 101.6 9.7H101.4V9.5H106.4C106.8 9.5 107.2 9.5 107.5 9.4C107.8 9.3 108 9.3 108 9.3V11.7H107.9V11.6C107.9 11 107.7 10.6 107.3 10.4C107.1 10.3 106.9 10.2 106.6 10.2H104.4V14H106.6C106.9 14 107.2 13.9 107.4 13.7C107.6 13.5 107.7 13.2 107.7 12.9V12.8H107.8V15.9H107.7V15.8C107.7 15.5 107.6 15.2 107.4 15C107.2 14.8 106.9 14.7 106.6 14.7H104.3V18.5H107.1C107.7 18.5 108.3 18.3 108.7 17.9C109.1 17.5 109.5 17 109.7 16.3H109.8L109.2 19.1H101.3V19H101.5V18.8Z" fill="white"/>
<path d="M56 23.3V24.8C56 24.9 56 25 56 25.1C56 25.1 56 25.1 56.1 25.2C56.2 25.2 56.3 25.2 56.4 25.3C56.6 25.3 56.8 25.3 57.1 25.3V25.4H54.2V25.3C54.4 25.3 54.6 25.3 54.8 25.3C55 25.3 55.1 25.3 55.1 25.2C55.2 25.2 55.2 25.2 55.2 25.1C55.2 25.1 55.2 25 55.2 24.8V21.3C55.2 21.2 55.2 21.1 55.2 21.1C55.2 21.1 55.2 21.1 55.1 21C55 20.9 54.7 20.9 54.2 20.9V20.8H56.8C57.3 20.8 57.8 20.9 58.1 21.2C58.4 21.4 58.5 21.7 58.5 22.1C58.5 22.4 58.4 22.6 58.2 22.8C57.9 23.1 57.5 23.2 57.1 23.2H56V23.3ZM56 23.2H56.7C57.1 23.2 57.3 23.1 57.5 22.9C57.6 22.7 57.7 22.5 57.7 22.1C57.7 21.7 57.6 21.4 57.4 21.2C57.2 21 57 20.9 56.6 20.9H56.3C56.2 20.9 56.1 20.9 56.1 20.9C56.1 20.9 56 20.9 56 21C56 21 56 21.1 56 21.3V23.2Z" fill="white"/>
<path d="M65.5 24.3V24.5C65.5 24.8 65.5 25 65.4 25.1C65.3 25.3 65.2 25.4 64.9 25.4C64.6 25.4 64.4 25.3 64.3 25C64.2 24.8 64.2 24.4 64.2 23.9V23.8V23.7C64.2 23.5 64.1 23.3 64 23.2C63.9 23 63.7 23 63.5 23H62.7V24.8C62.7 24.9 62.7 25 62.7 25.1C62.7 25.1 62.7 25.2 62.8 25.2C62.9 25.2 63 25.2 63.1 25.2C63.3 25.2 63.4 25.2 63.6 25.2V25.3H60.8V25.2C61.3 25.2 61.6 25.2 61.7 25.1C61.7 25.1 61.8 25.1 61.8 25C61.8 25 61.8 24.9 61.8 24.8V21.3C61.8 21.2 61.8 21.1 61.8 21.1C61.8 21.1 61.8 21.1 61.7 21C61.6 20.9 61.3 20.9 60.8 20.9V20.8H63.6C64.1 20.8 64.5 20.9 64.8 21.2C65 21.4 65.1 21.6 65.1 21.8C65.1 22.1 65 22.3 64.8 22.4C64.6 22.6 64.2 22.7 63.8 22.8C64.3 22.9 64.6 23.2 64.8 23.6C64.9 23.8 64.9 24.2 64.9 24.6C64.9 24.7 64.9 24.8 64.9 24.9C64.9 25 65 25 65.1 25C65.2 25 65.3 24.9 65.3 24.8C65.4 24.8 65.4 24.6 65.5 24.3ZM62.7 22.9H63.3C63.6 22.9 63.9 22.8 64 22.7C64.2 22.6 64.3 22.3 64.3 22C64.3 21.6 64.2 21.3 64.1 21.2C63.9 21 63.7 21 63.3 21H63C62.9 21 62.8 21 62.8 21C62.8 21 62.7 21 62.7 21.1C62.7 21.1 62.7 21.2 62.7 21.4V22.9Z" fill="white"/>
<path d="M69.7 21.3V24.8C69.7 24.9 69.7 25 69.7 25.1C69.7 25.1 69.7 25.1 69.8 25.2C69.9 25.3 70.2 25.3 70.6 25.3V25.4H68V25.3C68.2 25.3 68.4 25.3 68.5 25.3C68.6 25.3 68.7 25.3 68.8 25.2C68.9 25.2 68.9 25.2 68.9 25.1C68.9 25.1 68.9 25 68.9 24.9V21.4C68.9 21.3 68.9 21.2 68.9 21.2C68.9 21.2 68.9 21.2 68.8 21.1C68.7 21 68.4 21 68 21V20.9H70.7V21C70.5 21 70.3 21 70.2 21C70.1 21 70 21 69.9 21.1H69.8C69.8 21.1 69.7 21.1 69.7 21.3Z" fill="white"/>
<path d="M75.4 25.3L73.9 21.3C73.8 21.1 73.8 21 73.7 21C73.6 21 73.4 20.9 73.1 20.9V20.8H75.6V20.9C75.3 20.9 75.1 20.9 75 20.9C74.9 20.9 74.8 21 74.8 21.1C74.8 21.1 74.8 21.2 74.8 21.3L75.9 24.2L76.6 22C76.7 21.8 76.7 21.6 76.7 21.4C76.7 21 76.5 20.9 76 20.9V20.8H77.8V20.9C77.4 20.9 77.1 21.1 76.9 21.4C76.8 21.5 76.8 21.7 76.7 22L75.6 25.2H75.4V25.3Z" fill="white"/>
<path d="M82.7 23.7H81.4L81.2 24.3C81.1 24.5 81.1 24.6 81.1 24.7C81.1 24.9 81.2 25 81.3 25.1C81.4 25.2 81.6 25.2 81.8 25.2V25.3H80.1V25.2C80.4 25.2 80.7 25.1 80.8 24.8C80.9 24.7 81 24.4 81.2 24L82.4 20.8H82.5L84 24.8C84.1 25 84.1 25.1 84.2 25.1C84.3 25.1 84.5 25.2 84.8 25.2V25.3H82.3V25.2C82.6 25.2 82.9 25.2 83 25.2C83.1 25.2 83.2 25.1 83.2 25V24.9L82.7 23.7ZM82.7 23.7L82.1 22L81.5 23.7H82.7Z" fill="white"/>
<path d="M91.2 20.9V22.8H91.1C91 22.1 90.8 21.5 90.6 21.3C90.4 21.1 90.1 21 89.8 21C89.7 21 89.7 21 89.7 21C89.7 21 89.7 21.1 89.7 21.2V24.9C89.7 25 89.7 25.1 89.7 25.2C89.7 25.2 89.7 25.2 89.8 25.3C89.9 25.3 90 25.3 90.1 25.4C90.3 25.4 90.5 25.4 90.7 25.4V25.5H87.7V25.4C88 25.4 88.2 25.4 88.3 25.4C88.5 25.4 88.6 25.4 88.6 25.3C88.7 25.3 88.7 25.3 88.7 25.2C88.7 25.2 88.7 25.1 88.7 25V21.3C88.7 21.2 88.7 21.1 88.7 21.1H88.6C88.2 21.1 88 21.2 87.8 21.4C87.6 21.7 87.4 22.2 87.3 22.9H87.2V21H91.2V20.9Z" fill="white"/>
<path d="M95.5 23V24.8C95.5 24.9 95.5 25 95.5 25L95.6 25.1C95.7 25.1 95.8 25.1 95.9 25.1C96 25.1 96.2 25.1 96.4 25.1C96.9 25.1 97.3 24.9 97.6 24.6C97.9 24.3 98 23.8 98.1 23.1H98.2V25.1H93.8V25C94.2 25 94.5 25 94.6 24.9C94.6 24.9 94.7 24.9 94.7 24.8C94.7 24.8 94.7 24.7 94.7 24.6V21.1C94.7 21 94.7 20.9 94.7 20.9C94.7 20.9 94.7 20.9 94.6 20.8C94.5 20.8 94.4 20.8 94.3 20.7C94.1 20.7 94 20.7 93.8 20.7V20.6H98V22.3H97.9C97.9 21.9 97.8 21.6 97.6 21.3C97.4 20.9 97 20.7 96.6 20.7C96.4 20.7 96.3 20.7 96.1 20.7C95.9 20.7 95.8 20.7 95.6 20.8C95.6 20.8 95.5 20.8 95.5 20.9C95.5 20.9 95.5 21 95.5 21.1V23C96 22.9 96.3 22.9 96.4 22.8C96.6 22.7 96.7 22.3 96.8 21.6H96.9V24.3H96.8C96.7 23.7 96.6 23.3 96.4 23.1C96.2 23 95.9 23 95.5 23Z" fill="white"/>
<path d="M107.5 25.2C108 25.2 108.5 25 108.8 24.7C109.1 24.4 109.2 23.9 109.2 23.2H109.3V25.3H104.8V25.2C105 25.2 105.2 25.2 105.3 25.2C105.4 25.2 105.5 25.2 105.6 25.1C105.7 25.1 105.7 25.1 105.7 25C105.7 25 105.7 24.9 105.7 24.8V21.3C105.7 21.2 105.7 21.1 105.7 21.1C105.7 21.1 105.7 21.1 105.6 21C105.5 21 105.4 21 105.3 20.9C105.1 20.9 105 20.9 104.8 20.9V20.8H107.6V20.9C107.3 20.9 107.1 20.9 107 20.9C106.9 20.9 106.8 20.9 106.7 21C106.6 21 106.6 21 106.6 21.1C106.6 21.1 106.6 21.2 106.6 21.3V24.8C106.6 24.9 106.6 25 106.6 25.1C106.6 25.1 106.6 25.1 106.7 25.2C106.8 25.2 107.1 25.2 107.5 25.2Z" fill="white"/>
<path d="M113.6 21.3V24.8C113.6 24.9 113.6 25 113.6 25.1C113.6 25.1 113.6 25.1 113.7 25.2C113.8 25.3 114.1 25.3 114.5 25.3V25.4H111.8V25.3C112 25.3 112.2 25.3 112.3 25.3C112.4 25.3 112.5 25.3 112.6 25.2C112.7 25.2 112.7 25.2 112.7 25.1C112.7 25.1 112.7 25 112.7 24.9V21.4C112.7 21.3 112.7 21.2 112.7 21.2C112.7 21.2 112.7 21.2 112.6 21.1C112.5 21 112.2 21 111.8 21V20.9H114.5V21C114.3 21 114.1 21 114 21C113.9 21 113.8 21 113.7 21.1H113.6C113.6 21.1 113.6 21.1 113.6 21.3Z" fill="white"/>
<path d="M118.8 20.9L119.9 24.1L120.9 20.9H122.8V21C122.4 21 122.1 21 122 21.1C122 21.1 121.9 21.1 121.9 21.2C121.9 21.2 121.9 21.3 121.9 21.4V24.9C121.9 25 121.9 25.1 121.9 25.2C121.9 25.2 121.9 25.2 122 25.3C122.1 25.3 122.2 25.3 122.3 25.4C122.4 25.4 122.6 25.4 122.8 25.4V25.5H120.2V25.4C120.4 25.4 120.5 25.4 120.7 25.4C120.8 25.4 120.9 25.4 121 25.3C121.1 25.3 121.1 25.3 121.1 25.2C121.1 25.2 121.1 25.1 121.1 24.9V21.2C121.1 21.1 121.1 21.1 121.1 21.1C121.1 21.1 121.1 21.1 121 21.2L119.8 25.4H119.7L118.2 21.2L118 21C118 21 118 21 118 21.1V24C118 24.5 118.1 24.8 118.2 25C118.3 25.2 118.6 25.2 119 25.2V25.3H117V25.2C117.3 25.2 117.5 25.1 117.7 25C117.8 24.8 117.9 24.6 117.9 24.2V22C117.9 21.6 117.8 21.3 117.7 21.2C117.6 21 117.3 21 117 21V20.9H118.8Z" fill="white"/>
<path d="M126.9 21.3V24.8C126.9 24.9 126.9 25 126.9 25.1C126.9 25.1 126.9 25.1 127 25.2C127.1 25.3 127.4 25.3 127.8 25.3V25.4H125.1V25.3C125.3 25.3 125.5 25.3 125.6 25.3C125.7 25.3 125.8 25.3 125.9 25.2C126 25.2 126 25.2 126 25.1C126 25.1 126 25 126 24.9V21.4C126 21.3 126 21.2 126 21.2C126 21.2 126 21.2 125.9 21.1C125.8 21 125.5 21 125.1 21V20.9H127.8V21C127.6 21 127.4 21 127.3 21C127.2 21 127.1 21 127 21.1H126.9C127 21.1 126.9 21.1 126.9 21.3Z" fill="white"/>
<path d="M134.4 20.9V22.8H134.3C134.2 22.1 134 21.5 133.8 21.3C133.6 21.1 133.3 21 133 21C132.9 21 132.9 21 132.9 21C132.9 21 132.9 21.1 132.9 21.2V24.9C132.9 25 132.9 25.1 132.9 25.2C132.9 25.2 132.9 25.2 133 25.3C133.1 25.3 133.2 25.3 133.3 25.4C133.5 25.4 133.7 25.4 133.9 25.4V25.5H130.9V25.4C131.2 25.4 131.4 25.4 131.5 25.4C131.7 25.4 131.8 25.4 131.8 25.3C131.9 25.3 131.9 25.3 131.9 25.2C131.9 25.2 131.9 25.1 131.9 25V21.3C131.9 21.2 131.9 21.1 131.9 21.1H131.8C131.4 21.1 131.2 21.2 131 21.4C130.8 21.7 130.6 22.2 130.5 22.9H130.4V21H134.4V20.9Z" fill="white"/>
<path d="M138.6 23V24.8C138.6 24.9 138.6 25 138.6 25L138.7 25.1C138.8 25.1 138.9 25.1 139 25.1C139.1 25.1 139.3 25.1 139.5 25.1C140 25.1 140.4 24.9 140.7 24.6C141 24.3 141.1 23.8 141.2 23.1H141.3V25.1H136.9V25C137.3 25 137.6 25 137.7 24.9C137.7 24.9 137.8 24.9 137.8 24.8C137.8 24.8 137.8 24.7 137.8 24.6V21.1C137.8 21 137.8 20.9 137.8 20.9C137.8 20.9 137.8 20.9 137.7 20.8C137.6 20.8 137.5 20.8 137.4 20.7C137.2 20.7 137.1 20.7 136.9 20.7V20.6H141.1V22.3H141C141 21.9 140.9 21.6 140.7 21.3C140.5 20.9 140.1 20.7 139.7 20.7C139.5 20.7 139.4 20.7 139.2 20.7C139 20.7 138.9 20.7 138.7 20.8C138.7 20.8 138.6 20.8 138.6 20.9C138.6 20.9 138.6 21 138.6 21.1V23C139.1 22.9 139.4 22.9 139.5 22.8C139.7 22.7 139.8 22.3 139.9 21.6H140V24.3H139.9C139.8 23.7 139.7 23.3 139.5 23.1C139.4 23 139.1 23 138.6 23Z" fill="white"/>
<path d="M146.7 25.3H144V25.2C144.2 25.2 144.4 25.2 144.5 25.2C144.6 25.2 144.7 25.2 144.8 25.1C144.9 25.1 144.9 25.1 144.9 25C144.9 25 144.9 24.9 144.9 24.7V21.2C144.9 21.1 144.9 21 144.9 21C144.9 21 144.9 21 144.8 20.9C144.7 20.8 144.4 20.8 144 20.8V20.7H146.7C147.2 20.7 147.7 20.9 148.1 21.3C148.6 21.7 148.8 22.3 148.8 23C148.8 23.7 148.6 24.2 148.2 24.6C147.7 25.1 147.2 25.3 146.7 25.3ZM146.7 25.2C147.1 25.2 147.4 25 147.6 24.7C147.8 24.3 147.9 23.8 147.9 23.1C147.9 22.4 147.8 21.9 147.6 21.5C147.4 21.1 147.1 20.9 146.7 20.9C146.5 20.9 146.3 20.9 146.2 20.9C146.1 20.9 146 20.9 146 20.9C146 20.9 145.9 20.9 145.9 21C145.9 21 145.9 21.1 145.9 21.3V24.8C145.9 24.9 145.9 25 145.9 25.1C145.9 25.1 145.9 25.2 146 25.2C146 25.2 146.1 25.2 146.3 25.2C146.3 25.2 146.5 25.2 146.7 25.2Z" fill="white"/>
</svg>
