<?xml version="1.0" encoding="utf-8"?>
<!-- Generator: Adobe Illustrator 27.0.0, SVG Export Plug-In . SVG Version: 6.00 Build 0)  -->
<svg version="1.1" id="Layer_1" xmlns="http://www.w3.org/2000/svg" xmlns:xlink="http://www.w3.org/1999/xlink" x="0px" y="0px"
	 viewBox="0 0 191 35" style="enable-background:new 0 0 191 35;" xml:space="preserve">
<style type="text/css">
	.st0{fill:#FFFFFF;}
</style>
<g>
	<path class="st0" d="M31,8.8c0,0.2-0.3,0.7-0.9,1.5c-0.6,0.8-1.4,1.7-2.4,2.8c-0.9,1.1-2.1,2.4-3.6,3.8c-1.5,1.5-3.1,2.9-4.8,4.4
		c-1.7,1.5-3.4,2.8-5.1,4.1c-1.7,1.3-3.1,2.2-4.3,2.8c-0.5,0.2-1.1,0.5-1.7,0.7c-0.7,0.2-1.2,0.3-1.7,0.4c-0.7,0.1-1.3,0.1-1.6-0.1
		c-0.4-0.1-0.8-0.4-1.5-0.8c-1.6-1.2-2.6-2.9-2.8-5.1c-0.3-2.2,0.2-4.6,1.3-7.2c0.9-2,1.9-3.8,3-5.3c1.1-1.6,2.3-3,3.8-4.3
		c1.4-1.3,2.8-2.3,4.1-3.1c1.3-0.7,2.7-1.3,4.1-1.6C18,1.5,19,1.5,19.8,1.7c0.8,0.2,1.5,0.6,2,1.1c0.8,0.8,1.1,1.7,0.9,2.7
		c-0.2,1.1-0.8,2.2-1.7,3.4c-0.9,1.2-2,2.4-3.4,3.6c-1.4,1.2-2.8,2.4-4.2,3.5c-1.5,1.1-2.9,2.1-4.2,3C7.9,19.8,6.8,20.5,6,21
		c-0.8,1.8-1.3,3.2-1.5,4.2c-0.2,1.1-0.1,1.7,0.3,1.9c0.2,0.1,0.6,0.1,1.1,0c0.5-0.1,1.1-0.2,1.8-0.4c0.6-0.2,1.3-0.4,1.9-0.7
		c0.7-0.3,1.2-0.5,1.7-0.8c1.3-0.7,2.6-1.6,4.1-2.7c1.5-1.1,2.9-2.2,4.3-3.4c1.4-1.2,2.8-2.3,4-3.5c1.2-1.2,2.3-2.2,3.1-3.2l0.2-0.2
		c1.6-1.9,2.7-3,3.2-3.5C30.7,8.5,31,8.4,31,8.8z M1.7,20.5c0.1-0.4,0.3-0.9,0.6-1.6c0.3-0.6,0.5-1.2,0.8-1.8c0.8-1.7,1.8-3.4,3-5.1
		c1.2-1.7,2.5-3.1,3.8-4.3C10.5,7,11.2,6.4,11.7,6c0.6-0.4,0.9-0.7,1-0.7c0.2,0,0.4-0.1,0.4-0.4c0-0.2-0.2-0.2-0.5-0.1
		s-0.7,0.3-1.2,0.6s-1,0.7-1.5,1.1C9.4,7.1,8.9,7.5,8.5,8C7.4,9,6.5,10.1,5.8,11.2c-0.7,1.1-1.5,2.4-2.3,3.9
		c-0.3,0.6-0.6,1.2-0.8,1.8c-0.3,0.6-0.5,1.3-0.8,1.9c-0.2,0.6-0.4,1.2-0.5,1.7c-0.1,0.5-0.2,0.8-0.1,1c0,0.1,0.1,0.1,0.2-0.1
		C1.5,21.2,1.6,20.9,1.7,20.5z M23.5,21c0.1,0-0.1,0.3-0.8,0.9c-0.6,0.6-1.5,1.2-2.5,2c-1,0.8-2.1,1.6-3.2,2.5
		c-1.2,0.9-2.2,1.6-3.2,2.3c-1.1,0.7-2.1,1.4-3.2,1.9c-1.1,0.5-2,1-2.9,1.3c-0.9,0.3-1.6,0.5-2.3,0.6c-0.6,0.1-1,0-1.2-0.3
		c-0.1-0.1,0-0.1,0.1-0.2c0.2,0,0.4,0,0.6,0c0.6,0.1,1.5-0.1,2.8-0.6c1.2-0.5,2.6-1.2,4.1-2.1c1.5-0.9,3.2-2,4.8-3.2
		c1.7-1.2,3.3-2.5,4.8-3.8c0.4-0.4,0.9-0.7,1.2-1C23.2,21.1,23.4,21,23.5,21z M18.1,13.4c-1,1.5-2.1,2.8-3.4,3.9
		c-1.3,1.1-2.4,1.9-3.6,2.6c-1.3,0.8-2.6,1.4-3.9,1.9c1.9-1.1,3.5-2.1,4.8-3.2c1.4-1,2.5-1.9,3.4-2.7C16.5,15.1,17.4,14.2,18.1,13.4
		z M18.4,5.9c-1.8,0.9-3.7,2.4-5.6,4.5c-1.9,2.1-3.7,4.7-5.3,7.6c0.9-0.6,2-1.3,3.4-2.2C12.3,15,13.6,14,15,13
		c1.4-1,2.7-2.1,3.8-3.3c1.2-1.2,2-2.4,2.6-3.7c0.3-0.7,0.2-1.1-0.2-1.1C20.8,4.9,19.8,5.2,18.4,5.9z M11.2,34.7
		c0.3-0.1,0.5-0.1,0.7,0.1c0.1,0.1,0,0.2-0.4,0.2C11,34.9,10.9,34.9,11.2,34.7z M11.6,14.5c0.7-0.8,1.5-1.6,2.3-2.5
		c0.8-0.8,1.6-1.6,2.3-2.4c0.7-0.7,1.4-1.3,1.9-1.8c0.5-0.5,0.9-0.7,1.1-0.8c0.2,0,0,0.2-0.4,0.7c-0.4,0.5-1.1,1.1-1.8,1.8
		c-1,0.9-1.9,1.7-2.7,2.6c-0.9,0.8-1.6,1.6-2.3,2.4H11.6z"/>
	<path class="st0" d="M53.2,12.4c1.6-1.9,2.7-3,3.2-3.5c0.5-0.4,0.8-0.5,0.8-0.1c0,0.2-0.4,0.8-1.1,1.8c-0.7,0.9-1.7,2-2.9,3.3
		c-1.2,1.3-2.5,2.7-3.9,4.2c-1.4,1.5-2.8,2.9-4.1,4.2c-1.3,1.3-2.5,2.5-3.6,3.4c-1.1,1-1.9,1.6-2.4,1.9c-0.3,0.2-0.6,0.4-0.8,0.5
		c-0.3,0.1-0.5,0.2-0.8,0.3l-0.1,0.1c-1.6,1.7-3.4,2.8-5.2,3.3c-1.9,0.5-3.6,0.3-5.3-0.5c-1.4-0.7-2.4-1.6-2.9-2.7
		c-0.5-1.1-0.5-2.3,0.1-3.5c0,0.3,0,0.6,0.1,0.9c0,0.3,0.1,0.6,0.2,0.9c0.1,0.3,0.2,0.6,0.4,0.9c0,0,0.1,0.1,0.1,0.1
		c0.3,0.5,0.8,0.9,1.4,1.2c0.6,0.3,1.4,0.3,2.5-0.1c0.9-0.1,1.7-0.3,2.5-0.7c0.4-0.2,0.8-0.4,1.3-0.8c0.5-0.4,1-0.8,1.5-1.2
		c0.5-0.4,0.9-0.9,1.4-1.4c0.4-0.5,0.8-0.9,1.2-1.4c0.1-0.4,0.2-0.9,0.3-1.2c0.1-0.4,0.1-0.7,0.2-1.1l0.1-1.2c0-1.5-0.3-2.7-0.8-3.8
		s-1-2.1-1.5-3.1c-0.5-1-0.8-2-0.9-3.1s0.2-2.4,1-3.9l0.2-0.4L29.4,11l-1-0.3c2.2-2.4,4.1-4.3,5.6-5.5c1.5-1.3,2.7-2.2,3.7-2.8
		c1.1-0.7,2-1.1,2.6-1.2c0.7-0.2,1.3-0.3,1.9-0.4c0.6-0.1,1.1-0.1,1.5,0c0.5,0.1,1,0.2,1.5,0.4c0.8,0.2,1.5,0.7,1.9,1.5
		c0.2,0.5,0.4,1.2,0.3,2.1c0,0.9-0.2,1.7-0.5,2.3c-0.1,0.3-0.4,0.6-0.7,1.1c-0.3,0.4-0.7,0.8-1.1,1.2c-0.4,0.4-0.8,0.7-1.1,1
		c-0.3,0.3-0.6,0.4-0.7,0.4c-0.3,0-0.4-0.2-0.2-0.5c0.2-0.3,0.6-0.9,1.3-1.8c0.9-1.1,1.5-2,1.9-2.9c0.4-0.9,0.4-1.5,0.1-1.9
		C46.1,3.1,45.7,3,45.1,3c-0.5,0-1.1,0.2-1.8,0.5s-1.3,0.7-1.9,1.3c-0.6,0.5-1.2,1.2-1.6,1.9c-0.2,0.4-0.4,0.7-0.5,1.1
		c-0.1,0.4-0.2,0.8-0.2,1.2c0,0.4,0,0.9,0.1,1.5c0.1,0.6,0.3,1.3,0.5,2.2c0.2,0.7,0.4,1.5,0.5,2.4c0.2,0.9,0.3,1.5,0.4,2l0.2,1.8
		l-0.1,1.7c0,0.1-0.1,0.2-0.1,0.5v0.2c0,0.6,0,1.3-0.2,1.9s-0.3,1.2-0.6,1.8c0.9-0.7,1.9-1.5,3-2.5c1.1-0.9,2.2-2,3.4-3
		c1.2-1.1,2.3-2.2,3.5-3.4C51,14.7,52.1,13.5,53.2,12.4z M24.2,25c0.2-0.4,0.5-0.9,0.9-1.3L24.2,25z M39.2,30.2
		c1.3-1.2,1.7-1.5,1.3-0.9c-0.5,0.7-1.1,1.3-1.9,2c-0.8,0.6-1.6,1.2-2.5,1.7c-0.9,0.5-1.8,0.9-2.7,1.2c-0.9,0.3-1.7,0.5-2.4,0.5
		c-0.6,0-0.8-0.1-0.8-0.1c0.1,0,0.5-0.1,1.3-0.2C34.3,33.9,36.8,32.5,39.2,30.2z M38.6,21.6c0-0.4,0-1-0.1-1.8s-0.2-1.6-0.3-2.4
		c-0.1-0.8-0.3-1.4-0.5-1.8c-0.2-0.5-0.3-0.5-0.4-0.2c-0.1,0.2-0.1,0.3-0.2,0.3l0.3,1.7c0-0.4,0-0.6,0-0.6s0.1,0.1,0.2,0.4
		c0.2,0.4,0.3,0.9,0.4,1.5c0.1,0.6,0.1,1.2,0.1,1.8c0,0.6-0.1,1.2-0.2,1.8c-0.1,0.6-0.3,1.1-0.4,1.5c-0.2,0.4-0.6,1-1.2,1.8
		c-0.6,0.8-1.2,1.5-1.8,2.2c-0.6,0.7-1.2,1.3-1.6,1.7c-0.4,0.5-0.6,0.7-0.5,0.7c0,0,0.3-0.2,0.7-0.5c0.4-0.3,0.9-0.7,1.4-1.2
		c0.2-0.2,0.4-0.3,0.5-0.5c0.2-0.2,0.3-0.4,0.5-0.6v-0.5c0,0.1,0.1,0.2,0.2,0.2c0.7-0.8,1.3-1.7,1.8-2.7S38.5,22.4,38.6,21.6z
		 M36.6,6.1c0.1-0.2,0.3-0.6,0.6-0.9c0.3-0.4,0.5-0.7,0.8-1c0.3-0.3,0.5-0.5,0.6-0.7c0.1-0.2,0.1-0.3,0.1-0.3
		c-0.1,0-0.3,0.1-0.5,0.3c-0.2,0.2-0.5,0.5-0.7,0.8c-0.3,0.3-0.5,0.7-0.8,1.1c-0.2,0.4-0.4,0.7-0.5,1c-0.1,0.3-0.2,0.8-0.3,1.5
		s-0.1,1.3-0.1,1.8l0.1,2.1l0.2-2.4C36,8.7,36.1,8,36.2,7.4C36.3,6.7,36.4,6.3,36.6,6.1z M36,12.7c0.2-0.2,0.2-0.4,0-0.7
		c-0.1-0.3-0.2-0.2-0.2,0.2c0,0.2,0,0.4,0,0.5C35.9,12.8,35.9,12.8,36,12.7z M42.2,6.6c-0.5,0.5-0.9,0.9-1.2,1.2
		c-0.3,0.3-0.4,0.3-0.3,0.1c0.1-0.2,0.3-0.5,0.6-0.9c0.3-0.4,0.6-0.8,1-1.1c0.4-0.4,0.7-0.7,1-1c0.3-0.3,0.4-0.4,0.5-0.4
		c0,0.1-0.1,0.3-0.4,0.7C43.1,5.6,42.7,6.1,42.2,6.6z"/>
	<path class="st0" d="M79.3,12.4c1.6-1.9,2.7-3,3.2-3.5c0.5-0.4,0.8-0.5,0.8-0.1c0,0.2-0.4,0.8-1.1,1.8c-0.7,0.9-1.7,2-2.9,3.3
		c-1.2,1.3-2.5,2.7-3.9,4.2c-1.4,1.5-2.8,2.9-4.1,4.2c-1.3,1.3-2.5,2.5-3.6,3.4c-1.1,1-1.9,1.6-2.4,1.9c-0.3,0.2-0.6,0.4-0.8,0.5
		c-0.3,0.1-0.5,0.2-0.8,0.3l-0.1,0.1c-1.6,1.7-3.4,2.8-5.2,3.3c-1.9,0.5-3.6,0.3-5.3-0.5c-1.4-0.7-2.4-1.6-2.9-2.7
		c-0.5-1.1-0.5-2.3,0.1-3.5c0,0.3,0,0.6,0.1,0.9c0,0.3,0.1,0.6,0.2,0.9c0.1,0.3,0.2,0.6,0.4,0.9c0,0,0.1,0.1,0.1,0.1
		c0.3,0.5,0.8,0.9,1.4,1.2c0.6,0.3,1.4,0.3,2.5-0.1c0.9-0.1,1.7-0.3,2.5-0.7c0.4-0.2,0.8-0.4,1.3-0.8c0.5-0.4,1-0.8,1.5-1.2
		c0.5-0.4,0.9-0.9,1.4-1.4c0.4-0.5,0.8-0.9,1.2-1.4c0.1-0.4,0.2-0.9,0.3-1.2c0.1-0.4,0.1-0.7,0.2-1.1l0.1-1.2c0-1.5-0.3-2.7-0.8-3.8
		c-0.5-1.1-1-2.1-1.5-3.1c-0.5-1-0.8-2-0.9-3.1s0.2-2.4,1-3.9l0.2-0.4L55.6,11l-1-0.3c2.2-2.4,4.1-4.3,5.6-5.5
		c1.5-1.3,2.7-2.2,3.7-2.8c1.1-0.7,2-1.1,2.6-1.2c0.7-0.2,1.3-0.3,1.9-0.4c0.6-0.1,1.1-0.1,1.5,0c0.5,0.1,1,0.2,1.5,0.4
		c0.8,0.2,1.5,0.7,1.9,1.5c0.2,0.5,0.4,1.2,0.3,2.1c0,0.9-0.2,1.7-0.5,2.3C73,7.2,72.7,7.6,72.4,8c-0.3,0.4-0.7,0.8-1.1,1.2
		c-0.4,0.4-0.8,0.7-1.1,1c-0.3,0.3-0.6,0.4-0.7,0.4c-0.3,0-0.4-0.2-0.2-0.5c0.2-0.3,0.6-0.9,1.3-1.8c0.9-1.1,1.5-2,1.9-2.9
		s0.4-1.5,0.1-1.9C72.3,3.1,71.9,3,71.3,3c-0.5,0-1.1,0.2-1.8,0.5c-0.6,0.3-1.3,0.7-1.9,1.3c-0.6,0.5-1.2,1.2-1.6,1.9
		c-0.2,0.4-0.4,0.7-0.5,1.1c-0.1,0.4-0.2,0.8-0.2,1.2c0,0.4,0,0.9,0.1,1.5c0.1,0.6,0.3,1.3,0.5,2.2c0.2,0.7,0.4,1.5,0.5,2.4
		c0.2,0.9,0.3,1.5,0.4,2l0.2,1.8L67,20.3c0,0.1-0.1,0.2-0.1,0.5v0.2c0,0.6,0,1.3-0.2,1.9s-0.3,1.2-0.6,1.8c0.9-0.7,1.9-1.5,3-2.5
		c1.1-0.9,2.2-2,3.4-3c1.2-1.1,2.3-2.2,3.5-3.4C77.2,14.7,78.3,13.5,79.3,12.4z M50.4,25c0.2-0.4,0.5-0.9,0.9-1.3L50.4,25z
		 M65.4,30.2c1.3-1.2,1.7-1.5,1.3-0.9c-0.5,0.7-1.1,1.3-1.9,2c-0.8,0.6-1.6,1.2-2.5,1.7c-0.9,0.5-1.8,0.9-2.7,1.2
		c-0.9,0.3-1.7,0.5-2.4,0.5c-0.6,0-0.8-0.1-0.8-0.1c0.1,0,0.5-0.1,1.3-0.2C60.5,33.9,63,32.5,65.4,30.2z M64.8,21.6
		c0-0.4,0-1-0.1-1.8s-0.2-1.6-0.3-2.4c-0.1-0.8-0.3-1.4-0.5-1.8c-0.2-0.5-0.3-0.5-0.4-0.2c-0.1,0.2-0.1,0.3-0.2,0.3l0.3,1.7
		c0-0.4,0-0.6,0-0.6c0,0,0.1,0.1,0.2,0.4c0.2,0.4,0.3,0.9,0.4,1.5c0.1,0.6,0.1,1.2,0.1,1.8c0,0.6-0.1,1.2-0.2,1.8
		c-0.1,0.6-0.3,1.1-0.4,1.5c-0.2,0.4-0.6,1-1.2,1.8c-0.6,0.8-1.2,1.5-1.8,2.2c-0.6,0.7-1.2,1.3-1.6,1.7c-0.4,0.5-0.6,0.7-0.5,0.7
		c0,0,0.3-0.2,0.7-0.5c0.4-0.3,0.9-0.7,1.4-1.2c0.2-0.2,0.4-0.3,0.5-0.5c0.2-0.2,0.3-0.4,0.5-0.6v-0.5c0,0.1,0.1,0.2,0.2,0.2
		c0.7-0.8,1.3-1.7,1.8-2.7C64.3,23.3,64.6,22.4,64.8,21.6z M62.7,6.1c0.1-0.2,0.3-0.6,0.6-0.9c0.3-0.4,0.5-0.7,0.8-1
		c0.3-0.3,0.5-0.5,0.6-0.7c0.1-0.2,0.1-0.3,0.1-0.3c-0.1,0-0.3,0.1-0.5,0.3C64,3.7,63.8,4,63.5,4.3C63.2,4.6,63,5,62.7,5.4
		c-0.2,0.4-0.4,0.7-0.5,1c-0.1,0.3-0.2,0.8-0.3,1.5c-0.1,0.6-0.1,1.3-0.1,1.8l0.1,2.1l0.2-2.4c0.1-0.6,0.2-1.3,0.3-1.9
		C62.5,6.7,62.6,6.3,62.7,6.1z M62.2,12.7c0.2-0.2,0.2-0.4,0-0.7c-0.1-0.3-0.2-0.2-0.2,0.2c0,0.2,0,0.4,0,0.5
		C62,12.8,62.1,12.8,62.2,12.7z M68.4,6.6c-0.5,0.5-0.9,0.9-1.2,1.2c-0.3,0.3-0.4,0.3-0.3,0.1C67,7.7,67.3,7.4,67.6,7
		c0.3-0.4,0.6-0.8,1-1.1c0.4-0.4,0.7-0.7,1-1C69.8,4.6,70,4.5,70,4.5c0,0.1-0.1,0.3-0.4,0.7C69.3,5.6,68.9,6.1,68.4,6.6z"/>
	<path class="st0" d="M107.3,8.8c0,0.2-0.3,0.7-0.9,1.5c-0.6,0.8-1.4,1.7-2.4,2.8c-0.9,1.1-2.1,2.4-3.6,3.8s-3.1,2.9-4.8,4.4
		c-1.7,1.5-3.4,2.8-5.1,4.1c-1.7,1.3-3.1,2.2-4.3,2.8c-0.5,0.2-1.1,0.5-1.7,0.7c-0.7,0.2-1.2,0.3-1.7,0.4c-0.7,0.1-1.3,0.1-1.6-0.1
		c-0.4-0.1-0.8-0.4-1.5-0.8c-1.6-1.2-2.6-2.9-2.8-5.1c-0.3-2.2,0.2-4.6,1.3-7.2c0.9-2,1.9-3.8,3-5.3c1.1-1.6,2.3-3,3.8-4.3
		c1.4-1.3,2.8-2.3,4.1-3.1c1.3-0.7,2.7-1.3,4.1-1.6c1.2-0.3,2.1-0.3,2.9-0.2c0.8,0.2,1.5,0.6,2,1.1c0.8,0.8,1.1,1.7,0.9,2.7
		s-0.8,2.2-1.7,3.4c-0.9,1.2-2,2.4-3.4,3.6c-1.4,1.2-2.8,2.4-4.2,3.5c-1.5,1.1-2.9,2.1-4.2,3c-1.4,0.9-2.5,1.6-3.3,2.1
		c-0.8,1.8-1.3,3.2-1.5,4.2c-0.2,1.1-0.1,1.7,0.3,1.9c0.2,0.1,0.6,0.1,1.1,0c0.5-0.1,1.1-0.2,1.8-0.4c0.6-0.2,1.3-0.4,1.9-0.7
		c0.7-0.3,1.2-0.5,1.7-0.8c1.3-0.7,2.6-1.6,4.1-2.7c1.5-1.1,2.9-2.2,4.3-3.4c1.4-1.2,2.8-2.3,4-3.5s2.3-2.2,3.1-3.2l0.2-0.2
		c1.6-1.9,2.7-3,3.2-3.5C107.1,8.5,107.3,8.4,107.3,8.8z M78.1,20.5c0.1-0.4,0.3-0.9,0.6-1.6c0.3-0.6,0.5-1.2,0.8-1.8
		c0.8-1.7,1.8-3.4,3-5.1c1.2-1.7,2.5-3.1,3.8-4.3C86.9,7,87.5,6.4,88.1,6c0.6-0.4,0.9-0.7,1-0.7c0.2,0,0.4-0.1,0.4-0.4
		c0-0.2-0.2-0.2-0.5-0.1c-0.3,0.1-0.7,0.3-1.2,0.6s-1,0.7-1.5,1.1c-0.5,0.4-1,0.9-1.5,1.4c-1.1,1.1-1.9,2.1-2.7,3.2
		c-0.7,1.1-1.5,2.4-2.3,3.9c-0.3,0.6-0.6,1.2-0.8,1.8c-0.3,0.6-0.5,1.3-0.8,1.9c-0.2,0.6-0.4,1.2-0.5,1.7c-0.1,0.5-0.2,0.8-0.1,1
		c0,0.1,0.1,0.1,0.2-0.1C77.8,21.2,77.9,20.9,78.1,20.5z M99.8,21c0.1,0-0.1,0.3-0.8,0.9c-0.6,0.6-1.5,1.2-2.5,2
		c-1,0.8-2.1,1.6-3.2,2.5c-1.2,0.9-2.2,1.6-3.2,2.3c-1.1,0.7-2.1,1.4-3.2,1.9c-1.1,0.5-2,1-2.9,1.3c-0.9,0.3-1.6,0.5-2.3,0.6
		c-0.6,0.1-1,0-1.2-0.3c-0.1-0.1,0-0.1,0.1-0.2c0.2,0,0.4,0,0.6,0c0.6,0.1,1.5-0.1,2.8-0.6c1.2-0.5,2.6-1.2,4.1-2.1
		c1.5-0.9,3.2-2,4.8-3.2c1.7-1.2,3.3-2.5,4.8-3.8c0.4-0.4,0.9-0.7,1.2-1C99.5,21.1,99.7,21,99.8,21z M94.5,13.4
		c-1,1.5-2.1,2.8-3.4,3.9c-1.3,1.1-2.4,1.9-3.6,2.6c-1.3,0.8-2.6,1.4-3.9,1.9c1.9-1.1,3.5-2.1,4.8-3.2c1.4-1,2.5-1.9,3.4-2.7
		C92.9,15.1,93.8,14.2,94.5,13.4z M94.7,5.9c-1.8,0.9-3.7,2.4-5.6,4.5c-1.9,2.1-3.7,4.7-5.3,7.6c0.9-0.6,2-1.3,3.4-2.2
		C88.6,15,90,14,91.4,13c1.4-1,2.7-2.1,3.8-3.3c1.2-1.2,2-2.4,2.6-3.7c0.3-0.7,0.2-1.1-0.2-1.1C97.1,4.9,96.1,5.2,94.7,5.9z
		 M87.6,34.7c0.3-0.1,0.5-0.1,0.7,0.1c0.1,0.1,0,0.2-0.4,0.2C87.3,34.9,87.3,34.9,87.6,34.7z M87.9,14.5c0.7-0.8,1.5-1.6,2.3-2.5
		c0.8-0.8,1.6-1.6,2.3-2.4c0.7-0.7,1.4-1.3,1.9-1.8c0.5-0.5,0.9-0.7,1.1-0.8c0.2,0,0,0.2-0.4,0.7c-0.4,0.5-1.1,1.1-1.8,1.8
		c-1,0.9-1.9,1.7-2.7,2.6c-0.9,0.8-1.6,1.6-2.3,2.4H87.9z"/>
	<path class="st0" d="M140.3,8.8c0,0.2-0.4,0.8-1.1,1.8c-0.7,0.9-1.7,2-2.9,3.3c-1.2,1.3-2.5,2.7-3.9,4.2c-1.4,1.5-2.8,2.9-4.1,4.2
		c-1.3,1.3-2.5,2.5-3.6,3.4c-1.1,1-1.9,1.6-2.4,1.9c-1.1,0.6-2,1.1-2.8,1.2c-0.8,0.2-1.5,0.1-2.2-0.2c-0.8-0.3-1.4-0.9-1.8-1.7
		c-0.4-0.8-0.6-1.8-0.6-3c0-0.8,0.1-1.7,0.3-2.5c0.2-0.9,0.6-1.9,1.1-3.1c0.5-1.2,1.2-2.6,2-4.2c0.8-1.6,1.9-3.6,3.2-5.8
		c0.4-0.8,0.9-1.6,1.3-2.4c0.4-0.8,0.8-1.5,1.1-2.1c-0.1,0.1-0.2,0.2-0.3,0.3c-0.1,0.1-0.2,0.2-0.3,0.3c-0.6,0.5-1.3,1-1.9,1.6
		c-0.7,0.6-1.5,1.4-2.5,2.5c-1,1.1-2.2,2.5-3.7,4.2c-1.5,1.7-3.2,4-5.3,6.7c-2.4,3.1-4.2,5.3-5.4,6.7c-1.2,1.4-2,2-2.4,2
		c-0.1,0-0.4-0.1-0.7-0.3c-0.3-0.2-0.7-0.5-1.1-0.8c-0.3-0.3-0.6-0.5-0.7-0.7c-0.2-0.2-0.3-0.4-0.4-0.6c-0.1-0.2-0.1-0.5-0.2-0.7
		c0-0.2,0-0.6,0-1c0-0.4,0-0.7,0.1-1.1c0.1-0.4,0.2-0.8,0.4-1.3c0.2-0.5,0.5-1.1,0.8-1.9c0.4-0.7,0.8-1.7,1.4-2.8
		c0.4-0.7,0.8-1.6,1.3-2.5c0.5-0.9,1-1.9,1.5-2.8c0.5-0.9,1-1.9,1.5-2.8c0.5-0.9,1-1.7,1.4-2.4c0.8-1.4,1.5-2.7,2.1-3.8
		c0.6-1.1,0.8-1.7,0.8-1.9c0-0.2,0.1-0.4,0.3-0.5c0.2-0.1,0.5-0.1,0.8-0.1c0.3,0.1,0.7,0.2,1.1,0.4c0.4,0.2,0.7,0.5,1.1,0.8
		c0.6,0.5,0.9,0.9,1.1,1.2c0.1,0.3,0.2,0.8,0.2,1.5c0,1-0.2,2.1-0.7,3.4c-0.5,1.3-1.2,3.1-2.3,5.2c-0.4,0.9-0.8,1.7-1.1,2.4
		c-0.3,0.7-0.5,1-0.5,1.1c0,0,0,0,0.2-0.1s0.3-0.3,0.6-0.7s0.8-1,1.5-1.8c0.7-0.8,1.5-1.9,2.6-3.3c0.9-1.1,2-2.3,3.2-3.5
		c1.2-1.2,2.3-2.3,3.3-3.2s1.9-1.7,2.7-2.3c0.7-0.6,1.2-0.9,1.2-0.8c0.2,0,0.5,0.1,0.8,0.2c0.3,0.2,0.6,0.4,0.9,0.6
		c0.3,0.2,0.6,0.5,0.9,0.8c0.3,0.3,0.5,0.6,0.7,0.9c0.4,0.6,0.6,1.2,0.6,1.8c0.1,0.6-0.1,1.4-0.5,2.4c-0.4,0.9-1,2.1-1.8,3.6
		s-2,3.3-3.4,5.5c-1.2,1.8-2.1,3.3-2.8,4.4c-0.7,1.1-1.2,2-1.6,2.7c-0.4,0.7-0.6,1.2-0.7,1.5c-0.1,0.4-0.2,0.7-0.2,1
		c0,0.4,0,0.7,0.1,0.9s0.3,0.2,0.6,0.2c0.5,0,1.3-0.4,2.6-1.3c1.2-0.9,2.6-2,4.2-3.4c1.6-1.4,3.3-3,5.1-4.7c1.8-1.7,3.5-3.5,5.1-5.2
		c0.8-0.9,1.5-1.7,2-2.2c0.5-0.5,0.9-0.9,1.2-1.2c0.3-0.3,0.5-0.4,0.6-0.4C140.3,8.5,140.3,8.6,140.3,8.8z M108.8,8.2
		c0.6-1,1.2-1.9,1.6-2.6c0.4-0.7,0.6-1.1,0.5-1.2c-0.1-0.1-0.4,0.2-0.8,0.8c-0.5,0.6-1,1.4-1.6,2.3c-0.6,0.9-1.2,1.9-1.8,3
		s-1.1,2-1.5,2.7c-0.3,0.6-0.7,1.4-1.1,2.3c-0.4,0.9-0.7,1.8-1.1,2.7s-0.6,1.6-0.8,2.3c-0.2,0.7-0.3,1.1-0.3,1.3
		c0,0.1,0.1-0.1,0.3-0.6c0.2-0.5,0.5-1.2,0.8-2c0.3-0.8,0.7-1.7,1.2-2.8c0.4-1,0.8-1.8,1.2-2.5c0.3-0.6,0.8-1.5,1.5-2.6
		C107.6,10.3,108.2,9.2,108.8,8.2z M114.7,16.5c0.1,0,0,0.3-0.5,1c-0.4,0.6-1,1.5-1.8,2.5c-0.7,1-1.6,2.1-2.5,3.2
		c-0.9,1.2-1.8,2.2-2.6,3.3c-0.8,1-1.6,1.9-2.2,2.6c-0.6,0.7-1.1,1.1-1.2,1.2c-0.2,0.1-0.2,0.1-0.1-0.2c0.1-0.2,0.5-0.6,0.9-1.2
		c0.2-0.2,0.5-0.6,0.9-1.1c0.4-0.5,0.9-1,1.4-1.7c0.5-0.6,1.1-1.3,1.7-2.1c0.6-0.7,1.2-1.5,1.7-2.2c1.1-1.5,2.1-2.7,2.9-3.8
		S114.7,16.5,114.7,16.5z M115.5,15.4l0.4-0.3l-0.3,0.4c-0.5,0.6-0.7,0.8-0.7,0.5C114.9,15.9,115.1,15.7,115.5,15.4z M116.7,14.1
		c-0.5,0.7-0.7,0.8-0.7,0.5c0-0.1,0.2-0.3,0.6-0.6l0.4-0.3L116.7,14.1z M117.6,18.3c0.4-0.9,1-2,1.5-3.1c0.6-1.2,1.1-2,1.5-2.7
		c0.2-0.3,0.4-0.7,0.7-1.2c0.3-0.5,0.5-1,0.8-1.5c0.3-0.5,0.5-1,0.8-1.4c0.2-0.4,0.4-0.7,0.5-0.9c0.7-0.9,0.9-1.4,0.8-1.4
		c-0.2,0-0.6,0.5-1.3,1.4c-0.6,0.8-1.3,1.8-2,3.1s-1.4,2.6-2.1,3.9c-0.6,1.3-1.2,2.6-1.7,3.8c-0.5,1.2-0.8,2.1-0.9,2.7
		c0,0.2,0.1,0.1,0.4-0.4C116.8,20,117.1,19.3,117.6,18.3z M126.2,14.7c0.6-1,1.1-1.7,1.4-2.2c0.3-0.5,0.5-0.8,0.7-1
		c0.1-0.2,0.2-0.3,0.3-0.2c0,0,0.1,0.1,0.1,0.1c0,0-0.1,0.4-0.5,1.2c-0.4,0.7-0.9,1.6-1.5,2.6c-0.6,1-1.2,2-1.9,3.1
		c-0.7,1.1-1.2,1.9-1.7,2.5c-0.3,0.4-0.7,1-1.2,1.5c-0.5,0.6-0.9,1.1-1.3,1.5c-1,1.1-0.6,0.4,1.2-2.1c0.7-1.1,1.5-2.3,2.4-3.6
		C124.9,16.7,125.7,15.6,126.2,14.7z M121.9,29.7c0.4-0.2,0.9-0.5,1.4-0.8c0.5-0.3,1.1-0.8,1.7-1.3c0.6-0.6,1.4-1.3,2.3-2.1
		c0.9-0.8,1.9-1.9,3.2-3.2c0.2-0.1,0.3-0.3,0.4-0.4c-0.7,0.8-1.4,1.5-2.1,2.3c-0.7,0.8-1.4,1.5-2,2.1c-0.7,0.7-1.3,1.3-1.8,1.8
		c-0.5,0.5-1,0.9-1.4,1.1c-0.6,0.4-1.1,0.7-1.7,1c-0.6,0.3-1,0.5-1.3,0.5c-0.3,0.1-0.4,0-0.2-0.2C120.7,30.3,121.2,30.1,121.9,29.7z
		 M133.1,19.2c0.2-0.2,0.3-0.4,0.4-0.4c0.1,0,0.1,0-0.1,0.2c-0.1,0.2-0.4,0.5-0.8,1c-0.4,0.5-1,1.1-1.8,1.8c0.4-0.4,0.8-0.9,1.2-1.3
		C132.5,20,132.8,19.6,133.1,19.2z"/>
	<path class="st0" d="M162.5,12.4c1.6-1.9,2.7-3,3.2-3.5c0.5-0.4,0.8-0.5,0.8-0.1c0,0.2-0.4,0.8-1.1,1.8c-0.7,0.9-1.7,2-2.9,3.3
		c-1.2,1.3-2.5,2.7-3.9,4.2c-1.4,1.5-2.8,2.9-4.1,4.2c-1.3,1.3-2.5,2.5-3.6,3.4c-1.1,1-1.9,1.6-2.4,1.9c-0.3,0.2-0.6,0.4-0.8,0.5
		c-0.3,0.1-0.5,0.2-0.8,0.3l-0.1,0.1c-1.6,1.7-3.4,2.8-5.2,3.3c-1.9,0.5-3.6,0.3-5.3-0.5c-1.4-0.7-2.4-1.6-2.9-2.7
		c-0.5-1.1-0.5-2.3,0.1-3.5c0,0.3,0,0.6,0.1,0.9c0,0.3,0.1,0.6,0.2,0.9c0.1,0.3,0.2,0.6,0.4,0.9c0,0,0.1,0.1,0.1,0.1
		c0.3,0.5,0.8,0.9,1.4,1.2c0.6,0.3,1.4,0.3,2.5-0.1c0.9-0.1,1.7-0.3,2.5-0.7c0.4-0.2,0.8-0.4,1.3-0.8c0.5-0.4,1-0.8,1.5-1.2
		c0.5-0.4,0.9-0.9,1.4-1.4c0.4-0.5,0.8-0.9,1.2-1.4c0.1-0.4,0.2-0.9,0.3-1.2c0.1-0.4,0.1-0.7,0.2-1.1l0.1-1.2c0-1.5-0.3-2.7-0.8-3.8
		c-0.5-1.1-1-2.1-1.5-3.1c-0.5-1-0.8-2-0.9-3.1c-0.1-1.1,0.2-2.4,1-3.9l0.2-0.4l-5.8,5.4l-1-0.3c2.2-2.4,4.1-4.3,5.6-5.5
		c1.5-1.3,2.7-2.2,3.7-2.8c1.1-0.7,2-1.1,2.6-1.2c0.7-0.2,1.3-0.3,1.9-0.4c0.6-0.1,1.1-0.1,1.5,0c0.5,0.1,1,0.2,1.5,0.4
		c0.8,0.2,1.5,0.7,1.9,1.5c0.2,0.5,0.4,1.2,0.3,2.1c0,0.9-0.2,1.7-0.5,2.3c-0.1,0.3-0.4,0.6-0.7,1.1c-0.3,0.4-0.7,0.8-1.1,1.2
		c-0.4,0.4-0.8,0.7-1.1,1c-0.3,0.3-0.6,0.4-0.7,0.4c-0.3,0-0.4-0.2-0.2-0.5c0.2-0.3,0.6-0.9,1.3-1.8c0.9-1.1,1.5-2,1.9-2.9
		c0.4-0.9,0.4-1.5,0.1-1.9C155.4,3.1,155,3,154.5,3c-0.5,0-1.1,0.2-1.8,0.5s-1.3,0.7-1.9,1.3s-1.2,1.2-1.6,1.9
		c-0.2,0.4-0.4,0.7-0.5,1.1c-0.1,0.4-0.2,0.8-0.2,1.2c0,0.4,0,0.9,0.1,1.5c0.1,0.6,0.3,1.3,0.5,2.2c0.2,0.7,0.4,1.5,0.5,2.4
		c0.2,0.9,0.3,1.5,0.4,2l0.2,1.8l-0.1,1.7c0,0.1-0.1,0.2-0.1,0.5v0.2c0,0.6,0,1.3-0.2,1.9c-0.1,0.6-0.3,1.2-0.6,1.8
		c0.9-0.7,1.9-1.5,3-2.5c1.1-0.9,2.2-2,3.4-3c1.2-1.1,2.3-2.2,3.5-3.4C160.4,14.7,161.5,13.5,162.5,12.4z M133.6,25
		c0.2-0.4,0.5-0.9,0.9-1.3L133.6,25z M148.6,30.2c1.3-1.2,1.7-1.5,1.3-0.9c-0.5,0.7-1.1,1.3-1.9,2c-0.8,0.6-1.6,1.2-2.5,1.7
		c-0.9,0.5-1.8,0.9-2.7,1.2c-0.9,0.3-1.7,0.5-2.4,0.5c-0.6,0-0.8-0.1-0.8-0.1c0.1,0,0.5-0.1,1.3-0.2
		C143.7,33.9,146.2,32.5,148.6,30.2z M148,21.6c0-0.4,0-1-0.1-1.8s-0.2-1.6-0.3-2.4c-0.1-0.8-0.3-1.4-0.5-1.8
		c-0.2-0.5-0.3-0.5-0.4-0.2c-0.1,0.2-0.1,0.3-0.2,0.3l0.3,1.7c0-0.4,0-0.6,0-0.6c0,0,0.1,0.1,0.2,0.4c0.2,0.4,0.3,0.9,0.4,1.5
		c0.1,0.6,0.1,1.2,0.1,1.8c0,0.6-0.1,1.2-0.2,1.8c-0.1,0.6-0.3,1.1-0.4,1.5c-0.2,0.4-0.6,1-1.2,1.8c-0.6,0.8-1.2,1.5-1.8,2.2
		c-0.6,0.7-1.2,1.3-1.6,1.7c-0.4,0.5-0.6,0.7-0.5,0.7c0,0,0.3-0.2,0.7-0.5c0.4-0.3,0.9-0.7,1.4-1.2c0.2-0.2,0.4-0.3,0.5-0.5
		c0.2-0.2,0.3-0.4,0.5-0.6v-0.5c0,0.1,0.1,0.2,0.2,0.2c0.7-0.8,1.3-1.7,1.8-2.7S147.8,22.4,148,21.6z M145.9,6.1
		c0.1-0.2,0.3-0.6,0.6-0.9c0.3-0.4,0.5-0.7,0.8-1c0.3-0.3,0.5-0.5,0.6-0.7c0.1-0.2,0.1-0.3,0.1-0.3c-0.1,0-0.3,0.1-0.5,0.3
		c-0.2,0.2-0.5,0.5-0.7,0.8c-0.3,0.3-0.5,0.7-0.8,1.1c-0.2,0.4-0.4,0.7-0.5,1c-0.1,0.3-0.2,0.8-0.3,1.5s-0.1,1.3-0.1,1.8l0.1,2.1
		l0.2-2.4c0.1-0.6,0.2-1.3,0.3-1.9C145.7,6.7,145.8,6.3,145.9,6.1z M145.4,12.7c0.2-0.2,0.2-0.4,0-0.7c-0.1-0.3-0.2-0.2-0.2,0.2
		c0,0.2,0,0.4,0,0.5C145.2,12.8,145.3,12.8,145.4,12.7z M151.5,6.6c-0.5,0.5-0.9,0.9-1.2,1.2c-0.3,0.3-0.4,0.3-0.3,0.1
		c0.1-0.2,0.3-0.5,0.6-0.9c0.3-0.4,0.6-0.8,1-1.1c0.4-0.4,0.7-0.7,1-1c0.3-0.3,0.4-0.4,0.5-0.4c0,0.1-0.1,0.3-0.4,0.7
		C152.4,5.6,152,6.1,151.5,6.6z"/>
	<path class="st0" d="M190.5,8.8c0,0.2-0.3,0.7-0.9,1.5c-0.6,0.8-1.4,1.7-2.4,2.8c-0.9,1.1-2.1,2.4-3.6,3.8s-3.1,2.9-4.8,4.4
		c-1.7,1.5-3.4,2.8-5.1,4.1c-1.7,1.3-3.1,2.2-4.3,2.8c-0.5,0.2-1.1,0.5-1.7,0.7c-0.7,0.2-1.2,0.3-1.7,0.4c-0.7,0.1-1.3,0.1-1.6-0.1
		c-0.4-0.1-0.8-0.4-1.5-0.8c-1.6-1.2-2.6-2.9-2.8-5.1c-0.3-2.2,0.2-4.6,1.3-7.2c0.9-2,1.9-3.8,3-5.3c1.1-1.6,2.3-3,3.8-4.3
		c1.4-1.3,2.8-2.3,4.1-3.1c1.3-0.7,2.7-1.3,4.1-1.6c1.2-0.3,2.1-0.3,2.9-0.2c0.8,0.2,1.5,0.6,2,1.1c0.8,0.8,1.1,1.7,0.9,2.7
		c-0.2,1.1-0.8,2.2-1.7,3.4c-0.9,1.2-2,2.4-3.4,3.6c-1.4,1.2-2.8,2.4-4.2,3.5c-1.5,1.1-2.9,2.1-4.2,3c-1.4,0.9-2.5,1.6-3.3,2.1
		c-0.8,1.8-1.3,3.2-1.5,4.2c-0.2,1.1-0.1,1.7,0.3,1.9c0.2,0.1,0.6,0.1,1.1,0c0.5-0.1,1.1-0.2,1.8-0.4c0.6-0.2,1.3-0.4,1.9-0.7
		c0.7-0.3,1.2-0.5,1.7-0.8c1.3-0.7,2.6-1.6,4.1-2.7c1.5-1.1,2.9-2.2,4.3-3.4c1.4-1.2,2.8-2.3,4-3.5s2.3-2.2,3.1-3.2l0.2-0.2
		c1.6-1.9,2.7-3,3.2-3.5C190.2,8.5,190.5,8.4,190.5,8.8z M161.2,20.5c0.1-0.4,0.3-0.9,0.6-1.6c0.3-0.6,0.5-1.2,0.8-1.8
		c0.8-1.7,1.8-3.4,3-5.1c1.2-1.7,2.5-3.1,3.8-4.3c0.7-0.7,1.3-1.3,1.9-1.7c0.6-0.4,0.9-0.7,1-0.7c0.2,0,0.4-0.1,0.4-0.4
		c0-0.2-0.2-0.2-0.5-0.1s-0.7,0.3-1.2,0.6s-1,0.7-1.5,1.1c-0.5,0.4-1,0.9-1.5,1.4c-1.1,1.1-1.9,2.1-2.7,3.2
		c-0.7,1.1-1.5,2.4-2.3,3.9c-0.3,0.6-0.6,1.2-0.8,1.8c-0.3,0.6-0.5,1.3-0.8,1.9c-0.2,0.6-0.4,1.2-0.5,1.7c-0.1,0.5-0.2,0.8-0.1,1
		c0,0.1,0.1,0.1,0.2-0.1C161,21.2,161.1,20.9,161.2,20.5z M183,21c0.1,0-0.1,0.3-0.8,0.9c-0.6,0.6-1.5,1.2-2.5,2
		c-1,0.8-2.1,1.6-3.2,2.5c-1.2,0.9-2.2,1.6-3.2,2.3c-1.1,0.7-2.1,1.4-3.2,1.9c-1.1,0.5-2,1-2.9,1.3c-0.9,0.3-1.6,0.5-2.3,0.6
		c-0.6,0.1-1,0-1.2-0.3c-0.1-0.1,0-0.1,0.1-0.2c0.2,0,0.4,0,0.6,0c0.6,0.1,1.5-0.1,2.8-0.6c1.2-0.5,2.6-1.2,4.1-2.1
		c1.5-0.9,3.2-2,4.8-3.2c1.7-1.2,3.3-2.5,4.8-3.8c0.4-0.4,0.9-0.7,1.2-1C182.7,21.1,182.9,21,183,21z M177.7,13.4
		c-1,1.5-2.1,2.8-3.4,3.9c-1.3,1.1-2.4,1.9-3.6,2.6c-1.3,0.8-2.6,1.4-3.9,1.9c1.9-1.1,3.5-2.1,4.8-3.2c1.4-1,2.5-1.9,3.4-2.7
		C176,15.1,176.9,14.2,177.7,13.4z M177.9,5.9c-1.8,0.9-3.7,2.4-5.6,4.5c-1.9,2.1-3.7,4.7-5.3,7.6c0.9-0.6,2-1.3,3.4-2.2
		c1.4-0.9,2.8-1.8,4.1-2.8c1.4-1,2.7-2.1,3.8-3.3c1.2-1.2,2-2.4,2.6-3.7c0.3-0.7,0.2-1.1-0.2-1.1C180.3,4.9,179.3,5.2,177.9,5.9z
		 M170.8,34.7c0.3-0.1,0.5-0.1,0.7,0.1s0,0.2-0.4,0.2C170.5,34.9,170.4,34.9,170.8,34.7z M171.1,14.5c0.7-0.8,1.5-1.6,2.3-2.5
		c0.8-0.8,1.6-1.6,2.3-2.4c0.7-0.7,1.4-1.3,1.9-1.8c0.5-0.5,0.9-0.7,1.1-0.8c0.2,0,0,0.2-0.4,0.7c-0.4,0.5-1.1,1.1-1.8,1.8
		c-1,0.9-1.9,1.7-2.7,2.6c-0.9,0.8-1.6,1.6-2.3,2.4H171.1z"/>
</g>
</svg>
