<svg width="100" height="35" viewBox="0 0 100 35" fill="none" xmlns="http://www.w3.org/2000/svg">
<g clip-path="url(#clip0_1_544)">
<path d="M16 0.4C17.5 0.4 18.8 0.7 20.1 1.2C21.4 1.8 22.5 2.5 23.5 3.5C24.5 4.5 25.2 5.6 25.8 6.9C26.4 8.2 26.6 9.6 26.6 11C26.6 12.5 26.3 13.8 25.8 15.1C25.2 16.4 24.5 17.5 23.5 18.5C22.5 19.5 21.4 20.2 20.1 20.8C18.8 21.4 17.4 21.6 16 21.6H9.3C8.9 21.6 8.7 21.8 8.7 22.2V33.4C8.7 33.9 9 34.2 9.5 34.2H9.8V34.5H0.700001V34.2H1C1.5 34.2 1.8 33.9 1.8 33.4V1.5C1.8 1 1.5 0.7 1 0.7H0.700001V0.4H16ZM17.8 19.6C18.1 19.1 18.4 18.6 18.5 17.9C18.7 17.2 18.8 16.5 18.8 15.8C18.9 15 18.9 14.2 18.9 13.4C18.9 12.6 18.9 11.7 18.9 10.9C18.9 10.1 18.9 9.3 18.9 8.4C18.9 7.6 18.8 6.8 18.8 6C18.7 5.3 18.6 4.6 18.5 3.9C18.3 3.2 18.1 2.7 17.8 2.2C17.6 1.9 17.3 1.6 16.9 1.4C16.5 1.2 16.2 1 15.8 0.9C15.4 0.8 15 0.7 14.6 0.7C14.2 0.7 13.9 0.7 13.5 0.7H10.8H9.8H9.5C8.9 0.7 8.7 1 8.7 1.5V20.6C8.7 21 8.9 21.2 9.3 21.2H13.5C13.8 21.2 14.2 21.2 14.6 21.2C15 21.2 15.4 21.1 15.8 21C16.2 20.9 16.6 20.7 16.9 20.5C17.2 20.3 17.5 20 17.8 19.6Z" fill="white"/>
<path d="M37.7 25.5C37.7 27.3 37.8 29 38 30.4C38.2 31.9 38.6 32.9 39.3 33.6C39.8 34.1 40.5 34.3 41.3 34.3C42.9 34.3 44.4 33.9 45.9 33.2C46.3 33 46.5 32.6 46.5 32.2V32.1V21.9V19C46.5 18.6 46.3 18.4 45.8 18.4H45.5V18C47 17.8 48.4 17.4 49.7 16.7C51 16 52.1 15 52.9 13.8H53.2V21.8V33.6C53.2 34 53.4 34.2 53.8 34.2H54.1V34.5H45.4V34.2H45.7C46.2 34.2 46.4 34 46.4 33.6V33.4C46.4 33.3 46.3 33.2 46.2 33.3C44.7 34.2 43 34.6 41.2 34.6C38.3 34.6 35.9 33.6 33.9 31.6C32.9 30.6 32.2 29.5 31.6 28.2C31.1 26.9 30.8 25.6 30.8 24.2V19C30.8 18.6 30.6 18.4 30.2 18.4H30V18C31.5 17.8 32.9 17.4 34.2 16.7C35.5 16 36.6 15 37.4 13.8H37.7V25.5Z" fill="white"/>
<path d="M73.8 14.7C74.2 15 74.6 15.4 74.8 15.9C75 16.4 75.2 16.9 75.2 17.4C75.2 18.3 74.9 19.2 74.2 19.8C73.5 20.5 72.7 20.8 71.8 20.8C70.9 20.8 70 20.5 69.4 19.8C68.7 19.1 68.4 18.3 68.4 17.4C68.4 16.7 68.6 16 69.1 15.4C69.5 14.8 70.1 14.4 70.8 14.1C70.7 14 70.7 14 70.6 14C70.5 14 70.5 14 70.4 14C69.9 14 69.5 14.2 69 14.4C68.5 14.6 68 14.9 67.5 15.2C67 15.5 66.6 15.8 66.2 16.2C65.8 16.5 65.5 16.8 65.2 17.1C65.1 17.3 64.9 17.5 64.8 17.7C64.7 18 64.6 18.2 64.6 18.5V33.5C64.6 33.9 64.8 34.1 65.3 34.1H65.6V34.4H56.9V34.1H57C57.4 34.1 57.6 33.9 57.6 33.5V19C57.6 18.5 57.4 18.3 57 18.3H56.7V18C58.2 17.9 59.6 17.4 60.9 16.7C62.2 16 63.3 15 64.1 13.9H64.4V17C64.4 17.1 64.4 17.1 64.5 17.1C64.6 17.1 64.6 17.1 64.7 17C64.9 16.8 65.2 16.5 65.6 16.2C66 15.9 66.4 15.5 66.9 15.2C67.3 14.9 67.8 14.6 68.4 14.3C69 14 69.6 13.9 70.2 13.8C71.7 13.7 72.9 14 73.8 14.7Z" fill="white"/>
<path d="M86.1 25.2C85.9 25.2 85.7 25.3 85.7 25.6V27.1C85.7 28.6 85.8 29.9 86 31C86.1 32.1 86.5 32.9 87 33.5C87.2 33.8 87.5 33.9 87.9 34.1C88.2 34.2 88.6 34.3 89 34.3C90.3 34.3 91.5 34.1 92.7 33.6C93.9 33.1 95 32.4 96 31.4L96.2 31.6C95.2 32.6 94.1 33.3 92.9 33.8C91.6 34.3 90.3 34.6 88.9 34.6C87.5 34.6 86.2 34.3 84.9 33.8C83.6 33.3 82.5 32.5 81.5 31.6C80.5 30.6 79.8 29.5 79.3 28.2C78.8 26.9 78.5 25.6 78.5 24.2C78.5 22.8 78.8 21.5 79.3 20.2C79.8 18.9 80.6 17.8 81.5 16.8C83.5 14.8 86 13.8 88.8 13.8C90.2 13.8 91.5 14.1 92.8 14.6C94.1 15.1 95.2 15.9 96.1 16.8C97.1 17.8 97.8 18.9 98.3 20.2C98.8 21.5 99.1 22.8 99.1 24.2V25.2H93.4H88.7H86.1ZM85.7 23.5C85.7 23.7 85.7 23.8 85.7 24C85.7 24.2 85.7 24.3 85.7 24.5C85.7 24.8 85.8 24.9 86.1 24.9H88.3H91.7C92 24.9 92.1 24.8 92.1 24.5V23.2V21C92.1 19.6 92 18.4 91.9 17.3C91.8 16.2 91.4 15.4 90.8 14.9C90.5 14.6 90.2 14.5 89.9 14.3C89.6 14.2 89.2 14.1 88.9 14.1C88.5 14.1 88.2 14.2 87.8 14.3C87.5 14.4 87.2 14.6 86.9 14.9C86.2 15.6 85.9 16.6 85.8 18C85.7 19.4 85.6 21.1 85.7 22.9V23.5Z" fill="white"/>
</g>
<defs>
<clipPath id="clip0_1_544">
<rect width="100" height="35" fill="white"/>
</clipPath>
</defs>
</svg>
